/* XPM */
static char *_56fb173e16242159fbc512c7651ac428LcF4WOTksOaFNu4[] = {
/* columns rows colors chars-per-pixel */
"60 60 227 2 ",
"   c #233E08",
".  c #2B4506",
"X  c #2E490C",
"o  c #2A4404",
"O  c #334C14",
"+  c #364D1B",
"@  c #394F1D",
"#  c #3A521D",
"$  c #385218",
"%  c #37510E",
"&  c #3C5324",
"*  c #3E542A",
"=  c #425D0D",
"-  c #415A16",
";  c #4E6B0D",
":  c #46620E",
">  c #55740B",
",  c #4B6716",
"<  c #5A7719",
"1  c #526F10",
"2  c #41562B",
"3  c #43592C",
"4  c #405722",
"5  c #465B33",
"6  c #485F35",
"7  c #4A5D3C",
"8  c #445736",
"9  c #5A732B",
"0  c #4C623C",
"q  c #4B6236",
"w  c #54683A",
"e  c #5A7331",
"r  c #5F7A32",
"t  c #506829",
"y  c #617B2D",
"u  c #617B33",
"i  c #4B5E44",
"p  c #505D5C",
"a  c #4E6242",
"s  c #516444",
"d  c #53654B",
"f  c #55694B",
"g  c #5A6B4E",
"h  c #586841",
"j  c #556651",
"k  c #576851",
"l  c #5B6C54",
"z  c #5E6D5B",
"x  c #566558",
"c  c #5F715A",
"v  c #5E7155",
"b  c #5F7443",
"n  c #677A4B",
"m  c #606F5E",
"M  c #62735D",
"N  c #687858",
"B  c #5C6769",
"V  c #636E6D",
"C  c #616A60",
"Z  c #647463",
"A  c #677864",
"S  c #697A66",
"D  c #67756A",
"F  c #69766D",
"G  c #6B7B6C",
"H  c #687561",
"J  c #717E6E",
"K  c #636E73",
"L  c #666D79",
"P  c #6B7676",
"I  c #6E7C72",
"U  c #6A757B",
"Y  c #6E7A7C",
"T  c #667274",
"R  c #717E75",
"E  c #727D7C",
"W  c #5F801B",
"Q  c #65841C",
"!  c #749818",
"~  c #718E1E",
"^  c #698526",
"/  c #77923A",
"(  c #73912D",
")  c #768E42",
"_  c #799343",
"`  c #6D8153",
"'  c #778F5A",
"]  c #7A896B",
"[  c #738275",
"{  c #75837A",
"}  c #79867D",
"|  c #7C8B7C",
" . c #7A8A73",
".. c #6F8070",
"X. c #8DB413",
"o. c #83A914",
"O. c #859F3F",
"+. c #8BAB24",
"@. c #97B929",
"#. c #8CA939",
"$. c #99B837",
"%. c #96AF3F",
"&. c #9CC617",
"*. c #9DC70F",
"=. c #AAD40C",
"-. c #A8D409",
";. c #A3CA1D",
":. c #A4CE17",
">. c #A6D116",
",. c #ABD414",
"<. c #A6D01B",
"1. c #ABD41C",
"2. c #AEDA17",
"3. c #B2DB18",
"4. c #A1CC03",
"5. c #B8E21D",
"6. c #9EC422",
"7. c #A3C728",
"8. c #ACD324",
"9. c #AED629",
"0. c #B3DB25",
"q. c #B4DB2C",
"w. c #B8DF27",
"e. c #A7C838",
"r. c #AFD332",
"t. c #B5DC33",
"y. c #BADF36",
"u. c #BADE3B",
"i. c #B2D538",
"p. c #B6E124",
"a. c #BAE328",
"s. c #BBE234",
"d. c #BDE23B",
"f. c #B7E132",
"g. c #C2EA2B",
"h. c #C3EA35",
"j. c #C1E53D",
"k. c #C5E93D",
"l. c #C5EA39",
"z. c #D2FC3E",
"x. c #C8F434",
"c. c #859A59",
"v. c #8BA549",
"b. c #99B549",
"n. c #8EA551",
"m. c #93AB57",
"M. c #9CB555",
"N. c #91AB48",
"B. c #A0BB47",
"V. c #859865",
"C. c #808D7D",
"Z. c #869779",
"A. c #8EA362",
"S. c #93A86A",
"D. c #95A974",
"F. c #9EB178",
"G. c #99B160",
"H. c #A4BC6A",
"J. c #A8C746",
"K. c #B3D541",
"L. c #BADC44",
"P. c #A7C256",
"I. c #BFDB5F",
"U. c #BFE146",
"Y. c #C2E543",
"T. c #C5E944",
"R. c #C9EB4B",
"E. c #C6E948",
"W. c #CAF045",
"Q. c #D1F24C",
"!. c #CBEC53",
"~. c #D4F454",
"^. c #D2F15B",
"/. c #737D83",
"(. c #707885",
"). c #6E7685",
"_. c #758283",
"`. c #798584",
"'. c #7D8A85",
"]. c #7B868A",
"[. c #7E898C",
"{. c #7E8991",
"}. c #7D8693",
"|. c #818F85",
" X c #818C8E",
".X c #85928D",
"XX c #89968D",
"oX c #889785",
"OX c #838D91",
"+X c #838D99",
"@X c #869194",
"#X c #899495",
"$X c #8C9996",
"%X c #87919A",
"&X c #8B959A",
"*X c #8E999B",
"=X c #919C9E",
"-X c #919E96",
";X c #97A688",
":X c #94A19E",
">X c #9CAA99",
",X c #838BA0",
"<X c #8C96A2",
"1X c #8E99A2",
"2X c #8B93A9",
"3X c #939EA2",
"4X c #959EAB",
"5X c #8F98B1",
"6X c #96A1A4",
"7X c #99A4A6",
"8X c #97A2A9",
"9X c #9AA5AA",
"0X c #9EA9AC",
"qX c #9DA6B4",
"wX c #9EAAB1",
"eX c #9CA6BB",
"rX c #A1ACAE",
"tX c #A6B1AF",
"yX c #A2ADB2",
"uX c #A4AEB9",
"iX c #A6B1B3",
"pX c #A9B4B6",
"aX c #A6B2B9",
"sX c #AAB5BB",
"dX c #ADB8BB",
"fX c #B1BCBE",
"gX c #AFBAC0",
/* pixels */
"0 f 0 X $ 2 6 0 f 5 . X X O # * 3 O . O $ & ; ! : . X $ ; ; ; ; : : : : : ; 1 > > = . $ 6 5 q 5 5 5 5 6 6 5 6 # . O 2 5 ",
"9X9X8X.X:X9X0X0XyX3X5 # '.*X*X3X6X'.| XX}.' &.p.&.% V M.p.Y.d.f.q.8.<.>.&.1.2.2.2.*., ].yX9X9X9X9X0X0X6X3X6X6X|.# Z 8X6X",
"#X&X*X9X0X0X0X0X9XyXM I yX3X=X6X9X9XaX0X<X] 6.t.8.e eXH.5.!.^.^.!.T.j.y.q.8.1.>.>.-._ eX0X0X9X9X7X7X&XOXOX X[. Xk 3X3XOX",
"#X*X=X=X3X=X0XyXrXyXM R 9X6X9X0XrX0XiX7X@XE _ W.f.r 8X7XJ.j.Q.~.W.Y.Y.s.s.d.q.1.1.-.) 9XrXrX0X9X7X*XOX X[.].].E d #XOXOX",
"@X#X*X*X7XrXyXiXrXyXM F 9X#XoX7X0X0XiXyX| y.V.J.h.u 9XyX9X;XP.i.J.]  .i.s.d.s.1.1.-./ qXrXrXyX0X=X@XOXOX[.].OX Xs @XOX@X",
"@X#X*X=X7XrXyXyX0XyXv d <XM.T.;X9XrXiXiX#XA.#XS.3.e 8XtXiXaXqX6X*X%X).M.k.d.d.d.8.=./ qXtXiXrX6X*X#X@X X X#X3X X& { @X X",
"@X*X7X9X0X0X7X9X9XwXv z 2XM.e.-XyXaXdXfX*X}.&X0XZ.0 0XrXiXiX6X&X&X$X[.H @.@.@.t.d.3._ qXrXiX7X#X#X@X@XOX=X3X3X'.5  XOXOX",
"&X*X*X=X=X=X*X=X6X8Xz N m.c.'.<X|.| @X9X'.3XpXdXOX0 0XyXrX7X=X=X*X#X#X/.] } N +.t.0./ qXrX7X3X3X*X#X@X*X3X=X3X Xa @X[. X",
"#XOX XOXOX X#X#X#X3XN X.d.K.b.#.@.6.@.z *XrX9X0X|.0 0X7X=X6X6X3X#X#X*X6X8X6X<XI +.-.) qX=X6X7X=X#X*X3X6X3X3X3X.Xa OXOX#X",
"]. X X X XOX X@X@X+X` 1.R.!.R.T.Y.u.a.+.U 7X7X9X`.7 9X7X7X7X3X=X7X0X9X7X6X3X=X&X|.#.b 9X7X7X3X6XrX0X9X6X3X=X3X.Xf 3X&X X",
"/.`.].].[.[.OXOX X+Xn 8.E.!.^.R.Y.Y.s.1.M {.6X9X{ 6 0X0X7X7X7XrXdXpXpXpXyX9X6X7X9X}.f yX7X7X7XrXsXpXpXiX9X7X7X@Xl 6X X].",
"/.].].].[.[.`.`. X+Xn 8.R.d.s.t.t.d.q.w.@.K *X9X`.0 0X9XrX0X7X0XrXrXrXrXyXpXyX*X6X|.f 0X9X9X7X0X0XrXrXrXpX7X3X&Xl 3X[.].",
"].].`.].].[.]. X X+X` 1.Y.y.s.d.y.t.q.0.,.c.<X9X`.0 9X6X=X*X7X7X7X0X0X7XrX0XOX&X9X$Xg 9X=X&X6X7X9X0X9XrX3X X6X=Xl &XOX[.",
"OX X X X X XOX X@X<X' 1.u.q.d.Y.d.u.y.t.=.S.4X7X[.0 3X@X#X7X0X9X9X7X9X0X&X X6X0X7X_.f 3XOX6X0X9X9X9XrX#X@XrXrX@Xs *X@XOX",
"].].Y T /./././.}.Y 4 ;.h.f.h.p.p.a.a.p.7. X@X*Xc @ [.@X@X#X XOX&X3X6X].].9XaXaXaX_.* [. X[._._.OX&X`./.8XwXwXOXO l ].].",
"^ ^ < 1 < < Q Q ~ 1   > o.! ~ ( ~ > ; > 3 7 s 7 X X 7 a 5 5 * @ 2 7 7 8 g s s s 0 * O 5 5 5 - = , t t e t e e # . O 9 Q ",
"W.h.s.w.2.>.2.2.,.,.= i {.@X%X1X%XF `.@X#X#X6X|.* [ 6X$X$X*XP P $X.X#X*Xp _.g o k .X$X$X=X3X$.-.:.>.1.>.:.1.>.X.% P J.g.",
"^.^.!.E.d.q.8.1.:.,.y %X9X@X*X=X6X0XuXiXyX9X0XyXG .X9X6X3X@X_.].pXrXpX].].sXG f 9X9X3X3X7X3X$.p.0.0.q.f.d.s.t.3.< 5XH.g.",
"T.Q.k.L.u.s.j.0.1.=.u &X[.].@X*X*X*X6X=X0XrXrXwXS .X8X*X#X&XOXE rXrX*X/.iXpXS l 8X3X3X7X0X3Xe.h.d.d.Y.E.R.R.T.w.W <X>XJ.",
"F.J.m.(.M.h.d.q.1.=.u +X@X@X@X#X=X=X7X0XrXiXrXyXS .X3X X X@X#X_.9XpX#XY _.OXz k 3X6X7X7X9X&X$.g.E.R.Q.~.~.^.!.h.Q 1XpX9X",
"yX4X3X+XV.k.d.j.q.2.< /.@XOX@X#X#X*X7XiXiXyXrXyXG '.*X`.].OX6XOX=X0X].#X[._.z 2 @X6X6X6X7X3XJ +.9.r.$.#.e.k.k.w.< 1XpXiX",
"9X%XOX%XP #.+.@.u.w.< /.@XOX@X#X7X9X0X0X0X0X9X0XG .X3X@X].[.9X9X#X3X=X*X*X3XG 5 @X3X6X6X7XrXyX{ h e ( H P S.M.) # 6XiXiX",
"D.b.e.G.}.} [.` 7.w.y +X X X@X*X=X=X3X3X=X=X7X9XM } 9X#XOX=X7X7X3X&X9X9X6X9XG j 8X=X3X6X0X0X*X`.V $.g.e.9XsXqXY O 6XyX9X",
"1.g.z.K.oXE.>X,X) 4.e }.[.@X=X@XOX@XOX@X&X&X*X3XZ } =XOX#X&X*X=X6X6X6X9X=X3XM d 3X=X6X9XwXoXu.n.#.z.s.v.4XrX9X[ O 6X7X$X",
"D.c.J.F.:XF.=X3X%Xc.w %X&X*XOX X XOXOX X X@X@X*Xm } %X@X@X#X#X*X9X3X@X9X=X3XM l wX0X6X&X6XXXc.C v.K.A.+X9X7X9XG O =X9X7X",
"4X4X7XyXaXuX9X7X9X}.a &X&XOX].].].[.[. X XOX`.OXl { %X XOXOX@X&X&XOX&X7X=X3X..M uX3X&X6X`.(.(.}.*X&X<X7X3X6X8XZ O 6X0X7X",
"7X0XrXrX0XrXpX6X6X.X0 3XOX].].].].[.].]. X_._.OXz [ #X XOX@X@X XOXOX3X6X3X6XG M yX6X&XU /.=X3X3X=X*X=X&X&X3X9XD O 6X0X0X",
"6X6X7X9X7XrX=XOX6X$Xs &XOX[.`.`.].].].[.[._.[.%Xz { #X X[.].OXOX#X@X6X=X&X9XG c wXOXK [.3X*X*X=X*X=X=X&X3X6X6XG + 3X3X&X",
"9X9X9X9X0X#X#XiXyX'.7 1XOX X X].[.].[. X X XOX3XZ } *X[.P V _.OX@X#X7X*X@X9XJ c +XV &X7X=X=X*X*X3X3X3X6X3X6X9X[ O #X%X=X",
"E R [.#X_.E :X7X0X{ O Z  X@X@X@X'._.].[.OX[.@X X5 E 1X[.[.].[.@X*X3X9X6X3X8XG + V &X3X&X&X&X{ { @X&X#XOXOX#X[.a X I [.`.",
"g f 7 d k M z Z d i X 7 [ I I [ z d D G G G I Z @ 5 Z M M M M M M Z Z Z A A 0 2 2 3 5 d l c l c 7 6 s f v Z Z $ . f Z l ",
"9X6XU &XyX7XyX[.K 9Xj #X0X7X6X*X@X@X#X&X*X&X#X3XZ ..9X:X:X=X$X|.'..X.X.X.X.X#X3XI X z 3X6X6X9X9X#XXX7X9X4X7XyX'.0 7XwX0X",
"@X@XE @XyXrX=XE 0X9Xl $X3X3X&X XOX XOXOXOXOX X@Xz .X9X3X6X&XOX@X@X@X#X@X@X@X X@XE 7 8X3X].@X&X*X3X0X0X0X>X9X9X6XM =X*X3X",
"#X*X].[.rXiX[.].0X0Xl $X6X#X#X*X#X@X@X@X#X@XOX@Xz |.9X&X@X@X&X@X@X@X@X@X@X@XOXOXI 7 &X[.[.@X&X=X=X=X3X-Xm.$XyX6Xc 6X3X#X",
"OXOX&X].rXrX`._.Y /.j #X&X&X=X@X&X&X#X#X#X#XOX@Xz '.3X@X*X*X@X#X#X#X#X#X#X#X X@XI 5 %XOX@X@X#X*X*X:X9XZ.B.oXyX6Xc =X#X[.",
"].@X9XOX3X=X X*XOXOXl @X3X*X*X=X7X3X3X=X#X#XOX#XM '.3X*X*X*X=X7X3X=X=X*X#X#X@X@X{ + E OX X@X#X&X=X8X;XK.I.>X0X6XM =XOX`.",
"`.&X0X9X@X6X6X3X=X3Xl $X3X*X=X6X9X9X9X9X6X3X=X3XZ '.9X&X=X*X7X9X9X9X7X9X3X3X=X3X`.2  XOXOXOX#X7X9X0X9X=X2X4X9X6Xc =X*X*X",
"#X3X6X6X3X*X0X7X3X3Xk '.3XOXOX=X6X6X6X7X9X9X3X6XM G 9X@XOX@X=X3X3X6X7X9X9X9X3X3X} 5 %X[.[.@X*X*X*X&XZ.$.#.V.@X<Xd #X=XOX",
"#X&X*X*X9X3X6X7X3X*X0  X&X@X#X&X*X*X6X0X9X7X3X3Xf [ =XOX#X#X&X&X*X3X0X0X9X6X3X3XG 2 @X X#X=X@X XOXG @.f.s.0.e.V.j #X@X#X",
"@XOX#X3X7X@X*X7X=X3Xc '.@X XOXOX#X=X3X6X6X6X=X3XZ R %X XOXOXOX#X=X3X3X6X6X6X=X3X'.0 &X*X*XOX[. X).O.d.!.!.U.j.1.u OXOXOX",
"OXOX@X@X@XOX6X6X=X3XM `.@X XOXOX@X@XOX3X7X6X=X3XG I &X X XOXOX@XOX X&X6X6X3X=X3X'.w *X#X[.].[.`.V r.Y.Y.!.R.E.a.^ +X X X",
"@X@XOXOXOX#X6X3X=X3Xc `.@X XOXOXOXOXOX3X6X3X=X6XS I &X[.OXOX XOXOXOX*X6X3X3X3X3X'.0 3X X].].].(.M r.Y.L.Y.T.d.8.w OX XOX",
"E E  XOX#X@X3X@X&X6XM '.@X X X[.[.OX#X6X6X6X3X8XS [ *X[. X[.[.[. XOX=X6X6X6X=X3X'.0 *X X[.].`.L n 7.t.y.y.j.s.7.g #XOX].",
"Y U [.%X%X*X6X*X=X8XZ |.&X[.OX}.}.OX%X3X6X6X3X9XG I 9XOXOXOXOXOX#X&X3X6X9X9X8X9X|.7 1X@XOX@X].U ( ;.8.t.l.s.w.8.g &X#X[.",
"E _.`.`.'.|..X@X@X@X7 Z XX| | C.|.oXXX#X@X@X@X@Xf * D D D D G G G [ [ [ { I A S a o d ].[.|.[.P e X.&.;.8.;.6.( @ R `.Y ",
"'..X@Xl M I { .X$X|.+ ! 8.8.;.8.<.8.,.N.].'.'. Xd & [.=X=X*X*X*X=X*X#X#X#X X* s '.| } .XE x [ I {  . . . .C.|.V O # G } ",
"6X9X9X9XpX6X8XdXpXuX .&.f.s.f.q.0.0.5.n.+X#X@X*XG G sXrXrX0X7X9X9X&X#X&XOX*Xz $XyX8X9X7XOXp 6XdXgX*X1X3X3X3X7X3X7 I wX9X",
"6X9X0X9XpX*X3XpX0XuXZ.;.E.R.R.Y.d.d.h.N.}.@X X@XZ G yX6X3X3X9X6X#X[.[.[.`.[.k .X6X*X*X@X&XK Y fX3X X=X=X=X*X=X@Xa @X7X=X",
"7X9XrXrXpX=X7XiXrXsXoX9.!.^.~.~.R.E.g.v.+X#XOX#XZ S aX9X0X0X9X&XOXOXOX].[.OXk @X9X@X&X&X*XOXB *X@X3X6X3X3X=X=X&Xi '.6X6X",
"7X9X9X0XpX7X7XfXpX9X .;.W.k.e.$.i.q.+.F %X#X@X@XZ Z sXrXiXrX3X&X@XOXOX[.].[.d .X*X&X&X@X@X3XE Y 0X6X6X6X6X=X=X&X8 R 6X6X",
"6X7XrXpXsXiX=X6X#X3X} _ N.c.P n 9 w G 3X=X#X#X*XG G aXrXyX=X#X#X@XOX X[.`.].i #X6X@X[.#X3X7X6XT rXyXrX6X7X6X3X3X5 M 3X6X",
"6X0XpXiXpXiX`.*XpXgX} _.<X,XZ.a.e.C (.&X9X7X6X9XR S aXrX7X=X=X#X#X@X X].].[.d '.9X&X&X&X3X7X0XE 9XyXiXyXyXrX0X9Xi '.6X6X",
"0X0X6X0X6X_.*XyXrXyXR [ 6X#X{ 7.z.%.v.P.3X9X3X3XS G sX3X=X6X=X&XOX X X[.].[.d { 9XOXOXOX&X3XOX@XiXiXpXpXyX0X9X*X5 '.3X3X",
"*X7X6X#XY @X7X7X7X9XI { &X@XOX] e.b.C.S.3X7X3X8XZ d K V ].*X6X=X@XOX[.[.].OXd '.&XOX#X#X#X#X@X9XyXpXiXyXyX0X0X@X3  X0X9X",
"6X X/.E &X6X3X6X6X9XD [ @X XOXOX[.#X%X<X7X6X=X3X} d ].*X7X9X0X7X6X6X&X X[.OXk } #X X XOXOXOX*X7X9X0XrXyXrX0X7X3Xf $X0X&X",
"/./.&X=X=X*X3X*X*X9XF I &X XOXOX@XOX X=X7X6X=X3X[ G sX0X9X=X*X*X3X&X&X3X=X6Xl E &X X XOXOX@XOX X@X9XyXyXrX0X9X3Xd *X9X*X",
"_.=X=X=X*X=X*X&X6X9XG [ &X XOX XOXOX@X=X6X3X3X8X[ S wX=X&X@X@X&X#X/.&X#X&X8Xl } &X XOXOXOXOXOXOXOX6XyX0X9X0X0X3Xf $X9XY ",
"6X*X*X*X=X3X3X6X6X9XR } *X[. X[.[. X#X3X6X6X3X6X} S 3XOX@X@X@XOXOX X#X&X&X6Xc } =X[. X[.].[.[. X@X7X0X6X7X0X0X8Xf .XY /.",
"3X3X*XOX*X1X3X*X3X3XZ R 3X XOXOXOX@X*X3X8X8X3X9X{ d <XOX[.`.[.OXOX@X&X6X6X3Xd { 9XOXOXOXOXOXOX@X3X0X9XyXyXyX0X8Xa x }.9X",
"Z A l a c M c M Z c O 5 Z m z z Z Z G G G G G I 0 O a 5 2 & * 7 s f f f g a O 7 G Z Z Z Z Z G G [ [ [ [ { [ } Z O @ Z Z "
};
