/* XPM */
static char *c034ae0722b146c5e8ea21fea99ee027rCaTW0njq0HlLnuA[] = {
/* columns rows colors chars-per-pixel */
"60 60 145 2 ",
"   c None",
".  c #2D1603",
"X  c #2E1804",
"o  c #2F1708",
"O  c #301705",
"+  c #321A05",
"@  c #3A1F07",
"#  c #331D0A",
"$  c #3A1F09",
"%  c #36210C",
"&  c #3D2108",
"*  c #392511",
"=  c #3C2914",
"-  c #3F2E1B",
";  c #44250B",
":  c #48260C",
">  c #4C2A0D",
",  c #522D0F",
"<  c #56300F",
"1  c #402E1B",
"2  c #552F11",
"3  c #573011",
"4  c #5B3312",
"5  c #613715",
"6  c #663917",
"7  c #683B17",
"8  c #6D3E19",
"9  c #473422",
"0  c #4A3726",
"q  c #4A3826",
"w  c #4F3E2C",
"e  c #513F2C",
"r  c #6F401A",
"t  c #73421B",
"y  c #7B461E",
"u  c #7F4A1E",
"i  c #52412F",
"p  c #564535",
"a  c #58463B",
"s  c #5C4C3A",
"d  c #7C4920",
"f  c #5E4E40",
"g  c #695B4B",
"h  c #6D5F51",
"j  c #6F6151",
"k  c #736556",
"l  c #74675A",
"z  c #76695B",
"x  c #7C6E60",
"c  c #7F7264",
"v  c #A75416",
"b  c #A85416",
"n  c #AA5718",
"m  c #AC5A1B",
"M  c #B05E1F",
"N  c #854C21",
"B  c #8B4F22",
"V  c #8C5223",
"C  c #935524",
"Z  c #955824",
"A  c #9A5A26",
"S  c #9E5C28",
"D  c #A25F29",
"F  c #B15F20",
"G  c #A36028",
"H  c #AB652B",
"J  c #AF682C",
"K  c #B56324",
"L  c #B86626",
"P  c #B96927",
"I  c #B0672D",
"U  c #B96728",
"Y  c #B56A2E",
"T  c #BC6D2C",
"R  c #BF702E",
"E  c #BD6E30",
"W  c #BF7130",
"Q  c #C06F2E",
"!  c #C0712F",
"~  c #C06F30",
"^  c #C17130",
"/  c #817467",
"(  c #827668",
")  c #877B6F",
"_  c #887D70",
"`  c #8C8276",
"'  c #8E8379",
"]  c #92877D",
"[  c #948B81",
"{  c #989084",
"}  c #9F978E",
"|  c #9F988E",
" . c #A39C92",
".. c #AFA9A0",
"X. c #AFA8A1",
"o. c #B1ABA2",
"O. c #B1ABA2",
"+. c #B8B4AC",
"@. c #BFB9B4",
"#. c #BDBAB3",
"$. c #C1BBB5",
"%. c #C1BDB5",
"&. c #C5C1BA",
"*. c #CCCAC3",
"=. c #D5D2CD",
"-. c #D4D2CD",
";. c #D8D6D2",
":. c #D9D8D3",
">. c #DAD8D4",
",. c #DCDBD7",
"<. c #E0DEDB",
"1. c #E1E0DC",
"2. c #E5E5E1",
"3. c #E5E5E2",
"4. c #E6E7E4",
"5. c #E5E5E2",
"6. c #EAE8E6",
"7. c #EAEAE7",
"8. c #EBECE9",
"9. c #EFF0ED",
"0. c #F0F0EE",
"q. c #F2F3F1",
"w. c #F2F3F2",
"e. c #F6F5F4",
"r. c #F5F7F6",
"t. c #F4F5F4",
"y. c #F6F8F7",
"u. c #F7F8F6",
"i. c #F7F9F6",
"p. c #F6F9F8",
"a. c #F7F9F8",
"s. c #F7F9F9",
"d. c #F6F9F9",
"f. c #F7FAF9",
"g. c #F6F9FA",
"h. c #F7F9F9",
"j. c #F9FBF9",
"k. c #F8F9FA",
"l. c #F8FAFA",
"z. c #F9FBFA",
"x. c #F8FBFB",
"c. c #FAFBFA",
"v. c #FAFDFC",
"b. c #FBFEFD",
"n. c #F9FBFA",
/* pixels */
"                                                                                                                        ",
"                                                                                                                        ",
"                                                                                                                        ",
"                                                                                                O                       ",
"                                                                                          o . + # . .                   ",
"                                                                                          X s o.%._ * .                 ",
"                                                                                        . 0 =.v.v.i.{ + .               ",
"                                                                                        . l f.f.f.l.4.p . .             ",
"                                                                                        . p :.f.f.f.i.c = * .           ",
"                                                                                        o X p ,.l.f.f.>.=.$.q .         ",
"                                                                . . . . . .               . p 2.l.f.f.l.l.l.c .         ",
"                                                          . . + ; , 4 3 > & + . .       . 1 @.l.f.f.l.f.f.l.( .         ",
"                                                      . . $ 6 C J Y T T Y H V 5 @ . . . * ..l.f.f.t.2.i.l.;.i .         ",
"                                                    . + 4 S T ^ E R R ! ! ! ! T S 5 + . 0 q.l.l.q.} p / ) i +           ",
"                                                  O + t Y ! R T K T R T T T R ! ^ T N & X ' t.7.) # . . . .             ",
"                                                O + t T R R R T T Q R K n T Q U T R W Z ; + a f X .                     ",
"                                                . 3 Y ! R R R R Q Q R T T T T K T R R ! S : . . .                       ",
"                                              . @ Z ! R T P R R R R R R R R R R R R R R ^ Z ; X                         ",
"                                              . 4 T ! R K K R R R R R R R R R R R R R R R ! B @ .                       ",
"                                            . + V ! R R R R R R R R R R R R R R R R R R R R T r .                       ",
"                                            . > Y ! R R R R R R R R R R R R R R R R R R R R ! J > .                     ",
"                                          . + N ^ R R R R R R R R R R R R R R R R R R R R R R ! V + O                   ",
"                                        . . 3 Y ^ R R R R R R R R R R R R R R R R R R R R T K T Y , .                   ",
"                                      O . 2 H P K Q R R R R R R R R R R R R R R R R R R R K b K ^ u X                   ",
"                                    X + 5 J ! U K T T U T R R R T P R R R R R R R R R R T m b m R D @ .                 ",
"                                  . @ t Y ! T Q Q R T m T ! R T K K T R R R R R R R R ! T b b n T I > .                 ",
"                              . X : C E ! R R R R R T T T Q R R T T R R R R R R R R R Q K b b b T T < .                 ",
"                            . + 5 H ! R R R R R R R R R R R R R R R R R R R R R R R R T n b b b T T 4 .                 ",
"                          . & u T ! T T E R R ~ Q R R R R R R R R R R R R R R R R R T F b b b n T T , .                 ",
"                        . : Z R R R T K T R T T T R R R R R R R R R R R R R R R ! T K b b b b M ! J : .                 ",
"                      . > D ! R R R T T T R T K T R R R R R R R R R R R R R R R T m b b b b b T ! Z @                   ",
"                    . & Z ! Q R R R R R R R R R R R R R R R R R R R R R R R R U n v b b v b K ~ ~ 8 .                   ",
"                    X 8 R R R R R R R R R R R R R R R R R R R R R R R R R R K b b b b v n K Q ! H ; .                   ",
"                  X @ S ! T T R R R R R R R R R R R R R R R R R R R R R R K b b b b n m T Q ! T 8 .                     ",
"                  . > Y R K K R R R R R R R R R R R R R R R R R R R R R K n b v n K T T R ! I t + O                     ",
"                  . 4 T R T T R R R R R R T T R R R R R R R R R R R R K b b b F T E ^ ^ Y C 2 + O                       ",
"                  . 4 T R R R R R R R R R K K R R R R R R R R R R R T n v n K T ! R J N 2 @ .                           ",
"                  . 4 T R R R R R R R R R T T R R R R R R R R R R T m v n T ^ T S 8 ; + . .                             ",
"                  . : I ! R R R R R R R R R R R R R R R R R R R T m v n T ^ H 7 @ . .                                   ",
"                  O @ Z ! R R R R R R R R R R R R R R R R R R T F b b U ! H , . O                                       ",
"                    . t W R R R ! ! W ! ! R R R R R R R R R T K b b K Q T 5 .                                           ",
"                    . ; J ! R ! Y N t V Y ! R R R R R R R Q K b v m T ^ V + O                                           ",
"                      X t R R E 8 + X + 3 D ! R R R R R ! T n v n T ! I > .                                             ",
"                      . & Z W y X s o.k # ; D ! R R R ^ T n v b K R ! N +                                               ",
"                        . , d @ q *.b.0.] # 5 T ! T T K n v v n T ! J > .                                               ",
"                          + + = +.l.i.v.=.- > Y T F b b b b v K T W y X                                                 ",
"                          . %  .f.f.l.2.h X t R T n b b b b n T ! G ; .                                                 ",
"                        X + ` t.f.l.7.z . 4 I ! T n b b b b K ^ T 5 .                                                   ",
"              O . . . . . z 8.f.l.8.( X 4 J ! R T K b v b F Q E t + .                                                   ",
"            . = s j g p g 1.l.l.q.` + & A ! R R Q T U K U Q Y t + X                                                     ",
"          . 9 @.9.t.t.7.7.f.l.t.[ # . + > N I R ^ ^ ^ ^ E S 4 + X                                                       ",
"          . x l.f.f.l.l.f.f.t.| % .     . + : 8 N Z Z N 4 @ . O                                                         ",
"          . c l.l.v.7.2.f.l...* .           . . X + + + . .                                                             ",
"          . p 1.8.#.h &.v.l.[ .                                                                                         ",
"            # p s % w 2.l.v.&.% .                                                                                       ",
"            . . . . k i.f.v.*.* .                                                                                       ",
"                  . s <.t.7.' X                                                                                         ",
"                  . + e g p # .                                                                                         ",
"                      . . . .                                                                                           ",
"                                                                                                                        "
};
