/* XPM */
static char *_db6e5f142a145f6d6813bb657cc384cxGpbi8NikR1hmG7f[] = {
/* columns rows colors chars-per-pixel */
"60 60 139 2 ",
"   c #1A1E21",
".  c #1D2225",
"X  c #1F2428",
"o  c #202527",
"O  c #21262A",
"+  c #242A2E",
"@  c #262D31",
"#  c #292E32",
"$  c #242E39",
"%  c #273133",
"&  c #2B3235",
"*  c #26313B",
"=  c #2E3539",
"-  c #2E383B",
";  c #31373B",
":  c #31383D",
">  c #323A3F",
",  c #34393F",
"<  c #353A3F",
"1  c #253444",
"2  c #2A3743",
"3  c #2C3A44",
"4  c #26364A",
"5  c #25384D",
"6  c #2C3C4D",
"7  c #333A40",
"8  c #353A40",
"9  c #353C42",
"0  c #373C42",
"q  c #373E44",
"w  c #383D43",
"e  c #393F44",
"r  c #333E4A",
"t  c #273B51",
"y  c #2A3D52",
"u  c #273F5A",
"i  c #283F5A",
"p  c #374144",
"a  c #384043",
"s  c #3B4045",
"d  c #394547",
"f  c #3A4547",
"g  c #3C4447",
"h  c #34424B",
"j  c #3B4248",
"k  c #3C4348",
"l  c #3B4549",
"z  c #3B4649",
"x  c #3F454A",
"c  c #3D464C",
"v  c #3F464C",
"b  c #3C494B",
"n  c #3F484D",
"m  c #2E4154",
"M  c #2D435C",
"N  c #334353",
"B  c #3A4652",
"V  c #3D4A54",
"C  c #33465B",
"Z  c #35485D",
"A  c #3B4B5B",
"S  c #2C4562",
"D  c #2E4863",
"F  c #2A4669",
"G  c #2F4B6C",
"H  c #344B64",
"J  c #3B4D62",
"K  c #334D6B",
"L  c #384E68",
"P  c #3C5266",
"I  c #37526E",
"U  c #3A536D",
"Y  c #2D4D74",
"T  c #2A4F7D",
"R  c #314E70",
"E  c #2E517D",
"W  c #335276",
"Q  c #3B5572",
"!  c #33547C",
"~  c #385679",
"^  c #35587D",
"/  c #3D597A",
"(  c #40464C",
")  c #40474C",
"_  c #41494C",
"`  c #414A4E",
"'  c #434B4F",
"]  c #424A50",
"[  c #424B51",
"{  c #434C50",
"}  c #444D52",
"|  c #464E54",
" . c #404E5C",
".. c #465054",
"X. c #475054",
"o. c #485155",
"O. c #495156",
"+. c #455458",
"@. c #4C555A",
"#. c #4F585D",
"$. c #51595F",
"%. c #455563",
"&. c #4D5964",
"*. c #43576B",
"=. c #455A6C",
"-. c #4C5B68",
";. c #545D62",
":. c #425770",
">. c #445B74",
",. c #485D70",
"<. c #425C7B",
"1. c #566064",
"2. c #2E5483",
"3. c #2E588D",
"4. c #325683",
"5. c #335885",
"6. c #3A5B83",
"7. c #315788",
"8. c #325A8B",
"9. c #3A5F8D",
"0. c #2E5B94",
"q. c #2E5E9B",
"w. c #315D93",
"e. c #305F99",
"r. c #3A618F",
"t. c #2F609E",
"y. c #376094",
"u. c #386193",
"i. c #32619C",
"p. c #39659B",
"a. c #2E62A4",
"s. c #2D65AC",
"d. c #3163A2",
"f. c #3065A9",
"g. c #2D67B0",
"h. c #405F80",
"j. c #446286",
"k. c #41648E",
"l. c #426897",
/* pixels */
"0 0 w s x j s s s e w w w w 0 8 8 8 8 8 8 e & + % & & & & & & & % % % % & & & = = n a a a s s l l l l s 0 v s f f f s e ",
"0 0 w w x x j s s s e e e w w 0 8 , > > 8 0 + @ & & & & & & & & % % % % & & # # @ ' s 0 0 0 e s f l l s 8 x s s l s p 0 ",
"0 w w = 0 x l s s s s e e w w q 8 8 8 ; 8 8 + # & & & & & & % % % % @ # # # # @ + ] e 7 8 0 0 p s f f 0 > s s s s s e e ",
"0 w e & ; x l l f s s s e e e e w e > > 8 0 O # # % % % % % % @ @ @ @ @ # # # # + ' s > ; > 8 0 q p e , = q 0 s s e e w ",
"e e e & & l f l f s e e e w w w , = ; 0 e 0 O ; & + @ + + + @ @ @ @ @ @ % % & % O w e - = ; > > 8 8 0 ; # 8 0 0 w e e w ",
"e w s = # n l x l q 8 8 > ; & & & & ; 0 e k O = = X + X X + + + @ + + @ % & = = O = q > ; ; > > , 8 w ; O = 8 0 0 w e w ",
"w e ( 0 # x > = = & # + O O O + # # & ; e v O # w % + + X + + + + + + + @ & & @ X @ @ + + # = = & & ; & O = ; = = = ; > ",
"= & & & @ @ O O O O O O O O . X O O + # @ # + + @ + O X X O + O O O O O O O . . . o . X O . X O X . . .   X X . . O @ & ",
"] ] ] ' } ' x x ' } } X.X.{ % x o.n ] ' s s s s x v x ' ' ] | x X s } ' x s l n ' } } ' ' ' b g 0 , & # + + + + # ' ] ] ",
"b n n n ' ' n s e q e e @.$.x o.{ p l l l l l x x n x n n n | | + ' #.{ { n n n n n n v ( ' ' v k 0 ; & # # # = e } x l ",
"l l l l l s 0 > , , , 8 e o.' } l p p l l l x b n n n n ' ' } ] @ x n l l l l l l p s 0 0 0 8 8 0 q 0 0 = # @ # ; k f f ",
"l l l l f p 0 > > > , 8 8 ( x v l p p s l l l n n n n ' ] } } ' & x n l l l l l l f j q 0 p 0 0 0 q p f p > = # # , s f ",
"l l l f p 0 0 > > , 8 8 8 ( j s q 0 j p p l x v n n x ' } ] e = # x f l l l f l l f l p p p 0 0 0 q s s f q p ; @ ; p f ",
"f l l p 0 0 0 > > , 8 8 8 x > > > = > s p p l n n n n { | ; % > % 0 s f l f f f f f l s s s p q q p p p p l p > + ; s l ",
"f f p > > > > > > > 8 8 0 8 # = = = - 7 p 0 s x x v ' } x # > p % = x l l f f l l l f s s p q q p p p p p p s > + > e l ",
"p p p > > > 0 > & # # = ; + O r H ! 8.8.8.! L B s s n ] = = 0 l @ & x n V P ^ 8.w.8.5.I B e q 0 s s p p q p p > + 7 s 0 ",
"+ @ = ; > 0 > @ + O O O O $ F q.s.s.s.s.s.s.s.i.G 2 = > @ > > = . # = K i.s.s.s.s.s.s.s.d.^ r & & > > > = # + O . @ # + ",
"& = > > % + O O X O # # 1 3.s.s.s.s.s.s.s.s.s.s.s.3.N > , 0 0 ; & 3 2.s.s.s.s.s.s.s.s.s.s.s.0.t . O O .   = = # # & & = ",
"s ' } @.$.@.@.#.] x ;.,.i.s.a.8.~ L H C L j.u.a.s.s.d.P n } o.o.-.p.s.s.a.y.6.S H H H R 2.t.s.a.S > > & + $.#.l l x k j ",
"> , 8 0 e e s x ] x -.i.a.5.Z q e 0 8 ; a @.x A ! a.s.e.N s > 7 8.s.a.4.Z v x & , & # # # 3 Y a.d.Z ; ; > @.' l l s 0 > ",
"; > , , 8 8 8 8 j = 8.d.U s 0 q s s 0 = 0 { s p q H e.s.8.0 = W s.a.H 7 , e s = > @ @ @ @ # @ Z i.w.3 = > X.n l l j q > ",
"; ; > , 8 8 7 8 , t i.:.j 8 0 p s s 7 & = n s 0 7 > N q.s.M 6 a.a.C = ; 8 0 e = ; @ @ @ # & @ > N e.K = ; x x l j x 0 ; ",
"; ; , 8 8 8 7 8 > 2.<.} q 7 q s s s > # = x 0 > > = & M a.4.W s.K = = ; 8 8 , & & @ @ @ & @ # - = C 8.3 & 0 l l x s , > ",
"> > , , 8 8 8 8 N 5.V x 0 0 e s s s ; # # 0 > = = & & & 2.a.d.w.7 = = > 8 8 = + & # @ @ % @ > = = = ! m # ; s l x 0 8 > ",
"> , , , , 8 8 w J M e e > 0 s s j V K E M > ; = & & % # M s.s.K > > > > 0 , # 6 4.K 6 % + = = & = = M M O & s e e 0 8 > ",
"> , , , , 8 8 j J $ e k 0 q l n ' V - G a.U > ; - = = = r i.a.C q j v j k > y t.! 2 & @ @ = & & > > * i X = j w 8 , > ; ",
"& & & & & & & ; B + w x & & & = > = + = 0.d.8.8.8.8.8.8.w.a.s.y.y.y.y.y.y.8.q.q.* O X . O + @ @ = + X 2 . + @ + + + + + ",
"& & # + . O @ @ - + > & + + + + + + + & 0.d.8.2.2.2.8.7.8.i.d.u.u.r.9.9.8.r.d.q.3 & & & + X O O + + % > @ # # O . O + @ ",
"n } } ] + ; e = - - > 0 0 p s s j v B ~ a.L a # x #.#.@.@.>.h.@.@.@.o.o.o.@.=.i.k.-.&.@.@.x ' o.} { ' } o.o.o.j # > j x ",
"8 0 0 } , q > % & & = = = = = = = r L E i @ ; # } +.n n f B A s s s s s s 0 0 C 6.~ V s | 0 | o.s 0 8 8 0 e j s ; = > , ",
"8 8 , s , q & & & = = = = = & & & = & @ + + # @ ' n p s q 0 0 0 0 0 0 8 > 8 > , , 0 , 0 ' ; } x 8 0 , > 8 8 8 w 0 8 > > ",
"8 8 8 8 > 0 = & = = & & & & & % # @ @ + + + O O 0 q 0 0 , 0 8 > = = ; ; > > > > > > > > j ; ' x , > > , 8 8 , , 8 8 > > ",
"8 8 8 8 = > = & = = - m m 6 % 2 y y 2 + + * 6 4 @ % = N C C Z C h 7 N C r N C N 7 > h h B N J J Z h > , , , , , 8 8 8 8 ",
"0 8 8 8 # & = = = & m a.s.0.= Y s.s.Y + + Y s.a.C & - w.s.q.i.s.8.N t.a.Z 8.s.a.H > ^ K 4.s.a.t.i.H > , , 8 , , 8 8 8 8 ",
"w w 0 0 & + & = = & m s.s.a.m 3.s.s.Y + * q.s.a.6.( V i.s.H 6 a.t.C a.s.C 8.d.s.7.> ! K 4.g.4.r h 0 > , , , , , 8 0 0 0 ",
"s s s e @ O # & = & m s.s.d.! e.a.s.Y + M s.q.i w.B v i.s./ L a.t.C t.s.C 7.! a.a.h ! K 4.s.4.N N > ; , , , > , 0 w 0 0 ",
"8 e s s + X # & & & m s.a.4.a.0.3.s.Y + E s.7.1 0.C 7 e.s.d.s.s.0.N a.s.C 8.H 0.s.G ! G 2.s.s.d.e.r ; ; ; ; = > 8 0 w , ",
"+ + + + . . O . . . 1 a.q.u a.Y T g.Y * q.s.a.q.s.Y # 0.s.S 3.s.i $ q.a.4 2.5 F s.3.E S 2.s.2.i t @ + + + O O + + @ @ + ",
"j j j x x ' ( ( ' ' P s.a.A w.P 8.s.6.U s.d./ U 6.w.N e.s.A Q s.7.A d.a.t 2.y 4 a.a.i.K 4.s.! + & ] ' v x s s l x x x x ",
"' ' } X.o.@.@.o.o.o.=.f.d.%.U -.l.s.6.9.s.w.' (  .i.>.i.s.*.*.s.d.:.d.s.Z 8.M = 3.s.s.K 4.s.a.0.i.>.' n b n n n ' ' ' n ",
"p p p p p p f f s l B Q U +.j o.*.K A L U J v ( ] *.A H <. .V Q U A >.Q r J 3 & 6 D S 4 y M S D Q A 0 f f f l l l f s p ",
"p p p p p p p q q s l l l ' s o.x ; > s s s n ' ' ' = ' o.{ ' b l l ' } = , & & & % @ @ + O O + 0 x p f f f l l l f s p ",
"s s s p p 0 0 0 0 q s l l n 0 } s = > 0 p s x ' ' v = o.} { ' n l p l n = - & & & # @ @ @ O X O = 0 > 0 p f f p f s p p ",
"s s s p 0 8 0 0 0 q p f l n > n s = ; > , 0 s v ( x = } { l l l l p s 0 & & % @ @ @ @ @ + O X O & > = = 0 x f f f s p p ",
"s s s p > > 0 8 0 q p f f x = s e ; ; > > 0 0 s x x = 0 n l l l f p p = O @ @ @ @ @ @ + + O O O @ = & @ @ a f f f s p p ",
"s s p p 0 s 0 0 0 q s f f s # > w ; = > 8 0 0 0 s 0 = = b l l f p 0 > & O = # @ + + + + + O O O + = & @ + + + = f s p p ",
"p p p p p p q e s s s s 0 & + = x e > > 0 0 0 0 0 0 = > s 0 > > > ; 0 = + 0 & @ @ + + + X O + + O & & & # + + + > p p p ",
"= = & = = = = = = = ; 0 & O . # w & @ @ @ @ @ @ + @ + # # @ + + @ @ & @ O q @ @ + + O O X . X O . + + @ + O + O + = = & ",
"@ + + @ @ @ + . . O + + O .   O O O O O O + + O O O O X + @ # & # + + + O o O O O O O + . O + + O + @ @ @ @ % & # & & & ",
"p 0 a l X.$.$.= , #.X.x s 0 = & = > 8 0 x ' ' ' ' o.o.> s ;.;.#.X.{ v x l p l n ' ' ' x + o.o.] ' ' ' ' ' n x x x x x s ",
"p p s l x } ;.x ' 1.n l s j k x j s e k ( ( x k k x @.a s #.x s s s l l l b l l l l l j ; o.s > s l l l l f 0 > ; - 8 0 ",
"p p f l l b @.j x #.l l s 0 0 w w 0 7 8 0 0 e w 8 , ' 0 x #.8 0 e s l l l l l l l f p 0 & | 0 > 0 f l s p p 0 > > > > 0 ",
"0 p s f l l } 0 x @.l l p 0 > ; > > > - ; 8 0 w w 8 ' p ' @., 8 q p l l l l l l l f q > + x > > > 0 0 q 0 0 0 8 8 > > , ",
"0 , 0 s l l n , 0 X.l f 0 > > > 0 0 = = = ; , 8 w 0 k 0 s ] ; 8 q p l l l l l l l s 0 = + 8 > > ; - > > 7 8 8 8 > > > , ",
"0 8 8 p l l f = > ' f 0 > 7 7 0 0 = = = = ; > 8 w e s , , s ; 8 0 p l l l l l x j 0 8 & O = = ; = = = - ; > > > ; ; > 0 ",
"8 8 0 s l x x & & } 0 > > 7 > @ + # & = = > 8 0 e s k 0 ; 8 = 8 8 p f l l l l s 0 8 8 & . + & & & = = = - = = ; ; > > 8 ",
"8 8 e j l l v = @ { > = - > @ + # # # = ; 8 0 0 s q q > # ; = > 8 q s j j s e 0 0 8 8 & . # ; & & & & & = = = ; > ; ; ; ",
"+ + + + + + O O O = + + @ + . + @ @ # # # # + O O O O .   O + + + # # # & & & # # @ + O   X & # + O O + + + # & # + + + ",
"; ; = . O , > > , 8 , , , > , > 0 0 > > > > + # # @ # @ + @ @ # # # @ + # & # + . & > , > , 0 0 0 0 0 & O ; 0 0 0 ; ; = ",
"s s s > k #.' x x k k k j k x ( ' ' v x x v , 0 > = = = = = = = = = = = = ; ; ; = o.| ' ' ' ' { { { { 0 > #.{ n n v x s "
};
