/* XPM */
static char *cbfdec52c99d44d699251b8bcb53ba58ZeAlhfoqp7cGzJXU[] = {
/* columns rows colors chars-per-pixel */
"60 60 192 2 ",
"   c #070000",
".  c #0C0000",
"X  c #0C0800",
"o  c #130300",
"O  c #190602",
"+  c #150A04",
"@  c #1B0A06",
"#  c #1D0D09",
"$  c #170C0A",
"%  c #171008",
"&  c #1D120C",
"*  c #1C180F",
"=  c #1F1310",
"-  c #1D1B12",
";  c #220E03",
":  c #280B00",
">  c #210E0A",
",  c #2A1003",
"<  c #23120E",
"1  c #251511",
"2  c #291613",
"3  c #251A14",
"4  c #2B1A15",
"5  c #2C1D19",
"6  c #311E1A",
"7  c #341707",
"8  c #242017",
"9  c #262119",
"0  c #2D221C",
"q  c #33221E",
"w  c #38251F",
"e  c #2D2920",
"r  c #2A2122",
"t  c #352521",
"y  c #392622",
"u  c #352A24",
"i  c #3B2A25",
"p  c #3D2D29",
"a  c #342A28",
"s  c #3D322C",
"d  c #3F3B32",
"f  c #432513",
"g  c #4B2711",
"h  c #4A2B19",
"j  c #51321E",
"k  c #412E2A",
"l  c #43322E",
"z  c #4D3221",
"x  c #5B3823",
"c  c #453531",
"v  c #493632",
"b  c #453A34",
"n  c #4B3A36",
"m  c #4D3D39",
"M  c #513E3A",
"N  c #543C32",
"B  c #4D413B",
"V  c #53423D",
"C  c #5F4232",
"Z  c #61422E",
"A  c #6A4B36",
"S  c #724D33",
"D  c #77513A",
"F  c #564541",
"G  c #594642",
"H  c #564A44",
"J  c #5B4A46",
"K  c #5E4D49",
"L  c #564E4C",
"P  c #5E524C",
"I  c #614E44",
"U  c #614E4A",
"Y  c #684D42",
"T  c #635347",
"R  c #6D5344",
"E  c #63524E",
"W  c #6C554C",
"Q  c #655551",
"!  c #695652",
"~  c #655953",
"^  c #6B5A55",
"/  c #6D5D59",
"(  c #705D57",
")  c #715E5A",
"_  c #6E615B",
"`  c #7E6352",
"'  c #74625E",
"]  c #7B645C",
"[  c #7B6B5E",
"{  c #74685C",
"}  c #6E6461",
"|  c #756561",
" . c #796662",
".. c #756963",
"X. c #7B6A66",
"o. c #776C68",
"O. c #7D6D69",
"+. c #77706A",
"@. c #7E716B",
"#. c #86634B",
"$. c #8D684E",
"%. c #8A6751",
"&. c #876A58",
"*. c #8D6E59",
"=. c #8F735E",
"-. c #97745E",
";. c #816766",
":. c #816967",
">. c #816E6A",
",. c #83726E",
"<. c #89736F",
"1. c #8A786E",
"2. c #8D7362",
"3. c #937663",
"4. c #9C7F6F",
"5. c #857571",
"6. c #897672",
"7. c #867974",
"8. c #8B7A75",
"9. c #8D7D79",
"0. c #877C7A",
"q. c #917977",
"w. c #917E7A",
"e. c #A27E66",
"r. c #9D806E",
"t. c #8D827C",
"y. c #938074",
"u. c #93827D",
"i. c #9C8271",
"p. c #A68977",
"a. c #AA8E7E",
"s. c #B9947A",
"d. c #8D8381",
"f. c #958581",
"g. c #998783",
"h. c #968A85",
"j. c #9B8A86",
"k. c #9D8D89",
"l. c #968C8B",
"z. c #9E918B",
"x. c #A18786",
"c. c #A28C84",
"v. c #A18E8A",
"b. c #A98D8C",
"n. c #AA9284",
"m. c #A3928D",
"M. c #AA938F",
"N. c #B09687",
"B. c #B69A8E",
"V. c #A69591",
"C. c #A99692",
"Z. c #A59A94",
"A. c #AB9A96",
"S. c #AE9D99",
"D. c #B19E9B",
"F. c #AEA29D",
"G. c #B5A39F",
"H. c #B3A29D",
"J. c #B5A5A1",
"K. c #B9A6A2",
"L. c #B5A9A3",
"P. c #BDAAA6",
"I. c #BBAAA5",
"U. c #B6ADA8",
"Y. c #BDADA9",
"T. c #BEB2AC",
"R. c #BFB7B5",
"E. c #C4ABA4",
"W. c #C1AEAA",
"Q. c #C3B2AD",
"!. c #D4BAAB",
"~. c #C6B5B1",
"^. c #C8B6B2",
"/. c #CBB8B4",
"(. c #CABAB5",
"). c #CDBDB9",
"_. c #C3BAB3",
"`. c #D1BFBB",
"'. c #D2BEB5",
"]. c #CFC3BD",
"[. c #D4C2BE",
"{. c #D6C5C0",
"}. c #D9C6C2",
"|. c #DCCAC6",
" X c #DFCDC9",
".X c #E0CECA",
"XX c #E3D2CE",
"oX c #E5D5D0",
"OX c #E9D7D3",
"+X c #EDDED9",
"@X c #F0DEDA",
"#X c #F2E3DE",
/* pixels */
"h.J.o.m 1 O.9.,.o.8.6. .<.u.Q < M D.C.g.v.g.D.f.u.A.g.V.x.w.l @ X.o.Q # V D.u.j.g.m.g.D.~ o k 5 8 - 3 0 - - e s b b b b ",
"F.h.| c + c ~ | |  .) E E J p o ! >.w.x.C.A.A.v.A.D.g.V.v.w.n 4 M n l 5 | W.A.S.A.V.m.H.J . > $ u 9 * * 9 X . % + + + + ",
"m 1 i < o # 5 t y q q t q 2 > @ u p U ) Q ' ) X.) ' ^ ' ' U 6 O o o . > F / E Q ^ J G Q u u 9.I.Z.Z.Z.J.Z.u 5 B ^ Q E K ",
"l t B s n l o o o o @ > > O @ < < 2 O o . o . o o @ O . O o o . v G k l p @ O o . 4 4 o O 6.G.>.' | K ~ ' t I.@X}.[.(.Q.",
").].L.m.V.@.l ' u.m.A.D.G.I.I.I.k.8.< u E ' >.u.8.8.~ i  .9.m.V.`.oX(.~.G.g.V.g.g.l 5 O.<.,.^ K G X.! | ^ k ^.u. . . . .",
"m P n P ~ u l Q.S.J.D.j.6.>.^ F J J q H.XXL.g.k.u.9.K 0 m.A.m.f.<.8. .>.6.8.v.w.6.G k 6.) ^ ' ' <.6.' w.E @ q.:. . .;.:.",
"' o./ ..K . B I.w.g.j.g.g.j.g.9._ q @ 7.@.~ P ../ ~ s 1 Y.h./ ~ | ~ K E Q Q ~ J m 6 5 H.9.U ' u.,.'  .9.E o i 6.X.:.:.:.",
"E E ~ P v . @.J.v.m.m.m.v.v.v.m.Z.u 4 @.H .._ ~ _ ~ s 3 (.t.~ 7.O.)  .,. ./ ) ' J q o D.S.8.8. .o.@.u.) ! v . F ,.>.>.>.",
"o.Q J B 4 & ~ (.k.D.A.C.J.m.C.j.m.@.. | @./ ~ O...E m 3 z.7.7.@.| g.' <.5.8.,. .E 5 . D.V.8.' 5.,.@.@...V u 3 q ~ ~ ^ ^ ",
"p u t q < + u E E E J V U c V V B p o 4 H _ V s 5 < & . _ ~ / ^ Q K ! Q U V l p c q O v t m J F B b B H K m 1 + < 1 3 4 ",
"3 5 q t i s u q > O 5 2 t @ < 5 4 # q + < . . @ u q 5 & i 3 < + # . q 2 t u l V v k n l < 2 O . % * 3 + + + . + u q 0 0 ",
"H.L.L.Y.(.[.~.S.u l 9.w.S.A.G.G.v.z.C.Z.8.4 f.Q.Q.Y.I.J.S.m.g.9.l ' K.K.).`.Q.~.D.D.J.' < F ' Z.L.Z.t.u u P 7.T.F.F.A.V.",
",.O...o.@.,.o.' v F A.X.X. .' U o.,.| | M c u.w.E K E ' ! ) ) Q 4 m.A.g.g.g.X.) J J K V n [.S.u.o.o.,.v ' t.| ' ' ' ) / ",
"o...o.O.O.o.o.,.l M I.^ E '  .^ ) E ' ^ 2 ! E G ^ Q ! ~ U E E J 6 v.o.J V ! E E / ' ) E < >.J U ^ Q ~ < | S.u.6.j.j.j.x.",
"| ..o.o.o.o.O.@.v V }.<. .>.5.<.q.X.g.A.v 6.X.6.:.X.:. .X. . . .t U ) ' ' | ' / ^ J V J t ' ~  .! ) >.4 :.E.C.M.b.b.b.b.",
"o.@.o./ ~ / ~ P 2 y XXC.m.m.m.C.m.A.g.D.k ) w.X. .X.<. .6. .>.5.m @ V G M l l k 5 u p < @ ^ 8.O.<.<.6.> ' K.C.V.x.x.b.v.",
"M H n t J l y l @ q 5.S.V.C.V.C.G.v.C.A.V 2 ! o.X.6. .8. .5.w.8.M @ 6 n n n k n k m n 6 < / | <.w.6.' y y  .u.m.m.A.V.j.",
"t 2 q 4 4 o < 1 2 2 J O.8.g.8.O.K  .^ / G < 2 p l m n Q G E n M v @ > # > u p l J m V 6 O c M l u p k @ > n m V ~ Q V c ",
"# . < q 6 4 p > < o @ o o > @ 1 # & # 4 2 4 c c < q q o < # @ # . @ n l 5 5 # o . . O o . q V q p l m p y k 5 > . o o @ ",
"M U C.Q.[. X@X(.Y.A.g.X.~ m 5 t g.m.J.Q.L.Q.).J.I.k.K 4 k.g.9.0 6.H.|.|.).).(.Q.C.5.<./ k 9.(.A.A.S.K.I.Q.Q.K.H.5 Q g.H.",
"5 f. XI.A.g.g.8.C.k.u.f.m.| q t k.L.k.' | ^ J ..~ ^ q Q oX(.k.# `.~.A.m.V.g.<./ ' o.>.>.p ' 8.E E U K ~ ' ' | ' > O.^.{.",
". w.`.g.j.f.u.f.^ Q G F ^ n 5 / u n / ..O...~ _ Q / @ ~ | K c 4 F.A.u.v.G.m.f.6./ | U F 2 n ' ~ / / U E J m M v . ! k.8.",
"O k.[.k.A.A.C.v.D.S.u.X.' y q V.9.s n B 3 e p 5 5 1 X P ^ _ u 3 m.K.k.k.m.u.v.C.A.A.v.8.,.p p y n G n V M l n k < ~ 6./ ",
". 9.{.C.k.g.m.v.g.m.v.C.m.n @ o.7.0 .   X % . % 0 . 3   + 5 % X 9.H.m.C.J.C.C.v.m.j.m.f.Y.q 2 5 n U F K J V E F 1 E >.) ",
"> G j.v.V.H.k.A.A.C.j.u.8.< 2 Q _ u P l.Z.F.L.T._.L.U.F.0...P o u J ~  .9.9.8.j.D.u.A.G.A.>.4 # m J M V ! J c J c < 6 n ",
"o q J J E | ' 6.>.,.<.' V @ n O.b u ..Z.z.l.k.Z.f.z.h.t.7.+.~ 4 q M K E ^ E K ) 6.<.' | <.Q 5 # G U V n V M m E V < # u ",
"@ 6 F J K U m m G M V c q 5 K K 3 < F ~ V B F P H P m Q / H l + @ 6 u p l l n U u ) Q m K J k O k M J J J F V V E q o o ",
"o o O # < 4 2 < # < @ @ @ O 1 o @ . < & + 1 1 < 1 & . 5 X . + @ @ 5 p k y 1 o . @ o o . . o O . . . o . . O 4 4 . @ @ @ ",
"K.J.I.W.A.9.Q q M O. .>.8.5.8.k.j.g.A.Z.A.I.S.m.z.k.f...< v 7.z.[.^.W.G.C.v.g.w./ . J >.8.9.9.v.g.w.<./ m u 4 o M 8.I.~.",
"w.<. .o.) ' / y f.I.w.5.8. .Q O.O.7.g.7.,.9.<.,.<.u.g.E p Q.oX}.g.O.^ E U ) >.O.V q [.|.Q.(.K.J.A.H.Y.(.Q.V.,.) ).Q.^.}.",
"U E E / Q E V . O.g.o.<.8.g.u.u.k.k.j.X.' X. .<.| X.! > 6 Q.<.E ~ K ! ' ^ ~ E n @ n (.X.V U U V J K J U ! V l V Q.6.) O.",
",.5.,.6.O.>.' O  .m.C.G.w.V.D.g.C.k.u.o.X.<.' X.o.>.U o l (.! 6.8.o.O.,.o.O.6. .O n g.^ >.' ) ' ~ ' ~ / ' m t F 9.X.6.9.",
"8.! X.X.^ 6.( o U C.D.m.j.m.v.j.u.f.o.8.| X.X.6.<.( n . J |.Z.k.o.5.' ..@.o.O./ o m 9.o.,.X.>.o.<. .<.o.E u.l J j.8.>.<.",
">.' 6.6. .>.U O p W.j.u.K.u.j.C.O.o.~ O. .<.) J v l l < ~ Q.j.t.5.O.7.@.O.5._ V + 4 E ,.,.O.8.u.,.,.<.8.u.f.M 2 <.<.<.6.",
"E E E J G V u o . G n l J U ^ v H H V V u p 5 > O o O . 4 H H F ~ b P F n J l s 1 @ u E Q ~ / E  .5.' ) ' E J 2 J ! ) ^ ",
"< 2 . . 2 q y y F t J l q < . < $ . . o . O > 6 v n G U F V n 3   + & $ < & + 0 4 5 # . O < u 4 # q < 2 4 5 q # o > 2 < ",
"k.k.E ~ v.V.S.Y.^.k.I.H.C.p y [.5.c F | 8.v.m.A.m.A.D.G.m.h.9.B 1 z.h.f.L.A.J.T.A.A.E o t < q 5 v M M U J ! # 1 Q ^ ' ' ",
",.o.u n 5.| ^ ' _ ^ / @.| + Q T._ u ^ 7.8.6.>.<.>.:. .' ^ ..| s 0 ].Z.| @.~ _ H o.K 4 J `.(.(.Q.G.S.D.A.g.j.p g.j.u.8.u.",
"/ Q 1 m 9.o.| ..o...| ' E u k.7.p 3 ,.8.X. . .:.' ' >.<.,.,.~ l 0 u.O.~ / ~ @._ ,.c @ k.{.K.8./ Q U E V M u . m.6./ J E ",
"o.~ $ s ..P Q ~ ~ P Q B E 3 V O.v 0 8.,.X.6.8.X.8. .X.^ Q E n c 3 u b ~ E B H P V u t {.A.v.v.V.v.f.g.9.A.J o A.A.6.' X.",
"s 3 o p 0 t l 5 5 1 3 3 % & n +.q + J J E ^ ! ^ J n M l k u & o   + & + o + + . . . ,.m.k.m.m.g.V.j.A.A.k.J . A.k.5.| o.",
"@ 0 < + $ . & . # 0 u & + $ 1 & < & . . 1 . > @ > o O . . u K ..Z.L.T.T.Y.L.F.z.8.E @.S.A.V.C.D.Z.h.j.u.' c # f.V.g.u.f.",
"T.L.H.H.V.v l ~ A.S.J.T.H.h.o.' u + K / ' O.8. . . . ./ c 7.V.H.F.F.Z.V.m.z.g.f.8.B q 7.u.u.u.j.| E m m u t # l | ' Q F ",
" .,.O./ ! ' g.J.,.Q K /  .' X.9.B E +X+X[.|.(.W.~.K.A.u.n @.o.~ 5.o...+.9.f.k.V.m.q . 3 O O # O . 1 o @ # 1 . . . o o . ",
"V E '  .k  .' n J ~ ' ^ ! E n q . 0.A.u.v./ ^  .^ E U V # _ 7.5...| o.9.j.z.k.k.9.< V Q V Q ~ p t j.z.z.z.j.9.h.5.9.O.P ",
"6.Q F E > <.u. .^ ~ Q E ! ) X.5.q _ 9./ <. . .6.>.6.6.E O u i t c s s b m B n l u . 5.g.9.g.O.5 u k.m.z.Z.Z.f.A.m.V.g.,.",
"i M M q O A.G.' 8.X.:.w.w.X.X.u.~ 5 ,.| ! >. .) ! )  .M O @ . . X + o . o @ @ o o o J Q E  .E 5 u J P ~ _ 5./ ' ..| / P ",
"p l c 4 4 6.6.'  .X.O.' '  .| / m < u U K k G v V n l < 2 V / ,.t.k.k.9.@...P c 4 V n H n V 6 . . . & 0 $ u 0 t = & + o ",
". . . . $ o + 0 = $ 3 & 3 u 1 1 o o o o o o o . . o . n Y.[.#X|.).V.| O.~ ~ ,.p X.OX|.Q.Q.S.I.G.C.6.E ~ n % & r L ~ | o.",
"u B B n Q o.F = p t p p 5 . $ p m J / X.<.6.6.8.j.K u | u.>.,.5. .6.>.8.<.g.V.p M j.>./ ' ! O.<.M.K.H.m./ & l.R.0.d.h.h.",
").~.J.Z.h.O.K c ).Y.Y.Y.h.p | F.u.k.H.I.J.D.S.A.G.V F D.j.u.5.g.g.m.m.J.V.f.5.5 p ' U E | Q )  .E E V J J o Y.Z./ ~ P J ",
"0./ Q / P b b H h.9.8.j.7.# 5.(.' O.8.u.g.j.v.m.u.> G D.g.C.v.m.S.m.g.m.9. .E @ v | ) | 6.X.o. . .| ^ ^ V @ '.H.m.j.y.1.",
"V.j.f.0.9.j./ 1 f.m.g.g.o.o 7.~.C.V.V.m.m.v.j.g.S.1 ) A.v.m.C.m.m.V.u. ./  .U o ,.v.u.O.,.5.8.5.@.o.X.W ; , E.!.a.n.n.n.",
"j.V.A.m.Z.Y.O.. u Q / | J < f.(.g.g.k.m.A.A.V.m.g.@ ! A.D.g.v.m.V.j.8.X.) Q l o j.D.m.<.X.>.O...0.} _ I O z p.a.3.r.a.N.",
"A.m.S.V.9.7.~ 1 < c c n t @ E o.f.f.f.w.6.X.' ^ o.q ~ m.v.u.6.6.Q v c V n q @ # j.m.V.k.g.u.<.O...} ' I O f #.#.-.-.3.3.",
"~ J E J p c l o . + . o o . 4 4 6 q q 5 < # > < @ . o 6 @ y 5 1 1 > # o . o . o l y l M F M l b a 9 # ; o j e.$.S x f 7 ",
"o q @ . n 2 q m ' >.u.j.u.X.K n l p . K g.8.g.j.v.6.X.' J ' m 2 5 y n E ) ' ) ^ G V 6 p . # 2 n / +.9.y.2.*.e.s.D g A R ",
"J.k.V t C.A.J.Q.`.Q.D.m.v.C.G.Y.C.' 2 u.^.k.g.v.C.A.I.^.H.C.E k C.C.C.A.S.D.A.A.v.8.H.g.O ,..X(.U.F.m.c.i.=.%.#.A x 4.B.",
" .^ w 4 j.6.X. ./ / / ( ) ) ^ ! K l . m ~ V V V E ! E E G V < 6 Q U J F V F G G ^ V V 4 O K.I.O...~ T T R R A Z h : R W ",
"E E y 2 8.) ! ' ! ^ ) ) ' ) ! K m l o M E K ~ ~ J E G K U m @ k ~ ~ ! ~ ^ / / ^ J U p . v [.O.' { { [ [ ] ` ` &.C , Y N "
};
