/* XPM */
static char *_87faad1e00045a8a3d81b65720e4f0bT12ARFJbtCkvSFWi[] = {
/* columns rows colors chars-per-pixel */
"80 80 253 2 ",
"   c None",
".  c #020101",
"X  c #0C0606",
"o  c #0C0809",
"O  c #160908",
"+  c #1E1411",
"@  c #291915",
"#  c #2E1411",
"$  c #35241C",
"%  c #382B22",
"&  c #372F2C",
"*  c #1E2025",
"=  c #7B1B1B",
"-  c #681818",
";  c #50311B",
":  c #6C2D1C",
">  c #483A35",
",  c #52352D",
"<  c #7B2827",
"1  c #703129",
"2  c #651A1C",
"3  c #72461E",
"4  c #564439",
"5  c #57472D",
"6  c #6A4D38",
"7  c #734B36",
"8  c #6B513A",
"9  c #78553B",
"0  c #734B27",
"q  c #705B2D",
"w  c #393C4D",
"e  c #3E4358",
"r  c #4F4B4E",
"t  c #67564A",
"y  c #7C5B44",
"u  c #755948",
"i  c #6F4D46",
"p  c #7A6456",
"a  c #78644D",
"s  c #464C67",
"d  c #4C5477",
"f  c #545A77",
"g  c #53586B",
"h  c #5B637E",
"j  c #66697B",
"k  c #716A69",
"l  c #625D64",
"z  c #891C1B",
"x  c #981E1C",
"c  c #A41F1E",
"v  c #99241E",
"b  c #8C261E",
"n  c #A5211E",
"m  c #B5241F",
"M  c #8C2222",
"N  c #862927",
"B  c #9C2322",
"V  c #982927",
"C  c #893834",
"Z  c #92342F",
"A  c #A32323",
"S  c #AC2423",
"D  c #A32B2B",
"F  c #AB2C2B",
"G  c #A82926",
"H  c #B32C2B",
"J  c #BB2D2B",
"K  c #B62623",
"L  c #A6332A",
"P  c #BA302D",
"I  c #A93838",
"U  c #B53332",
"Y  c #B93838",
"T  c #A52F32",
"R  c #891F22",
"E  c #C22B26",
"W  c #C4312D",
"Q  c #C73938",
"!  c #D33B39",
"~  c #875B27",
"^  c #894438",
"/  c #97453C",
"(  c #8D532C",
")  c #AA4C36",
"_  c #9A6829",
"`  c #967734",
"'  c #936C32",
"]  c #A3742C",
"[  c #AA7A34",
"{  c #B17334",
"}  c #CD473D",
"|  c #C5643A",
" . c #B63F42",
".. c #C63F41",
"X. c #845C46",
"o. c #985548",
"O. c #94534C",
"+. c #B74445",
"@. c #A95849",
"#. c #B65948",
"$. c #AB534E",
"%. c #84634B",
"&. c #89654B",
"*. c #8C6B53",
"=. c #876857",
"-. c #956A56",
";. c #94735B",
":. c #997558",
">. c #8F7050",
",. c #A96756",
"<. c #B76B59",
"1. c #A57A5A",
"2. c #B36A4F",
"3. c #8B7466",
"4. c #987865",
"5. c #9A7C74",
"6. c #8F6F66",
"7. c #A67B69",
"8. c #B87766",
"9. c #AE756D",
"0. c #A55C60",
"q. c #C84546",
"w. c #D34849",
"e. c #C75A4A",
"r. c #C5654B",
"t. c #C56B54",
"y. c #C8745A",
"u. c #D1785D",
"i. c #CA7B64",
"p. c #CE766E",
"a. c #E47E6C",
"s. c #AA8436",
"d. c #B58736",
"f. c #B98D34",
"g. c #CC9636",
"h. c #D7A53B",
"j. c #E2A839",
"k. c #948247",
"l. c #B5855A",
"z. c #B38B4E",
"x. c #998371",
"c. c #A4836A",
"v. c #A98667",
"b. c #B68768",
"n. c #BB926A",
"m. c #A98976",
"M. c #B88878",
"N. c #B89779",
"B. c #AB937C",
"V. c #C9984A",
"C. c #D7AE48",
"Z. c #E5B544",
"A. c #E4B456",
"S. c #D5846A",
"D. c #C68977",
"F. c #D78B76",
"G. c #C69778",
"H. c #DA947B",
"J. c #C68A6C",
"K. c #E88A76",
"L. c #C9A37A",
"P. c #F4CB48",
"I. c #F1D051",
"U. c #E1CA66",
"Y. c #545D85",
"T. c #4D5784",
"R. c #5C6483",
"E. c #5B668B",
"W. c #5C6694",
"Q. c #636C8C",
"!. c #636985",
"~. c #69718C",
"^. c #636C94",
"/. c #6D7594",
"(. c #6A7599",
"). c #747C9C",
"_. c #777C96",
"`. c #76788C",
"'. c #757EA2",
"]. c #7B829C",
"[. c #7A85A5",
"{. c #9B8987",
"}. c #858597",
"|. c #878188",
" X c #A78B84",
".X c #B78D84",
"XX c #AD9285",
"oX c #B69787",
"OX c #AC9A9A",
"+X c #BAA399",
"@X c #B8A18D",
"#X c #828CA7",
"$X c #8991AA",
"%X c #9593A7",
"&X c #9196B0",
"*X c #A89DAB",
"=X c #A7A5B6",
"-X c #B5ABB0",
";X c #93A2BE",
":X c #C79988",
">X c #D69B87",
",X c #CE9A91",
"<X c #E79484",
"1X c #C8A48C",
"2X c #D9A38B",
"3X c #C9A796",
"4X c #D8A896",
"5X c #D7B499",
"6X c #D9B38C",
"7X c #E7A78D",
"8X c #E4AB94",
"9X c #E6AB98",
"0X c #EBB49C",
"qX c #E5B399",
"wX c #F3B89C",
"eX c #E3B98C",
"rX c #D7ADA3",
"tX c #DAB7A8",
"yX c #C4BABB",
"uX c #D6BBB7",
"iX c #C8B0A9",
"pX c #E5BAA5",
"aX c #E8B9A5",
"sX c #F4BEA3",
"dX c #E2BEBA",
"fX c #D6C3BA",
"gX c #EBC5AA",
"hX c #F4C4AB",
"jX c #FBC7AB",
"kX c #E9C7B7",
"lX c #FBCCB2",
"zX c #F3C9B4",
"xX c #FBD2BB",
"cX c #F9D1B8",
"vX c #ECD4B5",
"bX c #E2C19A",
"nX c #BAB9C8",
"mX c #B7B0CA",
"MX c #C6BAC7",
"NX c #D6D4DB",
"BX c #D0C9D0",
"VX c #F9D8C6",
"CX c #EDD5CB",
"ZX c #FCE5D8",
"AX c #F3E1D1",
"SX c #DBDBE2",
"DX c #E2DCE6",
"FX c #E8E6EC",
"GX c #ECECF2",
"HX c #FBFCFE",
"JX c #F4F4F8",
"KX c #F4EEF0",
"LX c #DEE0E5",
/* pixels */
"                                                                        4.c.:.c.v.c.;.&.*.                                                                      ",
"                                                                c.N.5XkXvXvXgXbXeXeX6XL.G.b.v.*.u                                                               ",
"                                                            b.L.6XgXVXAXCXxXgXeXeXeXeX2Xn.v.1.b.G.v.&.                                                          ",
"                                                        a N.6X6X1X5XtX3X:XD.t.#.) / / o.o.&.X.:.l.v.G.:.5                                                       ",
"                                                      a N.eXbX1X7.<.#.#.$.$.#.#.$.,.,.@.,.,.-.*.*.%.:.G.*.                                                      ",
"                                                      c.6X5Xm.&.o.1.1.7.;.*.*.=.a =.*.;.v.n.G.G.b.1.:.b.v.a                                                     ",
"                                                      m.v.;.u %.%.8 ; @ @ O X . . X + X o + % 8 &.:.v.l.n.G.c.a                                                 ",
"                                                  1XN.1.%.9 *.u $ X @ + ; , X . . # 7 # . . . . X + 4 ;.n.G.b.1.4.p                                             ",
"                                              3XG.n.1.-.>.y % o . # -., ^ 8.i o X i -.8.$ . o X . . @ t c.n.n.b.>.;.3.                                          ",
"                                          oX1Xl.1.l.l.1.%.% . . O i >X7.G.7XaX4.@ =.:XsXM.# , 1 $ X . X % %.b.b.>.9 v.B.r                                       ",
"                                        B.5Xb.1.1.1.1.1.y + . . , :XkXgXhXjXjXjX:X7.hXcXaX;.%.D.&., . . @ u 1.:.y y >.v.x.                                      ",
"                                        3XL.1.J.l.b.l.8 + . . O 7.cXfXtX,X>XhXlXlXzXzXaX3X+X+XtX4XM.@ . o 4 *.a y %.;.&.:.x.                                    ",
"                                        5Xn.>.l.1.1.&., $ . X > uXBXBX*X-XuXkXZXVX3XpXvXSX-X|.DXuXpX, . $ t %.*.y y %.y >.oX                                    ",
"                                        oXm.y &.:.&.9 X.6 @ O m.AXAXGX-XyXDXCXKXZXM.8XcXBXBXyXCXkXpX, @ , a *.>.:.&.X.*.c.m.                                    ",
"                                        p 3Xc.y %.>.X.9 u =., =.VXkXiXfXfXfXkXCXkX:XrXkXuXiX+XoX3X3Xi -.4.6 X.&.7.:X1X5XqX:X3.                                  ",
"                                          a x.4.=.y 8 8 6 4.4.u @XiX*XBXNXyXOX{.{. X{.5.|.OXyX*X+X5.-.XX4.;.N.5XhXlXsX2X0XsXpXpXtXM.                            ",
"                                                x.x.=.=.y y 4.;.=.oXiXOXt i 0.8.p.p.p.p.0.i t XXm.=.XXtXpXzXlXhXaX4X2XqXjXjXjXhX7X>X;.                          ",
"                                                        =.=.u =.=.y 3.3.6.9.3XiXuXMXuXiX,X:XM.;.y u tXZXVXpXpXaXsXhXlXlXlXwX2X0XjXjXpX5X:X                      ",
"                                                                      4 6.7.7.B.oXoXoXD.i.y.<.X.5.i 8.9X1XrXcXlXlXjXhXaX8X2XqXjXlXlXlXjXqXm.                    ",
"                                                                        uX2X<.#.@.@.) ) e.t.:XrXpX4XG.8.X.:XVXVXaX4XrXaXhXlXlXlX0X2XhXlXlXhX3X                  ",
"                                                                < C O.6.vXxX0XH.u.r.e.r.r.2.7.tXlXlXhX4X6.i J.>X7.4XVXxXlXlXsX8X>X0XjXlXjX7X>X;.                ",
"                                                      N V N / o.,.8.M.:X4XaXhXsX7XF.y.t.r.t.<.,.1XqX5X3XM.7 1 o.7 7.9X0XqX4XrXaXlXjXwX>XJ.H.G.                  ",
"                                            I Y Q Y B T B V O.aXhXsXaXaXpX4X9X0X9X>XD.D.H.S.u.y.@.o.M.J.<.Z V N < 1 o.8.:.3XVXZXzX>X<.^ o.J.<.< N               ",
"                                        I q.e.U Q Y A Q A A M -.aXxXlXlXlXlXhX0X>XaXlXjXsXwX7Xi.) U V L Y G U Q U V N ^ ^ i M.>XM.o.^ ) i.H.F./ M B D Z         ",
"                                      I w.w.q.F F q.Q Q A c K V -.gXxXxXlXxXlXaX>XzXVXVXjXhX8Xo.I q.H U Y G Y q.q.U U V Z 1 1 ^ ^ ^ / #.u.H.wXb.< M H I         ",
"                                  D Y W ! F D D D G Y J c x S F O.M.3XaXzXVXVXpX>XcXZXZXCXaX2X0./ q.q.D I F A  . .q.T T M z < ^ ,.<.y.i.i.F.wXsXJ.C V I         ",
"                              q.w.Q J H A x z V Y F v v ) ( N D O.3X:XD.<X<X2XD.8.4X3XrX9X2XaX,XO.U Q F V D z M D I T z M I B M <.H.<XF.S.S.9XlXwXi.C N         ",
"                          +.q.w.Q H G A x z = D q.U x V V.V.( D / rXVXtX,XF.<XK.K.K.<X<X<XG.hX0Xo.G n K A z = - = z M = N Y A B / F.H.F.S.S.2XhXpX>Xo.< N       ",
"                       .Q } w...F x B A V R - I q.H x x v b x G C 9.3X3XM.F.K.a.a.a.K.8.7.M.D.D.O.V S K K c z z = 2 - M = M = M N @.i.u.y.u.F.4X:X<.N M B B V   ",
"                  Z +.w.! Q W S B V N       < q.Q K c x x x n G / .XiX,Xp.K.H.D.F.<X<X:XrXtX5X2X8.L K m K J S A z 2       N M M = < / #.#.e.#.#./ < z x B A U +.",
"            I q.q...w.! J S B M N           I Q W G L { ( = S F O.iXrX,X,X4XrX4XM.kXkX4X>X4XtXaXH.) P K m K H K S M         < N M v z M V Z Z N z z x A S H Y   ",
"    I  .I Y q.Q W J S n B V <               Y Q H v ) C.{ L J ) ,..X:XM.,XpXaX4X7.4XpX4XD.8.8.N.H.$.q.E K K K J W G N           N D A x x A B M R V J P U       ",
"    V G F Q Q K S A v B N                 I Q H S K G v n K H @.D.4X>X9.:X8X0X9Xb.4X0XqX8X>X:X,X8.o.w.W E K K H ! W B <           V G A D V =       N Z         ",
"    +.q.q.J S n A x A V <               C I U U H K S G A S L 8.G.1X:XpXpXqX4X2XG.2X4X2X2X1XoXpX2XO.#.w.W E K n n K K V                                         ",
"  +.w.Q J H P W K S S V C               N F U P K ) V.[ b U <.D.D.M.:XpXpX9XqX2Xb.4X8X7X2X2Xc.4.m.-.C q.! W E K n x S S V                                       ",
"  N F L ) $.L J G V   N               N D P W W J L { ) V @.b.b.c.v.G.J.V.z.z.z.z.n.z.z.' 0 3 ~ [ 9 ; 1 U Q W W E K m K G R = = 2                               ",
"      5.D.8.^ Z Z                   +.q.w.} | { ( v m F < 0 ' z.z.d.f.f.g.g.g.g.g.h.h.h.g.d.3 : 2.L.( ; < Y q.! J F J J J S z z B N                             ",
"      uX4XD.9.4.                +.q.w.w.D b _ ) V K U Z 3 _ { d.g.V.z.z.[ [ ] ] ] ] ] ] ] ] _ 3 ~ z.V.3 ; N U q.q.I V H P W H M M <                             ",
"    uXVXrX,XM.              + # # # < J S x z x Y Y Z ( ] ] _ _ _ [ s.s.s.s.d.d.d.s.s.d.[ d.{ _ 3 d.A._ 3 1 Z D I +.Y V M A P U V N                             ",
"  m.zXzX0X>X=.              1 O . . O - A n G ) +.1 3 _ ] ] ' ' q q ' ` ` ` ` ` s.s.d.f.d.g.g.f._ ~ C.g.~ 3 : N B D Z < < z x G U W L 2                         ",
"  4XwXhXwX>Xi.<.-.      1 D V 2 + . . O < M N 1 0 6 6 t t r w w e r w w w s s s s r r r r t 6 8 7 ; { h.d._ 0 : 2 : : ; $ < v v A K Y                           ",
"5.2X2XgXqXF.y.F.D.      @ O X X X X X X X X & r g j ~.h !.R.h g f h f d f f s f f s s f f f s f f r ' h.h.[ _ ~ ~ 0 0 ~ : : V v D T                             ",
"  m.:X4XF.8.@.b.oX            o o       * r ~././.E.Q./.).).[.)./.~.d s ~.).!.f f d h R.!.~.Q.!.f d t V.j.C.s.[ d.z.~ { { ~ ( ^ 1                               ",
"      m.7.J.7.                          ~./.'.).~.!.~.#X#X].).~.R.E.Q.f s h j j f d d ~.]./.h f f d s >.Z.j.h.[ ] ] d.` ] { ] f.C.z.s.                          ",
"                                    _.].(.).$XBXSXnXNXGXGXLXSXNX=X`.Y.R.Q.Y.f j g f R.!.]._.!.h h R.Q.l k.Z.h.g.{ ] V.I.V.[ ~ ~ f.I.I.I.V.'                     ",
"                                  ].$X&XnXGXJXHXHXGXFXFXJXJXHXHXHXGXBX=X~.^.E.h h d s s h !.Q./.).).$X$Xj 6 s.h.h.g.h.Z.P.P.Z.g.d.d.C.I.I.C.] (                 ",
"                                `.BXGXHXHXHXFXyX-XXX9.-..X.XiXBXFXHXHXJXBX_.^.f s f /./.R.R.R.R.Q.Q./.].$Xg r t z.Z.j.Z.P.P.P.I.P.C.d.d.P.P.Z.] 6               ",
"                                =XGXHXJXNXiXM.o.@.y.i.i.y.t.r.2.-.-XJXJXHXFX%Xf d f h ~.f e s d E.(.^.R.Q.Q.R.Y.s k.I.P.P.P.P.I.I.I.C.] g.Z.f.; @ %             ",
"                              NXGXJXDXMX{..X7XG.:X4XaXaX9X>XS.t.r.-.+XFXGXJXNXg w R.~.~.Q.R.h R.Q.[.[.).^.^././.T.s a U.P.P.P.Z.` 5 ; ~ _ ~ + . o               ",
"                              BXJXDXnX`.k tXVXVXAXZXAXxXzXgX4XS.y.t.6.MXSXGXDX}.f W.E.E.(.[.(.).[.[.[.[.&X;X#XR.R.f   z.I.I.C.5 . . ; _ ~ $ X                   ",
"                              l -XDXBX}.l kXAXAXZXZXZXVXcXzXpX>Xu.y.i |.nXFXNX_.h Q.).(.).#X#X(.^.W.(.[.&X[.E.E.^.d     C.U.k.@ X ; _ ~ ~                       ",
"                                k NXMX=Xk  XAXZXZXZXZXVXlXzXaX7XS.u.X.l =XNX%Xd Q.).^.(.E.).[.^.T.T.(.[.E.f Q.^.W.      >.>.    4 6 q                           ",
"                                  |.%X-X%Xr iXZXZXZXVXxXlXzXaX8X<XH.4.j mXMX`.E.^.$XQ.E.^.E.(.#X[.[.#XE.f /.^.E.E.                                              ",
"                                      *X%Xj k CXZXAXVXcXlXzXaX8X7X3Xk j %XmX_.(.^.(.).d E.^.Y.E.[.#X#X].)./.^.E.!.                                              ",
"                                          g r +XZXVXxXlXlXzX0X8X:Xk f j j f d W.[./.).Y.d Y.E.E.).$X[.[.^.Y.E.f j                                               ",
"                                              XXVXVXcXcXcXgXqX8X5.      }.j d E.).)./.E.T.d Y.'.(.).).).(.W.Y.s %X-X                                            ",
"                                            3.oXtXiX+XoX3XkXaX2Xm.      %X*Xf d E.^.E.(.(.(.(.'.[.].).].'.W.W.Q.NXFX-X                                          ",
"                                {.+XOX{.iX3X4XoXtXtXtX5X:XXX4X2X7.        =X_.s s d d T.W.^.(.(./.).[.]./.~.#XnXGXnX                                            ",
"                           X@X5.tX4X:X=.M.J.8.7.5X:XD.>X4Xm.5.7.4.        }.=X}._./.Y.R.^.[./.f !.!.`.}.}.-XFXGXFX                                              ",
"                    {.+X5.3X:X6.5.7.m.5.m.B.c.c.c.;.-.*.-.*.m.oX5.>         *X*X-X=XmXnXnXNXnXBXBXNXLXGXGXHXHXNX                                                ",
"                  +XtX3Xx. XoX3X3X3X1XoXm.7.:.>.;.>.;.4.v.v.;.=.{.3.        O.,.8.6.OXBXDXFXJXHXHXHXHXJXBXLX                                                    ",
"                    oX3XiX@XB.;.%.X.9 9 9 7 7 7 7 7 9 9 y -.:.m.3.t 3.      8.r.e.#.@.<.8.9.XX-XSXSX                                                            ",
"                  oXB.4.%.y 9 9 9 9 y X.%.&.*.>.&.%.*.y y y y %.m.u p     i >XS.e.) | e.r.t.o.                                                                  ",
"                t m.y 8 9 y &.( 9 %.4.c.c.c.c.4.;.;.;.*.&.X.9 6 ;.p m.i     5X0Xi.r.r.t.i.1.                                                                    ",
"                % t u 9 8 9 9 9 X.:.c.m.m.m.m.B.XXXXXXm.m.4.%.X.m.p .Xm.    iXzX2XF.S.H.M.                                                                      ",
"                    > 4 6 u 8 y *.:.4.v.m.B.XXXXXXXXXXXXXXm.7.*.*.m.6.XX    fXzX0X7X8X:X                                                                        ",
"                              4 u u =.*.-.;.4.c.c.B.B.oXoXXXm.4.%.-.B.p   {.CXzXaXqX1X                                                                          ",
"                                    4 a =.*.*.;.4.7.v.c.c.c.4.:.%.*.m.4   iXCXdXqX2X                                                                            ",
"                                      % t p 3.6.;.:.:.>.-.;.*.X.%.c.@X    BXdXrX:X                                                                              ",
"                                        @ > 4 i a =.*.;.4.;.*.=.4.      BXCXtXM.                                                                                ",
"                                                  t 3.              {.uXCXdX4X5.                                                                                ",
"                                                                    .XgXdXrX4X5.                                                                                ",
"                                                                4 3XxXzXrX4X4Xp                                                                                 ",
"                                                              t a 3.kX1X4.;.7.p 4                                                                               ",
"                                                                x.u t > , p 3.> & t                                                                             ",
"                                                                k > +XtXc.=.3.6.=.u a                                                                           ",
"                                                                 X3.kXxXaX=.=.hXqXD.:.=.p                                                                       ",
"                                                              3.1X%.7.pX1X4.1X:X1XoX5.;.B.t                                                                     ",
"                                                              4 B.N.4.c.c.=.m.4.4.m.4.m.m.                                                                      ",
"                                                                  =.4.4.*.;.=.%.y =.%.                                                                          "
};
