/* XPM */
static char *faf70baaac1a4b5ca0354704cd39507agfDv3mCtugZZ2JSn[] = {
/* columns rows colors chars-per-pixel */
"60 60 229 2 ",
"   c None",
".  c #020201",
"X  c #0C0100",
"o  c #010A02",
"O  c #00020B",
"+  c #010A0A",
"@  c #0E0B05",
"#  c #140000",
"$  c #1B0000",
"%  c #1C0B00",
"&  c #16030C",
"*  c #180808",
"=  c #001208",
"-  c #101000",
";  c #010315",
":  c #000A13",
">  c #00011C",
",  c #090616",
"<  c #001015",
"1  c #001219",
"2  c #161711",
"3  c #240100",
"4  c #2B0000",
"5  c #330000",
"6  c #3B0000",
"7  c #3F0D00",
"8  c #211112",
"9  c #241800",
"0  c #3C271C",
"q  c #040625",
"w  c #051725",
"e  c #121C2D",
"r  c #1A1C2B",
"t  c #041935",
"y  c #101E31",
"u  c #2C1C23",
"i  c #16232C",
"p  c #192539",
"a  c #34342C",
"s  c #363C2E",
"d  c #2D3837",
"f  c #3A3432",
"g  c #363A34",
"h  c #3C3C33",
"j  c #33333D",
"k  c #39343D",
"l  c #3D3B3B",
"z  c #36373A",
"x  c #2D2E2E",
"c  c #470000",
"v  c #410900",
"b  c #5D3A11",
"n  c #6F3504",
"m  c #42393B",
"M  c #45302A",
"N  c #32413A",
"B  c #7E4F1B",
"V  c #47423C",
"C  c #7A5522",
"Z  c #7E5235",
"A  c #2E364A",
"S  c #363A48",
"D  c #232F43",
"F  c #3D4A53",
"G  c #384959",
"H  c #3E4347",
"J  c #384964",
"K  c #2C4F62",
"L  c #434D59",
"P  c #575B57",
"I  c #474A4F",
"U  c #5C615D",
"Y  c #62625D",
"T  c #7B6144",
"R  c #464968",
"E  c #5D6867",
"W  c #5F7678",
"Q  c #646464",
"!  c #64656B",
"~  c #646D6B",
"^  c #6A6A6B",
"/  c #676A67",
"(  c #646672",
")  c #696A73",
"_  c #666972",
"`  c #716B72",
"'  c #687777",
"]  c #747D7B",
"[  c #787976",
"{  c #777069",
"}  c #854916",
"|  c #8C5518",
" . c #845427",
".. c #915521",
"X. c #B07927",
"o. c #917947",
"O. c #A97A46",
"+. c #B27A48",
"@. c #827775",
"#. c #877865",
"$. c #758C79",
"%. c #B2813B",
"&. c #B78749",
"*. c #B58D58",
"=. c #B38C52",
"-. c #808D7C",
";. c #A98D64",
":. c #B78C66",
">. c #AB9369",
",. c #B49469",
"<. c #B99462",
"1. c #B99273",
"2. c #B79075",
"3. c #C38E57",
"4. c #C7A975",
"5. c #5E7297",
"6. c #63728E",
"7. c #677683",
"8. c #767D83",
"9. c #646D97",
"0. c #6A749A",
"q. c #737991",
"w. c #736C8E",
"e. c #6670A1",
"r. c #7B8886",
"t. c #7A9D9D",
"y. c #658A92",
"u. c #75A79B",
"i. c #7E8EA3",
"p. c #77A7A2",
"a. c #77B9C2",
"s. c #7BE7F0",
"d. c #889894",
"f. c #AD9780",
"g. c #82A29D",
"h. c #B4A79B",
"j. c #B5B285",
"k. c #9DB3AE",
"l. c #9AB6B7",
"z. c #8FABB0",
"x. c #ACABAC",
"c. c #ADABA3",
"v. c #B5ADAA",
"b. c #B9AFAD",
"n. c #B3A8A6",
"m. c #AFB3A6",
"M. c #ABB2AB",
"N. c #A4B4AD",
"B. c #B2B3AD",
"V. c #B7B7A7",
"C. c #A8ADB9",
"Z. c #B1ADB3",
"A. c #B7ACB4",
"S. c #ABB5B1",
"D. c #AEB4BA",
"F. c #A6BBB8",
"G. c #B4B2B4",
"H. c #B2B5BC",
"J. c #B8B5B7",
"K. c #C0B19E",
"L. c #FFBF87",
"P. c #FFBF91",
"I. c #EDBF83",
"U. c #C1B7B0",
"Y. c #BEC09B",
"T. c #BECEBE",
"R. c #B3C0A6",
"E. c #D3C08F",
"W. c #D5C799",
"Q. c #EEC88A",
"!. c #FAC689",
"~. c #FFD085",
"^. c #F3CA94",
"/. c #FECA93",
"(. c #F3C69A",
"). c #F6D19B",
"_. c #EACB9D",
"`. c #CFCAB1",
"'. c #EBCAA4",
"]. c #E9C7A6",
"[. c #F8CFA8",
"{. c #F6D5A5",
"}. c #F2D0B7",
"|. c #AAB3C1",
" X c #A7BAC5",
".X c #B0B7C1",
"XX c #98C5C5",
"oX c #93D8D3",
"OX c #A2C5C9",
"+X c #B2C7C8",
"@X c #A8D6C7",
"#X c #A7D4D3",
"$X c #BED8D1",
"%X c #ABCDD7",
"&X c #94E3C8",
"*X c #B7D9E6",
"=X c #93E0F4",
"-X c #B6FFFF",
";X c #A6E2ED",
":X c #C4DBDA",
">X c #D0DFC6",
",X c #D1E6D5",
"<X c #E8ECC8",
"1X c #FFF7DF",
"2X c #D5F6E9",
"3X c #C6FFFF",
"4X c #D4FFFF",
"5X c #D7FBFF",
"6X c #DFEDF4",
"7X c #F5FAEE",
"8X c #FAFDEE",
"9X c #F9F4EA",
"0X c #EFEFFB",
"qX c #FCEDF7",
"wX c #EDF6F4",
"eX c #EDF9F3",
"rX c #EBF4FE",
"tX c #E3FEFC",
"yX c #EDFCFD",
"uX c #E5F4FF",
"iX c #F4F6F4",
"pX c #FAF5F2",
"aX c #F4FCF4",
"sX c #FCFAF5",
"dX c #F4F4FD",
"fX c #FEF4FE",
"gX c #F3FDFD",
"hX c #FCFCFD",
"jX c #EAF1E8",
/* pixels */
"                                                                                                                        ",
"                                                                                                                        ",
"                                                                                                                        ",
"                                                                                                                        ",
"                                                                                                                        ",
"                                                                                                                        ",
"                                                                                                                        ",
"                                                                                                                        ",
"                                                                                                                        ",
"                                                                                                                        ",
"                                                  3 $ # # # $ 4                 6 5 4                                   ",
"                                                $ V.I C.G rXhXn.#             c   [.'.3 5                               ",
"                                              3 G.7.uX6.rXdXhXpXv.#         6   } P././.I.3 3 5                         ",
"                                              X C.5.yX0.gXiXiXsXZ.{ #     3 +.+.n   +.Q.).{.].'.4 5                     ",
"                                            3 H.q.uXe.dXfXpXsXgXx.U.# o.3 &.+.O.3 4 $ C ).^.(.(.4.  5                   ",
"              >X                            # .X6.rX9.dXfXpXsXM.x.v.X $ C &.&.4       $ ^.Q./.^.>.  5                   ",
"              <X                            $ |.6.yX9.dXfXqXpXM.m.M.. X Z } 4 X.      3 Q.Q.!.*.    5                   ",
"              <X                            %  X6.rX6.dXfXfXG.S.m.[ X X 3 3 *.        3 %.C O.b   3                     ",
"              <X                            - OXG  XJ  X|.O ; |.Z.{ $ 2.X X # 3.        3 o.  0 .                       ",
"              2X                              1 : ; ; ; ; F G O @.$ C ,.X [ 9X# =.        # $ #                         ",
"        &X    3XXX                            w K J J J L F O B.# ,.;.X hXO . sX#                                       ",
"        oXs.-X  =X                            w ; ; > > O . S.c.# >.1XX O 7.O dXpXX                                     ",
"        @X3X4X                                + D.dX0XhXqXA.B.G.. hXfX; 9.6.O wXhX9XX               . # 3               ",
"      #   4XtXtX  $X                          @ c.hXhXdXfXA.x.[ . Z.; w.0.> yXaXiXsX7X.           < t p u $ 5           ",
"      $ g.4XgXaXyX:X                          % `.yXyXrXfXA.D.. P X X . O dXsX8X8X7XaX8X.         : t q > , & $ 3       ",
"      $ k.y.wXiXyX:X                          7 `.8XaX7Xb.v.. . X #.@.X @.G.n.n.7XaXpXiX. X         q J R ; q., X 4     ",
"      3 aXl.] aXgX:Xk.                          v $ X X # # # >.;.# h.J.. x.H.fXfXfXfXv.X f . .     > > O O ( S + $     ",
"      $ jXk.S.] yXgX+X                                    =.$ {.,.# X b.. . gXrXfXfXn.X ` ! P d . . S A ^ z O + . $     ",
"      X 2XtXJ.x.8.r.6XR.                                    3 _.*.$ # h.. M.eXhXZ.. @ ^ ! ) ! L F i . Q E ~ l X $       ",
"        o 2XgXG.D.' r.aXV.                                  3 '.<.3 2.X . o o . . ^ Y U ! ) _ ( W E ^ m / E j #         ",
"        o 5XyXdXS.S.r.8.gXU.                                3 '.^.$ # f V Y ! ! ` Q ^ ^ ^ Y ^ ^ _ _ Q a h g > #         ",
"          + 6XgXaXN.D.C.i.d.W.                              4 ].^.:.# z a h l S ( ( E ~ Q / ~ _ ( j l h g z > $         ",
"          X ] yXaXaXD.C.F.d.d.T.Y.                          4 }.!.<.X d g s a z A D e i i e e A A A j l S j q $         ",
"            o ' aXgXrXgXM.N.*Xz.g.>XE.                      3 {.!.&.X N d g l x i p < + . O e w y y r j A , * 3         ",
"              + 7.gXyXeXaXwX.X|.:Xt.p.@X`.                  $ {.~.&.# l k k x f . o         . O O ; > q , # 3           ",
"                X . $.yXgXgXdXdXk. X;Xa.p.  W.      4 $ # # # =.%.3.3 M m k l X                   # # # $ 3             ",
"                    o + 7.rXhXgXgXgXl.l.#Xt.u.$.  $ j.9Xb.# =.n | ..B 4 M g .                                           ",
"                        = o + +XaXhXgXyXF.XXoX#X-.X . aXdXX :./.3  .3.:.X .                                             ",
"                              + o . $XtXeXyX5X%X.XJ.. 9XhXX $ ].`.# <.;.X X                                             ",
"                                    . . . . OXtXgXfXX sXpXX }.$ # # $ $ X X                                             ",
"                                            < : . X . dXaXX '. .^.| !.} T # 4                                           ",
"                                                  . H.gXaX. ;.4 /.} L. .f.# 5                                           ",
"                                                  = k.gXF.m.# 1.1.4 1.# . 9 6                                           ",
"                                                    =  XF.M.K.$ $ $ # X x X                                             ",
"                                                      : W S.v.b.b.v.] H .                                               ",
"                                                      o = + O O . + O : . $                                             ",
"                                                      % 2 O S S O O : O . $                                             ",
"                                                      5 3 8 & & # # # # # 4                                             ",
"                                                        6 6 5 5 6     6 c                                               ",
"                                                                                                                        ",
"                                                                                                                        ",
"                                                                                                                        ",
"                                                                                                                        ",
"                                                                                                                        ",
"                                                                                                                        ",
"                                                                                                                        ",
"                                                                                                                        ",
"                                                                                                                        ",
"                                                                                                                        ",
"                                                                                                                        "
};
