/* XPM */
static char *_5ba75504b2d44b8f7106d5c2710f3fdQB1shcNq2MRTiIbB[] = {
/* columns rows colors chars-per-pixel */
"60 60 134 2 ",
"   c None",
".  c #020202",
"X  c #0B0101",
"o  c #000802",
"O  c #0D0A01",
"+  c #01020A",
"@  c #02090B",
"#  c #08080A",
"$  c #140000",
"%  c #1B0000",
"&  c #000112",
"*  c #000814",
"=  c #240000",
"-  c #2C0000",
";  c #340000",
":  c #3A0000",
">  c #2F312E",
",  c #3F3523",
"<  c #33342E",
"1  c #3E3428",
"2  c #36392E",
"3  c #3B3A2E",
"4  c #392E34",
"5  c #2E3336",
"6  c #2E3935",
"7  c #2F3639",
"8  c #343535",
"9  c #3A3434",
"0  c #363935",
"q  c #3B3A35",
"w  c #34343A",
"e  c #35393B",
"r  c #3B3B3B",
"t  c #430000",
"y  c #47361C",
"u  c #4B341C",
"i  c #503518",
"p  c #433523",
"a  c #4B3623",
"s  c #453A23",
"d  c #493826",
"f  c #44352C",
"g  c #45392B",
"h  c #4E3B28",
"j  c #57362D",
"k  c #413B33",
"l  c #453D3A",
"z  c #3E4139",
"x  c #78531F",
"c  c #40403E",
"v  c #7A5A21",
"b  c #353D42",
"n  c #3C3D43",
"m  c #443D44",
"M  c #3C4043",
"N  c #3A4750",
"B  c #354660",
"V  c #3C4C65",
"C  c #2F4473",
"Z  c #3C4A77",
"A  c #775542",
"S  c #635E58",
"D  c #66635E",
"F  c #6D675E",
"G  c #776654",
"H  c #7F6355",
"J  c #72655D",
"K  c #635B66",
"L  c #5D6466",
"P  c #5F696A",
"I  c #666464",
"U  c #6B6463",
"Y  c #6D6A63",
"T  c #63656A",
"R  c #6A666E",
"E  c #666B6D",
"W  c #6A6B6C",
"Q  c #706866",
"!  c #786A61",
"~  c #74686A",
"^  c #6C6672",
"/  c #666972",
"(  c #6A6D72",
")  c #716A72",
"_  c #6C7376",
"`  c #6C737B",
"'  c #767475",
"]  c #707976",
"[  c #7E7E74",
"{  c #806B50",
"}  c #90745C",
"|  c #BE8B3A",
" . c #DA8534",
".. c #DD8B39",
"X. c #BC8C5B",
"o. c #AD8E6A",
"O. c #C68244",
"+. c #C5844A",
"@. c #C28C4B",
"#. c #C88D49",
"$. c #D88B45",
"%. c #C28E54",
"&. c #F5C273",
"*. c #576896",
"=. c #6475A1",
"-. c #BDAB9F",
";. c #ADADAB",
":. c #B4ADA3",
">. c #BEAAA1",
",. c #BDAEA9",
"<. c #ACB1AB",
"1. c #BBB4AC",
"2. c #B5AFB1",
"3. c #C8AD90",
"4. c #C2B39E",
"5. c #C3B5AA",
"6. c #F3C087",
"7. c #FFCB85",
"8. c #EACB9A",
"9. c #FFCE94",
"0. c #F4C899",
"q. c #F5D29A",
"w. c #FFF2E2",
"e. c #FFF9E6",
"r. c #FFF4ED",
"t. c #FFF4EE",
"y. c #FFFCEF",
"u. c #E9F5F5",
"i. c #F7F5F6",
"p. c #F0FBF5",
"a. c #F6F8F7",
"s. c #F0FAF9",
"d. c #F5FBFF",
"f. c #F5FEFD",
/* pixels */
"                                                                                                                        ",
"                                                                                                                        ",
"                                                                                                                        ",
"                                                                                                                        ",
"                                                                                                                        ",
"                                                                                                                        ",
"                                                                                                                        ",
"                                                                                                                        ",
"                                                                                                                        ",
"                                                                                                                        ",
"                                                                                                                        ",
"                                                                                                                        ",
"                                                                                                                        ",
"                                                                                                                        ",
"                                                                                                                        ",
"                                                                                                                        ",
"                                                                                                                        ",
"                                                                                                                        ",
"                                                                                                                        ",
"                                                                                                                        ",
"                                                                                                                        ",
"                                                                                                                        ",
"                                                                                                                        ",
"                                                                                                                        ",
"                                                                                                                        ",
"                                                                                                                        ",
"                                                                                                                        ",
"                                                                                                                        ",
"                                                                                                                        ",
"                                                                                                                        ",
"                                                                                                                        ",
"                                                                                                                        ",
"                                                                            = $ $ -                                     ",
"              ; = = ; ..                                                  - y.d.d.w.-                                   ",
"            - $ X p { -  .                                            O.= X . _ ] [ e.-                                 ",
"            = . . . S } ;                                       $.; ; = . N ` @ . <.' %                                 ",
"            % . . . U H -         - = = $ % % = = -       = % % X X $ X . + @ u.s.@ . -.-                               ",
"            % . X . 9 f %   +.; % y J I E P W D ! a $ $ $ 4.:.;.+ + . . . + f.p.a.i.2.X =                               ",
"            $ . . . n 3 % o.% i G F R T _ L E W I ~ J J g . O . . . . . X . . . t.t.$ $ $ -                             ",
"            % . . . 8 8 X $ p 3 q w ( E L E W T R R U Q U Y I Y $ . . @ . X F F X >.% A o.-       t                     ",
"            = X . . 6 0 1.X q 0 7 b 5 E R R ) U U U Y U r r . I . . . . . . W U q X X A X.@.: ; =   =   -               ",
"              % X . q 8 ' . & & b b e 0 R ^ K m 9 q q r r . n W . . . . @ @ W U q . ,.% %.#.    % 8.v q.x 0.            ",
"              ; $ + . k r & =.Z & 9 < q E / n w r r w w w . 0 < . # . . @ . 9 l < O 5.% = -     6.7.| &.@.9.            ",
"                $ + X 9 r & C *.& 9 q 2 8 e e M 0 > n n e @ 8 r . . . . . b < f p 3.=       ; ;           ; : t         ",
"              ; $ . . e 7 * B V + 0 3 3 9 r < q 2 z 8 7 e . b . + . . . + w c p = ;             t ; ; ; ; :             ",
"              ; X @ o < k X X X 1 , s y u u % % % $ $ h s . 9 . . @ . + + 4 p =                                         ",
"              ; $ . . s % -   ; - = = ; ; :           : - % d . . . # . X j -                                           ",
"                = % % -                                     - % $ $ $ $ = -                                             ",
"                                                                ; - ; ;                                                 ",
"                                                                                                                        ",
"                                                                                                                        ",
"                                                                                                                        ",
"                                                                                                                        ",
"                                                                                                                        ",
"                                                                                                                        ",
"                                                                                                                        ",
"                                                                                                                        ",
"                                                                                                                        ",
"                                                                                                                        ",
"                                                                                                                        "
};
