/* XPM */
static char *_1660d147472489ba8d3841e51c4b9cf3u1ekLoLJkoM6sdA[] = {
/* columns rows colors chars-per-pixel */
"60 60 195 2 ",
"   c None",
".  c #030201",
"X  c #0C0000",
"o  c #020C04",
"O  c #0A0903",
"+  c #01010B",
"@  c #140000",
"#  c #1B0000",
"$  c #110B0B",
"%  c #010113",
"&  c #00021C",
"*  c #080614",
"=  c #240000",
"-  c #2B0000",
";  c #330000",
":  c #3B0000",
">  c #3C341D",
",  c #000223",
"<  c #3C2D27",
"1  c #36352C",
"2  c #3B332D",
"3  c #3C3A2D",
"4  c #3B3526",
"5  c #342E35",
"6  c #2E363B",
"7  c #333533",
"8  c #3B3534",
"9  c #343934",
"0  c #3C3931",
"q  c #33343B",
"w  c #3C343C",
"e  c #353A3C",
"r  c #3B3B3B",
"t  c #440000",
"y  c #442F1E",
"u  c #4A3219",
"i  c #58290B",
"p  c #462E20",
"a  c #443424",
"s  c #4B3A24",
"d  c #483827",
"f  c #52382B",
"g  c #423933",
"h  c #423C3C",
"j  c #533C35",
"k  c #71531F",
"l  c #434237",
"z  c #7A5535",
"x  c #333942",
"c  c #3D3A42",
"v  c #433A42",
"b  c #3C444C",
"n  c #3A4757",
"m  c #386E7A",
"M  c #414048",
"N  c #544D43",
"B  c #725E4F",
"V  c #6D5555",
"C  c #79674F",
"Z  c #6B645D",
"A  c #64675E",
"S  c #645F65",
"D  c #5E6361",
"F  c #47727A",
"G  c #6D6762",
"H  c #646963",
"J  c #6B6A63",
"K  c #64656A",
"L  c #63696B",
"P  c #6B6B6C",
"I  c #676565",
"U  c #726A65",
"Y  c #76676A",
"T  c #6C6D71",
"R  c #706F74",
"E  c #6D7577",
"W  c #7A797D",
"Q  c #767679",
"!  c #914603",
"~  c #8C5208",
"^  c #945208",
"/  c #844D11",
"(  c #8D4F14",
")  c #914F1F",
"_  c #8C5313",
"`  c #91531D",
"'  c #8B5324",
"]  c #895C2D",
"[  c #93774F",
"{  c #887261",
"}  c #807373",
"|  c #BB8552",
" . c #BA885C",
".. c #9D8A7B",
"X. c #AC8F6D",
"o. c #B79169",
"O. c #AB8F77",
"+. c #B49173",
"@. c #AC9572",
"#. c #C38344",
"$. c #C28A47",
"%. c #CA884A",
"&. c #D28E45",
"*. c #C28B56",
"=. c #C08F64",
"-. c #FFC37B",
";. c #577196",
":. c #6B6F84",
">. c #64718B",
",. c #6C778B",
"<. c #767484",
"1. c #626E98",
"2. c #726E93",
"3. c #6D7994",
"4. c #66749A",
"5. c #786883",
"6. c #5871AC",
"7. c #5E75A5",
"8. c #546DB7",
"9. c #5A6FB1",
"0. c #686FA6",
"q. c #6274A1",
"w. c #6573AA",
"e. c #6277BA",
"r. c #6374C2",
"t. c #AE9180",
"y. c #B4A79B",
"u. c #BDAD9B",
"i. c #B6A99B",
"p. c #BFB09B",
"a. c #ADAEA9",
"s. c #ACA9A4",
"d. c #B5ADA5",
"f. c #BAACA4",
"g. c #B8AEAA",
"h. c #B4B2A7",
"j. c #BBB3A6",
"k. c #B5B2AC",
"l. c #BBB1AB",
"z. c #A8ACB3",
"x. c #ACB3B2",
"c. c #A9B6B8",
"v. c #B3B3B2",
"b. c #B5B6B6",
"n. c #A5B7AB",
"m. c #CBAC8D",
"M. c #C4AB95",
"N. c #C1AC9A",
"B. c #CCB299",
"V. c #EFBC84",
"C. c #FEBE8B",
"Z. c #FFBF81",
"A. c #E5BF9B",
"S. c #CCAFA4",
"D. c #C2B4A7",
"F. c #FFC483",
"G. c #F8C688",
"H. c #EFC491",
"J. c #F4C69B",
"K. c #FECA9B",
"L. c #F7C999",
"P. c #DDCDB6",
"I. c #DBC9A6",
"U. c #EDC7A2",
"Y. c #ECCBA3",
"T. c #EEC8AA",
"R. c #F0CAA4",
"E. c #EED1A9",
"W. c #FFD1A0",
"Q. c #E4CCB9",
"!. c #9CAFCC",
"~. c #B9B5C3",
"^. c #FFE9CD",
"/. c #FFEEDB",
"(. c #FFEDD5",
"). c #FFF4DD",
"_. c #FFFBDE",
"`. c #DAFFFF",
"'. c #FFF5E5",
"]. c #FFF9E5",
"[. c #F4F5EC",
"{. c #FBF5EC",
"}. c #F6FBEE",
"|. c #FDF9ED",
" X c #F3ECFF",
".X c #EBF6FF",
"XX c #EBFCFF",
"oX c #EAF9F7",
"OX c #F5F4F4",
"+X c #FCF5F3",
"@X c #FDFAF4",
"#X c #FBF5FD",
"$X c #F4FBFE",
"%X c #FCFCFC",
"&X c #F1F7FA",
/* pixels */
"                                                                                                                        ",
"                                                                                                                        ",
"                                                                                                                        ",
"                                                                                                                        ",
"                                                                                                                        ",
"                                                                                                                        ",
"                                                                                                                        ",
"                                                                                                                        ",
"                                                    = # X X # = -                                                       ",
"                                                  - }   3.,.$X    -                                                     ",
"                                                - X . + + + . @X{.M.-                                                   ",
"            t                                 : S.&XXXXX$X$XoX. x.d.{ -                                                 ",
"            ;                                 - 5.w.6.9.9.7.F `.. b.Q =                                                 ",
"          :   =                               = 2.e.8.8.r.6.m `.o z.<.#                                                 ",
"          ; (.=                               @ :.;.7.w.0.1.F o o E o #     ; = - ;                                     ",
"          - ].i.;                           = X + % , & & % c.n.. . . X %.t H.Y.Y.  ; :                                 ",
"          - '.u.#                           # @X%X$X.Xc.v.a.k.X @ P.. X +.- $.~ -.F.F.  = -                             ",
"          - ).d.u.=                       : B.OXOX%Xb.a.i.u.# O.# O.. X @ = $.^ &.^ Z.K.@   ;                           ",
"          ; ].{.h.#                       : M.W W Q Q k.u.# |  .# X . |.@ T.= = | ) C.K.@ I.                            ",
"            # @Xk.p.-                       - @ @ X . X @ z / *.= ..O |.X O.X.o.; ; '  .#     :                         ",
"            = ].{.j.{ ;                         - z O.).].^.' *.i t.. }.P @ @ = %.#.= =     ;                           ",
"              # ].s.k.@                           ; J.m./.].A.= = @ }.oX,.+ V z ` _ ] = ; :                             ",
"              : ).{.v.j.#                           ; U.Q.Q.X l.+ <.+ .X3.%X. @ = ; ;                                   ",
"                  ].{.h.u.=                           - # @ O % , 4.>.& >..X%X].#                                       ",
"                    ).[.d.N.=                         - *.# . & , q.q.!.$X$X&X{.@                                       ",
"                      _.].f.N.-                       - #.- N n , 1.4.!.z.$X$X+X@X=                                     ",
"                      - ).@Xd.N.=                     :     # X % :.+ z.~.#X[.+X+X=                                     ",
"                        = M.|.y.u.#                   :     -   X . a.v. X#X%X+X%X@ ;                                   ",
"                          ; = '.i.D.X @ =           ; _     ;   X b.v.%X%X X@X. . < =                                   ",
"                              - /.d.x.. y.= ;     : G.H.F.    = X . . . % * . J J U a =                                 ",
"                                - '.%X. %XX U.= - V.W.L.L.-   @ a 7 J L K T A A H J Z p -                               ",
"                                  # X @X+XX E.= U.Y.R.U.#   @ s 8 r 9 D P I J J H H P Z f = = ;                         ",
"                                  = u.|.X X./ ( = T.+.@ X . 2 g w w 7 r 9 J Z J K L J J 0 g a u =                       ",
"                                  = ].].X k %.F.' # @ X 7 M r 8 v w r 9 0 1 U G L L J J D 7 h g y -                     ",
"                                  - '.@XX E.F.! C.o.X . c q 1 3 8 7 r r 7 9 g G T L K T P 9 2 < f =                     ",
"                                  ; M.{.i.@ =.K.J.# j.. q r 1 4 l 1 X X @ @ @ a H L R S P c r g 2 @ ;                   ",
"                                    = N.d.l.X X @ f.. r e 9 r 1 7 0 a # ;     = 3 L U Y 5 q x x q $ B =                 ",
"                                      = # N.f.l.l.. 0 7 e 6 7 r 1 d =           # s p < v c q 6 + Q P C ;               ",
"                                          ; - # # X l 9 6 b 5 8 3 #               ; = f 8 e 8 . W e 7 C -               ",
"                                                  = > 9 x q v . . #                   - # # # u 8 r 7 s -               ",
"                                                    # 9 e c . X . #                           - a 9 1 u :               ",
"                                                    - s 7 q v 8 1 =                             = # = -                 ",
"                                                      - f r 5 g X =                                                     ",
"                                                        # X . . X                                                       ",
"                                                            . b b #                                                     ",
"                                                  : - = = [ Q n b #                                                     ",
"                                                - @ @ j y X Q E . X ;                                                   ",
"                                                = . . w h X . . . X =                                                   ",
"                                                - X . + X @ = @ . X =                                                   ",
"                                                  - = # = -     = # :                                                   ",
"                                                                                                                        ",
"                                                                                                                        ",
"                                                                                                                        ",
"                                                                                                                        ",
"                                                                                                                        ",
"                                                                                                                        ",
"                                                                                                                        ",
"                                                                                                                        ",
"                                                                                                                        ",
"                                                                                                                        "
};
