/* XPM */
static char *db6527f96e2e42e7c84854665b9441b8kyLWZjAzVF0pArr4[] = {
/* columns rows colors chars-per-pixel */
"60 60 195 2 ",
"   c None",
".  c #030201",
"X  c #0C0000",
"o  c #020C04",
"O  c #0A0903",
"+  c #01010B",
"@  c #140000",
"#  c #1B0000",
"$  c #110B0B",
"%  c #010113",
"&  c #00021C",
"*  c #080614",
"=  c #240000",
"-  c #2B0000",
";  c #330000",
":  c #3B0000",
">  c #3C341D",
",  c #000223",
"<  c #3C2D27",
"1  c #36352C",
"2  c #3B332D",
"3  c #3C3A2E",
"4  c #3B3526",
"5  c #342E35",
"6  c #2E363B",
"7  c #333533",
"8  c #3B3534",
"9  c #343934",
"0  c #3C3931",
"q  c #33343B",
"w  c #3C343C",
"e  c #353A3C",
"r  c #3B3B3B",
"t  c #440000",
"y  c #442F1E",
"u  c #4A3219",
"i  c #58290B",
"p  c #462E20",
"a  c #443424",
"s  c #4B3A24",
"d  c #483827",
"f  c #52382B",
"g  c #423933",
"h  c #423C3C",
"j  c #533C35",
"k  c #71531F",
"l  c #434237",
"z  c #7A5535",
"x  c #333942",
"c  c #3D3A42",
"v  c #433A42",
"b  c #3C444C",
"n  c #3A4757",
"m  c #386E7A",
"M  c #414048",
"N  c #544D43",
"B  c #725E4F",
"V  c #6D5555",
"C  c #79674F",
"Z  c #6B645D",
"A  c #64675E",
"S  c #645F65",
"D  c #5E6361",
"F  c #47727A",
"G  c #6D6762",
"H  c #646963",
"J  c #6B6A63",
"K  c #64656A",
"L  c #63696B",
"P  c #6B6B6C",
"I  c #676565",
"U  c #726A65",
"Y  c #76676A",
"T  c #6C6D71",
"R  c #706F74",
"E  c #6D7577",
"W  c #7A797D",
"Q  c #767679",
"!  c #914603",
"~  c #8C5208",
"^  c #945208",
"/  c #844D11",
"(  c #8D4F14",
")  c #914F1F",
"_  c #8C5313",
"`  c #91531D",
"'  c #8B5324",
"]  c #895C2D",
"[  c #93774F",
"{  c #887261",
"}  c #807373",
"|  c #BB8552",
" . c #BA885C",
".. c #9D8A7B",
"X. c #AC8F6D",
"o. c #B79169",
"O. c #AB8F77",
"+. c #B49173",
"@. c #AC9572",
"#. c #C38344",
"$. c #C28A47",
"%. c #CA884A",
"&. c #D28E45",
"*. c #C28B56",
"=. c #C08F64",
"-. c #FFC37B",
";. c #577196",
":. c #6B6F84",
">. c #64718B",
",. c #6C778B",
"<. c #767484",
"1. c #626E98",
"2. c #726E93",
"3. c #6D7994",
"4. c #66749A",
"5. c #786883",
"6. c #5871AC",
"7. c #5E75A5",
"8. c #546DB7",
"9. c #5A6FB1",
"0. c #686FA6",
"q. c #6274A1",
"w. c #6573AA",
"e. c #6277BA",
"r. c #6374C2",
"t. c #AE9180",
"y. c #B4A79B",
"u. c #BDAD9B",
"i. c #B6A99B",
"p. c #BFB09B",
"a. c #ADAEA9",
"s. c #ACA9A4",
"d. c #B5ADA5",
"f. c #BAACA4",
"g. c #B8AEAA",
"h. c #B4B2A7",
"j. c #BBB3A6",
"k. c #B5B2AC",
"l. c #BBB1AB",
"z. c #A8ACB3",
"x. c #ACB3B2",
"c. c #A9B6B8",
"v. c #B3B3B2",
"b. c #B5B6B6",
"n. c #A5B7AB",
"m. c #CBAC8D",
"M. c #C4AB95",
"N. c #C1AC9A",
"B. c #CCB299",
"V. c #EFBC84",
"C. c #FEBE8B",
"Z. c #FFBF81",
"A. c #E5BF9B",
"S. c #CCAFA4",
"D. c #C2B4A7",
"F. c #FFC483",
"G. c #F8C688",
"H. c #EFC491",
"J. c #F4C69B",
"K. c #FECA9B",
"L. c #F7C999",
"P. c #DDCDB6",
"I. c #DBC9A6",
"U. c #EDC7A2",
"Y. c #ECCBA3",
"T. c #EEC8AA",
"R. c #F0CAA4",
"E. c #EED1A9",
"W. c #FFD1A0",
"Q. c #E4CCB9",
"!. c #9CAFCC",
"~. c #B9B5C3",
"^. c #FFE9CD",
"/. c #FFEEDB",
"(. c #FFEDD5",
"). c #FFF4DD",
"_. c #FFFBDE",
"`. c #DAFFFF",
"'. c #FFF5E5",
"]. c #FFF9E5",
"[. c #F4F5EC",
"{. c #FBF5EC",
"}. c #F6FBEE",
"|. c #FDF9ED",
" X c #F3ECFF",
".X c #EBF6FF",
"XX c #EBFCFF",
"oX c #EAF9F7",
"OX c #F5F4F4",
"+X c #FCF5F3",
"@X c #FDFAF4",
"#X c #FBF5FD",
"$X c #F4FBFE",
"%X c #FCFCFC",
"&X c #F1F7FA",
/* pixels */
"                                                                                                                        ",
"                                                                                                                        ",
"                                                                                                                        ",
"                                                                                                                        ",
"                                                                                                                        ",
"                                                                                                                        ",
"                                                                                                                        ",
"                                                                                                                        ",
"                                                      - = # X X # =                                                     ",
"                                                    -     $X,.3.  } -                                                   ",
"                                                  - M.{.@X. + + + . X -                                                 ",
"                                                - { d.x.. oX$X$XXXXX&XS.:                                 t             ",
"                                                = Q b.. `.F 7.9.9.6.w.5.-                                 ;             ",
"                                                # <.z.o `.m 6.r.8.8.e.2.=                               =   :           ",
"                                    ; - = :     # o E o o F 1.0.w.7.;.:.@                               = (.;           ",
"                                : ;   Y.Y.H.t %.X . . . n.c.% & & , % + X =                           ; i.'.-           ",
"                            - =   F.F.-.~ $.- +.X . P.@ X k.a.v.c..X.X%X@X#                           # u.'.-           ",
"                          ;   @ K.Z.^ &.^ $.= @ X . O.# O.# u.i.a.b.%XOXOXB.:                       = u.d.).-           ",
"                            I.@ K.C.) | = = T.@ |.. X #  .| # u.k.Q Q W W M.:                       # h.{.].;           ",
"                        :     #  .' ; ; o.X.O.X |.O ..= *./ z @ X . X @ @ -                       - p.h.@X#             ",
"                          ;     = = #.%.= @ @ P }.. t.i *.' ^.'.).O.z -                         ; { j.{.'.=             ",
"                            : ; = ] _ ` z V + ,.oX}.@ = = A.]./.m.J.;                           @ k.s.'.#               ",
"                                  ; ; = @ . %X3..X+ <.+ l.X Q.Q.U.;                           # j.v.{.).:               ",
"                                      # '.%X.X>.& >.4., % O @ # -                           = u.h.{.].                  ",
"                                      @ {.&X$X$X!.q.q., & . # *.-                         = N.d.[.).                    ",
"                                    = @X@X$X$Xz.!.4.1., n N - #.-                       - N.f.'._.                      ",
"                                    = +X@X[.#X~.z.+ :.% X #     :                     = N.d.@X).-                       ",
"                                  ; @ %X|.@X#X Xv.a.+ X   -     :                   # u.y.|.M.=                         ",
"                                  = < . . @X X%X#Xv.b.X   ;     _ ;           = @ X D.i.'.= ;                           ",
"                                = a U J J . * % + . . X =     F.H.G.:     ; = y.. x.d./.-                               ",
"                              - p Z J H A A T K L J 7 d @   - L.L.W.V.- = U.X %X+ %X'.-                                 ",
"                        ; = = f Z P H H H J I P D 9 r 8 s @   # U.R.Y.U.= E.X +X@XX #                                   ",
"                      = u a g 0 G J L K J Z G 9 r 7 w w g 2 . X @ +.T.= ( / X.X |.u.=                                   ",
"                    - y g h 7 D J J L L G U 1 0 8 e w v 8 r M 7 X @ # ' F.%.k X '.].=                                   ",
"                    = f < 2 8 P T K L T G g 9 7 r r 8 8 3 1 q c . X o.C.! F.E.X @X'.-                                   ",
"                  ; @ 2 g r c P S R L H a @ @ @ X X 1 l 4 1 r q . j.# J.K.=.@ i.{.M.;                                   ",
"                = B $ q x x q 5 Y U L 3 =     ; # a 0 7 1 r 9 e r . f.@ X X l.d.N.=                                     ",
"              ; C P Q + 6 q c v < p s #           = d 1 r 7 6 e 7 0 . l.l.f.N.# =                                       ",
"              - C 7 e W . 8 e 8 f = ;               # 3 8 5 b 6 9 l X # # - ;                                           ",
"              - s 7 e 8 u # # # -                   # . . v q x 9 > =                                                   ",
"              : u 1 9 a -                           # . . . c e 8 #                                                     ",
"                - = # =                             = 1 8 v q 8 s -                                                     ",
"                                                    = X g 5 r f -                                                       ",
"                                                      X . . X #                                                         ",
"                                                    # b b .                                                             ",
"                                                    # b n Q [ = = - :                                                   ",
"                                                  ; X + E Q X y j @ @ -                                                 ",
"                                                  = X . . . X h w . . =                                                 ",
"                                                  = X . @ = @ X + . X -                                                 ",
"                                                  : # =     - = # = -                                                   ",
"                                                                                                                        ",
"                                                                                                                        ",
"                                                                                                                        ",
"                                                                                                                        ",
"                                                                                                                        ",
"                                                                                                                        ",
"                                                                                                                        ",
"                                                                                                                        ",
"                                                                                                                        ",
"                                                                                                                        "
};
