/* XPM */
static char *_948137aa5654d6a986e7421da844dc6EF5ZWjyQaFavJSGn[] = {
/* columns rows colors chars-per-pixel */
"60 60 214 2 ",
"   c None",
".  c #020202",
"X  c #0B0100",
"o  c #010902",
"O  c #01020B",
"+  c #01090B",
"@  c #090608",
"#  c #140100",
"$  c #1C0000",
"%  c #120800",
"&  c #120009",
"*  c #00130C",
"=  c #161900",
"-  c #000414",
";  c #00011A",
":  c #050914",
">  c #12131D",
",  c #240000",
"<  c #2C0100",
"1  c #260900",
"2  c #330000",
"3  c #3A0000",
"4  c #221115",
"5  c #25271A",
"6  c #041321",
"7  c #07192A",
"8  c #171927",
"9  c #191732",
"0  c #040A23",
"q  c #1F232F",
"w  c #172937",
"e  c #2A2E2D",
"r  c #21282C",
"t  c #35342D",
"y  c #3A3A2F",
"u  c #3E3725",
"i  c #262A34",
"p  c #3A2F35",
"a  c #2B3433",
"s  c #2B393C",
"d  c #2E3738",
"f  c #343433",
"g  c #353936",
"h  c #3A3A35",
"j  c #33353C",
"k  c #3A363C",
"l  c #343A3C",
"z  c #3B3B3C",
"x  c #3D3334",
"c  c #2B352C",
"v  c #430000",
"b  c #4A0000",
"n  c #530000",
"m  c #5E2B18",
"M  c #6F3310",
"N  c #452C25",
"B  c #413A37",
"V  c #4D3227",
"C  c #31423C",
"Z  c #71420A",
"A  c #764A28",
"S  c #785829",
"D  c #764F30",
"F  c #6C5837",
"G  c #735435",
"H  c #7A5839",
"J  c #1A2A4E",
"K  c #2E3A40",
"L  c #29394A",
"P  c #343641",
"I  c #343B43",
"U  c #3B3B41",
"Y  c #373948",
"T  c #323C57",
"R  c #433943",
"E  c #433741",
"W  c #354143",
"Q  c #3D4243",
"!  c #3F4941",
"~  c #394556",
"^  c #35466A",
"/  c #424451",
"(  c #545147",
")  c #775347",
"_  c #6D6A5D",
"`  c #63645F",
"'  c #70615E",
"]  c #685F63",
"[  c #6B5F73",
"{  c #5F6564",
"}  c #4A6874",
"|  c #506372",
" . c #656464",
".. c #6A6566",
"X. c #6C6865",
"o. c #66666A",
"O. c #6B666B",
"+. c #66696B",
"@. c #6A6A6B",
"#. c #70666D",
"$. c #736A68",
"%. c #6E6D73",
"&. c #6A6675",
"*. c #716E72",
"=. c #726173",
"-. c #6C7573",
";. c #7C797F",
":. c #777876",
">. c #777367",
",. c #994A04",
"<. c #924A0F",
"1. c #814B1B",
"2. c #885118",
"3. c #875527",
"4. c #8E725C",
"5. c #807772",
"6. c #DB872F",
"7. c #CB853A",
"8. c #DB8731",
"9. c #A68540",
"0. c #AE8B58",
"q. c #BF8D58",
"w. c #B49457",
"e. c #A69057",
"r. c #848170",
"t. c #989272",
"y. c #A88E6D",
"u. c #B08F6A",
"i. c #BB8863",
"p. c #B09761",
"a. c #B08E75",
"s. c #AC9474",
"d. c #A49170",
"f. c #B5907D",
"g. c #B3A57B",
"h. c #CB8946",
"j. c #C69855",
"k. c #D18C47",
"l. c #C18E61",
"z. c #C49368",
"x. c #C4AE7D",
"c. c #697287",
"v. c #7B7F80",
"b. c #697491",
"n. c #68789C",
"m. c #2592A7",
"M. c #53868D",
"N. c #688684",
"B. c #798EA1",
"V. c #5AA1A9",
"C. c #58B0C6",
"Z. c #9D9690",
"A. c #BDAA98",
"S. c #9DB0B5",
"D. c #ABACAC",
"F. c #AEADA5",
"G. c #B5ACA5",
"H. c #B3ACAB",
"J. c #B9AAA7",
"K. c #AAB1A7",
"L. c #B4B2AE",
"P. c #BBB2A4",
"I. c #A6A9B6",
"U. c #B5AFBC",
"Y. c #B2ACB3",
"T. c #ADB7BD",
"R. c #B5B5BC",
"E. c #B5B6B6",
"W. c #C9A989",
"Q. c #C8AE9F",
"!. c #C1B19A",
"~. c #C1ABA8",
"^. c #C3B2A2",
"/. c #E8C38F",
"(. c #FCC98E",
"). c #F8C68A",
"_. c #ECC692",
"`. c #EFCA91",
"'. c #EBC798",
"]. c #F2C994",
"[. c #FCC897",
"{. c #F4CC9A",
"}. c #F9C696",
"|. c #F4D197",
" X c #D7CBBD",
".X c #E7CAA8",
"XX c #F3CBA2",
"oX c #E8D0A2",
"OX c #F4D1A6",
"+X c #E9CBB3",
"@X c #C4DDDA",
"#X c #FFECCC",
"$X c #FFF2CC",
"%X c #FFEFDC",
"&X c #FFF6DC",
"*X c #D9F7FF",
"=X c #EDF2E8",
"-X c #FFF4E3",
";X c #F4F4ED",
":X c #FFF5EB",
">X c #F9F9EA",
",X c #F1EFF2",
"<X c #ECF6FC",
"1X c #E6FFFE",
"2X c #EFF5F5",
"3X c #F4F5F4",
"4X c #FCF6F5",
"5X c #FBFCF4",
"6X c #F4F5FB",
"7X c #FBF4FC",
"8X c #F4F9FB",
"9X c #FDFBFC",
"0X c #F6FCF0",
"qX c #F8E9EE",
/* pixels */
"                                                                                                                        ",
"                                                                                                                        ",
"                                                                                                                        ",
"                                                                                                                        ",
"                                                                                                                        ",
"                                                                                                                        ",
"                                                            # # # ,                                                     ",
"                                                      , S.*X*X<X0 & , , $ 1                                             ",
"                                                    $ o 1X} O O 6X9X;X@XV.  =                                           ",
"                                                  , H.O 1Xo 9X9X:.:.:.M.m.    ,                                         ",
"                                      < $ # $     # G.O o K.>.X # # X N.C.    <                                         ",
"                                  < $ P.L.E.-.. t.% G.X F.r.X G H D F o M.} #                                           ",
"                                , ~.4XG.X . :.v.. . . . X # {.q.1.3.S   . #                                             ",
"                              2 J.9XY.X F s.X 5.X # %  XX +X].).[._.w.  ,         v 3 v                                 ",
"                              < ^.9XN ) , $ a.$ z., $ .X$ .XW.$X#XH .X  <     v ,       b                               ",
"                              , A.P.V $ m M i.< k.2 , s.# y.G W.Q.-X.X$ <     <   D 7.6.                                ",
"                              , 4.~.N ) i.M h.h.v h.# X X d.u.H ~.# f.$ # # $ , , 2.,.8.7.  v                           ",
"                                # # J.$ , 1.2.h.7.j.# X X # , $ # , A $ # g.x.S H A <.,.k.  v                           ",
"                              o 0X;X. G.X # , 3.l., , u.XXXX/.{.OX'.}.[._.w.9.e.(           n                           ",
"                            X 3X=XP.# #       $ $ $ '.}.[.[.`.|.`._.{._.`.j.j.      2 3 v n                             ",
"                          # &X&X!.$             # # OX(.).(.].'.oXOXoXoXp.0.Z < < 2                                     ",
"                        # 5X-XW.<               X 9X# 0.q.i.$ $ # # # # $ < 2                                           ",
"                      , -X8XD.$                 X 9X. X # X . %.( Z.                                                    ",
"                    < &X0XD.P.,               . F.9X8X7X7XU.; c.c./                                                     ",
"                    , :XF.!.2                 o G.9X4X4X7X9XI.- b.b.;                                                   ",
"                  < %X4XH.$                   o H.qX9X9X9X6XT.- ; ; c.#                                                 ",
"                  X :XH.E.$                   o U.9X,X9X3X6X6XO ;.O . #                                                 ",
"                X <X9XH.X                     O I.7X9X3X5X3X3X@ . .                                                     ",
"                . 2XR.H.$                     O U.7X3X5X;X5X5X=X. E..                                                   ",
"              X >X9XR.X                       O R.Y.o . X . o o o D..                                                   ",
"              o >XL.D.#                       O D.X t h x p I Q f . . . X X # #                                         ",
"              o ;XL..                         + o t @.@.#.U I s h $...%.O.@.X.t .                                       ",
"              o 9XH.X                         + g ..+.+.+.l K a $.' $. .@.h t h x #                                     ",
"              o H.#                           + g O.+.+.@.a W g B B  .@.e h h f R @                                     ",
"              $ A.#                           o g X.@.+.+. .f h h g s s ! c l I j P o                                   ",
"              2 W.,                           o g X.@.+. .*.h X t f K W a c l j P K :                                   ",
"                3                             o h X.@.o.O...] . % . . O . / k f E P +                                   ",
"                b                             o h X.@.o.O.O.*.X   # X . h f z z B f o                                   ",
"                                              o h ..@.o. .@.o..       o y f j l h h o                                   ",
"                                              O h ..@.o.@.{ %.X       X u z - - O .     o * o o                         ",
"                                              . f @.o.o.+.@.#.X         X . ^ n.c.O O . g { -.s o                       ",
"                                              o g  .%. .` X.] $           . n.^ ~ T.s l o.;.O.j C X                     ",
"                                            X e g g +. ._ _ f X           . ~ - R.j l U &.[ =.E h #                     ",
"                                            X g l l U h B y z .           + O ;.;.k g f P Y k x f #                     ",
"                                            . a l P z f f l O             O f h j P z . o o o o o .                     ",
"                                            . l I Y e U j r O             X h f U O . X . X . X .                       ",
"                                            . r I P Q e 8 .               # 5 + O X # $ < , <                           ",
"                                            o o i q > . .                 < # X # # ,                                   ",
"                                          @ Y ~ - O O                       2 < < 2                                     ",
"                                        . O ; ; O                                                                       ",
"                                      O 6 | B.| O                                                                       ",
"                                    # : 7 L L L w .                                                                     ",
"                                    X 6 L L Y T J i <                                                                   ",
"                                    $ . : > 8 9 9 4 <                                                                   ",
"                                    < , # # @ & # , 3                                                                   ",
"                                                                                                                        ",
"                                                                                                                        ",
"                                                                                                                        ",
"                                                                                                                        ",
"                                                                                                                        "
};
