/* XPM */
static char *_7480201e9634ba5eedde488f1282ebd263CDlFMrZ4OmoxW[] = {
/* columns rows colors chars-per-pixel */
"60 60 190 2 ",
"   c None",
".  c #020102",
"X  c #0C0000",
"o  c #000906",
"O  c #01020A",
"+  c #030909",
"@  c #140000",
"#  c #1C0000",
"$  c #010312",
"%  c #00001A",
"&  c #230000",
"*  c #2B0000",
"=  c #330000",
"-  c #3B0000",
";  c #000024",
":  c #302F2B",
">  c #2E342D",
",  c #36332E",
"<  c #3C352B",
"1  c #333B2F",
"2  c #3B3528",
"3  c #2B2E35",
"4  c #372E35",
"5  c #2D3338",
"6  c #343433",
"7  c #3B3434",
"8  c #343A34",
"9  c #3B3A35",
"0  c #34343B",
"q  c #3C363B",
"w  c #353A3C",
"e  c #3B3B3B",
"r  c #420000",
"t  c #4C0000",
"y  c #4B341C",
"u  c #49381E",
"i  c #503719",
"p  c #433324",
"a  c #4A3624",
"s  c #43332A",
"d  c #483A28",
"f  c #463926",
"g  c #443634",
"h  c #433C37",
"j  c #403738",
"k  c #423C3C",
"l  c #483D3B",
"z  c #384134",
"x  c #755A3B",
"c  c #2D3542",
"v  c #3B3443",
"b  c #373A44",
"n  c #3A3C41",
"m  c #353340",
"M  c #423741",
"N  c #3D4142",
"B  c #3F4249",
"V  c #33426B",
"C  c #47444D",
"Z  c #424858",
"A  c #454359",
"S  c #5F5F5D",
"D  c #785B49",
"F  c #685E5C",
"G  c #765E52",
"H  c #5E655D",
"J  c #7D654E",
"K  c #64645D",
"L  c #6A6158",
"P  c #70695F",
"I  c #786756",
"U  c #656464",
"Y  c #6B6664",
"T  c #646C63",
"R  c #6C6B65",
"E  c #66666B",
"W  c #666D6C",
"Q  c #6D6C6B",
"!  c #6A676E",
"~  c #736A64",
"^  c #746D6C",
"/  c #716660",
"(  c #697166",
")  c #75796D",
"_  c #7E7969",
"`  c #7B7568",
"'  c #666A70",
"]  c #696C71",
"[  c #7B6F71",
"{  c #6D7374",
"}  c #7C7A73",
"|  c #79777A",
" . c #797677",
".. c #994C00",
"X. c #864E15",
"o. c #804712",
"O. c #805020",
"+. c #865C32",
"@. c #83695C",
"#. c #8B7858",
"$. c #827969",
"%. c #BC813C",
"&. c #CC8B2E",
"*. c #D48D2B",
"=. c #D48123",
"-. c #C7873D",
";. c #CE8C3D",
":. c #C9893E",
">. c #D78A38",
",. c #BF874A",
"<. c #BD8A4B",
"1. c #B28A4C",
"2. c #BF934A",
"3. c #BE8A54",
"4. c #BA8A5A",
"5. c #B58959",
"6. c #BE915B",
"7. c #B0915A",
"8. c #AD8E6F",
"9. c #BA8D63",
"0. c #B28969",
"q. c #BB9162",
"w. c #B6956C",
"e. c #A29177",
"r. c #C68D45",
"t. c #C98B41",
"y. c #C5894B",
"u. c #CA8A4D",
"i. c #C68346",
"p. c #D08748",
"a. c #D18C4D",
"s. c #C6904D",
"d. c #CA8E53",
"f. c #C6925A",
"g. c #C99258",
"h. c #C59366",
"j. c #FFBF7C",
"k. c #FEC57D",
"l. c #FFC274",
"z. c #6C6A82",
"x. c #6E728B",
"c. c #747089",
"v. c #6A6C92",
"b. c #68729A",
"n. c #BFAD9D",
"m. c #B5AB9F",
"M. c #A8ADAC",
"N. c #B4ADAB",
"B. c #B9AEAA",
"V. c #ACB2A8",
"C. c #B5B3AB",
"Z. c #BBB1A7",
"A. c #ABABB4",
"S. c #B2ADB3",
"D. c #ADB0B5",
"F. c #B7B1B3",
"G. c #C6B297",
"H. c #EFC789",
"J. c #FFC482",
"K. c #FFC882",
"L. c #FCC48A",
"P. c #FBC888",
"I. c #ECC49B",
"U. c #EDC798",
"Y. c #FFC494",
"T. c #FDC992",
"R. c #F3C79D",
"E. c #FECA9C",
"W. c #F6CA98",
"Q. c #E6CAAC",
"!. c #ECCAA9",
"~. c #F1CCAD",
"^. c #F5C7A3",
"/. c #ECD0A1",
"(. c #F2D5AB",
"). c #E4CFBB",
"_. c #E4CFB4",
"`. c #E5D1B0",
"'. c #FAD1B3",
"]. c #FBEEDD",
"[. c #FFF4DC",
"{. c #FEF3EC",
"}. c #F9F2E7",
"|. c #F0EFF7",
" X c #FEFCF3",
".X c #F6F5FB",
"XX c #F8F7FE",
"oX c #F6FDFF",
"OX c #FDFBFD",
"+X c #F8F7F2",
/* pixels */
"                                                                                                                        ",
"                                                                                                                        ",
"                                                                                                                        ",
"                                                                                                                        ",
"                                                                                                                        ",
"                                                                                                                        ",
"                                                                                                                        ",
"                                                                                        t     t                         ",
"                                                                                      - Y.* * Y.=                       ",
"                                                                                      & '.# & I.& * r                   ",
"                                                                                      # I.& R.q.& T.=                   ",
"                                                                                - & # & 3.,.f.& I.q.=                   ",
"                                                                                =   R.* ..>.j.f.w.# L.r                 ",
"                                                                                  = E.i...=.k.L.& U.d.-                 ",
"                                                                                    - a.*.*.t.L.T.g.-                   ",
"                                - = -   r t                                           - &.&.t.J.:.r                     ",
"                                *   X.= = L.-                     & & * *             - l.;.t.;.t                       ",
"                                * # h.O.& E.=                   # ].{.OX{.&           = P.J.%.-                         ",
"                              - u.5.# # & H.*                 & #._ } |  .[.*       * 7.W.L.-                           ",
"                              - = h.& 8./.1.=               & $._ _ N.N.N.$.[.& * r.& (.I.3.-                           ",
"                            - 4.0.# 9.R.Q.&                 # } ) } X @ X X . }.G.# # U.~.*                             ",
"                              & # # 3.T.!.*                 & ` ) . ~.I.~.).X X {.@ 6.L.^.-                             ",
"                            -   # 7.k.t.L.y.r                 # X `.<.y.9.Q.).X X # u.  =                               ",
"                              - * 2.:.-.J.L.y.-               & @ @ 6.<.# @ @ _.# 4.i.  r                               ",
"                                  - = <.f.P.K.t.-             @ c.z.X e.X N.Z.@ X.a.  t                                 ",
"                                      = = r.k.k.  -         & O ; b.{ . O N.C.@ X.p.  r                                 ",
"                                          r = s.    = -   & [ x.v.; O o ^ _ } X +.o.=                                   ",
"                                              =         * # . $ $ $ $ M.+X XOX X@ & -                                   ",
"                                                - =         # X X S.O oXXX.X|.OXB.&                                     ",
"                                                    - -     x X m.. D.A..XOXXXA.N.&                                     ",
"                                                        & @ . C.C.. OX.X}. XXXF.n.&                                     ",
"                                                        @ . XX.X.  XO O X . N.B.#                                       ",
"                                                & @ # @ . . O . . . e U Y ~ . n.*                                       ",
"                                        = * * # L { H T W 6 q q . e E U ^ F R @ *                                       ",
"                                    * @ J J J @./ U W w 8 7 7 j . Q E ! Y Y Q p &                                       ",
"                                  = I R Y R ~ F k 6 w n e 9 9 . k S ] ' ^ Y U 2 #                                       ",
"                                = G P R K U b b 0 C 4 7 : 9 e O 7 Q 3 b 6 9 W h &                                       ",
"                              r D Q K K T N c c b m 7 j e 9 O w 6 6 B n 6 9 5 2 &                                       ",
"                  * # &       & I ( T T z > n n 0 m 6 9 6 9 . e w 0 0 6 9 6 N p =                                       ",
"                * p k p &   # a 2 1 8 8 8 8 6 7 g s f u # @ X 6 . . . . 9 7 < #                                         ",
"              = y K | Y d X . 9 8 9 1 1 e 8 , d # & * =     # . w ] U 9 . < i *                                         ",
"              & X . E ! , . + w e 6 9 9 6 7 a &             & 0 0 W Q , 9 @ *                                           ",
"              * @ . O q 1 . . . O v M M 6 p *               # $ O + . 9 9 @                                             ",
"              = @ X O q e z V.O A % v 4 l #                 # O O . + . < &                                             ",
"                @ O O O 3 0 | $ b.V $ 7 s &                 # O O . . . @ *                                             ",
"                * @ . O n e q m % Z @ # &                   # O O . . @ @                                               ",
"                  = @ . . 8 q j X &                         # . . . . X &                                               ",
"                    & X X 9 q s #                           # . . . X @ =                                               ",
"                      & @ X q a *                           & . . . X *                                                 ",
"                      = * # y &                             * @ X @ # =                                                 ",
"                        - - =                                 = * * =                                                   ",
"                                                                                                                        ",
"                                                                                                                        ",
"                                                                                                                        ",
"                                                                                                                        ",
"                                                                                                                        ",
"                                                                                                                        ",
"                                                                                                                        ",
"                                                                                                                        ",
"                                                                                                                        "
};
