/* XPM */
static char *_c629e4d65b84055ad968bae886a5c6eZhCscn0tsRfihFE5[] = {
/* columns rows colors chars-per-pixel */
"60 60 214 2 ",
"   c None",
".  c #020202",
"X  c #0B0100",
"o  c #010902",
"O  c #01020B",
"+  c #01090B",
"@  c #090608",
"#  c #140100",
"$  c #1C0000",
"%  c #120800",
"&  c #120009",
"*  c #00130C",
"=  c #161900",
"-  c #000414",
";  c #00011A",
":  c #050914",
">  c #12131D",
",  c #240000",
"<  c #2C0100",
"1  c #260900",
"2  c #330000",
"3  c #3A0000",
"4  c #221115",
"5  c #25271A",
"6  c #041321",
"7  c #07192A",
"8  c #171927",
"9  c #191732",
"0  c #040A23",
"q  c #1F232F",
"w  c #172937",
"e  c #2A2E2D",
"r  c #21282C",
"t  c #35342D",
"y  c #3A3A2F",
"u  c #3E3725",
"i  c #262A34",
"p  c #3A2F35",
"a  c #2B3433",
"s  c #2B393C",
"d  c #2E3738",
"f  c #343433",
"g  c #353936",
"h  c #3A3A35",
"j  c #33353C",
"k  c #3A363C",
"l  c #343A3C",
"z  c #3B3B3C",
"x  c #3D3334",
"c  c #2B352C",
"v  c #430000",
"b  c #4A0000",
"n  c #530000",
"m  c #5E2B18",
"M  c #6F3310",
"N  c #452C25",
"B  c #413A37",
"V  c #4D3227",
"C  c #31423C",
"Z  c #71420A",
"A  c #764A28",
"S  c #785829",
"D  c #764F30",
"F  c #6C5837",
"G  c #735435",
"H  c #7A5839",
"J  c #1A2A4E",
"K  c #2E3A40",
"L  c #29394A",
"P  c #343641",
"I  c #343B43",
"U  c #3B3B41",
"Y  c #373948",
"T  c #323C57",
"R  c #433943",
"E  c #433741",
"W  c #354143",
"Q  c #3D4243",
"!  c #3F4941",
"~  c #394556",
"^  c #35466A",
"/  c #424451",
"(  c #545147",
")  c #775347",
"_  c #6D6A5D",
"`  c #63645F",
"'  c #70615E",
"]  c #685F63",
"[  c #6B5F73",
"{  c #5F6564",
"}  c #4A6874",
"|  c #506372",
" . c #656464",
".. c #6A6566",
"X. c #6C6865",
"o. c #66666A",
"O. c #6B666B",
"+. c #66696B",
"@. c #6A6A6B",
"#. c #70666D",
"$. c #736A68",
"%. c #6E6D73",
"&. c #6A6675",
"*. c #716E72",
"=. c #726173",
"-. c #6C7573",
";. c #7C797F",
":. c #777876",
">. c #777367",
",. c #994A04",
"<. c #924A0F",
"1. c #814B1B",
"2. c #885118",
"3. c #875527",
"4. c #8E725C",
"5. c #807772",
"6. c #DB872F",
"7. c #CB853A",
"8. c #DB8731",
"9. c #A68540",
"0. c #AE8B58",
"q. c #BF8D58",
"w. c #B49457",
"e. c #A69057",
"r. c #848170",
"t. c #989272",
"y. c #A88E6D",
"u. c #B08F6A",
"i. c #BB8863",
"p. c #B09761",
"a. c #B08E75",
"s. c #AC9474",
"d. c #A49170",
"f. c #B5907D",
"g. c #B3A57B",
"h. c #CB8946",
"j. c #C69855",
"k. c #D18C47",
"l. c #C18E61",
"z. c #C49368",
"x. c #C4AE7D",
"c. c #697287",
"v. c #7B7F80",
"b. c #697491",
"n. c #68789C",
"m. c #2592A7",
"M. c #53868D",
"N. c #688684",
"B. c #798EA1",
"V. c #5AA1A9",
"C. c #58B0C6",
"Z. c #9D9690",
"A. c #BDAA98",
"S. c #9DB0B5",
"D. c #ABACAC",
"F. c #AEADA5",
"G. c #B5ACA5",
"H. c #B3ACAB",
"J. c #B9AAA7",
"K. c #AAB1A7",
"L. c #B4B2AE",
"P. c #BBB2A4",
"I. c #A6A9B6",
"U. c #B5AFBC",
"Y. c #B2ACB3",
"T. c #ADB7BD",
"R. c #B5B5BC",
"E. c #B5B6B6",
"W. c #C9A989",
"Q. c #C8AE9F",
"!. c #C1B19A",
"~. c #C1ABA8",
"^. c #C3B2A2",
"/. c #E8C38F",
"(. c #FCC98E",
"). c #F8C68A",
"_. c #ECC692",
"`. c #EFCA91",
"'. c #EBC798",
"]. c #F2C994",
"[. c #FCC897",
"{. c #F4CC9A",
"}. c #F9C696",
"|. c #F4D197",
" X c #D7CBBD",
".X c #E7CAA8",
"XX c #F3CBA2",
"oX c #E8D0A2",
"OX c #F4D1A6",
"+X c #E9CBB3",
"@X c #C4DDDA",
"#X c #FFECCC",
"$X c #FFF2CC",
"%X c #FFEFDC",
"&X c #FFF6DC",
"*X c #D9F7FF",
"=X c #EDF2E8",
"-X c #FFF4E3",
";X c #F4F4ED",
":X c #FFF5EB",
">X c #F9F9EA",
",X c #F1EFF2",
"<X c #ECF6FC",
"1X c #E6FFFE",
"2X c #EFF5F5",
"3X c #F4F5F4",
"4X c #FCF6F5",
"5X c #FBFCF4",
"6X c #F4F5FB",
"7X c #FBF4FC",
"8X c #F4F9FB",
"9X c #FDFBFC",
"0X c #F6FCF0",
"qX c #F8E9EE",
/* pixels */
"                                                                                                                        ",
"                                                                                                                        ",
"                                                                                                                        ",
"                                                                                                                        ",
"                                                                                                                        ",
"                                                                                                                        ",
"                                                    , # # #                                                             ",
"                                            1 $ , , & 0 <X*X*XS.,                                                       ",
"                                          =   V.@X;X9X6XO O } 1Xo $                                                     ",
"                                        ,     m.M.:.:.:.9X9Xo 1XO H.,                                                   ",
"                                        <     C.N.X # # X >.K.o . G.#     $ # $ <                                       ",
"                                          # } M.o F D H G # r.F.X G.% t.. -.E.L.G.$ <                                   ",
"                                            # .   S 3.1.q.{.# X . . . . v.:.. X G.4X~.,                                 ",
"                                v 3 v         ,   w._.[.).].+XX  X% # X 5.X s.F X Y.9XJ.2                               ",
"                              b       , v     <   .XH #X$XW..X$ .X$ , z.$ a.$ , ) N 4X^.<                               ",
"                                6.7.D   <     < $ .X-XQ.W.G y.# s., 2 k.< i.M m $ V P.A.,                               ",
"                          v   7.8.,.2., , $ # # $ f.# ~.H u.d.X X # h.v h.h.M i.) N ~.4.,                               ",
"                          v   k.,.<.A H S x.g.# $ A , # $ , # X X # j.7.h.2.1., $ A.# #                                 ",
"                          n           ( e.9.w._.[.{.'.OX{./.XXXXu., , l.3., # X G.. ;X0Xo                               ",
"                            n v 3 2       j.j.`._.{._.`.|.`.}.}.}.'.$ $ $       # # P.=X3XX                             ",
"                                    2 < < Z 0.p.oXoXOXXX'.].(.).(.OX# #             $ !.&X&X#                           ",
"                                          2 < $ # # # # $ $ i.q.0.# 4XX               < W.-X5X#                         ",
"                                                    Z.( %.. X # X . 9XX                 $ D.8X-X,                       ",
"                                                    / c.c.; U.7X7X8X9XF..               , P.D.0X&X<                     ",
"                                                  ; b.b.- I.9X7X4X4X9XG.o                 2 !.F.:X,                     ",
"                                                # c.; ; - T.6X9X4X9XqXH.o                   $ H.4X%X<                   ",
"                                                # . . ;.O 6X6X3X9X,X9XU.o                   $ E.H.:XX                   ",
"                                                    . . @ 3X3X5X3X9X7XI..                     X H.4X2XX                 ",
"                                                  . E.. =X5X5X;X5X3X7XU.O                     $ H.R.2X.                 ",
"                                                  . D.o o o . X . o Y.R.O                       X R.9X>XX               ",
"                                        # # X X . . . f Q I p x h t X D.O                       # D.L.>Xo               ",
"                                      . t ..O.O.%...$.h s I U #.@.@.t o +                         . L.;Xo               ",
"                                    # p h t h $. .$.' $.a K l +.+.+...g +                         X H.9Xo               ",
"                                    X R f h h e @. .B B g W a @.+.+.O.g +                           # H.o               ",
"                                  + P j I l c ! s s g h h f  .+.+.+...g o                           # A.$               ",
"                                  : K P j l a a W K f t X h *. .+.+...g o                           , W.2               ",
"                                  + I B f k Q . . . . % . ] ..O.o.@.X.h o                             3                 ",
"                                  + f B z z f z . . #   X *.O.O.o.@.X.h o                             b                 ",
"                                  o h z l j f y o       . o.@. .o.@...h o                                               ",
"                        o + * o     . O - - z u X       X %.{ @.o.@...h .                                               ",
"                      o s -.{ g . . O c.n.^ . X         X #.@.+.o.o.@.f .                                               ",
"                    X C j O.;.o.l l T.~ ^ n..           $ ] X.` o.%. .g o                                               ",
"                    # z E =.[ &.U l j R.- ~ .           X f _ _  .+.f g e X                                             ",
"                    # f x k Y P f g k ;.;.. +           . z y B h U l l g X                                             ",
"                    . o o o o o . z P j z f .             O l f f z I l a .                                             ",
"                      . . . X X X . O U f h .             . r j U e I I l .                                             ",
"                          < , < $ # X . + 5 #               . 8 e Q P I r .                                             ",
"                                  , # # X # <                 . . > q i o o                                             ",
"                                    2 < < 2                       O O - ~ Y X                                           ",
"                                                                      O ; ; O .                                         ",
"                                                                      O | B.| 6 O                                       ",
"                                                                    . w L L L 7 : #                                     ",
"                                                                  < i J T Y L L 6 X                                     ",
"                                                                  < 4 9 9 8 > : . $                                     ",
"                                                                  3 , # & @ # # , <                                     ",
"                                                                                                                        ",
"                                                                                                                        ",
"                                                                                                                        ",
"                                                                                                                        ",
"                                                                                                                        "
};
