/* XPM */
static char *fe3a6179a8394ff897328fc0de546a97OkzFfuggAx3su4Rh[] = {
/* columns rows colors chars-per-pixel */
"60 60 229 2 ",
"   c None",
".  c #020201",
"X  c #0C0100",
"o  c #010A02",
"O  c #00020B",
"+  c #010A0A",
"@  c #0E0B05",
"#  c #140000",
"$  c #1B0000",
"%  c #1C0B00",
"&  c #16030C",
"*  c #180808",
"=  c #001208",
"-  c #101000",
";  c #010315",
":  c #0A0314",
">  c #000A13",
",  c #00011C",
"<  c #090919",
"1  c #001015",
"2  c #001219",
"3  c #161711",
"4  c #240100",
"5  c #2B0000",
"6  c #330000",
"7  c #3B0000",
"8  c #3F0D00",
"9  c #211112",
"0  c #241800",
"q  c #3C271C",
"w  c #040625",
"e  c #051725",
"r  c #121C2D",
"t  c #1A1C2B",
"y  c #041935",
"u  c #101E31",
"i  c #2C1C23",
"p  c #16232C",
"a  c #192539",
"s  c #34342C",
"d  c #363C2E",
"f  c #2D3837",
"g  c #3A3432",
"h  c #363A34",
"j  c #3C3C33",
"k  c #33333D",
"l  c #39343D",
"z  c #3D3B3B",
"x  c #36373A",
"c  c #2D2E2E",
"v  c #470000",
"b  c #410900",
"n  c #5D3A11",
"m  c #6F3504",
"M  c #42393B",
"N  c #45302A",
"B  c #32413A",
"V  c #7E4F1B",
"C  c #47423C",
"Z  c #7A5522",
"A  c #7E5235",
"S  c #2E364A",
"D  c #363A48",
"F  c #232F43",
"G  c #3D4A53",
"H  c #384959",
"J  c #3E4347",
"K  c #384964",
"L  c #2C4F62",
"P  c #434D59",
"I  c #575B57",
"U  c #474A4F",
"Y  c #5C615D",
"T  c #62625D",
"R  c #7B6144",
"E  c #464968",
"W  c #5D6867",
"Q  c #5F7678",
"!  c #646464",
"~  c #64656B",
"^  c #646D6B",
"/  c #6A6A6B",
"(  c #676A67",
")  c #646672",
"_  c #696A73",
"`  c #666972",
"'  c #716B72",
"]  c #687777",
"[  c #747D7B",
"{  c #787976",
"}  c #777069",
"|  c #854916",
" . c #8C5518",
".. c #845427",
"X. c #915521",
"o. c #B07927",
"O. c #917947",
"+. c #A97A46",
"@. c #B27A48",
"#. c #827775",
"$. c #877865",
"%. c #758C79",
"&. c #B2813B",
"*. c #B78749",
"=. c #B58D58",
"-. c #B38C52",
";. c #808D7C",
":. c #A98D64",
">. c #B78C66",
",. c #AB9369",
"<. c #B49469",
"1. c #B99462",
"2. c #B99273",
"3. c #B79075",
"4. c #C38E57",
"5. c #C7A975",
"6. c #5E7297",
"7. c #63728E",
"8. c #677683",
"9. c #767D83",
"0. c #646D97",
"q. c #6A749A",
"w. c #737991",
"e. c #736C8E",
"r. c #6670A1",
"t. c #7B8886",
"y. c #7A9D9D",
"u. c #658A92",
"i. c #75A79B",
"p. c #7E8EA3",
"a. c #77A7A2",
"s. c #77B9C2",
"d. c #7BE7F0",
"f. c #889894",
"g. c #AD9780",
"h. c #82A29D",
"j. c #B4A79B",
"k. c #B5B285",
"l. c #9DB3AE",
"z. c #9AB6B7",
"x. c #8FABB0",
"c. c #ACABAC",
"v. c #ADABA3",
"b. c #B5ADAA",
"n. c #B9AFAD",
"m. c #B3A8A6",
"M. c #AFB3A6",
"N. c #ABB2AB",
"B. c #A4B4AD",
"V. c #B2B3AD",
"C. c #B7B7A7",
"Z. c #A8ADB9",
"A. c #B1ADB3",
"S. c #B7ACB4",
"D. c #ABB5B1",
"F. c #AEB4BA",
"G. c #A6BBB8",
"H. c #B4B2B4",
"J. c #B2B5BC",
"K. c #B8B5B7",
"L. c #C0B19E",
"P. c #FFBF87",
"I. c #FFBF91",
"U. c #EDBF83",
"Y. c #C1B7B0",
"T. c #BEC09B",
"R. c #BECEBE",
"E. c #B3C0A6",
"W. c #D3C08F",
"Q. c #D5C799",
"!. c #EEC88A",
"~. c #FAC689",
"^. c #F3CA94",
"/. c #FECA93",
"(. c #F3C69A",
"). c #F6D19B",
"_. c #F5CE91",
"`. c #CFCAB1",
"'. c #EBCAA4",
"]. c #E9C7A6",
"[. c #F8CFA8",
"{. c #F6D5A5",
"}. c #F2D0B7",
"|. c #AAB3C1",
" X c #A7BAC5",
".X c #B0B7C1",
"XX c #98C5C5",
"oX c #93D8D3",
"OX c #A2C5C9",
"+X c #B2C7C8",
"@X c #A8D6C7",
"#X c #A7D4D3",
"$X c #BED8D1",
"%X c #ABCDD7",
"&X c #94E3C8",
"*X c #B7D9E6",
"=X c #93E0F4",
"-X c #B6FFFF",
";X c #A6E2ED",
":X c #C4DBDA",
">X c #D0DFC6",
",X c #D1E6D5",
"<X c #E8ECC8",
"1X c #FFF7DF",
"2X c #D5F6E9",
"3X c #C6FFFF",
"4X c #D4FFFF",
"5X c #D7FBFF",
"6X c #DFEDF4",
"7X c #F5FAEE",
"8X c #FAFDEE",
"9X c #F9F4EA",
"0X c #EFEFFB",
"qX c #FCEDF7",
"wX c #EDF6F4",
"eX c #EDF9F3",
"rX c #EBF4FE",
"tX c #E3FEFC",
"yX c #EDFCFD",
"uX c #E5F4FF",
"iX c #F4F6F4",
"pX c #FAF5F2",
"aX c #F4FCF4",
"sX c #FCFAF5",
"dX c #F4F4FD",
"fX c #FEF4FE",
"gX c #F3FDFD",
"hX c #FCFCFD",
"jX c #EAF1E8",
/* pixels */
"                                                                                                                        ",
"                                                                                                                        ",
"                                                                                                                        ",
"                                                                                                                        ",
"                                                                                                                        ",
"                                                                                                                        ",
"                                                                                                                        ",
"                                                                                                                        ",
"                                                                                                                        ",
"                                                                                                                        ",
"                                  5 6 7                 5 $ # # # $ 4                                                   ",
"                              6 4 '.[.  v             # m.hXrXH Z.U C.$                                                 ",
"                        6 4 4 U././.I.|   7         # b.pXhXdXrX7.uX8.H.4                                               ",
"                    6 5 '.].'.).!.@.  m @.@.4     # } A.sXiXiXgXq.yX6.|.X                                               ",
"                  6   5.(.(.^.).Z $ 4 4 +.@.*.4 O.# Y.A.gXsXpXfXdXr.uXw.J.4                                             ",
"                  6   ,.^./.!.^.$       5 *.*.Z $ X b.c.N.sXpXfXdX0.rX8..X#                             >X              ",
"                  6     =.~.!.!.4       o.5 | A X . M.M.M.pXqXfXdX0.yX7.|.$                             <X              ",
"                    4   n +.Z &.5         =.4 4 X X { M.D.H.fXfXdX7.rX7. X%                             <X              ",
"                      . q   O.4         4.# X X 3.$ } A.|.; O |. XK  XH OX-                             <X              ",
"                        # $ #         -.# 9X{ . <.Z $ #.O H G ; ; ; ; > 2                               2X              ",
"                                      # sX. O hXX :.<.# V.O G P K K K L e                             XX3X    &X        ",
"                                    @ pXdXO 8.O X 1X,.# v.D.. O , , ; ; e                             =X  -Xd.oX        ",
"              4 # .               X 9XhXwXO 7.0.; fXhX. V.V.S.qXhX0XdXF.+                                 4X3X@X        ",
"          6 $ i a y 1           . 7XsXiXaXyX, q.e.; A.. { c.S.fXdXhXgXv.@                           $X  tXtX4X  #       ",
"      4 $ & : , w y >         . 8XaX7X8X8XsXdXO . X X I . F.S.fXrXyXyX`.%                           :XyXgXgX4Xh.$       ",
"    5 X < w.; E K w         X . iXpXaX7Xm.m.H.#.X #.$.X . . b.b.7XaX8X`.8                           :XyXiXwXu.l.$       ",
"    $ + D ) O O , ,     . . g . b.fXfXfXfXJ.c.. K.j.# :.,.# # # X X $ b                           l.:XgXeX[ z.aX4       ",
"    $ . + . h / S D . . f I ~ ' . m.fXfXrXgX. . n.X # <.{.$ -.                                    +XgXyX[ D.l.jX$       ",
"      $ . z ^ W ! . p G P ~ _ ~ / @ . A.hXeXN.. j.# $ =.'.4                                     E.eXt.9.c.K.tX2XX       ",
"        # k W ( M / W ` ) _ _ ~ Y T / . . o . . X 3.4 1.'.4                                   C.aXt.] D.H.gX2Xo         ",
"        # , x j s ! _ _ / / T / / / ! ' ~ ~ T C g # $ ^.'.4                                 Y.gX9.t.N.D.dXyX5Xo         ",
"        $ w x h j z k ` ` ^ ( ! ^ W ` ` l z j s x # >.^.].5                               Q.f.p.Z.F.B.aXgX6X+           ",
"        $ w k D z k S S S r r p p r F S x s d h f . 1.~.}.5                           T.R.f.f.G.Z.F.aXaXyX[ .           ",
"        4 * : S k t u u e r O . + 1 a p c z h f B X *.~.{.4                       W.>Xh.x.*XB.N.gXrXgXgX] o             ",
"          4 # < w , ; O O .         o . g c l l z # *.~.{.$                   `.@Xa.y.:X|..XwXgXeXyXgX8.+               ",
"            4 $ # # #                   . z l M N 4 4.&.-.# # # $ 5       Q.  a.s.;X Xl.dXdXgXgXyX%.. X                 ",
"                                          . x N 5 V X. .m -.# b.9Xk.$   %.i.y.#Xz.z.gXgXgXgXrX8.+ o                     ",
"                                            . X >.4...4 /.>.X dXaX. . ;.#XoXXXG.yXgXhXaX+X+ o o                         ",
"                                            . . :.1.# ].].$ X fX9X. K..X%X5XyXeXtX$X. o =                               ",
"                                            X @ 4 $ # # $ }.X pXsX. fXgXtXOX. . . .                                     ",
"                                          5 # R | ~. ._...'.X aXdX. X . > 1                                             ",
"                                          6 # g...P.| /.5 :.. aXgXJ..                                                   ",
"                                          7 0 . # 2.5 2.2.# M.G.gXl.o                                                   ",
"                                            X c . # $ $ $ L.N.G. X=                                                     ",
"                                              . J [ c.n.n.b.D.Q >                                                       ",
"                                            $ . > O O . O O + = o                                                       ",
"                                            $ . O > O O D D O 3 %                                                       ",
"                                            5 # # # # # & & 9 4 6                                                       ",
"                                              v 7     7 6 6 7 7                                                         ",
"                                                                                                                        ",
"                                                                                                                        ",
"                                                                                                                        ",
"                                                                                                                        ",
"                                                                                                                        ",
"                                                                                                                        ",
"                                                                                                                        ",
"                                                                                                                        ",
"                                                                                                                        ",
"                                                                                                                        ",
"                                                                                                                        "
};
