/* XPM */
static char *_339da34f7ad4a3f8b36c96d28c3e166VaowVI8a64ngVA5g[] = {
/* columns rows colors chars-per-pixel */
"60 60 234 2 ",
"   c None",
".  c #0B0000",
"X  c #140100",
"o  c #1A0A01",
"O  c #1C0905",
"+  c #2A0C01",
"@  c #260900",
"#  c #3A0E00",
"$  c #2A140D",
"%  c #23130C",
"&  c #341404",
"*  c #3E1A07",
"=  c #3A1C0A",
"-  c #381507",
";  c #2C1611",
":  c #2C1C16",
">  c #3C1E13",
",  c #341E19",
"<  c #331B14",
"1  c #2C211B",
"2  c #3D2213",
"3  c #3B231B",
"4  c #3D291C",
"5  c #36241A",
"6  c #3B200D",
"7  c #2D2423",
"8  c #292725",
"9  c #3A2621",
"0  c #332A23",
"q  c #3C2C24",
"w  c #362C29",
"e  c #392A27",
"r  c #3C3127",
"t  c #3C332B",
"y  c #37312C",
"u  c #3C3531",
"i  c #441A05",
"p  c #4C1C02",
"a  c #451C0A",
"s  c #4C1C0C",
"d  c #411606",
"f  c #541D02",
"g  c #5A1C00",
"h  c #551C08",
"j  c #4C1D11",
"k  c #4C2202",
"l  c #43210E",
"z  c #4B210B",
"x  c #522104",
"c  c #52230B",
"v  c #592209",
"b  c #432415",
"n  c #4A2413",
"m  c #4C2916",
"M  c #44261B",
"N  c #4A231B",
"B  c #442A1C",
"V  c #4D2B1C",
"C  c #462915",
"Z  c #532313",
"A  c #512A15",
"S  c #542C1B",
"D  c #5B2D1D",
"F  c #5C2A15",
"G  c #4C301E",
"H  c #46351A",
"J  c #54321E",
"K  c #5C331D",
"L  c #642E1A",
"P  c #62331B",
"I  c #68371B",
"U  c #733B1D",
"Y  c #602400",
"T  c #422D24",
"R  c #4D2E22",
"E  c #432A26",
"W  c #542E22",
"Q  c #5F2F21",
"!  c #423123",
"~  c #4D3223",
"^  c #42342B",
"/  c #4B332A",
"(  c #46392E",
")  c #533323",
"_  c #5B3323",
"`  c #53362D",
"'  c #543A2D",
"]  c #5B3A2C",
"[  c #58372A",
"{  c #443934",
"}  c #493836",
"|  c #543C32",
" . c #5B3C34",
".. c #573D37",
"X. c #633523",
"o. c #6B3524",
"O. c #643924",
"+. c #6A3B25",
"@. c #62352C",
"#. c #643C2D",
"$. c #6B3A2A",
"%. c #7C3D24",
"&. c #723E28",
"*. c #773A25",
"=. c #623D33",
"-. c #6B3E32",
";. c #584638",
":. c #55402F",
">. c #6B432D",
",. c #67442B",
"<. c #74422C",
"1. c #7A452E",
"2. c #6C4331",
"3. c #6D4835",
"4. c #6D4C3C",
"5. c #624338",
"6. c #744533",
"7. c #744934",
"8. c #7B4B34",
"9. c #734C3B",
"0. c #7B4D3C",
"q. c #7A4735",
"w. c #74513D",
"e. c #7D513D",
"r. c #7B5436",
"t. c #5B4B43",
"y. c #4F4641",
"u. c #695347",
"i. c #735444",
"p. c #7B5442",
"a. c #795C4C",
"s. c #6C5C53",
"d. c #6C5349",
"f. c #776356",
"g. c #7F756C",
"h. c #83482C",
"j. c #9A5328",
"k. c #824E37",
"l. c #894D34",
"z. c #835235",
"x. c #84543B",
"c. c #855A3C",
"v. c #8D553C",
"b. c #935332",
"n. c #955B39",
"m. c #8F502A",
"M. c #A7592C",
"N. c #A55729",
"B. c #A65C32",
"V. c #96613D",
"C. c #A8653C",
"Z. c #8B5542",
"A. c #845944",
"S. c #8B5A43",
"D. c #8A5A4B",
"F. c #835744",
"G. c #935A46",
"H. c #87614C",
"J. c #886452",
"K. c #94664F",
"L. c #AC6B47",
"P. c #B3724C",
"I. c #BD7246",
"U. c #AA7658",
"Y. c #B47755",
"T. c #A87E64",
"R. c #8E8478",
"E. c #A88E79",
"W. c #C0977B",
"Q. c #D2A57C",
"!. c #988F80",
"~. c #B39D87",
"^. c #A59182",
"/. c #BDA38B",
"(. c #BDA592",
"). c #BFAE9B",
"_. c #AFA393",
"`. c #C79E82",
"'. c #CCAA84",
"]. c #CAA689",
"[. c #D2A98D",
"{. c #DAAC8C",
"}. c #D9AB85",
"|. c #DDB38D",
" X c #DBB68D",
".X c #CAAD95",
"XX c #C6AD97",
"oX c #CCB29A",
"OX c #C6B29D",
"+X c #DCB594",
"@X c #DCB994",
"#X c #D4B49C",
"$X c #DBBB9E",
"%X c #D5B597",
"&X c #CDB091",
"*X c #E2B596",
"=X c #E4BB94",
"-X c #E4BB9B",
";X c #ECBC9B",
":X c #E7B899",
">X c #EBB993",
",X c #C4B3A3",
"<X c #CCB4A1",
"1X c #D4BAA3",
"2X c #DABAA4",
"3X c #D6BEA9",
"4X c #E1BEA0",
"5X c #DAC199",
"6X c #E3C19C",
"7X c #ECC39B",
"8X c #E5C398",
"9X c #F3C69D",
"0X c #F0C197",
"qX c #DCC2A4",
"wX c #D9C6AA",
"eX c #D9C5B2",
"rX c #E4C1A3",
"tX c #EDC5A2",
"yX c #E5C6AC",
"uX c #E8C9AA",
"iX c #F5CCA5",
"pX c #FCCEA4",
"aX c #F4C4A3",
"sX c #E9D3AE",
"dX c #E7CCB3",
"fX c #EBD3B7",
"gX c #FDDBB4",
"hX c #FCDDBA",
"jX c #F3D7B8",
"kX c #FFD9AE",
"lX c #FFE1BC",
"zX c #F3DBC1",
"xX c #FCE6C9",
"cX c #F1E7D3",
/* pixels */
"                                                            r                                                           ",
"                                                            q                                                           ",
"                                                            r                                                           ",
"                                                            r                                                           ",
"                                                            T                                                           ",
"                                                            T                                                           ",
"                                                            !                                                           ",
"                                                            T                                                           ",
"                                                            T <X,X                                                      ",
"                                                              .XwX,X,X                                                  ",
"                                                            B .X.X#XOX).                                                ",
"                                                            V ].&X%X].XX                                                ",
"                                                            m ].[.'.rX#X(.                                              ",
"                            {                               C ].|.}.].&X1X~.                                            ",
"                            u                               m [.}.|.{.'.oX(.                                            ",
"                            q                               V +X=XQ.|.@XyXoXOX                                          ",
"                            B (.                            V [.@X'.+X+X%X5X'./.                                        ",
"                            G #XeX                            [.+X@X=X@X@X@X X'.                                        ",
"                            G 2X3XdX                          %X+X=XtX+X+X=X=X%X<X                                w     ",
"                            n ].yX1XeX                        -X-X|.aX*X*X;X|.-XoX                                u     ",
"                            n W.rXrXfX<X                      `.-X{.7X:X;X;X{.-X$X~.                              y     ",
"                              `.-X6XrXoX                      yX-X*X*XaXaX>X*X:X X&X                              0     ",
"                              {.:X;XiXjX3X                    2X%XuX+XtXaX;X;X:X=X6X                                ,X  ",
"                              +X9X9XpXtX1X                      #XyXqXrX;XpX;X;X|.6X                                OXOX",
"                              -X9XpX9X7XdX                          wXuX7X0XtXiX=X@X                                XXoX",
"                              -XiXkXpXtXuX                            sX7X7X7XiX=X$X                                #X$X",
"                              4XtXiX7XgXdX                              sX8X7X-X{.1X                                $X].",
"                              rXhXgXgXgXjX                              wXuX=X8X%X(.                                E.$X",
"                              dXfXjXlXhXfX                  w           H qX8X@X.XXX                                .XyX",
"                            / 2XxXjXlXhXzX                  0     8 8 1 ! qX+X+X/.^.                                ~.3X",
"                            4     xXxXxXfX                  { y 8 8 7 { 9 2 -X'./.                                ! :.eX",
"      , T M 3 M b M 3 5     !       cXxXeX                  w 1 8 u 7 w 9 ! ].~.E.                                q / ;.",
"      B 9.k.q.k.1.x.p.4.& - B - 3     cX                  . E 9 7 7 7 r ^ 4 ).~.                                  t ! ;.",
"      2 A.v.l.b.l.l.k.A.i * n > E o . cX                  . ^ 5 u u 0 0 q ( _.!.                                  ( ;.;.",
"      b 7.8.h.h.h.z.<.e.S * X.& ! . o eXB > M X       . . . T T 0 w t r t r R.                                    q } ;.",
"      M l z v f p p c c s s D n ! o X = S s s j N M , 9 q T 3 $ t y t 0 r ^ g.                          , B > b C R ' ;.",
"       .#.S F F L I c +.D D D ] ;.. X J.Z.G.G.F j W W + O + = u.4 q q t.t { .                         3 a.K.S.G.n.n.V.V.",
"      3 i._ D O.k.8.8.7.6.0.j a 2 X 2.o.%.%.L h o.2.p.n n l l a.f.q ( q T d.| X                       _ e.k.f g Y f f f ",
"        =.N Z Z o.<.6.<.F.0.2.i b l Z.l.l.%.h.f 8.+.O.i i i a a.s.s.! ' [ J a z z c z p p c x p i A # 8.S.c f x.S.r.H.w.",
"        ..[ @.D 6.8.0.e.6.7.w._ i F.v %.h.%.U x K.S.x.8.F Z i H.f.f./ J T.T.U.Y.P.P.P.P.P.P.C.m.z.p x.z.h 8.P e.O.3.J.G ",
"        /  .=.@.$.D.0.0.0.>.2.O.D P o.h f x k k k k h h h s z a.f.s.4.K U.Y.P.I.I.N.M.j.j.j.j.b.v.p S.p h <.$.$._ _ 9.V ",
"          d./ 5.=.W _ p._ 9.9.2.$.D L &.1.c.r.,.I P &.&.G.K.J.a.a.5.,.x.h.m.B.j.M.M.B.B.m.n.b.v.S.c h P o.o.$.6._ S R   ",
"            q 3 ` b = * # d # s X.0.>.6.7.A.r.c.z.8.Z.Z.D.2.= f.i.w.z x.L.P.L.C.L.n.b.v c i n n n a D Z X.8.O.X.n ~ T   ",
"              { 5 4 ~ ) #.#.q.$.S 2.S #.>.>.>.8.8.8.<.O.F.) & a.i.3.i x f f g g g f f s D W W _ 9.3.9.0.0.D n S M |     ",
"                  T u.4.] S @.#.#.4.w.p.w.A.D.Z A.F.A.A 4.& f.a.] ,.9.7.<.I %.U U I I &.8.8.6.e.7.,.A J A m b 6 ;.      ",
"                    2 B 4.9.#.W J n n m m S 2.Z D.D.F.l = = f.M =.#.#._ 8.$.F +.O.O.+.K +.P I O.z A ) S C 2 ' ;.        ",
"                    ' ~ 2 @ & + & * = = _ #.-.s Q p.p.C = i.i.N 9.#.#.#.#.#.) ) ~ ] R _ a S Z Z D #.V N ` ; ,           ",
"                    @ 2 ' | ' :.4. .] ] 5. .@.N -.W ) + ~ R W W N - - & @ + > < T T /  .`  .#.] ] ) R E ^ e             ",
"                s.t.3 $ O 1 : % , 9 T 3 9 / E $ ` |  .3 `  . .>  . . . . ...| / 3 3 9 9 E E T T / T t.f.                ",
"                  ^ u...                      % 9 ; : $ 3 ; < $ ; ; ; $ ; : $ % O O O   : e } y.q 0                     ",
"                                                                                                                        ",
"                                                                                                                        ",
"                                                                                                                        ",
"                                                                                                                        ",
"                                                                                                                        ",
"                                                                                                                        ",
"                                                                                                                        ",
"                                                                                                                        ",
"                                                                                                                        ",
"                                                                                                                        "
};
