/* XPM */
static char *a83684f8c3004dcec33a9959d8467497GKzqhbr6H4dNOdtm[] = {
/* columns rows colors chars-per-pixel */
"60 60 213 2 ",
"   c None",
".  c #050000",
"X  c #0B0100",
"o  c #150100",
"O  c #1D0100",
"+  c #1A0B03",
"@  c #180E09",
"#  c #1D1208",
"$  c #1C1A1B",
"%  c #171715",
"&  c #250D04",
"*  c #2A0E01",
"=  c #2B0500",
"-  c #340900",
";  c #25120B",
":  c #2D140B",
">  c #2C1408",
",  c #321304",
"<  c #3C1904",
"1  c #351A0C",
"2  c #3D1B0C",
"3  c #381607",
"4  c #2C1B14",
"5  c #261710",
"6  c #301E15",
"7  c #3B1D13",
"8  c #301C19",
"9  c #3A1F18",
"0  c #3F200E",
"q  c #3B2215",
"w  c #36231B",
"e  c #3B241B",
"r  c #3C2A1D",
"t  c #342114",
"y  c #3D2C24",
"u  c #392A25",
"i  c #421606",
"p  c #4D1600",
"a  c #451A02",
"s  c #4D1A02",
"d  c #441C0C",
"f  c #4A1D0B",
"g  c #531C02",
"h  c #591C00",
"j  c #541F0A",
"k  c #431F11",
"l  c #461F18",
"z  c #531F11",
"x  c #45230C",
"c  c #4C220C",
"v  c #482006",
"b  c #532205",
"n  c #5B2205",
"m  c #53220B",
"M  c #5B270A",
"N  c #432313",
"B  c #4C2413",
"V  c #42241A",
"C  c #4B251A",
"Z  c #432A1D",
"A  c #4B2B1C",
"S  c #462A17",
"D  c #532614",
"F  c #542C1C",
"G  c #5B2D1B",
"H  c #592A15",
"J  c #51311E",
"K  c #5A331D",
"L  c #612F16",
"P  c #62331C",
"I  c #6D391C",
"U  c #753D1D",
"Y  c #7B3E1B",
"T  c #763915",
"R  c #432C23",
"E  c #4C2D21",
"W  c #402B28",
"Q  c #5A2F21",
"!  c #453126",
"~  c #4B3123",
"^  c #45332B",
"/  c #4D342B",
"(  c #533324",
")  c #5B3424",
"_  c #5D3927",
"`  c #5B352A",
"'  c #5A3C2E",
"]  c #57382B",
"[  c #4F3D33",
"{  c #533F33",
"}  c #5B3B33",
"|  c #623422",
" . c #643A22",
".. c #6B3B23",
"X. c #63362B",
"o. c #633B2B",
"O. c #6C3D2B",
"+. c #6A3728",
"@. c #713F22",
"#. c #713F2D",
"$. c #623F32",
"%. c #6A3E31",
"&. c #7F411C",
"*. c #5C4232",
"=. c #5E4439",
"-. c #554035",
";. c #63412D",
":. c #6C432B",
">. c #7C4023",
",. c #73432D",
"<. c #7E492D",
"1. c #774427",
"2. c #634334",
"3. c #6C4333",
"4. c #6B4935",
"5. c #63443A",
"6. c #674A3B",
"7. c #6F493C",
"8. c #684737",
"9. c #754634",
"0. c #7A4A34",
"q. c #734A3B",
"w. c #7C4B39",
"e. c #7D4534",
"r. c #7C513C",
"t. c #5D494A",
"y. c #644E40",
"u. c #734D43",
"i. c #6A5144",
"p. c #765345",
"a. c #7C5341",
"s. c #7C5D4C",
"d. c #715551",
"f. c #803F19",
"g. c #8A4C2A",
"h. c #864928",
"j. c #984E28",
"k. c #8A522F",
"l. c #9B542B",
"z. c #9D5026",
"x. c #834D33",
"c. c #814731",
"v. c #8D5133",
"b. c #83533C",
"n. c #8C553B",
"m. c #89593B",
"M. c #955332",
"N. c #9B5633",
"B. c #945D3D",
"V. c #975938",
"C. c #A35C3A",
"Z. c #A65B37",
"A. c #AD613F",
"S. c #845543",
"D. c #8B5A44",
"F. c #8B5A49",
"G. c #875A47",
"H. c #9E5F40",
"J. c #8E654B",
"K. c #966242",
"L. c #85605A",
"P. c #A56442",
"I. c #AA6845",
"U. c #B86E45",
"Y. c #B4744C",
"T. c #BD764B",
"R. c #BC754A",
"E. c #A77556",
"W. c #AE7E5A",
"Q. c #B57A55",
"!. c #C6774C",
"~. c #B78D66",
"^. c #A88D73",
"/. c #AF967D",
"(. c #BB9775",
"). c #B89779",
"_. c #C0936E",
"`. c #C49C7D",
"'. c #C99A76",
"]. c #CBA07E",
"[. c #988D83",
"{. c #A08E80",
"}. c #A89A8A",
"|. c #B49C85",
" X c #BA9D88",
".X c #B6A18F",
"XX c #BEA38C",
"oX c #BEA994",
"OX c #B8A693",
"+X c #C49E81",
"@X c #C5A484",
"#X c #CDA582",
"$X c #C4A589",
"%X c #C6A78B",
"&X c #D5AA87",
"*X c #D8AC87",
"=X c #DCB68E",
"-X c #D3AB91",
";X c #C3B19D",
":X c #D2B69B",
">X c #DAB695",
",X c #E1BB94",
"<X c #C8B3A1",
"1X c #E3C29D",
"2X c #EACAA3",
"3X c #E8C8A6",
"4X c #EDD0A8",
"5X c #F4D2AA",
"6X c #F2D3B2",
"7X c #F2D8B6",
"8X c #ECDCD2",
"9X c #E5D2C3",
"0X c #FFE3C6",
/* pixels */
"                                                                  ^                                                     ",
"                                                                  u                                                     ",
"                                                                  y                                                     ",
"                                                                  y                                                     ",
"                                                                  ^                                                     ",
"                                                                  R                                                     ",
"                                                                    |.oX                                                ",
"                                                                    XXoX                                                ",
"                                                                    XX:X                                                ",
"                                                                    $X%X|.                                              ",
"                                                                    $X@X|.                                              ",
"                                                                    `.@X/.                                              ",
"                                                                    +X#X$X                                              ",
"                                                                    #X&X^.                                              ",
"                                    8X                              `.#X$X                                              ",
"                                    <X9X                          ~ `.*X(.                                              ",
"                                    6X:X                          Z -X&X_.                                              ",
"                                    >X5X                          ~ +X'.'.>X                                            ",
"                                    2X2X                          Z %X].'.4X                                            ",
"                                    ,X1X.X                        ~  X`.~.6X                                            ",
"                                    =X5X.X                        ~  X@X~.6X                                            ",
"                                    5X5XoX                        Z  X$X(.%X                                            ",
"                                    =X2X<X                        Z   |.(.7X                                            ",
"                                    5X5X;X                        Z   oX).                                              ",
"                                    5X4X|.                        !   OX^.                                              ",
"                                    2X2X.X                        e     |.                                              ",
"                                    1X7X                          W     {.                                              ",
"                                  Z 7X7X                          ^     [.                                              ",
"                                  Z 6X3X                          W $   }.                                              ",
"            8 V N B f a 2 S q     R O 7X                          W % % [.                                              ",
"            ( r.<.x.>.>.1.,...- : E , 0Xe                         ! % % [.                                              ",
"            A b.n.H.M.V.B.n.x.f 7 V x x e                         ! %                                                   ",
"            C 3.e.c.c.<.m.b.,.i V V 2 O , V Z q Z q               r 4 #                                                 ",
"            V C z j m b a c c B V V E = = 3.c G < F S V Z e w u w w ; 4                                           N x x ",
"            / X.| H P b.D.P | ) N 2 C O ..n.H.B.B.B.H D A 7 ; ; 4 8 8 4                                     R p.G.m.K.B.",
"            R u.Q G P 0.,.S.#.9.u.C c P @.U T &.Y T g P q.2 e e R / O e e q Z e Z 1                         S r.m.h h h ",
"              } d D c m G G w.9.S.i ,.m g V.h.f.Y h.h x. .2 k , 0 S x x :.r.b.M M n b p b s c a b b s m D - b.n.s n v.U ",
"              } ` ) ) 9.9.b.9.S.9.D 0.b.K.g Y g.g.Y s E.b.) F ) J :.< J.E.Q.Y.T.T.T.U.Z.N.N.P.I.Y.I.V.g.p n.n.g <.I n.b.",
"              ^ =.5.) ) a.a.F.w.b.S.,.....x.g g g n g c m a D x x x v  .W.Q.Y.R.R.!.U.U.Z.A.C.I.Z.z.N.M.n x.g m ,.P O.G ",
"                [ *.2.2.3.X.| +.+.#.| O.| b.0.0.b.S.,.,.P 9.,.J.A A < c b k.l.l.z.z.z.j.Z.C.C.M.N.M.h.v.g j P G X.o.q._ ",
"                  { & , 3 B D i i f | O.S.9.w.w.S.S.F.S.G.S.b.S.7 7 C 9.O.g v.P.Q.I.P.I.n.n.s s h s m s D G F ) 8.8.( C ",
"                    W R A C 3.X.o.o.X.| | | | +.O.+.S.9.#.| | d L.7 u.q.9.s b h g h p b s m c K G :.| 9.3.7.q.u.( A A A ",
"                      o E p.q._ o.$.` %.3.w.,.#.0.D.m D.F.G.H d 7.l ` X.9.0.c.U U >.I @.P  . .:...9.,.:.O.) ) E ~ 7 q y.",
"                        o 3 C 7.5.5.` o.X.O.P L ..@.H w.r.a.B a.p.u.k 3. . .,.,...P  .P  .:.K o.O.)  .B F F A E Z / { X ",
"                        & ( J ( * : 1 7 d c D P P :.a | a.a.x s.s.i.A 8.2.4.2.o.) K X.F K F N C C C ( ) ) $.A ~ 1 r X X ",
"                        9 7 2 ] { -.=.5.6.' ' ;.4.o.d ;.4.3 N N A ' N q 3 , , 1 V E A ( ] ( ' ' 2.2.E V N 7 V Z y X X   ",
"                      t.d.1 * 1 t 8 4 8 y e w e R r : *.*.( S o.4.4.< _ 8.*.' =.=.=.R e q 7 R Z N V N 2 A N ~ W X X     ",
"                        W i.-.                  @ @ + # w & 1 1 1 * * 1 : & 8 ; 4 4 5 @ + ; ; 4 e e V V e e o           ",
"                                                                X . . X . . . . . . . .                                 ",
"                                                                                                                        ",
"                                                                                                                        ",
"                                                                                                                        ",
"                                                                                                                        ",
"                                                                                                                        ",
"                                                                                                                        ",
"                                                                                                                        ",
"                                                                                                                        ",
"                                                                                                                        ",
"                                                                                                                        ",
"                                                                                                                        "
};
