/* XPM */
static char *_477511433f547a9aea8d9c228dad8534acPNSWPdb7RJrdo[] = {
/* columns rows colors chars-per-pixel */
"60 60 227 2 ",
"   c None",
".  c #030302",
"X  c #0C0402",
"o  c #040B02",
"O  c #0A0A03",
"+  c #03040C",
"@  c #0A050B",
"#  c #030A0C",
"$  c #0B0A0B",
"%  c #130202",
"&  c #1C0200",
"*  c #120B01",
"=  c #180809",
"-  c #011401",
";  c #001B00",
":  c #00110D",
">  c #001C0C",
",  c #151305",
"<  c #040314",
"1  c #0A0513",
"2  c #020A13",
"3  c #0B0915",
"4  c #02041A",
"5  c #0A021C",
"6  c #030B1B",
"7  c #0B0E1C",
"8  c #120A12",
"9  c #130518",
"0  c #011214",
"q  c #061419",
"w  c #101211",
"e  c #230500",
"r  c #250900",
"t  c #2D0200",
"y  c #330004",
"u  c #010223",
"i  c #020B23",
"p  c #02032C",
"a  c #030A2A",
"s  c #0A0826",
"d  c #03122A",
"f  c #000134",
"g  c #02033C",
"h  c #080737",
"j  c #001438",
"k  c #1F3823",
"l  c #253729",
"z  c #460402",
"x  c #551703",
"c  c #560D0E",
"v  c #650800",
"b  c #741911",
"n  c #563511",
"m  c #682B00",
"M  c #792906",
"N  c #6C2F0F",
"B  c #721D22",
"V  c #563337",
"C  c #4A382D",
"Z  c #6E2426",
"A  c #015300",
"S  c #005D03",
"D  c #085705",
"F  c #145600",
"G  c #114918",
"H  c #0D4F11",
"J  c #284F0D",
"K  c #006400",
"L  c #006C00",
"P  c #007300",
"I  c #176100",
"U  c #154730",
"Y  c #214521",
"T  c #795802",
"R  c #755111",
"E  c #497B18",
"W  c #64721D",
"Q  c #7A4E3E",
"!  c #755838",
"~  c #6D582B",
"^  c #010243",
"/  c #030A42",
"(  c #04044B",
")  c #2E3A4D",
"_  c #353C4E",
"`  c #2D3858",
"'  c #323C5C",
"]  c #373E52",
"[  c #1B3D62",
"{  c #263B65",
"}  c #443E4C",
"|  c #2B434A",
" . c #374249",
".. c #364157",
"X. c #29405F",
"o. c #284666",
"O. c #324569",
"+. c #3A4070",
"@. c #414046",
"#. c #6C5249",
"$. c #467650",
"%. c #444A76",
"&. c #4F5571",
"*. c #842C00",
"=. c #864E04",
"-. c #944E08",
";. c #8C5701",
":. c #985300",
">. c #815317",
",. c #895323",
"<. c #875832",
"1. c #9D7925",
"2. c #A27D24",
"3. c #887A71",
"4. c #199A17",
"5. c #0B9D0F",
"6. c #2B9618",
"7. c #30931B",
"8. c #0BA804",
"9. c #0DA419",
"0. c #15A118",
"q. c #14A40E",
"w. c #1A9E21",
"e. c #298B2D",
"r. c #298E3C",
"t. c #30952D",
"y. c #38884B",
"u. c #298343",
"i. c #498152",
"p. c #7B8457",
"a. c #7E8176",
"s. c #77A564",
"d. c #AC8100",
"f. c #BD9230",
"g. c #A4A73C",
"h. c #CC9215",
"j. c #CDA005",
"k. c #C8942A",
"l. c #C88C38",
"z. c #DC9733",
"x. c #D18F32",
"c. c #848247",
"v. c #BA9A4B",
"b. c #B78D5B",
"n. c #B89753",
"m. c #B1924F",
"M. c #BA9362",
"N. c #AB916B",
"B. c #99A263",
"V. c #A7A37E",
"C. c #B8A270",
"Z. c #C78A4A",
"A. c #C5985A",
"S. c #CE8D46",
"D. c #C4956E",
"F. c #FBDA56",
"G. c #FBD969",
"H. c #FFD878",
"J. c #FAE275",
"K. c #F2E062",
"L. c #B69996",
"P. c #B1978F",
"I. c #8CB99A",
"U. c #98A899",
"Y. c #A5A789",
"T. c #A6A299",
"R. c #9B9EAC",
"E. c #979BA8",
"W. c #9A9DBA",
"Q. c #8F95B0",
"!. c #AA9AA9",
"~. c #A39CB5",
"^. c #B49BAE",
"/. c #9BA1A5",
"(. c #9AA7A9",
"). c #93B4A6",
"_. c #9DA3B3",
"`. c #99A7B5",
"'. c #8FA9A6",
"]. c #A6A6A4",
"[. c #A4A5B2",
"{. c #A5A7B8",
"}. c #C29D8A",
"|. c #FFDB84",
" X c #FBD889",
".X c #FCDB97",
"XX c #E4DC95",
"oX c #D4F898",
"OX c #FFE188",
"+X c #FEE291",
"@X c #E5F085",
"#X c #D8DDB4",
"$X c #FBD9A3",
"%X c #ECD8B4",
"&X c #CAECA0",
"*X c #F4EAAB",
"=X c #9B9CCB",
"-X c #979CC8",
";X c #8F93D3",
":X c #9A9CD3",
">X c #9A9BDE",
",X c #969AD6",
"<X c #A29ED0",
"1X c #9BA3C9",
"2X c #9AA1D5",
"3X c #A3A8C8",
"4X c #A2A3D3",
"5X c #A4A5DC",
"6X c #989BE7",
"7X c #9A9FF1",
"8X c #99A2E5",
"9X c #A2A2E7",
"0X c #D2FFDA",
"qX c #FFFCCD",
"wX c #FFFED4",
"eX c #FFFBDC",
"rX c #F0E8C4",
"tX c #DCFFE7",
"yX c #FDFAE7",
"uX c #EDFEFD",
"iX c #ECF3F7",
"pX c #F6FCF5",
"aX c #FDFFF5",
"sX c #F4F6FF",
"dX c #FBF6FF",
"fX c #F5FCFF",
"gX c #FCFDFE",
/* pixels */
"                                                                                                                        ",
"                                                                                                                        ",
"                                                                                                                        ",
"                                            / p f f f f p g                                                             ",
"                                      2X=XW.gXgXgXfXgXgXsXgXs u s u                                                     ",
"                                  >X=XsXgXfXgXfXgXgXaXgXgXgXsXgXgXgXu f                                                 ",
"                              :X3XgXgXgXgXgXgXgXgXgXaXgXgXgXfXfXfXgXgXgXi h                                             ",
"                          >X1XgXgXgXgXgXgXgXgXgXgXgXfXgX~.{.Y.Y.Y.V.wXwXeXaXu                                           ",
"                        :XgXfXgXgXgXgXgXfXgXfXgXfXgX4X,X>X_.XXK.F.F.F.F.G., * O                                         ",
"                      sXsXgXsXgXgXgXgXgXgXsXgXgXW.:X        ~ T f.h.j.j.d.F.J.XX7                                       ",
"                    sXsXgXdXgXgXgXgXgXgXgXgX<X6X                  #.>.k.h.h.k.1.%X+                                     ",
"                  sXgXgXgXgXgXgXgXgXgXgXsX4X                          <.-.z.G.k.r * 5                                   ",
"                fXgXgXgXaXgXT.aXgXgXgXgX5X                              Q =.z.G.|.n.~ =                                 ",
"              fXgXgXfXgXgX].aXgXgXgXfX4X              j p d 0 0 j         Q T k.H.|.n.%                                 ",
"            sXgXgXgXgXgX[.fXgXgXgXgX:X            6 > G y.S r.S u.; q       <.k.k.H.A.&                                 ",
"          sXgXgXpXgXgX~.gXgXgXgXsX:X            0 y.A t.K 4.L w.L e.H 6     & T J.l.R e u                               ",
"          gXgXgXgXgX[.R.gXfXfXfX>X            i y.K 4.L 8.8.0.0.9.w.e.;     & T H.;.e V.p.#                             ",
"        dXgXgXgXgXfX[.gXgXgXfX1X              q S 4.5.q.8.8.5.9.P 0.K y.a   % b.A.R X a.#Xo                             ",
"        gXgXgXgXgX_.R.gXgXgX=X              / U r.L 4.L 0.L 9.P L L 4.S : 5 * % #.%   ^ p                               ",
"      dXgXgXgXgXgX_.fXgXgXgX6X                - S 6.S 6.K 6.K 6.K 6.L r.- < 3 1 5                                       ",
"      gXgXgXgXgXE.{.gXgXgX-X                a U D D I A 7.F g.@XF S 4.S - 6 4 p                                         ",
"    sXgXgXgXgXgX_.gXgXgXsX5X                  0 s.E oXoXJ @Xf.|.J D A D - 3Xp                                           ",
"    sXgXgXgXgX/.[.gXgXgXfX;X                    - B.*XXX+Xv.t v.W &XJ - `.%.h                                           ",
"    gXgXgXgXgX[./.gXgXgX-X                      @ & .X.XZ.t *Xm.T *X* /._.1Xf                                           ",
"  sXgXgXgXgXgXR.gXgXgXgX:X                      = & Z.|.r & qX.Xl.l.r T.]._.&.^                     7X                  ",
"  sXgXgXgXgXW.{.gXgXgXgX,X                      5 ! m..X%XrX%X$Xz.:.N.aXgXgX`.f                   6XsX                  ",
"  sXgXgXgXgX-X3XiXpXgXgX9X                        9 }.wXyXaXyX$Xx.:.qXpXgXgXgX1X^               2XfX                    ",
"  fXgXgXgXgX4X  gXgXgXgX-X                        f #.n r & e $X=.v.yX(.gXgXyXC s               1XfX                    ",
"  fXgXgXgXfX4X  sXgXdXgXgX5X                        = b.x *.M Z.<.eXaXfX&.gXn.m.C             7XfX                      ",
"  fXgXgXgXfX:X    fXgXgXgXQ.                        * R S.x.S.,.P.gXpXfX/.* n.v.C.C         6XsX                        ",
"  fXgXaXaXgX:X    dXgXgXfX3X                          % r ~ #.X [.(.uXI.).k Y.wX.XM.V     ;XsX                          ",
"  sXgXaXgXsX        fXgXgXfX8X                      1 %X%X& % } 4 `.).$.G I.tX- m..XP.^.~.gX                            ",
"  fXsXgXgXgX        sXfXgXsX1X                      4 3.z B c y 9 6 `.'.tX0Xe.F , N.!.~.gX                              ",
"  dXgXfXgXgXgX        fXsXgXgX=X                      9 y c B Z !.R.fXuXi.D t.D o Y.].gXP.V                             ",
"    gXgXpXgXfX=X        gXsXfXsX=X>X                      !.!.gXgXgXl Y $.G G ; U.Y.eX$X.XD.V                           ",
"    sXgXgXpXgX            gXgXgXsXfX:X>X6X          9X:X1XfXuX| _ + - - ; ; > (.fXO & n. X.Xb.V                         ",
"    sXgXgXgXfXfX              fXfXfXfXfXfX`.W.1X:XsXfXfXfX| | : 2 q o - - '.uXuX7 % n m .X+X|.M.9                       ",
"      sXgXgXgXgX                  sXfXsXfXfXuXfXfX' ....6 6 0 . # + 0 /.(.fX) ..< % D..XOXH.OXn.C s h ^                 ",
"      fXfXgXgXiXsX                          a 4 ' ' 6 # 6 4 4 6 7 R.R.gXgX .: # ..X $X=.;.H.l.,.C dXdXgXO +             ",
"        fXgXsXgXgXgX                      ( u ....i # # < 5 {.[.E.gXgX< + + o 0 ) 3 & A.l.x.-.m t L.^.T.qX#Xp           ",
"          dXsXgXgXsXgX-X,X                g p ..u i + (.~.~.gXgXgX# # + @ + 7 ..o.O.3 % ! ,.z v v z & L.c.#Xh           ",
"            fXfXgXgXsXfXfX-X2X6X          h 4 W.W._.(.gXgXgXfX# 6 4 7 < 8 1 + ` o.o.O.6 . & c B b b x & * X             ",
"                sXfXfXfXfXfXfXfX4X-X=X=XW.[.].gXgXgXgXgXX + i h     g u + @ 0 6 o.[ { O.%.) 3 = c M m |.X               ",
"                      fXfXgXgXgXsXgXgXfXgXfXgXiXgX8 @ . O 2             h s + 2 i X.O.{ ` O.o.] & t 2. X8               ",
"                              sXfXsXsXfXdXgX. , @ @ $ $ 1 a               ^ 4 < 4 4 < 4 4 d u ' ] @.o O < f             ",
"                                            < $ $ @ . @ < u /               h 5 3 + 8 @ + 4 6 i 6 6 6 ] ] u             ",
"                                            g s + $ w . $ 5 p                 f < $ + $ 3 @ $ . # + + 3 ..i i p         ",
"                                              f 4 3 . O X < h                   f s 6 + @ X O $ . $ $ + _ 6 : 2 f       ",
"                                              g p 4 + O O +                         / u # O . $ . + w + # # 2  .i f     ",
"                                                  < . $ o 7 f                           p 4 s 4 7 4 4 < 2 2 2 2 _ p     ",
"                                              p < w $ O O . s g                               ( f g ^   p 4 2 7 ' +.^   ",
"                                            f 6 # . o . # 3 4 f                                           4 2 2 u %.f   ",
"                                            a + o o o 7 4 p p g                                           6 2 2 u ` g   ",
"                                            f i 4 4 a p   ( g                                           f a 4 6 a h ^   ",
"                                                                                                        ( f f f h g     ",
"                                                                                                                        ",
"                                                                                                                        ",
"                                                                                                                        ",
"                                                                                                                        ",
"                                                                                                                        "
};
