/* XPM */
static char *_327b4770e8548d0eb30351e43767656OfxZRHwBhmUewVNK[] = {
/* columns rows colors chars-per-pixel */
"60 60 225 2 ",
"   c None",
".  c #020502",
"X  c #0A0401",
"o  c #020B01",
"O  c #0B0A02",
"+  c #02050B",
"@  c #0C050A",
"#  c #030B0D",
"$  c #0B0C0C",
"%  c #130301",
"&  c #1C0300",
"*  c #120A00",
"=  c #1D0A00",
"-  c #16060C",
";  c #011301",
":  c #0A1303",
">  c #001B00",
",  c #001209",
"<  c #0B1901",
"1  c #161300",
"2  c #010313",
"3  c #090412",
"4  c #020A14",
"5  c #0C0B12",
"6  c #01021B",
"7  c #020D1B",
"8  c #0B0E1B",
"9  c #130711",
"0  c #021314",
"q  c #04121C",
"w  c #09131D",
"e  c #171E17",
"r  c #230200",
"t  c #2C0100",
"y  c #250C00",
"u  c #2D0900",
"i  c #20020A",
"p  c #31100C",
"a  c #002100",
"s  c #1C291A",
"d  c #373216",
"f  c #000124",
"g  c #000B23",
"h  c #00022B",
"j  c #000A2C",
"k  c #021225",
"l  c #000133",
"z  c #00013B",
"x  c #1B302B",
"c  c #233A29",
"v  c #283639",
"b  c #3B3129",
"n  c #420000",
"m  c #431506",
"M  c #731B17",
"N  c #6B110A",
"B  c #583903",
"V  c #463308",
"C  c #643900",
"Z  c #652D0C",
"A  c #682C2E",
"S  c #144A0C",
"D  c #025303",
"F  c #0C5202",
"G  c #025C00",
"H  c #0A5B00",
"J  c #09540D",
"K  c #125400",
"L  c #10560E",
"P  c #094919",
"I  c #1A4B1B",
"U  c #2A4A00",
"Y  c #374700",
"T  c #21411C",
"R  c #006401",
"E  c #006900",
"W  c #007300",
"Q  c #234424",
"!  c #394136",
"~  c #464F00",
"^  c #6D4100",
"/  c #7C5718",
"(  c #6B5000",
")  c #62661C",
"_  c #494520",
"`  c #765C28",
"'  c #625721",
"]  c #706E27",
"[  c #000045",
"{  c #00005D",
"}  c #1B3250",
"|  c #2A3949",
" . c #2C3C5A",
".. c #343D52",
"X. c #383C57",
"o. c #222E49",
"O. c #2E3E62",
"+. c #313D68",
"@. c #2B3C76",
"#. c #273B7A",
"$. c #2D414A",
"%. c #3A444B",
"&. c #32404D",
"*. c #2B4459",
"=. c #364656",
"-. c #2D4169",
";. c #334365",
":. c #344377",
">. c #6B5351",
",. c #457E51",
"<. c #4D6565",
"1. c #855411",
"2. c #827E59",
"3. c #089E05",
"4. c #19980A",
"5. c #169D1A",
"6. c #0E9E18",
"7. c #299417",
"8. c #00A400",
"9. c #00AC02",
"0. c #09AA06",
"q. c #09A80B",
"w. c #14A80C",
"e. c #02B204",
"r. c #0AB10C",
"t. c #0BA513",
"y. c #0AA917",
"u. c #16A318",
"i. c #1B9925",
"p. c #298A26",
"a. c #388433",
"s. c #339135",
"d. c #2F8F37",
"f. c #7F8800",
"g. c #44853A",
"h. c #7D883C",
"j. c #76B33E",
"k. c #798459",
"l. c #7D8242",
"z. c #7B8263",
"x. c #7EB272",
"c. c #968D08",
"v. c #84853F",
"b. c #8B872B",
"n. c #B38F3B",
"m. c #C68E36",
"M. c #C7933A",
"N. c #8B8847",
"B. c #849243",
"V. c #B99247",
"C. c #A8955A",
"Z. c #B49154",
"A. c #B99657",
"S. c #A58E5A",
"D. c #85A55C",
"F. c #A2A441",
"G. c #849877",
"H. c #B68F67",
"J. c #B99562",
"K. c #B49965",
"L. c #A69675",
"P. c #BA9D7B",
"I. c #9DA87D",
"U. c #AEA968",
"Y. c #B8A770",
"T. c #C49449",
"R. c #C89645",
"E. c #C9914B",
"W. c #F1DC5D",
"Q. c #E1E64C",
"!. c #DADC7D",
"~. c #FBD879",
"^. c #F0D970",
"/. c #E1EA75",
"(. c #99958F",
"). c #A99B98",
"_. c #99A789",
"`. c #8DA99A",
"'. c #9BA899",
"]. c #99B29A",
"[. c #85BD96",
"{. c #AEAB8E",
"}. c #9A9DA8",
"|. c #96A2A5",
" X c #9CA9A3",
".X c #98A5B1",
"XX c #A2AAA6",
"oX c #A3ADAC",
"OX c #A6A8A7",
"+X c #A2A5B4",
"@X c #A4B2A5",
"#X c #DDDB84",
"$X c #FFDC8A",
"%X c #FFD884",
"&X c #FFDC94",
"*X c #FDDC9E",
"=X c #FBD292",
"-X c #E6DB93",
";X c #D7E986",
":X c #FEE186",
">X c #FFE78F",
",X c #E4EE98",
"<X c #FFE495",
"1X c #F6E599",
"2X c #D3DBAB",
"3X c #F6DBA6",
"4X c #EFD5A2",
"5X c #D3F4A3",
"6X c #F8E3A8",
"7X c #EAE5AB",
"8X c #D2DFCE",
"9X c #F4D8C0",
"0X c #DDF1D9",
"qX c #FFFEC5",
"wX c #E9F8DC",
"eX c #FFFBD8",
"rX c #EAF6EA",
"tX c #F4FDEF",
"yX c #FEFDEA",
"uX c #EBFCF6",
"iX c #F5FFF4",
"pX c #FBFEF4",
"aX c #F4FEFE",
"sX c #FCFEFD",
"dX c #EDEEEB",
/* pixels */
"                                                                                                                        ",
"                                                                                                                        ",
"                                                                                                                        ",
"                                                                                                                        ",
"                                                  4X~.^.                                                                ",
"                                                y r y c.!.O                                                             ",
"                                            /.Q.W.^.^.= b.2Xf                                                           ",
"                                          : f.c.y m B r U.eX2                                                           ",
"                                      2X;X/./.( r m Z t {.pX2                                                           ",
"                                            X   >.r M n ).sX+                                                           ",
"                                            3   b r N M i }.dX2                                                         ",
"                                              6   r N M - +XpX2                                                         ",
"                                              z   d n M - +XsX6                                                         ",
"                                                @ d t A @ }.sX6                                                         ",
"                                                . p r p $ oXsX6                                                         ",
"                                          z 6 @ O O X o ; `.pX2                                                         ",
"                                      z l } o.v o ; > > > ; ; ;                                                         ",
"                        l h l z     l j *.*.$., > I P ,.c Q Q Q ; o 4                                                   ",
"                      f   + g f 6   j O. .*., > d.d.P `.sXsX'._.; > > > ; #                                             ",
"                    h x + # =...7 7 +.:.-.g ; S G R [.aXsXsX> > g.F p.R p.J a +                                         ",
"                    f | k .. .j h +.@.#.@.k > g.s.D uXsXpX; D i.E u.3.w.t.5.R a.,                                       ",
"                  z o.4 j  .;.h h :.:.@.+.q > F F wXiXsXtXa i.y.q.q.e.9.9.r.w.R a                                       ",
"                  z | 2 ;.;.6 7 -.-. .X.8 . > I S wXiXpX> a.R y.0.8.e.e.e.9.9.u.D ;                                     ",
"                  h 4 q O.f w + *.&.O % * O ; T I ].sXpX> G i.y.0.e.9.e.9.e.9.y.s.> ;                                   ",
"                  h 4 # *.g 4 X ! * Z.V.A.& * o c `.sXtXa a.R 6.q.9.e.8.0.r.8.u.D a   ;                                 ",
"                  l   # *.6 # X * S.>X~.%XZ.P.X # <.oXiX; L p.W w.0.0.0.q.3.0.u.s.> x.  +   h [                         ",
"                  h   0 *.g 3 & & <X~.M.R.*X9XsXsX|.}.aX; L G 4.R 7.E 5.u.t.w.3.E p.> G.O X 5                           ",
"                  z   + *.g - & A.$XE.t t H.yXsXsXaXsXaXo I H H K j.K G 7.E 4.E 7.H > O L.& % +                         ",
"                  l   0 $.+ % r <X<XZ.t & % OXaXaXaXaXaXaX; D.U Y ,XF.Y U K H H F > O (.% = = = @                       ",
"                      4 =.o = Z.$XV.& % - . @ #  XaXsXsX|.; 7XV % 6Xn.:X1X,XU 5X; d X = & & J.B                         ",
"                      j | : S.<X$XA.= X X $ @ 5 # . 4 OX|.'.` A.` % ` V.:X~.:XZ.o < o X & J.$XM.C                       ",
"                      z 3 * 6X&XT.r % # o o $ @ # %.2 4 4 X r / 3XqXr u m.m.R.r .     . = / m.~.M.^                     ",
"                        & J.3X= K.% * $ o o O # # %...6 8 . {.= / T.R.M.%X&X/ &           r T.%X%XM.^                   ",
"                        t V.% N.O * @ 5 . o $ + 2 2 ..2 0 o _.eXu 1.C C T.=Xr               r V.$X$Xn.C B B             ",
"                        H.u b.!.N.X O +   o + # + 4 =.# o   o {.Y.& / / B B %                 y ( R.&X*X*XC.V           ",
"                        H.u #X~ l.1   .   o 5 + 4 4 %.v ;   < 2X2.X                           % <Xn.& y & 1 O d         ",
"                        K.& _ {.k.o   o   o + 4 4 + 2 v ;     o #                             X C.y 1X-X-Xv.v.o         ",
"                        L.% pX Xo     o   o # 4 5 # w v ,                                       O % ' U.qX) h.o         ",
"                          % pX@Xo     o   o $ @ O + 2 v . .               . o . # + 2 + 4 0 + q OX).pXyX) ] B.o         ",
"                          + sX'.;         : . $ X $ + %.v 4             2 8XtXXXXXoXXXoXXX|..X.XaXsX6 + z.k.k..         ",
"                          2 aX].o         . $ X @ X : o c +               2 4 aXsXsXsXsXsXsXsXaX+ 2 f h 6 f h           ",
"                          6 aX].o         : X X @ X . ; s 2                   f 6 6 6 6 6 6 2 6                         ",
"                          f aX'.o         o O * @ 5 # o s 2                                                             ",
"                          f uX_.o         o   X @ @ 4 # x 6                                                             ",
"                          f rX_.o         o     5 5 + 4 6                                                               ",
"                          f wXI.o         +   O @ @ # 4 j                                                               ",
"                          6 wXI..             O O O s .                                                                 ",
"                          6 wX_..             # o o s .                                                                 ",
"                          f rX'.+               . O o e 6                                                               ",
"                          f sX'.+                 5 . s 2                                                               ",
"                            pXpX|.h               h 4 o 4 f                                                             ",
"                            iXyX Xf                 g 8 6 f                                                             ",
"                              o 8X2                 h     [                                                             ",
"                              .   2                   [     {                                                           ",
"                                .                                                                                       ",
"                                2                                                                                       ",
"                                                                                                                        ",
"                                                                                                                        ",
"                                                                                                                        ",
"                                                                                                                        "
};
