/* XPM */
static char *result[] = {
/* columns rows colors chars-per-pixel */
"60 60 233 2 ",
"   c #030402",
".  c #0C0401",
"X  c #020B02",
"o  c #0B0B02",
"O  c #03040B",
"+  c #0C030C",
"@  c #040A0C",
"#  c #0B0C0C",
"$  c #130401",
"%  c #1C0300",
"&  c #120C01",
"*  c #140B09",
"=  c #011400",
"-  c #001C00",
";  c #051507",
":  c #131200",
">  c #171305",
",  c #020514",
"<  c #0D0314",
"1  c #030A13",
"2  c #0A0B13",
"3  c #00041B",
"4  c #020A1C",
"5  c #0B0C1B",
"6  c #09041B",
"7  c #14031A",
"8  c #150611",
"9  c #021412",
"0  c #02131A",
"q  c #061416",
"w  c #121114",
"e  c #230300",
"r  c #290100",
"t  c #290A00",
"y  c #370001",
"u  c #21011E",
"i  c #311908",
"p  c #002603",
"a  c #010324",
"s  c #0A0421",
"d  c #000A25",
"f  c #01042A",
"g  c #020A2B",
"h  c #090726",
"j  c #041325",
"k  c #010334",
"l  c #010A34",
"z  c #010239",
"x  c #030A3B",
"c  c #080937",
"v  c #130238",
"b  c #011132",
"n  c #100122",
"m  c #0E3E24",
"M  c #4F180A",
"N  c #710E1B",
"B  c #55351A",
"V  c #543409",
"C  c #673701",
"Z  c #693411",
"A  c #780320",
"S  c #533430",
"D  c #6A2C33",
"F  c #004B07",
"G  c #1A4B03",
"H  c #025B02",
"J  c #085706",
"K  c #165702",
"L  c #154A18",
"P  c #025316",
"I  c #085217",
"U  c #0B4D10",
"Y  c #2D4600",
"T  c #36490E",
"R  c #006400",
"E  c #006A00",
"W  c #01610A",
"Q  c #007500",
"!  c #0C4A27",
"~  c #184926",
"^  c #0B4433",
"/  c #30422D",
"(  c #287E3D",
")  c #5E5008",
"_  c #76591C",
"`  c #725113",
"'  c #414433",
"]  c #725928",
"[  c #755835",
"{  c #566D22",
"}  c #020543",
"|  c #01014C",
" . c #050941",
".. c #01005A",
"X. c #2D3D5A",
"o. c #2B3A57",
"O. c #363C59",
"+. c #303C4B",
"@. c #1D3571",
"#. c #2B3D64",
"$. c #273C67",
"%. c #333B64",
"&. c #2D3A7E",
"*. c #323D72",
"=. c #711753",
"-. c #563047",
";. c #34425C",
":. c #374557",
">. c #2B424B",
",. c #367F47",
"<. c #1E4262",
"1. c #2C4365",
"2. c #2D456A",
"3. c #284669",
"4. c #374466",
"5. c #2D4576",
"6. c #387E6C",
"7. c #7E7E55",
"8. c #535C66",
"9. c #436E74",
"0. c #767A67",
"q. c #6C5648",
"w. c #8A1032",
"e. c #82242C",
"r. c #847F2D",
"t. c #875204",
"y. c #880E49",
"u. c #8B7A4B",
"i. c #827B79",
"p. c #1A9919",
"a. c #099C0D",
"s. c #2B8F16",
"d. c #0EA416",
"f. c #18A91C",
"g. c #1C9823",
"h. c #1F8F23",
"j. c #268D2C",
"k. c #358B28",
"l. c #28962C",
"z. c #338A3A",
"x. c #478015",
"c. c #3D8A56",
"v. c #458249",
"b. c #7B834F",
"n. c #96881A",
"m. c #B59E1C",
"M. c #948235",
"N. c #B4983C",
"B. c #A4A638",
"V. c #CD8E32",
"C. c #82865B",
"Z. c #98965B",
"A. c #BA8D42",
"S. c #BB9648",
"D. c #B89656",
"F. c #AC9352",
"G. c #838A61",
"H. c #B89564",
"J. c #AF9575",
"K. c #C78D43",
"L. c #C79162",
"P. c #EDE254",
"I. c #FFD876",
"U. c #FCE576",
"Y. c #E9E263",
"T. c #2C3685",
"R. c #333B88",
"E. c #766DB0",
"W. c #7F7BD4",
"Q. c #857FB6",
"!. c #C1739B",
"~. c #C474A8",
"^. c #8A7FC8",
"/. c #5C9CA6",
"(. c #7192AE",
"). c #65A3A0",
"_. c #70A296",
"`. c #7B8AD8",
"'. c #7B8DC9",
"]. c #7B84E9",
"[. c #9E938D",
"{. c #A69E96",
"}. c #8DB395",
"|. c #AEA88D",
" X c #969FB6",
".X c #938CAB",
"XX c #A69FAC",
"oX c #A19DB6",
"OX c #9CA4AB",
"+X c #98A5A8",
"@X c #9CA3B3",
"#X c #9AA6B8",
"$X c #8AABA4",
"%X c #A1A4B4",
"&X c #A1A9B4",
"*X c #A6A4AA",
"=X c #DCDB96",
"-X c #FFDB8C",
";X c #FED886",
":X c #FFDC94",
">X c #FCD798",
",X c #E7D69B",
"<X c #DBF28D",
"1X c #FDE598",
"2X c #EBEA8D",
"3X c #DEDAAC",
"4X c #FADAA5",
"5X c #F6DCBA",
"6X c #E3DDAC",
"7X c #F8E5A3",
"8X c #FBE7BA",
"9X c #E4E5A9",
"0X c #8786C9",
"qX c #8387DA",
"wX c #8D89C3",
"eX c #9BA5C3",
"rX c #A1A8C5",
"tX c #8388E6",
"yX c #8181F5",
"uX c #DADACB",
"iX c #EDDCC5",
"pX c #E9E3CB",
"aX c #FFFFC9",
"sX c #FFFFD9",
"dX c #DCFFF8",
"fX c #E9FFEA",
"gX c #FCFEEB",
"hX c #EBFCFB",
"jX c #F5FDFF",
"kX c #FDFDFE",
"lX c #FBF7FA",
"zX c #DDE5CE",
"xX c None",
/* pixels */
"xXxXxXxXxXxXxXxXxXxXxXxXxXxXxXxXxXxXxXxXxXxXxXxXxXxXxXxXxXxXxXxXxXxXxXxXxXxXxXxXxXxXxXxXxXxXxXxXxXxXxXxXxXxXxXxXxXxXxXxX",
"xXxXxXxXxXxXxXxXxXxXxXxXxXxXxXxXxXxXxXxXxXxXxXxXxXxXxXxXxXxXxXxXxXxXxXxXxXxXxXxXxXxXxXxXxXxXxXxXxXxXxXxXxXxXxXxXxXxXxXxX",
"xXxXxXxXxXxXxXxXxXxXxXxXxXxXxXxXxXxXxXxXxXxXxXxXxXxXxXxXxXxXxXxXxXxXxXxXxXxXxXxXxXxXxXxXxXxXxXxXxXxXxXxXxXxXxXxXxXxXxXxX",
"xXxXxXxXxXxXxXxXxXxXxXxXxXxXxXxXxXxXxXxXxXxXxXxXxXxXxXxXxXxXxXxXxXxXxXxXxXxXxXxXxXxXxXxXxXxXxXxXxXxXxXxXxXxXxXxXxXxXxXxX",
"xXxXxXxXxXxXxXxXxXxXxXxXxXxXxXxXxXxXxXxXxXxXxXxXxXxXxXxXxXxXxXxXxXxXxXxXxXxXxXxXxXxXxXxXxXxXxXxXxXxXxXxXxXxXxXxXxXxXxXxX",
"xXxXxXxXxXxXxXxXxXxXxXxXxXxXxXxXxXxXxXxXxXxXxXxXxXxXxXxXxXxXxXxXxXxXxXxXxXxXxXxXxXxXxXxXxXxXxXxXxXxXxXxXxXxXxXxXxXxXxXxX",
"xXxXxXxXxXxXxXxXxXxXxXxXxXxXxXxXxXxXxXxXxXxXxXxXxXxXxXxXxXxXxXxXxXxXxXxXxXxXxXxXxXxXxXxXxXxXxXxXxXxXxXxXxXxXxXxXxXxXxXxX",
"xXxXxXxXxXxXxXxXxXxXxXxXxXxXxXxXxXxXxXxXxXxXxXxXxXxXxXxXxXxXxXxXxXxXxXxXxXxXxXxXxXxXxXxXxXxXxXxXxXxXxXxXxXxXxXxXxXxXxXxX",
"xXxXxXxXxXxXxXxXxXxXxXxXxXxXxXxXxXxXxXxXxXxXxXxXxXxXxXxXxXxXxXxXxXxXxXxXxXxXxXxXxXxXxXxXxXxXxXxXxXxXxXxXxXxXxXxXxXxXxXxX",
"xXxXxXxXxXxXxXxXxXxXxXxXxXxXxXxXxXxXxXxXxXxXxXxXxXxXxXxXxXxXxXxXxXxXxXxXxXxXxXxXxXxXxXxXxXxXxXxXxXxXxXxXxXxXxXxXxXxXxXxX",
"xXxXxXxXxXxXxXxXxXxXxXxXxXxXxXxXxXxXxXxXxXxXxXxXxXxXxXxXxXxXxXxXxXxXxXxXxXxXxXxXxXxXxXxXxXxXxXxXxXxXxXxXxXxXxXxXxXxXxXxX",
"xXxXxXxXxXxXxXxXxXxXxXxXxXxXxXxXxXxXxXxXxXxXxXxXxXxXxXxXxXxXxXxXxXxXxXxXxXxXxXxXxXxXxXxXxXxXxXxXxXxXxXxXxXxXxXxXxXxXxXxX",
"xXxXxXxXxXxXxXxXxXxXxXxXxXxXxXxXxXxXxXxXxXxXxXxXxXxXxXxXxXxXxXxXxXxXxXxXxXxXxXxXxXxXxXxXxXxXxXxXxXxXxXxXxXxXxXxXxXxXxXxX",
"xXxXxXxXxXxXxXxXxXxXxXxXxXxXxXxXxXxXxXxXxXxXxXxXxXxXxXxXxXxXxXxXxXxXxXxXxXxXxXxXxXxXxXxXxXxXxXxXxXxXxXxXxXxXxXxXxXxXxXxX",
"xXxXxXxXxXxXxXxXxXxXxXxXxXxXxXxXxXxXxXxXxXxXxXxXxXxXxXxXxXxXxXxXxXxXxXxXxXxXxXyXtXtXtXqXxXxXxXxXxXxXxXxXxXxXxXxXxXxXxXxX",
"xXxXxXxXxXxXxXxXxXxXxXxXxXxXxXxXxXxXxXxXxXxXxXxXxXxXxXxXxXxXxXxXxXxXxXxXxXxX].`.l b b l '.xXxXxXxXxXxXxXxXxXxXxXxXxXxXxX",
"xXxXxXxXxXxXxXxXxXxXxXxXxXxXxXxXxXxXxXxXxXxXxXxXxXxXxXxXxXxXxXxXxXxXxXxXxX].0X0 p z.P c.- 0 xXxXxXxXxXxXxXxXxXxXxXxXxXxX",
"xXxXxXxXxXxXxXxXxXxXxXxXxX3 k xXxXxXxXxXxXxXxXxXxXxXxXxXxXxXxXxXxXxXyX].].'.9 F l.Q g.R j.P 0 xXxXxXxXxXxXxXxXxXxXxXxXxX",
"xXxXxXxXxXxXxXxXxXxXxXxX: ,XuX< xXxXxXxXxXxXxXxXxXxXxXxXxXxXxXxXxXxX].T.<.^ P l.E d.d.a.f.g.j.p xXxXxXxXxXxXxXxXxXxXxXxX",
"xXxXxXxXxXxXxXxXxXxXxXi.C.M.sXkXv xXxXxXxXxXxXxXxXxXxXxXxXxXxXxXxXxX`.(._.p l.E d.d.d.Q a.Q g.z.0 xXxXxXxXxXxXxXxXxXxXxX",
"xXxXxXxXxXxXxXxXxXxXxXxXxX8 {.kXjXk W.xXxXxXxXxXxXxXxXxXxXxXxXxXxX`.(.9 p U R g.E p.R s.Q s.E j.! j xXxXxXxXxXxXxXxXxXxX",
"xXxXxXxXxXxXxXxXxXxXxXxXxXlXlXkXkXkX .tXtXxXxXxXxXxXxXxXxXxXxXxX`.@.>.m L J H R l.R R R K K s.R z.= xXxXxXxXxXxXxXxXxXxX",
"xXxXxXxXxXxXxXxXxXxX# + Q.wX0Xz  XkXkXa (././.0 - - - X j g g x wX.X_.! P F K J H J x.<XB.Y H l.R v.b xXxXxXxXxXxXxXxXxX",
"xXxXxXxXxXxXxXxXxX5Xu.i u v wXQ.7 XXkXhXc.9.c.c.k.k.k.v.}.OXOX@Xh f q ! I J G { H s.<XU.N.2XG H k.U b xXxXxXxXxXxXxXxXxX",
"xXxXxXxXxXxXxXuX6X,XM N w.N y r % * OX4 3.j 0 ! H E R H gXkXlXkX%XOX$X- U G ) <Xk.K ; S.>X1X2XY Y 9 xXxXxXxXxXxXxXxXxXxX",
"xXxXxXxXxXxXxXxXxXe M A A w.e.Z M $ 1 4.$.3.4.; j.p.p.j.fXkXkXkXkXkXjXfX- Y :XN.T <XF.% 6X7X7XZ.= j xXxXxXxXxXxXxXxXxXxX",
"xXxXxXxXxXxXxXxXxXxX=.=.w.w.D N D S s 4.d >./ - R W E H fXkXkXkXlXkXgXgXaXN.;Xt.-X7XsX& $ 8XJ.$ xX| xXxXxXxXxXxXxXxXxXxX",
"xXxXxXxXxXxXxXxXxXxXxXxX~.!.y D D -.O.*.b >.; ! H g.l.z.}.hXkXlXXXkXlXq.] _ K.>X1X>XsXo J.% + xXxXxXxXxXxXxXxXxXxXxXxXxX",
"xXxXxXxXxXxXxXxXo . + 7 < 8 . + s s f #.a j X - p W H J P dX#X#XOXkXkXkX{.$ ` >X>X4X>X7X>Xr xXxXxXxXxXxXxXxXxXxXxXxXxXxX",
"xXxXxXxXxXxXxXC.u.G.+X&X@X+X#X#Xo.f 2.#.;.4 X / L U J J P ! 9.@XkXgXkXkX#X+ Z L.4XC D.4XJ.u xXxXxXxXxXxXxXxXxXxXxXxXxXxX",
"xXxXxXxXuX3X=X=X/ >.;.X.#.4.o.:.j a 1.1., @   o X - L L ~ ~ ; [.aX8XgXXXg .X8 B H.4X' 8 h xXxXxXxXxXxXxXxXxXxXxXxXxXxXxX",
"xXxXxXxXxXxX: & 3 l k  .} k g d d 1.1.1.1 # & . . X = = X = X & D.K.H.% , .XxXn S $ h xXxXxXxXxXxXxXxXxXxXxXxXxXxXxXxXxX",
"xXxXxXxXxXxXxXxXxXxXqX`.].qXg d $.5.1.3 0   . $ . # X = zXpXiX5X:X;XD.t [ 8 ^.xXxXxXxXxXxXxXxXxXxXxXxXxXxXxXxXxXxXxXxXxX",
"xXxXxXxXxXxXxXxX .z T.T.T.5.$.2.5.$.;.4 @ # X . 8 O     X |.% e K.V.A.r ] $ xXxXxXxXxXxXxXxXxXxXxXxXxXxXxXxXxXxXxXxXxXxX",
"xXxX..| f g c k a g x x g g l 5.5.#.j X 2 @ O 2 O w # ; ;   J.V A.:XD.t ] $ xXxXxXxXxXxXxXxXxXxXxXxXxXxXxXxXxXxXxXxXxXxX",
"xXxXxXxXl d a 4.X.4.o.1.;.;.#.$.#.d O o   0 O 1 +     X X : u.) ;X-XV % ] % xXxXxXxXxXxXxXxXxXxXxXxXxXxXxXxXxXxXxXxXxXxX",
"xXxXxXxXxXxX| } k f g a d j X.;.4 5   X #   @ @   o : pXpX5X5X:X;XV.r [ F.] o @ xXxXxXxXxXxXxXxXxXxXxXxXxXxXxXxXxXxXxXxX",
"xXxXxXxXxXxXxXxXxXg o.4.X.;.4 1 1   w o   @ # + o o . . $ % 7XI.U.V.r % y r.n.C.g xXxXxXxXxXxXxXxXxXxXxXxXxXxXxXxXxXxXxX",
"xX..| k a xXxX;.;.:.:.4 3 , q O 2 2   . 2   o + + 8 . o & H.V.V.V.K.r D.t.e > b.3 z z k f l a g a f f k k k g f g g k k ",
"xXxXxXb g 4 3 d d a 1 , 2 O O @ O + # 2 3 4 < < < 8 + o $ e C V.;XC e ] S.N.> C.8.eX#X@X@XOX+X+XOX*X%X%X%X@XOX%XxXxXk xX",
"xXxXxXxXxXxXxXk %.d O 2 #   O # + , < h ^.qX'.k h 6 & * . e C >X>Xr [.$ [ _ & C.8.eXjXkXlXkXkXkXkXkXkXjXkXjXjXxXf } xXxX",
" . .T.T.R.&.&.*.%.:.,     * # + + 5 a wXyXxXtXqX0Xs pX6XiX5X4X1X-XD.. . % % > 0.4 g 5 6 s s , O < 3 , 1 1 j , g xXxXxXxX",
"xX| z l a x *.%.3 2 w O #   o + 2 3 z xXxXxXxXxXxXxX& > % B 1XU.m.t ; 9X$ xX. # xXxXxXxXxXxXxXxXxXxXxXxXxXxXxXxXxXxXxXxX",
"xXxXl o.:.4 g 4., 2   o @ 1 < s a  .xXxXxXxXxXxXxX5 =X=X|.B ;XY.P.P.Y.o % 7 + O 4 h x z z z z k f f a f f c z | ..xXxXxX",
"*.2.#.4.0 O 3 +.4 X X =   5 c xXxXxXxXxXxXxXxXE.i.7.b./ ' B S.;Xn.n.<X{ {.XXXX%X+XOX#X X XeXeX#X@X@X@X&X@XjXxX} xXxXxXxX",
"k %.1.;.1 1 h 5 >.X 2 O 4 f xXxXxXxXxXxXxXxXxXxX< o   0 a . ) F._ : 7.|.kXlXkXjXjXjXjXjXkXkXjXjXkXjXjXjXjXf z xXxXxXxXxX",
"xXg , @ 1 4 f a #   3 c } xXxXxXxXxXxXxXxXxXxXxXxXxXxXxXxXxXv n s 2 X 0.h l z  .x f k z c z k k z z k z  .xXxXxXxXxXxXxX",
"f :.1 1 3 f xXxXa h z xXxXxXxXxXxXxXxXxXxXxXxXxXxXxXxXxXxXxXxXxXxXxXxX3 } xXxXxXxXxXxXxXxXxXxXxXxXxXxXxXxXxXxXxXxXxXxXxX",
"O :.1 3 k xXxXxXxXxXxXxXxXxXxXxXxXxXxXxXxXxXxXxXxXxXxXxXxXxXxXxXxXxXxXxXxXxXxXxXxXxXxXxXxXxXxXxXxXxXxXxXxXxXxXxXxXxXxXxX",
"O 1 , f xXxXxXxXxXxXxXxXxXxXxXxXxXxXxXxXxXxXxXxXxXxXxXxXxXxXxXxXxXxXxXxXxXxXxXxXxXxXxXxXxXxXxXxXxXxXxXxXxXxXxXxXxXxXxXxX",
"h O.a k xXxXxXxXxXxXxXxXxXxXxXxXxXxXxXxXxXxXxXxXxXxXxXxXxXxXxXxXxXxXxXxXxXxXxXxXxXxXxXxXxXxXxXxXxXxXxXxXxXxXxXxXxXxXxXxX",
"c k k 0XxXxXxXxXxXxXxXxXxXxXxXxXxXxXxXxXxXxXxXxXxXxXxXxXxXxXxXxXxXxXxXxXxXxXxXxXxXxXxXxXxXxXxXxXxXxXxXxXxXxXxXxXxXxXxXxX",
"`...| qXxXxXxXxXxXxXxXxXxXxXxXxXxXxXxXxXxXxXxXxXxXxXxXxXxXxXxXxXxXxXxXxXxXxXxXxXxXxXxXxXxXxXxXxXxXxXxXxXxXxXxXxXxXxXxXxX",
"tX^.tXxXxXxXxXxXxXxXxXxXxXxXxXxXxXxXxXxXxXxXxXxXxXxXxXxXxXxXxXxXxXxXxXxXxXxXxXxXxXxXxXxXxXxXxXxXxXxXxXxXxXxXxXxXxXxXxXxX",
"xXxXxXxXxXxXxXxXxXxXxXxXxXxXxXxXxXxXxXxXxXxXxXxXxXxXxXxXxXxXxXxXxXxXxXxXxXxXxXxXxXxXxXxXxXxXxXxXxXxXxXxXxXxXxXxXxXxXxXxX",
"xXxXxXxXxXxXxXxXxXxXxXxXxXxXxXxXxXxXxXxXxXxXxXxXxXxXxXxXxXxXxXxXxXxXxXxXxXxXxXxXxXxXxXxXxXxXxXxXxXxXxXxXxXxXxXxXxXxXxXxX",
"xXxXxXxXxXxXxXxXxXxXxXxXxXxXxXxXxXxXxXxXxXxXxXxXxXxXxXxXxXxXxXxXxXxXxXxXxXxXxXxXxXxXxXxXxXxXxXxXxXxXxXxXxXxXxXxXxXxXxXxX",
"xXxXxXxXxXxXxXxXxXxXxXxXxXxXxXxXxXxXxXxXxXxXxXxXxXxXxXxXxXxXxXxXxXxXxXxXxXxXxXxXxXxXxXxXxXxXxXxXxXxXxXxXxXxXxXxXxXxXxXxX",
"xXxXxXxXxXxXxXxXxXxXxXxXxXxXxXxXxXxXxXxXxXxXxXxXxXxXxXxXxXxXxXxXxXxXxXxXxXxXxXxXxXxXxXxXxXxXxXxXxXxXxXxXxXxXxXxXxXxXxXxX",
"xXxXxXxXxXxXxXxXxXxXxXxXxXxXxXxXxXxXxXxXxXxXxXxXxXxXxXxXxXxXxXxXxXxXxXxXxXxXxXxXxXxXxXxXxXxXxXxXxXxXxXxXxXxXxXxXxXxXxXxX"
};
