/* XPM */
static char *result[] = {
/* columns rows colors chars-per-pixel */
"60 60 228 2 ",
"   c #020402",
".  c #0B0401",
"X  c #020B02",
"o  c #0B0A03",
"O  c #02040B",
"+  c #0C030C",
"@  c #020A0B",
"#  c #0B0A0C",
"$  c #140202",
"%  c #1C0201",
"&  c #150B01",
"*  c #1A0C00",
"=  c #13030C",
"-  c #1A020C",
";  c #110C0A",
":  c #021301",
">  c #001B01",
",  c #01120D",
"<  c #091705",
"1  c #141104",
"2  c #131A00",
"3  c #010314",
"4  c #0C0516",
"5  c #020C13",
"6  c #0D0A13",
"7  c #01021B",
"8  c #0C051A",
"9  c #010B1B",
"0  c #0E0A1C",
"q  c #1A0B19",
"w  c #021114",
"e  c #001B15",
"r  c #01121B",
"t  c #06151A",
"y  c #171714",
"u  c #230200",
"i  c #2B0102",
"p  c #230A02",
"a  c #260706",
"s  c #340000",
"d  c #380305",
"f  c #2A1804",
"g  c #290817",
"h  c #341100",
"j  c #002300",
"k  c #262207",
"l  c #3F321F",
"z  c #000222",
"x  c #010B23",
"c  c #00022A",
"v  c #01092D",
"b  c #0C0B27",
"n  c #15052A",
"m  c #071127",
"M  c #000134",
"N  c #010B32",
"B  c #02073C",
"V  c #141C29",
"C  c #260A2F",
"Z  c #082D2F",
"A  c #2C3A37",
"S  c #262C2C",
"D  c #57070C",
"F  c #4D0611",
"G  c #680609",
"H  c #781715",
"J  c #6A1014",
"K  c #59360D",
"L  c #4D3C16",
"P  c #543515",
"I  c #443100",
"U  c #673604",
"Y  c #6E2F0D",
"T  c #4D372A",
"R  c #603C22",
"E  c #174B06",
"W  c #035401",
"Q  c #005C02",
"!  c #0B5706",
"~  c #125600",
"^  c #0A4D15",
"/  c #10551D",
"(  c #154B11",
")  c #294404",
"_  c #2F471D",
"`  c #006300",
"'  c #006B00",
"]  c #0A6100",
"[  c #007000",
"{  c #17482A",
"}  c #125127",
"|  c #284435",
" . c #5B441B",
".. c #6E5710",
"X. c #497417",
"o. c #6E6F08",
"O. c #5B572C",
"+. c #504B2D",
"@. c #7D4836",
"#. c #4A7F39",
"$. c #7A693A",
"%. c #06034C",
"&. c #10344C",
"*. c #2C3E5C",
"=. c #373C55",
"-. c #383E4A",
";. c #293B62",
":. c #233968",
">. c #283F71",
",. c #3A4644",
"<. c #2B4458",
"1. c #374758",
"2. c #2D4243",
"3. c #254364",
"4. c #2A4268",
"5. c #344363",
"6. c #33476D",
"7. c #2A4472",
"8. c #59594F",
"9. c #60594F",
"0. c #4D665F",
"q. c #747764",
"w. c #871F27",
"e. c #865808",
"r. c #8B520C",
"t. c #875125",
"y. c #967B30",
"u. c #8C6D4F",
"i. c #1A981A",
"p. c #0B9A0E",
"a. c #259919",
"s. c #339318",
"d. c #0DA817",
"f. c #14A71B",
"g. c #199F22",
"h. c #259828",
"j. c #2D893A",
"k. c #388334",
"l. c #2D8F31",
"z. c #1DA125",
"x. c #33A124",
"c. c #488413",
"v. c #7A863E",
"b. c #2D8744",
"n. c #3B804A",
"m. c #468243",
"M. c #958E1C",
"N. c #85873D",
"B. c #8C8928",
"V. c #B49A31",
"C. c #95AF32",
"Z. c #A5AD36",
"A. c #CD9139",
"S. c #8F8152",
"D. c #B78D48",
"F. c #B99546",
"G. c #B98E58",
"H. c #B8965C",
"J. c #AC9F51",
"K. c #92A752",
"L. c #8F976E",
"P. c #AB986A",
"I. c #B59769",
"U. c #A88F73",
"Y. c #B38D66",
"T. c #9BB078",
"R. c #A3A17B",
"E. c #C28E59",
"W. c #C6935B",
"Q. c #C39449",
"!. c #DDDA71",
"~. c #FFDC7D",
"^. c #DAE477",
"/. c #FDE378",
"(. c #E7E169",
"). c #947FB8",
"_. c #6F8FBC",
"`. c #8F859C",
"'. c #A79790",
"]. c #98A79B",
"[. c #8DB098",
"{. c #A4AA97",
"}. c #A9A58C",
"|. c #9B9EA2",
" X c #9486B5",
".X c #8D82B2",
"XX c #A49DAD",
"oX c #9EA2A9",
"OX c #9DA3BA",
"+X c #9BA2B2",
"@X c #A1A2A9",
"#X c #A3A3B4",
"$X c #DDDF96",
"%X c #FFD889",
"&X c #FFDC92",
"*X c #FFD699",
"=X c #FEDA9C",
"-X c #F6D997",
";X c #E7D58F",
":X c #D1E995",
">X c #ECE782",
",X c #FAE48A",
"<X c #FCE293",
"1X c #FFE59A",
"2X c #E5F28B",
"3X c #D1DBB5",
"4X c #FEDCAB",
"5X c #FBD8A7",
"6X c #EFD6B0",
"7X c #FFE1A9",
"8X c #FFE2A4",
"9X c #EDE6B2",
"0X c #9587CE",
"qX c #B59FC6",
"wX c #A9A7CA",
"eX c #B4A7C5",
"rX c #9F98E8",
"tX c #DCDCC0",
"yX c #FFFBC5",
"uX c #ECF6CF",
"iX c #EBFDE2",
"pX c #FBFEEB",
"aX c #EDFDF2",
"sX c #F6FEFE",
"dX c #FBFEFE",
"fX c #F9FBF9",
"gX c #E7ECF0",
"hX c None",
/* pixels */
"hXhXhXhXhXhXhXhXhXhXhXhXhXhXhXhXhXhXhXhXhXhXhXhXhXhXhXhXhXhXhXhXhXhXhXhXhXhXhXhXhXhXhXhXhXhXhXhXhXhXhXhXhXhXhXhXhXhXhXhX",
"hXhXhXhXhXhXhXhXhXhXhXhXhXhXhXhXhXhXhXhXhXhXhXhXhXhXhXhXhXhXhXhXhXhXhXhXhXhXhXhXhXhXhXhXhXhXhXhXhXhXhXhXhXhXhXhXhXhXhXhX",
"hXhXhXhXhXhXhXhXhXhXhXhXhXhXhXhXhXhXhXhXhXhXhXhXhXhXhXhXhXhXhXhXhXhXhXhXhXhXhXhXhXhXhXhXhXhXhXhXhXhXhXhXhXhXhXhXhXhXhXhX",
"hXhXhXhXhXhXhXhXhXhXhXhXhXhXhXhXhXhXhXhXhXhXhXhXhXhXhXhXhXhXhXhXhXhXhXhXhXhXhXhXhXhXhXhXhXhXhXhXhXhXhXhXhXhXhXhXhXhXhXhX",
"hXhXhXhXhXhXhXhXhXhXhXhXhXhXhXhXhXhXhXhXhXhXhXhXhXhXhXhXhXhXhXhXhXhXhXhXhXhXhXhXhXhXhXhXhXhXhXhXhXhXhXhXhXhXhXhXhXhXhXhX",
"hXhXhXhXhXhXhXhXhXhXhXhXhXhXhXhXhXhXhXhXhXhXhXhXhXhXhXhXhXhXhXhXhXhXhXhXhXhXhXhXhXhXhXhXhXhXhXhXhXhXhXhXhXhXhXhXhXhXhXhX",
"hXhXhXhXhXhXhXhXhXhXhXhXhXhXhXhXhXhXhXhXhXhXhXhXhXhXhXhXhXhXhXhXhXhXhXhXhXhXhXhXhXhXhXhXhXhXhXhXhXhXhXhXhXhXhXhXhXhXhXhX",
"hXhXhXhXhXhXhXhXhXhXhXhXhXhXhXhXhXhXhXhXhXhXhXhXhXhXhXhXhXhXhXhXhXhXhXhXhXhXhXhXhXhXhXhXhXhXhXhXhXhXhXhXhXhXhXhXhXhXhXhX",
"hXhXhXhXhXhXhXhXhXhXhXhXhXhXhXhXhXhXhXhXhXhXhXhXhXhXhXhXhXhXhXhXhXhXhXhXhXhXhXhXhXhXhXhXhXhXhXhXhXhXhXhXhXhXhXhXhXhXhXhX",
"hXhXhXhXhXhXhXhXhXhXhXhXhXhXhXhXhXhXhXhXhXhXhXhXhXhXhXhXhXhXhXhXhXhXhXhXhXhXhXhXhXhXhXhXhXhXhXhXhXhXhXhXhXhXhXhXhXhXhXhX",
"hXhXhXhXhXhXhXhXhXhXhXhXhXhXhXhXhXhXhXhXhXhXhXhXhXhXhXhXhXhXhXhXhXhXhXhXhXhXhXhXhXhXhXhXhXhXhXhXhXhXhXhXhXhXhXhXhXhXhXhX",
"hXhXhXhXhXhXhXhXhXhXhXhXhXhXhXhXhXhXhXhXhXhXhXhXhXhXhXhXhXhXhXhXhXhXhXhXhXhXhXhXhXhXhXhXhXhXhXhXhXhXhXhXhXhXhXhXhXhXhXhX",
"hXhXhXhXhXhXhXhXhXhXhXhXhXhXhXhXhXhXhXhXhXhXhXhXhXhXhXhXhXhXhXhXhXhXhXhXhXhXhXhXhXhXhXhXhXhXhXhXhXhXhXhXhXhXhXhXhXhXhXhX",
"hXhXhXhXhXhXhXhXhXhXhXhXhXhXhXhXhXhXhXhXhXhXhXhXhXhXhXhXhXhXhXhXhXhXhXhXhXhXhXhXhXhXhXhXhXhXhXhXhXhXhXhXhXhXhXhXhXhXhXhX",
"hXhXhXhXhXhXhXhXhXhXhXhXhXhXhXhXhXhXhXhXhXhXhXhXhXhXhXhXhXhXhXhXhXhXhXhXhXhX9 , , hXhXhXhXhXhXhXhXhXhXhXhXhXhXhXhXhXhXhX",
"hXhXhXhXhXhXhXhXhXhXhXhXhXhXhXhXhXhXhXhXhXhXhXhXhXhXhXhXhXhXhXhXhXhXhXhXN e / #.! j e hXhXhXhXhXhXhXhXhXhXhXhXhXhXhXhXhX",
"hXhXhXhXhXhXhXhXhXhXhXhXhXhXhXhXhXhXhXhXhXhXhXhXhXhXhXhXhXhXhXhXhXhXhXm b.' z.' z.` l.j hXhXhXhXhXhXhXhXhXhXhXhXhXhXhXhX",
"hXhXhXhXhXhXhXhXhXhXhXhXhXhXhXhXhXhXhXhXhXhXhXhXhXhXhXhXhXhXhXhXhXhXr #.Q p.d.d.d.d.p.l., hXhXhXhXhXhXhXhXhXhXhXhXhXhXhX",
"hXhXhXhXhXhXhXhXhXhXhXhXhXhXhX    hXhXhXhXhXhXhXhXhXhXhXhXhXhXhXhXhX> Q h.[ i.' g.` z.h.j.> hXhXhXhXhXhXhXhXhXhXhXhXhXhX",
"hXhXhXhXhXhXhXhXhXhXhXhXhXhX3 3X3XO hXhXhXhXhXhXhXhXhXhXhXhXhXhXhXr } Q ` i.` ` ` x.` i.' b.&.hXhXhXhXhXhXhXhXhXhXhXhXhX",
"hXhXhXhXhXhXhXhXhXhXhXhXhXhX3 q.uX  hXhXhXhXhXhXhXhXhXhXhXhXhXhXhXe / Q a.' a.` c.~ a.[ a.Q j hXhXhXhXhXhXhXhXhXhXhXhXhX",
"hXhXhXhXhXhXhXhXhXhXhXhXhXhXhX  {.gXM hXhXhXhXhXhXhXhXhXhXhXhXhX_.e / ! W s.Q E 2XC.~ s.` l.} Z hXhXhXhXhXhXhXhXhXhXhXhX",
"hXhXhXhXhXhXhXhXhXhX    hXhXhX4 |.dXz hXhXhXhXhXhXhXhXhXhXhXhX_.r { ( ~ X.E ) 2X/.V.>XK.c.! k.Z hXhXhXhXhXhXhXhXhXhXhXhX",
"hXhXhXhXhXhXhXhXhXn $X-X% hXhXeX7 +XdXc hXhXhXhXhXhXhX9 x x v x , _ ) X.:Xo.J.p V.,X,X-XK.> / hXhXhXhXhXhXhXhXhXhXhXhXhX",
"hXhXhXhXhXhXhXhXhXC u.Y D i qXeXz +XdX7 hXhXhXhXhXz z OXsXsXdX@XX < I /.Z.o.,XH.% 7X%XF.; hX&.hXhXhXhXhXhXhXhXhXhXhXhXhX",
"hXhXhXhXhXhXhXhXhXhXF D w.D g #XwXc OXsX7 hXhXhXb #XdXsXdXfXdXdX{.O.F./.V.o.<XyX* % *XY.0 hXhXhXhXhXhXhXhXhXhXhXhXhXhXhX",
"hXhXhXhXhXhXhXhXhXhXhXF G w.J i  XM OXdX3 @ X > |.dXdXsXdXdXfXdXfXR.e.A./.%X-XyX* P.% q hXhXhXhXhXhXhXhXhXhXhXhXhXhXhXhX",
"hXhXhXhXhXhXhXhXhXhXhXhXF G H D C `.8 oX: : #.( pXfXaXsXdX@XdXdXsX}.A.r.A.%X5X5X4X9X# hXhXhXhXhXhXhXhXhXhXhXhXhXhXhXhXhX",
"hXhXhXhXhXhXhXk k k hXhXhXF J w.D s $ @ > m.` Q #.iXaXsX9.@XdXdXdX. H.r.A.*XY 4X4XU.b hXhXhXhXhXhXhXhXhXhXhXhXhXhXhXhXhX",
"hXhXhXhXhXhXS 9X,XhXh a % hXs D H D - @ > ^ ` l.W ( [.].T '.pXfXXX= p u Y W.5XP % + hXhXhXhXhXhXhXhXhXhXhXhXhXhXhXhXhXhX",
"hXhXhXhXhXhXZ L.O.hX$.u.hX. = % F % b 6.3.e j.` Q ! { [.R 4XD.I.- 8 9.* $ L q n ).hXhXhXhXhXhXhXhXhXhXhXhXhXhXhXhXhXhXhX",
"hXhXhXhXhXhXhXV y k hX+.O.].oX#X# 4 :.7.>.<.j W ^ ^ { X K =X&Xi `.7 & o     .X0XhXhXhXhXhXhXhXhXhXhXhXhXhXhXhXhXhXhXhXhX",
"hXhXhXhXhXhXhXhXhXhXy X < 8.=.*.OXx 3.7.N 9 | : : , @ 8.K *X5Xu  X0X6 1 o * eXhXhXhXhXhXhXhXhXhXhXhXhXhXhXhXhXhXhXhXhXhX",
"hXhXhXhXhXhXhXhXhXhXhXhXhXv M c 5.x 3.3.5.7 5 O 6 O 5 T I.4XY.% 0X%.3 $ P.% hXhXhXhXhXhXhXhXhXhXhXhXhXhXhXhXhXhXhXhXhXhX",
"hXhXhXhXhXhXhXhXhXhXhXhXhXhXhXhXz 3 x 5.;.5.x 9   ; . L 7X5Xu eXhXrXhX% F...u hXhXhXhXhXhXhXhXhXhXhXhXhXhXhXhXhXhXhXhXhX",
"hXhXhXhXhXhXhXhXhXhXhXhXhXhXhXhXhX8 8 z ;.6.*.9 @ 1 & L -X6X- hXhXhXhXu e.A.i hXhXhXhXhXhXhXhXhXhXhXhXhXhXhXhXhXhXhXhXhX",
"hXhXhXhXhXhXhXhXhXhXhXhXhXhXhXhXhX`.3 9 6.:.7.v 4 . $ P 1X8X$ hXhXhXhXhXd Q.t.i hXhXhXhXhXhXhXhXhXhXhXhXhXhXhXhXhXhXhXhX",
"hXhXhXhXhXhXhXhXhXhXr @ w hX9 9 7 8 5 O z 6.4.;.7 $ a K &XD.% hXhXhXg d F t.E.h f 8 hXhXhXhXhXhXhXhXhXhXhXhXhXhXhXhXhXhX",
"hXhXhXhXhXhXhXhXhX3 @ @ @ @ @ @ ,   @ 0 9 3 6.<.0 . $ R *XW.% hXhXg ;Xy.Y s t.h >Xy.# hXhXhXhXhXhXhXhXhXhXhXhXhXhXhXhXhX",
"hXhXhXhXhXhXhXhXhX, , @ @ X o X X X # O 5 w 2.@ X * % P *XE.u hXhXq u.I d @.H.p (.< hX  3 c hXhXhXhXhXhXhXhXhXhXhXhXhXhX",
"hXhXhXhXhXhXhXhX5 @ @ 6   o   o o # o 6 7 ,.: :X3X+.% K =X*Xp hXhXhXC - u U.f y.B.hXhXhXhXhXO O   O hXhXhXhXhXhXhXhXhXhX",
"hXhXhXhXhXhXhXhXX o 6 O o o & . =     + x A 2 v._    .G.%X&XP.. + hXhXhXhX; & S.1     hXhXhXhXhXhXhXO x 3 z hXhXhXhXhXhX",
"hXhXhXhXhXhXhXX X X o   6 + + #   ; @ 5 *.1.@ o : o P 7X%XQ.% o $X  hXhXhXhXhX7 hXhXhX3 X X X hXhXhXhXhXhXhXO z hXM hXhX",
"hXhXhXhXhXhXhX: : o :   o o . # # @ @ 5 <.3 # #   & P =X&XV.& N.^.: hXhXhXhXhXhXhXhXhXhXhXhXhX    X @ hXhXhXhXhXhXhXz c ",
"hXhXhXhXhXhXhX: X X X hXX X o X X hX5 1.<.9 t O 4 $ $ I.=Xp M.^.< T.X 3 z hXhXhXhXhXhXhXhXhXhXhXhXhXhXM 3 O O hXhX0.hXX ",
"hXhXhXhXhXhXhXhXw , hXhXhXhXhXhXhXhX5 1.3 5 4 6 + o & $ I.p !.2 uXiX{.hXhX7 7 7 3 hXhXhXhXhXhXhXhXhXhXhXhXhXhXc 7 3 X hX",
"hXhXhXhXhXhXhXhXhXhXhXhXhXhXhXhXhXhXO -.9 x 4 + O :   hX. . 3Xo O 3 hXhXhXhXhXhXhX: X X   hXhXhXhXhXhXhXhXhXhXhXhXhXhXhX",
"hXhXhXhXhXhXhXhXhXhXhXhXhXhXhXhXhXhX5 O 1.-.4 # @ o hXhXhX4 + hXhXhX7 O 7 3 hXhXhXhXhXhXhXX     z hXhXhXhXhXhXhXhXhXhXhX",
"hXhXhXhXhXhXhXhXhXhXhXhXhXhXhXhXhXhXhX@ 5 w   # 5 hXhXhXhXhXhXhXhXhXhXhXhXhXM z z 3 hXhXhXhXhXhXhX  c %.hXhXhXhXhXhXhXhX",
"hXhXhXhXhXhXhXhXhXhXhXhXhXhXhXhXhXhXr X @ A ,.A   , X hXhXhXhXhXhXhXhXhXhXhXhXhXhXhXv O @ X hXhXhXhXz hXhXhXhXhXhXhXhXhX",
"hXhXhXhXhXhXhXhXhXhXhXhXhXhXhXhXhXhX5 : @ , @ ,.hXX < 5 hXhXhXhXhXhXhXhXhXhXhXhXhXhXhXhXhXhXc z 9 c hXhXhXhXhXhXhXhXhXhX",
"hXhXhXhXhXhXhXhXhXhXhXhXhXhXhXhXhXhX9 5 m m 3 t w @ , z hXhXhXhXhXhXhXhXhXhXhXhXhXhXhXhXhXhXhXhXhXhXhXhXhXhXhXhXhXhXhXhX",
"hXhXhXhXhXhXhXhXhXhXhXhXhXhXhXhXhXhXhXM M hXB N N v z M hXhXhXhXhXhXhXhXhXhXhXhXhXhXhXhXhXhXhXhXhXhXhXhXhXhXhXhXhXhXhXhX",
"hXhXhXhXhXhXhXhXhXhXhXhXhXhXhXhXhXhXhXhXhXhXhXhXhXhXhXhXhXhXhXhXhXhXhXhXhXhXhXhXhXhXhXhXhXhXhXhXhXhXhXhXhXhXhXhXhXhXhXhX",
"hXhXhXhXhXhXhXhXhXhXhXhXhXhXhXhXhXhXhXhXhXhXhXhXhXhXhXhXhXhXhXhXhXhXhXhXhXhXhXhXhXhXhXhXhXhXhXhXhXhXhXhXhXhXhXhXhXhXhXhX",
"hXhXhXhXhXhXhXhXhXhXhXhXhXhXhXhXhXhXhXhXhXhXhXhXhXhXhXhXhXhXhXhXhXhXhXhXhXhXhXhXhXhXhXhXhXhXhXhXhXhXhXhXhXhXhXhXhXhXhXhX",
"hXhXhXhXhXhXhXhXhXhXhXhXhXhXhXhXhXhXhXhXhXhXhXhXhXhXhXhXhXhXhXhXhXhXhXhXhXhXhXhXhXhXhXhXhXhXhXhXhXhXhXhXhXhXhXhXhXhXhXhX",
"hXhXhXhXhXhXhXhXhXhXhXhXhXhXhXhXhXhXhXhXhXhXhXhXhXhXhXhXhXhXhXhXhXhXhXhXhXhXhXhXhXhXhXhXhXhXhXhXhXhXhXhXhXhXhXhXhXhXhXhX",
"hXhXhXhXhXhXhXhXhXhXhXhXhXhXhXhXhXhXhXhXhXhXhXhXhXhXhXhXhXhXhXhXhXhXhXhXhXhXhXhXhXhXhXhXhXhXhXhXhXhXhXhXhXhXhXhXhXhXhXhX",
"hXhXhXhXhXhXhXhXhXhXhXhXhXhXhXhXhXhXhXhXhXhXhXhXhXhXhXhXhXhXhXhXhXhXhXhXhXhXhXhXhXhXhXhXhXhXhXhXhXhXhXhXhXhXhXhXhXhXhXhX"
};
