/* XPM */
static char *result[] = {
/* columns rows colors chars-per-pixel */
"60 60 215 2 ",
"   c #040505",
".  c #0C0402",
"X  c #030B02",
"o  c #0A0A03",
"O  c #03040B",
"+  c #0B040B",
"@  c #040B0C",
"#  c #0A0A0B",
"$  c #120301",
"%  c #1C0300",
"&  c #130B00",
"*  c #1C0C00",
"=  c #110B09",
"-  c #031103",
";  c #0A1300",
":  c #001B01",
">  c #00130E",
",  c #151100",
"<  c #1D1200",
"1  c #131009",
"2  c #020414",
"3  c #0B0313",
"4  c #020B14",
"5  c #0B0B13",
"6  c #01041C",
"7  c #08021C",
"8  c #020B1C",
"9  c #0B0C1B",
"0  c #140212",
"q  c #15051A",
"w  c #0A131E",
"e  c #051218",
"r  c #230201",
"t  c #2A0200",
"y  c #2C0B01",
"u  c #260704",
"i  c #3C0000",
"p  c #330600",
"a  c #3E1D00",
"s  c #002200",
"d  c #393C01",
"f  c #030323",
"g  c #020A24",
"h  c #0A0B23",
"j  c #01032C",
"k  c #0A022B",
"l  c #020B2A",
"z  c #090628",
"x  c #041025",
"c  c #010335",
"v  c #090433",
"b  c #020B34",
"n  c #01023B",
"m  c #000B3B",
"M  c #0B0839",
"N  c #130733",
"B  c #071037",
"V  c #311F2B",
"C  c #491C01",
"Z  c #4D1013",
"A  c #721C1D",
"S  c #483307",
"D  c #593A06",
"F  c #563A16",
"G  c #513111",
"H  c #622B0C",
"J  c #623A0C",
"K  c #613917",
"L  c #49362E",
"P  c #543626",
"I  c #4B3A35",
"U  c #543232",
"Y  c #562B34",
"T  c #752F2E",
"R  c #015403",
"E  c #035A01",
"W  c #135104",
"Q  c #184B18",
"!  c #18521B",
"~  c #17470F",
"^  c #304A00",
"/  c #214507",
"(  c #006200",
")  c #026704",
"_  c #184B20",
"`  c #235027",
"'  c #397A36",
"]  c #4C4417",
"[  c #4E4607",
"{  c #7C4F00",
"}  c #70490C",
"|  c #636C11",
" . c #7C5528",
".. c #695635",
"X. c #74552D",
"o. c #62673F",
"O. c #010343",
"+. c #030943",
"@. c #01014B",
"#. c #060648",
"$. c #353847",
"%. c #2D3C5A",
"&. c #2B3B59",
"*. c #373B56",
"=. c #2B3A4D",
"-. c #1C3E6E",
";. c #2A3C65",
":. c #363B66",
">. c #343E74",
",. c #473C49",
"<. c #573D48",
"1. c #2C425A",
"2. c #354254",
"3. c #37465C",
"4. c #34424E",
"5. c #2D446C",
"6. c #274069",
"7. c #344363",
"8. c #384565",
"9. c #244574",
"0. c #4B4751",
"q. c #6C5A46",
"w. c #715646",
"e. c #7C7A53",
"r. c #525571",
"t. c #914F12",
"y. c #835716",
"u. c #947E18",
"i. c #8F7828",
"p. c #847D4F",
"a. c #917953",
"s. c #82726A",
"d. c #27951C",
"f. c #2C8925",
"g. c #398A28",
"h. c #279924",
"j. c #35883A",
"k. c #32932C",
"l. c #49842A",
"z. c #4C864E",
"x. c #7C8547",
"c. c #79866A",
"v. c #858537",
"b. c #C28932",
"n. c #8A814D",
"m. c #B98C44",
"M. c #AE9C48",
"N. c #BA944D",
"B. c #B89549",
"V. c #B58D55",
"C. c #AB955C",
"Z. c #BB9353",
"A. c #B8955C",
"S. c #96AA44",
"D. c #AB9868",
"F. c #AB957B",
"G. c #B59875",
"H. c #B09568",
"J. c #CA8C42",
"K. c #C99346",
"L. c #C6925A",
"P. c #C78A51",
"I. c #4E5B85",
"U. c #8B7CBA",
"Y. c #99A999",
"T. c #8BAB90",
"R. c #AFA392",
"E. c #999CB5",
"W. c #9785B1",
"Q. c #AD97A5",
"!. c #99A5A9",
"~. c #9DA4B2",
"^. c #9BA4BA",
"/. c #9AA9BA",
"(. c #A6AAA7",
"). c #DED697",
"_. c #FFDC85",
"`. c #FFDC8D",
"'. c #FFD689",
"]. c #FEDB94",
"[. c #FDD59C",
"{. c #FDDB9B",
"}. c #F8D795",
"|. c #E5D398",
" X c #DBF695",
".X c #F4E686",
"XX c #FAE497",
"oX c #E4E48E",
"OX c #DAD9AD",
"+X c #F9D9A5",
"@X c #FADDB4",
"#X c #D9E4A8",
"$X c #FBE1A6",
"%X c #FFE9A4",
"&X c #FEE1A9",
"*X c #F1E0A8",
"=X c #FFFFBB",
"-X c #FBE3BF",
";X c #94A3C3",
":X c #98A4C9",
">X c #A6A2C3",
",X c #D3D5CB",
"<X c #F2DACA",
"1X c #FFFADB",
"2X c #FFFFD1",
"3X c #DDFFE7",
"4X c #E3FFE6",
"5X c #FFFAE2",
"6X c #FFF7ED",
"7X c #FFFBED",
"8X c #EDFFFD",
"9X c #F4FEFD",
"0X c #FDFDFE",
"qX c #FCF8F7",
"wX c None",
/* pixels */
"wXwXwXwXwXwXwXwXwXwXwXwXwXwXwXwXwXwXwXwXwXwXwXwXwXwXwXwXwXwXwXwXwXwXwXwXwXwXwXwXwXwXwXwXwXwXwXwXwXwXwXwXwXwXwXwXwXwXwXwX",
"wXwXwXwXwXwXwXwXwXwXwXwXwXwXwXwXwXwXwXwXwXwXwXwXwXwXwXwXz 7 k wXwXwXwXwXwXwXwXwXwXwXwXwXwXwXwXwXwXwXwXwXwXwXwXwXwXwXwXwX",
"wXwXwXwXwXwXwXwXwXwXwXwXwXwXwXwXwXwXwXwXwXwXwXwXwXwXwX* |.i.J K Y <.# N wXwXwXwXwXwXwXwXwXwXwXwXwXwXwXwXwXwXwXwXwXwXwXwX",
"wXwXwXwXwXwXwXwXwXwXwXwXwXwXwXwXwXwXwXwXwXwXwXwXwXwX= |.u.} b.P.X.$ q.,Xk wXwXwXwXwXwXwXwXwXwXwXwXwXwXwXwXwXwXwXwXwXwXwX",
"wXwXwXwXwXwXwXwXwXwXwXwXwXwXwXwXwXwXwXwXwXwXwXwXe > o r J .X'.L.% I I s.. U L L r q wXwXwXwXwXwXwXwXwXwXwXwXwXwXwXwXwXwX",
"wXwXwXwXwXwXwXwXwXwXwXwXwXwXwXwXwXwXwXwXwXwXv e z.d ] F m.].+X} P . X o r  . .t H <X#.wXwXwXwXwXwXwXwXwXwXwXwXwXwXwXwXwX",
"wXwXwXwXwXwXwXwXwXwXwXwXwXwXwXwXwXwXwXwXwXk L S d [ B.].].{.Z.K H.] o , {.J.i H C s.N wXwXwXwXwXwXwXwXwXwXwXwXwXwXwXwXwX",
"wXwXwXwXwXwXwXwXwXwXwXwXwXwXwXwXwXwXwXwXwX= S L.$X+X`.XXM.& ; ; , o #X* m.t.i C t $ wXwXwXwXwXwXwXwXwXwXwXwXwXwXwXwXwXwX",
"wXwXwXwXwXwXwXwXwXwXwXwXwXwXwXwXwXwXwXwXX o.D {.&X*XC.; s g.E g.W / ; & % r t % I 3 wXwXwXwXwXwXwXwXwXwXwXwXwXwXwXwXwXwX",
"wXwXwXwXwXwXwXwXwXwXwXwXwXwXwXwXwXwXwXj - ] V.+X+X* * d l.E d.E W ; x.n.& ..% q.,.j wXwXwXwXwXwXwXwXwXwXwXwXwXwXwXwXwXwX",
"wXwXwXwXwXwXwXwXwXwXwXwXwXwXwXwXwXwXB wX$ F &X[.V.y m.D |  XS.^ S.d , e.e.< r G.h wXwXwXwXwXwXwXwXwXwXwXwXwXwXwXwXwXwXwX",
"wXwXwXwXwXwXwXwXwXwXwXwXwXwXwXwXwXc wXwX% G {.%Xu [.K._.XXXX.X.XM.* & = o . y.@X7 wXwXwXwXwXwXwXwXwXwXwXwXwXwXwXwXwXwXwX",
"wXwXwXwXwXwXwXwXwXwXwXwXwXwXwXwXj wXwX. p F }.}.& D.B.`.XX{._.XXG.$ U.wXwX& B.XXq wXwXwXwXwXwXwXwXwXwXwXwXwXwXwXwXwXwXwX",
"wXwXwXwXwXwXwXwXwXwXwXwXwXwXwX+.wXwXj wXG A.%XXX& < % N.$X{.`.Z.% W.wXwXwX& ].Z.2 wXwXwXwXwXwXwXwXwXwXwXwXwXwXwXwXwXwXwX",
"wXwXwXwXwXwXwXwXwXwXwXwXwXwXn wXwXj wXwXP N.`.'.u D.1X% r N.{.r . wXwXwX+ X.{.X.N wXwXwXwXwXwXc k c wXwXwXwXwXwXwXwXwXwX",
"wXwXwXwXwXwXwXwXwXwXwXwXwXc wXwXn wXwXwXP [.'.K.r -X5X% A.].L.t $ h wXwXy A.*X% wXwXwX#.n c l ;X9Xn wXwXwXwXwXwXwXwXwXwX",
"wXwXwXwXwXwXwXwXwXwXwXwXf wXwX@.wXwXwXwXU [.'.b.* <X@X@X+X{.J.K.* OX& % % A.{.* + f l E.>X>XqX0XO.wXwXwXwXwXwXwXwXwXwXwX",
"wXwXwXwXwXwXwXwXwXwXwXc wXwXc wXwXwXwXwXU +X[.L.& ; % D F  .y.{ * v.).& u @XC.* R.(.9X9X0XqXM n wXwXwXwXwXwXwXwXwXwXwXwX",
"wXwXwXwXwXwXwXwXwXwXwXf wX6 wXwXwXwXwXwX. G.5X1X; #Xp.1X7X6X1X2X2Xv.oX< % *XC.r 6X0Xk n #.n wXwXwXwXwXwXwXwXwXwXwXwXwXwX",
"wXwXwXwXwXwXwXwXwXwXj wXwXc wXwXwXwXwXb + 7X0X0XT.X & * . = X X ; v.v.& < +XG.& 0 j wXwXwXwXwXwXwXwXwXwXwXwXwXwXwXwXwXwX",
"wXwXwXwXwXwXwXwXwXwXb wXl wXwXwXwXwXf wX2 0X0X0X9XY.q.F P . (.X x.x.o &  .G.w.q wXwXwXwXwXwXwXwXwXwXwXwXwXwXwXwXwXwXwXwX",
"wXwXwXwXwXwXwXwXwXwXb wXn wXwXwXwX+.wXwX9 E.0X0X8X!.6X5XF.F.qXY.; ; + + . w.0 wXwXwXwXwXwXwXwXwXwXwXwXwXwXwXwXwXwXwXwXwX",
"wXwXwXwXwXwXwXwXwXwX+.c wXwXwXwXb wXwXh 2 r.^.E.9X!.0XqXF.R.qXY.o , o q 5 7 wXwXwXwXwXwXwXwXwXwXwXwXwXwXwXwXwXwXwXwXwXwX",
"wXwXwXwXwXwXwXwXwXwXwXwXwXwXwXwXj wXc wXz h r.:X^.0X0X0X6XqX0X(.1 0.4 z j wXwXwXwXwXwXwXwXwXwXwXwXwXwXwXwXwXwXwXwXwXwXwX",
"wXwXwXwXwXwXwXwXwXwXwXwXwXwXwXwX#.O.wXwXwXj I.;X^.!.!.0X0X0X9X~.f k wX@.wXwXwXwXwXwXwXwXwXwXwXwXwXwXwXwXwXwXwXwXwXwXwXwX",
"wXwXwXwXwXwXwXwXwXwXwXwXwXwXwXwXwXwXwXwXwX+.;X;X8X8X8X8X9X9X/.g wXwXwXwXwXwXwXwXwXwXwXwXwXwXwXwXwXwXwXwXwXwXwXwXwXwXwXwX",
"wXwXwXwXwXwXwXwXwXwXwXwXwXwXwXwXwXwXwXwXwX+.;X/.T.3X3X3X4X4X!.j wXwXwXwXwXwXwXwXwXwXwXwXwXwXwXwXwXwXwXwXwXwXwXwXwXwXwXwX",
"wXwXwXwXwXwXwXwXwXwXwXwXwXwXwXwXwXwXwXwXwXwXl T.! j.R j.E ' Y.b wXwXwXwXwXwXwXwXwXwXwXwXwXwXwXwXwXwXwXwXwXwXwXwXwXwXwXwX",
"wXwXwXwXwXwXwXwXwXwXwXwXwXwXwXwXwXwXwXwXwXwX8 _ E h.( d.( f.! X v wXwXwXwXwXwXwXwXwXwXwXwXwXwXwXwXwXwXwXwXwXwXwXwXwXwXwX",
"wXwXwXwXwXwXwXwXwXwXwXwXwXwXwXwXwXwXwXwXwXwX8 Q E d.) d.( f.Q - $.6 M n m m n +.+.n @.wXwXwXwXwXwXwXwXwXwXwXwXwXwXwXwXwX",
"wXwXwXwXwXwXwXwXwXwXwXwXwXwXwXwXwXwXwXwXwXwX2 ` E k.R f.) z.X = V q k :.7.&.7.6.6.5.;.@.wXwXwXwXwXwXwXwXwXwXwXwXwXwXwXwX",
"wXwXwXwXwXwXwXwXwXwXwXwXwXwXwXwXwXwXwXwXwXwXx - Q s s : s : @ + 0 ,.*.8.6 8 g 8 e 6 7.5.@.wXwXwXwXwXwXwXwXwXwXwXwXwXwXwX",
"wXwXwXwXwXwXwXwXwXwXwXwXwXwXwXwXwXwXwXwXwXO.b 4.> - X - - X @ $.0.$.9 2 @ @ 8 2 @ @ g :.O.wXwXwXwXwXwXwXwXwXwXwXwXwXwXwX",
"wXwXwXwXwXwXwXwXwXwXwXwXwXwXwXwXwXwXwXwXwXO.5.1.2.$.9 O   e 4 2 6 g O X # + 5 # O e 2 &.O.wXwXwXwXwXwXwXwXwXwXwXwXwXwXwX",
"wXwXwXwXwXwXwXwXwXwXwXwXwXwXwXwXwXwXwXwXwXc 6.l 4 @ 2.2.@ @ + 5 O 5 # # #   X + @ O 8 0.c wXwXwXwXwXwXwXwXwXwXwXwXwXwXwX",
"wXwXwXwXwXwXwXwXwXwXwXwXwXwXwXwXwXwXwXwX+.;.9.6.4 @ 8 8 @   5 O # 5 O @ #   o o @ # 4 2 l wXwXwXwXwXwXwXwXwXwXwXwXwXwXwX",
"wXwXwXwXwXwXwXwXwXwXwXwXwXwXwXwXwXwXwXwX+.;.9.9.%.*.8 @ X 1   0   + O O + o + # X   # 2 c wXwXwXwXwXwXwXwXwXwXwXwXwXwXwX",
"wXwXwXwXwXwXwXwXwXwXwXwXwXwXwXwXwXwXwXn n 5.-.9.B 6 4 O 3 5 5   X # 5 5 # + O 4 2 9 g B wXwXwXwXwXwXwXwXwXwXwXwXwXwXwXwX",
"wXwXwXwXwXwXwXwXwXwXwXwXwXwXwXwXwXwXm wXj 7.5.l 6 3 w f wXwX7 o X o o   + X   5 f c wXwXwXwXwXwXwXwXwXwXwXwXwXwXwXwXwXwX",
"wXwXwXwXwXwXwXwXwXwXwXwXwXwXwXwXwXn wX~.g 7.&.g O 9 6 wXwXwXj 4 @ X @ O 4 9 6 f wXwXwXwXwXwXwXwXwXwXwXwXwXwXwXwXwXwXwXwX",
"wXwXwXwXwXwXwXwXwXwXwXwXwXwXwXwXc wXQ.0 h &.2.4 5 3 c wXwXwXwXn l ,.6 z f wXwXwXwXwXwXwXwXwXwXwXwXwXwXwXwXwXwXwXwXwXwXwX",
"wXwXwXwXwXwXwXwXwXwXwXwXwXwXwXk wXQ.t Y O 3.=.x O 9 #.wXwXwXwXwXn j 3.&.l #.wXwXwXwXwXwXwXwXwXwXwXwXwXwXwXwXwXwXwXwXwXwX",
"wXwXwXwXwXwXwXwXwXwXwXwXwXwX8 wXwXu T Z + 1.3.2 2 j wXwXwXwXwXwXwX#.2 4 g c wXwXwXwXwXwXwXwXwXwXwXwXwXwXwXwXwXwXwXwXwXwX",
"wXwXwXwXwXwXwXwXwXwXwXwXwXn ,XwXr t A p 0.8 &.g 2 f wXwXwXwXwXwXwXwXb j c wXwXwXwXwXwXwXwXwXwXwXwXwXwXwXwXwXwXwXwXwXwXwX",
"wXwXwXwXwXwXwXwXwXwXwXwXwXb c.n.r T Z u *.1.f 5 5 6 wXwXwXwXwXwXwXwXwXwXwXwXwXwXwXwXwXwXwXwXwXwXwXwXwXwXwXwXwXwXwXwXwXwX",
"wXwXwXwXwXwXwXwXwXwXwXwXwXwX@ o r H Z 3 8.g 2 + O z wXwXwXwXwXwXwXwXwXwXwXwXwXwXwXwXwXwXwXwXwXwXwXwXwXwXwXwXwXwXwXwXwXwX",
"wXwXwXwXwXwXwXwXwXwXwXwXwXwXwX$ }.a $ *.2.g + q f wXwXwXwXwXwXwXwXwXwXwXwXwXwXwXwXwXwXwXwXwXwXwXwXwXwXwXwXwXwXwXwXwXwXwX",
"wXwXwXwXwXwXwXwXwXwXwXwXwXwXwXz a.n.@ 3.2 e + 3 k wXwXwXwXwXwXwXwXwXwXwXwXwXwXwXwXwXwXwXwXwXwXwXwXwXwXwXwXwXwXwXwXwXwXwX",
"wXwXwXwXwXwXwXwXwXwXwXwXwXwXwXwXk 7 g 7.6 O # 3 j wXwXwXwXwXwXwXwXwXwXwXwXwXwXwXwXwXwXwXwXwXwXwXwXwXwXwXwXwXwXwXwXwXwXwX",
"wXwXwXwXwXwXwXwXwXwXwXwXwXwXwXwXwXwXb wX8 e # 8 v wXwXwXwXwXwXwXwXwXwXwXwXwXwXwXwXwXwXwXwXwXwXwXwXwXwXwXwXwXwXwXwXwXwXwX",
"wXwXwXwXwXwXwXwXwXwXwXwXwXwXwXwXwXwXwX8 $.4.2 6 n wXwXwXwXwXwXwXwXwXwXwXwXwXwXwXwXwXwXwXwXwXwXwXwXwXwXwXwXwXwXwXwXwXwXwX",
"wXwXwXwXwXwXwXwXwXwXwXwXwXwXwXwXwXwXj 4 w 6 f v wXwXwXwXwXwXwXwXwXwXwXwXwXwXwXwXwXwXwXwXwXwXwXwXwXwXwXwXwXwXwXwXwXwXwXwX",
"wXwXwXwXwXwXwXwXwXwXwXwXwXwXwXwXwXwXj wX4 2 j wXwXwXwXwXwXwXwXwXwXwXwXwXwXwXwXwXwXwXwXwXwXwXwXwXwXwXwXwXwXwXwXwXwXwXwXwX",
"wXwXwXwXwXwXwXwXwXwXwXwXwXwXwXwXwX@.c 3.8 g c wXwXwXwXwXwXwXwXwXwXwXwXwXwXwXwXwXwXwXwXwXwXwXwXwXwXwXwXwXwXwXwXwXwXwXwXwX",
"wXwXwXwXwXwXwXwXwXwXwXwXwXwXwXwXwX@.wX:.2.l n wXwXwXwXwXwXwXwXwXwXwXwXwXwXwXwXwXwXwXwXwXwXwXwXwXwXwXwXwXwXwXwXwXwXwXwXwX",
"wXwXwXwXwXwXwXwXwXwXwXwXwXwXwXwXwXn >.:.8 f @.wXwXwXwXwXwXwXwXwXwXwXwXwXwXwXwXwXwXwXwXwXwXwXwXwXwXwXwXwXwXwXwXwXwXwXwXwX",
"wXwXwXwXwXwXwXwXwXwXwXwXwXwXwXwXwXn :.b 8 6 wXwXwXwXwXwXwXwXwXwXwXwXwXwXwXwXwXwXwXwXwXwXwXwXwXwXwXwXwXwXwXwXwXwXwXwXwXwX",
"wXwXwXwXwXwXwXwXwXwXwXwXwXwXwXwXwXc wX2 @ g wXwXwXwXwXwXwXwXwXwXwXwXwXwXwXwXwXwXwXwXwXwXwXwXwXwXwXwXwXwXwXwXwXwXwXwXwXwX",
"wXwXwXwXwXwXwXwXwXwXwXwXwXwXwXwXwX+.6 @ X 2 wXwXwXwXwXwXwXwXwXwXwXwXwXwXwXwXwXwXwXwXwXwXwXwXwXwXwXwXwXwXwXwXwXwXwXwXwXwX",
"wXwXwXwXwXwXwXwXwXwXwXwXwXwXwXwXwXwX8 X X 8 wXwXwXwXwXwXwXwXwXwXwXwXwXwXwXwXwXwXwXwXwXwXwXwXwXwXwXwXwXwXwXwXwXwXwXwXwXwX"
};
