/* XPM */
static char *b4b78850f72547afcba599fb7b9404cbxx6OrkLwpR76XdGI[] = {
/* columns rows colors chars-per-pixel */
"60 60 219 2 ",
"   c None",
".  c #020402",
"X  c #0B0402",
"o  c #020B02",
"O  c #090C02",
"+  c #02030C",
"@  c #0A060B",
"#  c #020B0B",
"$  c #0B0B0C",
"%  c #130200",
"&  c #1C0200",
"*  c #130A00",
"=  c #190C00",
"-  c #120B0D",
";  c #011401",
":  c #0B1201",
">  c #011C00",
",  c #02130A",
"<  c #0C1508",
"1  c #071B08",
"2  c #161400",
"3  c #1C1400",
"4  c #121F0A",
"5  c #020313",
"6  c #0B0611",
"7  c #020913",
"8  c #0B0C14",
"9  c #02031B",
"0  c #030A1C",
"q  c #0A051B",
"w  c #140813",
"e  c #0B1316",
"r  c #041717",
"t  c #131B1C",
"y  c #230200",
"u  c #290100",
"i  c #230A02",
"p  c #2B0B00",
"a  c #271700",
"s  c #3A0E0C",
"d  c #002200",
"f  c #1F2300",
"g  c #0F3E1E",
"h  c #242000",
"j  c #25391C",
"k  c #000223",
"l  c #020A22",
"z  c #00002B",
"x  c #020A2B",
"c  c #120521",
"v  c #021728",
"b  c #000033",
"n  c #01003B",
"m  c #010C3A",
"M  c #3F1C22",
"N  c #271F34",
"B  c #122F3D",
"V  c #092122",
"C  c #2F3739",
"Z  c #481A1B",
"A  c #501912",
"S  c #531F09",
"D  c #502B0E",
"F  c #5D3503",
"G  c #532718",
"H  c #732E00",
"J  c #733904",
"K  c #733700",
"L  c #643500",
"P  c #572924",
"I  c #433531",
"U  c #064E0E",
"Y  c #015500",
"T  c #0B5703",
"R  c #015C01",
"E  c #0C5C00",
"W  c #0C5A0E",
"Q  c #135402",
"!  c #10510F",
"~  c #0C4715",
"^  c #17501C",
"/  c #244E00",
"(  c #284E00",
")  c #255000",
"_  c #214A19",
"`  c #016300",
"'  c #006D00",
"]  c #007500",
"[  c #134A23",
"{  c #34503A",
"}  c #3C7830",
"|  c #7D540D",
" . c #61581F",
".. c #7E5211",
"X. c #446F15",
"o. c #6E6307",
"O. c #665239",
"+. c #785B31",
"@. c #487B38",
"#. c #737032",
"$. c #020045",
"%. c #3C3B49",
"&. c #2F3E5B",
"*. c #393B5A",
"=. c #2F3F61",
"-. c #353D64",
";. c #423E4A",
":. c #27425D",
">. c #39415D",
",. c #344646",
"<. c #3C7F56",
"1. c #1E4167",
"2. c #284464",
"3. c #25426B",
"4. c #314363",
"5. c #3D4363",
"6. c #47405F",
"7. c #4F5855",
"8. c #7E514C",
"9. c #7E7C43",
"0. c #905604",
"q. c #837E2C",
"w. c #14950C",
"e. c #1D9A1A",
"r. c #13950B",
"t. c #2A9515",
"y. c #32900F",
"u. c #18A008",
"i. c #16A619",
"p. c #24A313",
"a. c #288A2C",
"s. c #289927",
"d. c #388B37",
"f. c #2E9232",
"g. c #349233",
"h. c #338F2A",
"j. c #5B8110",
"k. c #488111",
"l. c #7D8643",
"z. c #9A8B14",
"x. c #868839",
"c. c #989C3B",
"v. c #B6863E",
"b. c #99AA3A",
"n. c #C78B39",
"m. c #D08F35",
"M. c #C7902B",
"N. c #84844E",
"B. c #BA8D45",
"V. c #AD9B48",
"C. c #BC9044",
"Z. c #B7974B",
"A. c #BA8D57",
"S. c #BA9758",
"D. c #90B149",
"F. c #87AF49",
"G. c #83856F",
"H. c #AB9361",
"J. c #A39169",
"K. c #AC9F7A",
"L. c #B99660",
"P. c #8FA973",
"I. c #90A874",
"U. c #B0A47A",
"Y. c #CB8B43",
"T. c #C78E4C",
"R. c #C69749",
"E. c #C69A5C",
"W. c #C49566",
"Q. c #EAE25D",
"!. c #F7E060",
"~. c #EAE563",
"^. c #949F9B",
"/. c #999C81",
"(. c #9BA69B",
"). c #A3A59B",
"_. c #ACB491",
"`. c #9B9DAB",
"'. c #8A8AA2",
"]. c #A39FA7",
"[. c #9BAFAD",
"{. c #9EA4B0",
"}. c #A6A9A8",
"|. c #A8B8A7",
" X c #A4A9B4",
".X c #DEDF9D",
"XX c #FFDA8C",
"oX c #FFD489",
"OX c #FBD793",
"+X c #FFDC95",
"@X c #FEDB9C",
"#X c #FFD09D",
"$X c #F4D391",
"%X c #CCEE91",
"&X c #E4E28A",
"*X c #FBE388",
"=X c #FFE395",
"-X c #F8E49C",
";X c #ECF29A",
":X c #DDDDB7",
">X c #FAD9A6",
",X c #E5DCB3",
"<X c #CCEBAF",
"1X c #FDE2A2",
"2X c #F8E2AD",
"3X c #F4EDB5",
"4X c #FFF9C3",
"5X c #FEF9D7",
"6X c #E6FFEC",
"7X c #EAFFED",
"8X c #FDFEE2",
"9X c #FFFEEC",
"0X c #FFF6EA",
"qX c #ECFFF5",
"wX c #FDFEF4",
"eX c #FFF7FC",
"rX c #F5FFFE",
"tX c #FCFEFE",
"yX c #F3FFF2",
/* pixels */
"                                                                                                                        ",
"                                                                                                                        ",
"                                                                                                                        ",
"                                                                                                                        ",
"                                                  ; > d d d d d d >                                                     ",
"                                                , ~ d.R a.Y d.Y h.E > ,                                                 ",
"                                              5 U s.` e.i.i.r.p.u.w.f.<.l                                               ",
"                                              ; f.' R t.' u.] u.' p.R d                                                 ",
"                                            5 ^ ` e.Y E y.` t.` y.` T @.r                                               ",
"                                            # U s.` Q %XF.( k.%XF.( D.;                                                 ",
"                                            # ! R t./ ;XV.*X&X-X1X@XV.*                                                 ",
"                                            # ^ h.E ) c.R.XX=X@X#X>XS.%                                                 ",
"                                            0 g Q Q k.> p C.=XOX-XA.i                                                   ",
"                                              , _ X.j.b.Z.u y S.XXu X                                                   ",
"                                              0 j 3Xo.*X3Xp >X+XR.p %                                                   ",
"                                                $ ,XZ.=X@X>X2X@Xn.B.&                                                   ",
"                                                  * F T.XXXX@X@XK A.%                                                   ",
"                                                    u K n.0...F A.&                                                     ",
"                                                  * & T.H Y.1XH.X                                                       ",
"                                              9 7 wX5XL.T.H L i )..                                                     ",
"                                            k  XrXrXwX5XW.Y.n.B.8X).@                                                   ",
"                                            9 tXtXrX[.wX5X4XR.E.8XtX].q                                                 ",
"                                          $.'.tXtXtX^.tXeX0XJ.U.wXtX X5                                                 ",
"                                          9 }.wXwX).tXtXeXeX9X9XtXtX7 5                                                 ",
"                                          % 2X2XK.* }.rXtXtXtXtXtX].O X                                                 ",
"                                        M W.OX1XK.X 7. X{.`.tXtX`.- O.%                                                 ",
"                                        S Y.+X>X. (.}.rXtXtXtXtXtX= ..C.*         a a                                   ",
"                                        J m.+XH.. # (.|.7X6XqXqX6X: | C.=     . 3 &X*Xa                                 ",
"                                      Z v.M.C.&     ; [ W g.` a.` } 3 +.X o o _.4Xx.q.h                                 ",
"                                      D =X*XZ.%     ; ~ ` w.` s.` d.: O.. |.wX8X_.f f                                   ",
"                                    Z E.oX+X&       o _ T g.Y d.Y } : - ^.yX|._.; o                                     ",
"                                    G @X+XS.%     o 4 ; > > d > d ; ,.+ }.).O o                                         ",
"                                    P #XT.y       # 1 { ,.# r o ; o 0 ;.O X *                                           ",
"                                  N y p S.&       # r # l >.C e # + 0 %.* J.H.&                                         ",
"                                  O z.!.% %     . t 9 l l q 6 @ O . 8 %.X K.+.= 3 O ;                                   ",
"                                # #.~.Q.x.2 .   # t 5.-.9 q 8 . O O @ 6 I X  .= &Xx.;                                   ",
"                                . .Xx.O &X: O # V v =.-.*.*.# , o O 6 5 6.@ 2 &Xx.:                                     ",
"                                . N.5X: l.O G.# B :.4.x x l 7 . $ $ $ 5 *.6 O x.  o                                     ",
"                                  . 9XO o (.(.7 2.1.:.9 0 5 5   8 X . $ 8 e O o     .                                   ",
"                                +   tXX }.@ @ 5 3.3.l 7 $ 5     9 w O o o   +   .     o                                 ",
"                                X   }.6 y u w &.3.2.0 @ @ q     5 . . : o   9     +     o                               ",
"                                . I . w P Z c =.4.9 8 @ +         @ O . <   5       .     o                             ",
"                              z   9Xi Z A M 9 =.7 e + 9 x         k + O o   #         .     o                           ",
"                              k   /.& 8.u & *.&.7 . 8 9 m         b 9 + $ o   5         o     ;                         ",
"                              + j o X %   X >.l 7 # $ 5           z 5 @ @ O   5           .     o                       ",
"                            k     o   X X   %.5 5 8 . +           z 5 $ @ O   5             .     o                     ",
"                            k     o . 9.. # - @ $ # . +           z + @ @ @ < 5               o   I.; o                 ",
"                            5   9   . :Xo o X X O . o +           b + . 8 +   5                 .     I.; #             ",
"                            5   k     k +   @ ;.%.+ .             n 5 O 5 8 . 5                   o o <X<XP.; o         ",
"                          b     b         o $ 5 5 5 5               + . # + .                         ; ;   <X  o 9     ",
"                          z   5           o . 5 + 5                 + . < . O .                           ; ; ;         ",
"                          z   9         . . + 6 .                 z + : o . o . . 5                                     ",
"                          b   z       9 . o 8 + O 5               z 7 O . $ o o <   b                                   ",
"                          $.b       z   o o + 5 . 0               n 5 + 9 9 5 . + 9 z                                   ",
"                                    k   $ C t # $ k                 k 9   b z z b b b                                   ",
"                                    9 . . . . + +                                                                       ",
"                                                                                                                        ",
"                                                                                                                        ",
"                                                                                                                        ",
"                                                                                                                        "
};
