/* XPM */
static char *_4a4afd8f4ee404eee1439d14adaa1159rX8MLdPmJyPXLQ1[] = {
/* columns rows colors chars-per-pixel */
"60 60 5 1 ",
"  c None",
". c #F7F7F9",
"X c #FDFDFD",
"o c #FEFEFE",
"O c white",
/* pixels */
"                                                            ",
"                                                            ",
"                                                            ",
"                                                            ",
"                                                            ",
"                                                            ",
"                                                            ",
"                                                            ",
"    XXX                                                     ",
"   XXXXX                                                    ",
"  .XXXXXX                                                   ",
"  XXXXXXXX                                                  ",
"  XXXXXXXXX                                                 ",
" XXXXXXXXXX                                                 ",
" XXXXXXXXXXX                                                ",
" XXXXXXXXXXXX                                               ",
".XXXXXXXXXXXXX                                              ",
" XXXXXXXXXXXXXX                                             ",
"XXXXXXXXXXXXXXXX                                            ",
"XXXXXXXXXXXXXXXXX                                           ",
"XXXXXXXXXXXXXXXXXX                                          ",
"XXXXXXXXXXXXXXXXXXX                                         ",
"XXXXXXXXXXXXXXXXXXXX                                        ",
"XXXXXXXXXXXXXXXXXXXXX                                       ",
"XXXXXXXXXXXXXXXXXXXXXX                                      ",
"XXXXXXXXXXXXXXXXXXXXXXXX                                    ",
"XXXXXXXXXXXXXXXXXXXXXXXXX                                   ",
"XX .XXXXXXXXXXXXXXXXXXXXXX                                  ",
"X   .X.XXXXXXXXXXXXXXXXXXXX                                 ",
".      XXXXXXXXXXXXXXXXXXXXXX                               ",
"        XXXXXXXXXXXXXXXXXXXXXX                              ",
"        .XXXXXXXXXXXXXXXXXXXXXXX                            ",
"         XXXXXXXXXXXXXXXXXXXXXXXX                           ",
"          XXXXXXXXXXXXXXXXXXXXXXXXX                         ",
"          XXXXXXXXXXXXXXXXXXXXXXXXXXX                       ",
"           XXXXXXXXXXXXXXXXXXXXXXXXXXXX                     ",
"           .XXXXXXXXXXXXXXXXXXXXXXXXXXXX                    ",
"            .XXXXXXXXXXXXXXXXXXXXXXXXXXXXX                  ",
"             XXXXXXXXXXXXXXXXXXXXXXXXXXXXXXXX               ",
"              XXXX         XXXXXXXXXXXXXXXXXXXX             ",
"               XXX           XXXXXXXXXXXXXXXXXXXXX          ",
"                .X.             XXXXXXXXXXXXXXXXXXXXX       ",
"                 .                 XXXXXXXXXXXXXXXXXXXXX    ",
"                                       XXXXXXXXXXXXXXXXXXXXX",
"                                           XXXXXXXXXXXXXXXXX",
"                                                XXXXXXXXXXXX",
"                                                        XXXX",
"                                                            ",
"                                                            ",
"                                                            ",
"                                                            ",
"                                                            ",
"                                                            ",
"                                                            ",
"                                                            ",
"                                                            ",
"                                                            ",
"                                                            ",
"                                                            ",
"                                                            "
};
