/* XPM */
static char *d13775fe3a264f5dfc68cdc971b81f73e8SzLTn0sH3sRFSx[] = {
/* columns rows colors chars-per-pixel */
"60 60 5 1 ",
"  c None",
". c #F7F7F9",
"X c #FDFDFD",
"o c #FEFEFE",
"O c white",
/* pixels */
"                                                            ",
"                                                            ",
"                                                            ",
"                                                            ",
"                                                            ",
"                                                            ",
"                                                            ",
"                                                            ",
"                                                     ooo    ",
"                                                    ooooo   ",
"                                                   oooooo.  ",
"                                                  oooooooo  ",
"                                                 ooooooooo  ",
"                                                 oooooooooo ",
"                                                ooooooooooo ",
"                                               oooooooooooo ",
"                                              ooooooooooooo.",
"                                             oooooooooooooo ",
"                                            oooooooooooooooo",
"                                           ooooooooooooooooo",
"                                          oooooooooooooooooo",
"                                         ooooooooooooooooooo",
"                                        oooooooooooooooooooo",
"                                       ooooooooooooooooooooo",
"                                      oooooooooooooooooooooo",
"                                    oooooooooooooooooooooooo",
"                                   ooooooooooooooooooooooooo",
"                                  oooooooooooooooooooooo. oo",
"                                 oooooooooooooooooooo.o.   o",
"                               oooooooooooooooooooooo      .",
"                              oooooooooooooooooooooo        ",
"                            ooooooooooooooooooooooo.        ",
"                           oooooooooooooooooooooooo         ",
"                         ooooooooooooooooooooooooo          ",
"                       ooooooooooooooooooooooooooo          ",
"                     oooooooooooooooooooooooooooo           ",
"                    oooooooooooooooooooooooooooo.           ",
"                  ooooooooooooooooooooooooooooo.            ",
"               oooooooooooooooooooooooooooooooo             ",
"             oooooooooooooooooooo         oooo              ",
"          ooooooooooooooooooooo           ooo               ",
"       ooooooooooooooooooooo             .o.                ",
"    ooooooooooooooooooooo                 .                 ",
"ooooooooooooooooooooo                                       ",
"ooooooooooooooooo                                           ",
"oooooooooooo                                                ",
"oooo                                                        ",
"                                                            ",
"                                                            ",
"                                                            ",
"                                                            ",
"                                                            ",
"                                                            ",
"                                                            ",
"                                                            ",
"                                                            ",
"                                                            ",
"                                                            ",
"                                                            ",
"                                                            "
};
