/* XPM */
static char *result[] = {
/* columns rows colors chars-per-pixel */
"60 60 128 2 ",
"   c #160E16",
".  c #190E17",
"X  c #1B0F1B",
"o  c #1F1617",
"O  c #290E17",
"+  c #260F1D",
"@  c #2D0E19",
"#  c #360F1C",
"$  c #3A0F1F",
"%  c #20111E",
"&  c #271A1D",
"*  c #3D241A",
"=  c #39311F",
"-  c #231224",
";  c #2B1123",
":  c #271821",
">  c #2B1A22",
",  c #331122",
"<  c #3C1122",
"1  c #311C22",
"2  c #342524",
"3  c #3C2D25",
"4  c #3F3323",
"5  c #3E3923",
"6  c #420F22",
"7  c #441122",
"8  c #441B21",
"9  c #4B1D22",
"0  c #422725",
"q  c #4F2122",
"w  c #462A24",
"e  c #4A2E25",
"r  c #522423",
"t  c #5F2F26",
"y  c #413426",
"u  c #443B24",
"i  c #493F26",
"p  c #453628",
"a  c #4A3B29",
"s  c #513025",
"d  c #5B3627",
"f  c #5A3628",
"g  c #533E2B",
"h  c #5D3F29",
"j  c #633225",
"k  c #693727",
"l  c #643D28",
"z  c #6C3B29",
"x  c #683F32",
"c  c #4C4127",
"v  c #4D4229",
"b  c #52442B",
"n  c #55492C",
"m  c #5B4C2E",
"M  c #5F502F",
"N  c #5E4E30",
"B  c #5F5130",
"V  c #674224",
"C  c #694527",
"Z  c #604629",
"A  c #634D2E",
"S  c #6A4B2B",
"D  c #704726",
"F  c #754A27",
"G  c #714629",
"H  c #754A29",
"J  c #7D4A2A",
"K  c #75512E",
"L  c #7E532D",
"P  c #66463F",
"I  c #655533",
"U  c #6B5632",
"Y  c #715632",
"T  c #735832",
"R  c #7C5A32",
"E  c #735B3A",
"W  c #834B2B",
"Q  c #83542C",
"!  c #8D552D",
"~  c #8F582F",
"^  c #91562E",
"/  c #945A2F",
"(  c #835C32",
")  c #8B5E32",
"_  c #875E38",
"`  c #925F32",
"'  c #9A5D30",
"]  c #8F6033",
"[  c #946032",
"{  c #9B6232",
"}  c #98663A",
"|  c #A46432",
" . c #AC6632",
".. c #AC6934",
"X. c #AE6E39",
"o. c #AF713C",
"O. c #8E6945",
"+. c #9A7146",
"@. c #847759",
"#. c #867B5B",
"$. c #9D7950",
"%. c #AF7441",
"&. c #AD7949",
"*. c #B17541",
"=. c #B17844",
"-. c #97825E",
";. c #9D855F",
":. c #B4804D",
">. c #AE8051",
",. c #AC8558",
"<. c #B48452",
"1. c #BA8D5B",
"2. c #928764",
"3. c #968865",
"4. c #A98E64",
"5. c #A1926B",
"6. c #AF966B",
"7. c #B39466",
"8. c #BA9665",
"9. c #B49B6E",
"0. c #B89A6A",
"q. c #B09C70",
"w. c #B5A377",
"e. c #C1A06D",
"r. c #C4A574",
"t. c #C6A978",
"y. c #CFBE8E",
"u. c None",
/* pixels */
"u.u.u.u.u.u.u.u.u.u.u.u.u.u.u.u.u.u.u.u.u.u.u.u.u.u.u.u.u.u.u.u.u.u.u.u.u.u.u.u.u.u.u.u.u.u.u.u.u.u.u.u.u.u.u.u.u.u.u.u.",
"u.u.u.u.u.u.u.u.u.u.u.u.u.u.u.u.u.u.u.u.u.u.u.u.u.u.u.u.u.u.u.u.u.u.u.u.u.u.u.u.u.u.u.u.u.u.u.u.u.u.u.u.u.u.u.u.u.u.u.u.",
"u.u.u.u.u.u.u.u.G C u.u.u.u.u.u.u.u.u.u.u.u.u.u.u.u.u.u.u.u.u.u.u.u.u.u.u.u.u.u.u.u.u.u.u.u.u.u.u.u.u.u.u.u.u.u.u.u.u.u.",
"u.u.u.u.u.u.L ) Y Y _ u.u.u.u.#.5.q.9.0.8.8.7.4.-.u.u.u.u.u.u.u.u.u.u.u.u.u.u.u.u.u.u.u.u.u.u.u.u.u.u.u.u.u.u.u.u.u.u.u.",
"u.u.u.u.u.H ( U I E &.F u.3.9.8.<.=.:.8.=. .X.X.*.&.+.u.u.u.u.u.u.u.u.u.u.u.u.u.u.u.u.u.u.u.u.u.u.u.u.u.u.u.u.u.u.u.u.u.",
"u.u.u.u.u.Q A I S ` X.{ O.,.o. . ...r.y.e. . . . . . .| F u.u.u.u.u.u.u.u.u.u.u.u.u.u.u.u.u.u.u.u.u.u.u.u.u.u.u.u.u.u.u.",
"u.u.u.u.u.~ L L ( )  . .| / / |  . .1.t.1. . . . . . . .| Q u.u.u.u.u.u.u.u.u.u.u.u.u.u.u.u.u.u.u.u.u.u.u.u.u.u.u.u.u.u.",
"u.u.u.u.u.S R R U T |  . . .{ ~  . . .X. . . . . . . . . .| Q u.u.u.u.u.u.u.u.u.u.u.u.u.u.u.u.u.u.u.u.u.u.u.u.u.u.u.u.u.",
"u.u.u.u.u.u.u I I I R |  . . ./  . . . . . . . . . . . . . .| G u.u.u.u.u.u.u.u.u.u.u.u.u.u.u.u.u.u.u.u.u.u.u.u.u.u.u.u.",
"u.u.u.u.u.u.u.m I I I )  . . .|  . . . . . . . . . . . . . . .' * u.u.u.u.u.u.u.u.u.u.u.u.u.u.u.u.u.u.u.u.u.u.u.u.u.u.u.",
"u.u.u.u.u.u.Q Q A I I U [ | |  . . . . . . . . . . . . . . . . .z @ u.u.u.u.u.u.u.u.u.u.u.u.u.u.u.u.u.u.u.u.u.u.u.u.u.u.",
"u.u.u.u.u.V | { A I I I U ) |  . . . . . . . . . . . . . . . . .~ 7 O u.u.u.u.u.u.u.u.u.u.u.u.u.u.u.u.u.u.u.u.u.u.u.u.u.",
"u.u.u.u.u.~  .{ I I I I R |  . . . . . . . . . . . . . . . . . .| r # u.u.u.u.u.u.u.u.u.u.u.u.u.u.u.u.u.u.u.u.u.u.u.u.u.",
"u.u.u.u.u.|  .( I I I (  . . . . . . . . . . . . . . . . . . . . .t # u.u.u.u.u.u.u.u.u.u.u.u.u.u.u.u.u.u.u.u.u.u.u.u.u.",
"u.u.u.u.F  .| U I I (  . . . . . . . . . . . . . . . . . . . . . .k < . u.u.u.u.u.u.u.u.u.u.u.u.u.u.u.u.u.u.u.u.u.u.u.u.",
"u.u.u.u.K  .` I I T |  . . . . . . . . . . . . . . . . . . . . . .j < + O u.u.u.u.u.u.u.u.u.u.u.u.u.u.u.u.u.u.u.u.u.u.u.",
"u.u.u.u.K ..] I I )  . . . . . . . . . . . . . . . . . . . . . .| r 6 ; $ $ u.u.u.u.u.u.u.u.u.u.u.u.u.u.u.u.u.u.u.u.u.u.",
"u.u.u.u.U { R I U {  . . . . . . . . . . . . . . . . . . . . . .^ 7 6 $ , 6 < 0 @.u.u.u.u.u.u.u.u.u.u.u.u.u.u.u.u.u.u.u.",
"u.u.u.u.I [ T I T |  . . . . . . . . . . . . . . . . . . . . . .z 6 7 7 , 7 7 7 P q.w.3.u.u.u.u.u.u.u.u.u.u.u.u.u.u.u.u.",
"u.u.u.u.B ( [ T )  . . . . . . . . . . . . . . . . . . . . . .' q 7 7 7 6 6 7 7 7 x <.8.6.#.u.u.u.u.u.u.u.u.u.u.u.u.u.u.",
"u.u.u.u.M U {  . . . . . . . . . . . . . . . . . . . . . . . .j 7 7 7 7 7 7 7 7 7 7 W  .o.<.;.u.u.u.u.u.u.u.u.u.u.u.u.u.",
"u.u.u.u.m I R  . . . . . . . . . . . . . . . . . . . . . . .W 7 7 7 7 7 7 7 7 7 7 7 t |  . .*.$.u.u.u.u.u.u.u.u.u.u.u.u.",
"u.u.u.u.n I I ]  . . . . . . . . . . . . . . . . . . . . .^ 9 6 7 7 7 7 7 7 7 7 7 7 8 '  . . ...} u.u.u.u.u.u.u.u.u.u.u.",
"u.u.u.u.u B I I R {  . . . . . . . . . . . . . . . . . ./ q 6 6 7 7 7 7 7 7 7 7 7 7 < J  . . . . ./ u.u.u.u.u.u.u.u.u.u.",
"u.u.u.u.u.m I I I T [  . . . . . . . . . . . . . . . ./ q 6 6 7 7 7 7 7 7 7 7 7 6 6 , l  . . . . . .Q u.u.u.u.u.u.u.u.u.",
"u.u.u.u.u.c I I I I U T ] { |  . . . . . . . . . . .! q 6 7 7 7 7 7 7 7 7 7 7 7 7 6 , f  . . . . . .| m u.u.u.u.u.u.u.u.",
"u.u.u.u.u.u.n I I I I I I I T R R ] ] ] ] ] ] R K n 8 6 7 7 7 7 7 7 7 7 7 7 7 7 7 7 ; f  . . . . . . .( u u.u.u.u.u.u.u.",
"u.u.u.u.u.u.u.M I I I I I I I I I I I I I B I m e 7 6 , < 7 7 7 7 7 7 7 7 7 7 7 6 7 ; l .. . . . . . .{ n u.u.u.u.u.u.u.",
"u.u.u.u.u.u.u.u B I I I I I I I I I I I I I b 8 7 < ; - - , 7 7 7 7 6 7 7 7 7 7 7 < - J  . . . . . . .| U u u.u.u.u.u.u.",
"u.u.u.u.u.u.u.u.= m I I I I I I I I I I m e < < , - - - - - , 7 7 7 7 7 7 7 7 7 7 , > ^  . . . . . . . .R m u.u.u.u.u.u.",
"u.u.u.u.u.u.u.u.u.& a m I I I I I m v w 7 < , - - - - - - - ; < 7 7 7 7 7 7 7 7 7 ; 0 |  . . . . . . . .( I u u.u.u.u.u.",
"u.u.u.u.u.u.u.u.u.  % > 2 3 4 3 2 1 , ; ; - - - - - - - - - - - 7 7 7 7 7 7 6 7 < - l  . . . . . . . . .( I n u.u.u.u.u.",
"u.u.u.u.u.u.u.u.u.u.u.X - - - % - - - - - - - - - - - - - - - - 1 7 7 7 7 7 7 6 ; 1 ~  . . . . . . . . .( I m u.u.u.u.u.",
"u.u.u.u.u.u.u.u.u.u.u.u.  % - - - - - - - - - - - - - - - - - - - < 7 7 7 7 7 < - f  . . . . . . . . . .( I I u.u.u.u.u.",
"u.u.u.u.u.u.u.u.u.u.u.u.u.  - - - - - - - - - - - - - - - - - - - ; 7 7 6 6 < ; 1 ~  . . . . . . . . . .( I I c u.u.u.u.",
"u.u.u.u.u.u.u.u.u.u.u.u.u.  - - - - - - - - - - - - - - - - - - - - , 7 6 6 ; - G X. . . . . . . . . . .R I I v u.u.u.u.",
"u.u.u.u.u.u.u.u.u.u.u.u.u.o - - - - - - - - - - - - - - - - - - - - ; 7 7 ; ; s |  . . . . . . . . . . .T I I n u.u.u.u.",
"u.u.u.u.u.u.u.u.u.u.u.u.u.4 2 - - - - - - - - - - - - - - - - - - - - , ; - 0 '  . . . . . . . . . . .[ I I I n u.u.u.u.",
"u.u.u.u.u.u.u.u.u.u.u.u.u.u b : - - - - - - - - - - - - - - - - - - - - - 0 '  . . . . . . . . . . . .( I I I n u.u.u.u.",
"u.u.u.u.u.u.u.u.u.u.u.u.u.u.I a - - - - - - - - - - - - - - - - - - - - a } .. . . . . . . . . . . .| U I I I b u.u.u.u.",
"u.u.u.u.u.u.u.u.u.u.u.u.u.u.m I v > - - - - - - - - - - - - - - - - > l | .. . . . . . . . . . . . .( I I I I c u.u.u.u.",
"u.u.u.u.u.u.u.u.u.u.u.u.u.u.n U I n 2 - - - - - - - - - - - - - : 3 K |  . . . . . . . . . . . . .{ U I I I I u u.u.u.u.",
"u.u.u.u.u.u.u.u.u.u.u.u.u.u.v I I I I v 3 > - - - - - - - : 2 p A )  . . . . . . . . . . . . . .{ T I I I I B u.u.u.u.u.",
"u.u.u.u.u.u.u.u.u.u.u.u.u.u.5 I I I I I I B b a 4 3 4 p v m U R |  . . . . . . . . . . . . . .' T I I I I I m u.u.u.u.u.",
"u.u.u.u.u.u.u.u.u.u.u.u.u.u.u.m I I I I I I I I I I I I I U ] |  . . . . . . . . . . . . . ._ Y I I I I I I v u.u.u.u.u.",
"u.u.u.u.u.u.u.u.u.u.u.u.u.u.u.v I I I I I I I I I I I I I I U R ` |  . . . . ... . . .| ` R U I I I I I I I u.u.u.u.u.u.",
"u.u.u.u.u.u.u.u.u.u.u.u.u.u.u.u.N I I E I I I I I I I I I I I I I U R _ [ { ' { } ` ( Y I I I I I I I I I b u.u.u.u.u.u.",
"u.u.u.u.u.u.u.u.u.u.u.u.u.u.u.u.v I I I I I I I I I I I I I I I I I I I I I I U I I I I I I I I I I I I B u.u.u.u.u.u.u.",
"u.u.u.u.u.u.u.u.u.u.u.u.u.u.u.u.u.n I I I I I I I I I I I I I I I I I I I I I I I I I I I I I I I I I I v u.u.u.u.u.u.u.",
"u.u.u.u.u.u.u.u.u.u.u.u.u.u.u.u.u.5 B I I I I I I I I I I I I I I I I I I I I I I I I I I I I I I I I N u.u.u.u.u.u.u.u.",
"u.u.u.u.u.u.u.u.u.u.u.u.u.u.u.u.u.u.i I I I I I I I I I I I I I I I I I I I I I I I I I I I I I I I I u u.u.u.u.u.u.u.u.",
"u.u.u.u.u.u.u.u.u.u.u.u.u.u.u.u.u.u.u.i I I I I I I I I I I I I I I I I I I I I I I I I I I I I I I u u.u.u.u.u.u.u.u.u.",
"u.u.u.u.u.u.u.u.u.u.u.u.u.u.u.u.u.u.u.u.i I I I I I I I I I I I I I I I I I I I I I I I I I I I I c u.u.u.u.u.u.u.u.u.u.",
"u.u.u.u.u.u.u.u.u.u.u.u.u.u.u.u.u.u.u.u.u.y m I I I I I I I I I I I I I I I I I I I I I I I I N u u.u.u.u.u.u.u.u.u.u.u.",
"u.u.u.u.u.u.u.u.u.u.u.u.u.u.u.u.u.u.u.u.u.u.u.b I I I I I I I I I I I I I I I I I I I I I I N u.u.u.u.u.u.u.u.u.u.u.u.u.",
"u.u.u.u.u.u.u.u.u.u.u.u.u.u.u.u.u.u.u.u.u.u.u.u.u.n I I I I I I I I I I I U I I I I I I N c u.u.u.u.u.u.u.u.u.u.u.u.u.u.",
"u.u.u.u.u.u.u.u.u.u.u.u.u.u.u.u.u.u.u.u.u.u.u.u.u.u.u.b B I I I I I I I I I I I I I N i u.u.u.u.u.u.u.u.u.u.u.u.u.u.u.u.",
"u.u.u.u.u.u.u.u.u.u.u.u.u.u.u.u.u.u.u.u.u.u.u.u.u.u.u.u.u.c v n B B B B I B N b v u.u.u.u.u.u.u.u.u.u.u.u.u.u.u.u.u.u.u.",
"u.u.u.u.u.u.u.u.u.u.u.u.u.u.u.u.u.u.u.u.u.u.u.u.u.u.u.u.u.u.u.u.u.u.u.u.u.u.u.u.u.u.u.u.u.u.u.u.u.u.u.u.u.u.u.u.u.u.u.u.",
"u.u.u.u.u.u.u.u.u.u.u.u.u.u.u.u.u.u.u.u.u.u.u.u.u.u.u.u.u.u.u.u.u.u.u.u.u.u.u.u.u.u.u.u.u.u.u.u.u.u.u.u.u.u.u.u.u.u.u.u."
};
