/* XPM */
static char *_51e4cda382b49f3ccd41a3584e008299mKqLdZxoxcfugye[] = {
/* columns rows colors chars-per-pixel */
"60 60 256 2 ",
"   c black",
".  c #010101",
"X  c #020202",
"o  c gray1",
"O  c #040404",
"+  c gray2",
"@  c #060606",
"#  c #070707",
"$  c gray3",
"%  c #090909",
"&  c gray4",
"*  c #0B0B0B",
"=  c #0C0C0C",
"-  c gray5",
";  c #0E0E0E",
":  c gray6",
">  c #101010",
",  c #111111",
"<  c gray7",
"1  c #131313",
"2  c gray8",
"3  c #151515",
"4  c #161616",
"5  c gray9",
"6  c #181818",
"7  c #191919",
"8  c gray10",
"9  c #1B1B1B",
"0  c gray11",
"q  c #1D1D1D",
"w  c #1E1E1E",
"e  c gray12",
"r  c #202020",
"t  c gray13",
"y  c #222222",
"u  c #232323",
"i  c gray14",
"p  c #252525",
"a  c gray15",
"s  c #272727",
"d  c #282828",
"f  c gray16",
"g  c #2A2A2A",
"h  c gray17",
"j  c #2C2C2C",
"k  c #2D2D2D",
"l  c gray18",
"z  c #2F2F2F",
"x  c gray19",
"c  c #313131",
"v  c #323232",
"b  c gray20",
"n  c #343434",
"m  c #353535",
"M  c gray21",
"N  c #373737",
"B  c gray22",
"V  c #393939",
"C  c #3A3A3A",
"Z  c gray23",
"A  c #3C3C3C",
"S  c gray24",
"D  c #3E3E3E",
"F  c #3F3F3F",
"G  c gray25",
"H  c #414141",
"J  c gray26",
"K  c #434343",
"L  c #444444",
"P  c gray27",
"I  c #464646",
"U  c gray28",
"Y  c #484848",
"T  c #494949",
"R  c gray29",
"E  c #4B4B4B",
"W  c #4C4C4C",
"Q  c gray30",
"!  c #4E4E4E",
"~  c gray31",
"^  c #505050",
"/  c #515151",
"(  c gray32",
")  c #535353",
"_  c gray33",
"`  c #555555",
"'  c #565656",
"]  c gray34",
"[  c #585858",
"{  c gray35",
"}  c #5A5A5A",
"|  c #5B5B5B",
" . c gray36",
".. c #5D5D5D",
"X. c gray37",
"o. c #5F5F5F",
"O. c #606060",
"+. c gray38",
"@. c #626262",
"#. c gray39",
"$. c #646464",
"%. c #656565",
"&. c gray40",
"*. c #676767",
"=. c #686868",
"-. c DimGray",
";. c #6A6A6A",
":. c gray42",
">. c #6C6C6C",
",. c #6D6D6D",
"<. c gray43",
"1. c #6F6F6F",
"2. c gray44",
"3. c #717171",
"4. c #727272",
"5. c gray45",
"6. c #747474",
"7. c gray46",
"8. c #767676",
"9. c #777777",
"0. c gray47",
"q. c #797979",
"w. c gray48",
"e. c #7B7B7B",
"r. c #7C7C7C",
"t. c gray49",
"y. c #7E7E7E",
"u. c gray50",
"i. c #808080",
"p. c #818181",
"a. c gray51",
"s. c #838383",
"d. c #848484",
"f. c gray52",
"g. c #868686",
"h. c gray53",
"j. c #888888",
"k. c #898989",
"l. c gray54",
"z. c #8B8B8B",
"x. c gray55",
"c. c #8D8D8D",
"v. c #8E8E8E",
"b. c gray56",
"n. c #909090",
"m. c gray57",
"M. c #929292",
"N. c #939393",
"B. c gray58",
"V. c #959595",
"C. c gray59",
"Z. c #979797",
"A. c #989898",
"S. c gray60",
"D. c #9A9A9A",
"F. c #9B9B9B",
"G. c gray61",
"H. c #9D9D9D",
"J. c gray62",
"K. c #9F9F9F",
"L. c #A0A0A0",
"P. c gray63",
"I. c #A2A2A2",
"U. c gray64",
"Y. c #A4A4A4",
"T. c #A5A5A5",
"R. c gray65",
"E. c #A7A7A7",
"W. c gray66",
"Q. c #A9A9A9",
"!. c #AAAAAA",
"~. c gray67",
"^. c #ACACAC",
"/. c gray68",
"(. c #AEAEAE",
"). c #AFAFAF",
"_. c gray69",
"`. c #B1B1B1",
"'. c #B2B2B2",
"]. c gray70",
"[. c #B4B4B4",
"{. c gray71",
"}. c #B6B6B6",
"|. c #B7B7B7",
" X c gray72",
".X c #B9B9B9",
"XX c gray73",
"oX c #BBBBBB",
"OX c #BCBCBC",
"+X c gray74",
"@X c gray",
"#X c gray75",
"$X c #C0C0C0",
"%X c #C1C1C1",
"&X c gray76",
"*X c #C3C3C3",
"=X c gray77",
"-X c #C5C5C5",
";X c #C6C6C6",
":X c gray78",
">X c #C8C8C8",
",X c gray79",
"<X c #CACACA",
"1X c #CBCBCB",
"2X c gray80",
"3X c #CDCDCD",
"4X c #CECECE",
"5X c gray81",
"6X c #D0D0D0",
"7X c gray82",
"8X c #D2D2D2",
"9X c LightGray",
"0X c gray83",
"qX c #D5D5D5",
"wX c gray84",
"eX c #D7D7D7",
"rX c #D8D8D8",
"tX c gray85",
"yX c #DADADA",
"uX c gray86",
"iX c gainsboro",
"pX c #DDDDDD",
"aX c gray87",
"sX c #DFDFDF",
"dX c gray88",
"fX c #E1E1E1",
"gX c #E2E2E2",
"hX c gray89",
"jX c #E4E4E4",
"kX c gray90",
"lX c #E6E6E6",
"zX c #E7E7E7",
"xX c gray91",
"cX c #E9E9E9",
"vX c #EAEAEA",
"bX c gray92",
"nX c #ECECEC",
"mX c gray93",
"MX c #EEEEEE",
"NX c #EFEFEF",
"BX c gray94",
"VX c #F1F1F1",
"CX c gray95",
"ZX c #F3F3F3",
"AX c #F4F4F4",
"SX c gray96",
"DX c #F6F6F6",
"FX c gray97",
"GX c #F8F8F8",
"HX c #F9F9F9",
"JX c gray98",
"KX c #FBFBFB",
"LX c gray99",
"PX c #FDFDFD",
"IX c #FEFEFE",
"UX c white",
/* pixels */
"l.l.z.z.x.x.x.x.n.b.c.x.c.c.c.x.c.x.x.z.l.k.j.j.a.v.p.h.M.b.V.N.V.V.C.C.C.Z.Z.Z.Z.A.S.S.S.S.A.Z.N.v.m.n.e.v.a.f.f.k.c.z.",
"h.h.j.j.j.k.k.k.x.z.k.k.z.x.l.k.k.k.j.h.h.g.f.f.u.l.y.g.M.b.B.M.N.N.B.B.B.V.V.V.V.C.C.Z.Z.C.C.V.M.c.b.v.q.x.i.s.t.a.g.g.",
"k.k.k.k.l.l.z.z.c.z.k.z.v.b.x.k.l.l.k.j.j.h.g.g.i.l.y.h.N.v.M.n.m.m.m.M.M.M.N.N.N.N.B.V.V.B.N.N.n.z.v.c.0.x.a.g.a.g.k.l.",
"g.g.g.g.h.h.h.j.j.h.g.j.z.x.k.g.g.g.g.f.f.d.d.d.g.x.u.k.V.c.b.x.b.b.n.n.m.m.m.m.M.M.N.N.N.N.M.M.b.l.c.x.q.v.f.k.f.g.h.f.",
"c.v.v.v.b.b.b.b.v.v.b.b.n.n.b.v.v.v.v.v.v.c.c.c.f.k.e.h.B.z.c.x.b.b.b.b.n.n.m.m.m.m.M.M.M.M.m.m.n.z.x.l.8.z.p.g.x.x.z.j.",
"9.9.9.9.0.0.q.q.8.0.w.9.5.4.7.q.q.q.0.0.0.0.0.0.d.d.7.s.M.l.x.c.c.c.v.v.v.b.b.b.b.n.m.m.m.m.n.b.n.l.l.j.5.h.t.a.0.9.8.6.",
"n.n.n.m.m.M.M.M.v.N.V.b.h.d.z.N.N.N.N.N.N.N.N.N.c.l.9.s.M.j.z.c.z.z.z.x.x.x.c.c.c.v.v.b.b.v.v.c.z.f.h.h.7.c.g.x.B.N.m.m.",
"B.B.V.V.V.C.C.C.M.A.D.N.h.d.c.S.A.A.A.A.S.S.S.S.D.B.y.j.N.h.k.l.k.k.k.l.l.l.z.z.z.z.x.c.c.x.z.z.d.i.f.k.e.Z.N.F.C.B.M.M.",
"m.M.M.N.V.C.Z.Z.C.B.M.c.M.t.Z.G.Z.Z.Z.Z.Z.Z.Z.Z.V.C.p.g.b.g.k.k.k.k.l.l.l.z.z.z.k.k.k.z.c.c.l.j.s.u.d.k.r.Z.m.C.m.m.m.M.",
"m.m.m.M.N.B.B.B.M.n.b.l.v.0.m.C.V.V.V.V.V.V.V.V.M.N.u.s.x.d.h.h.h.h.h.h.j.j.j.k.j.j.j.k.l.l.h.f.p.t.s.j.w.B.c.m.c.c.c.v.",
"M.M.M.M.M.M.M.M.v.c.c.z.b.w.M.C.N.N.N.N.N.N.N.N.N.B.i.d.c.f.j.j.h.j.j.j.k.k.k.l.l.k.k.l.z.l.h.d.a.y.f.l.r.V.x.b.v.v.v.v.",
"n.n.b.b.v.v.c.c.j.j.l.l.n.e.N.Z.M.M.M.M.M.M.M.M.M.N.y.s.x.s.h.g.g.g.h.h.j.j.j.j.j.h.h.h.j.h.s.p.u.r.d.l.t.V.z.v.v.b.b.b.",
"c.c.x.x.z.l.l.k.h.j.k.j.c.9.b.N.M.M.M.M.M.M.M.M.b.n.e.i.k.i.d.s.s.s.d.d.f.f.f.f.d.s.a.s.s.a.u.r.e.0.i.h.w.M.k.x.v.v.v.b.",
"m.n.n.b.b.v.v.v.n.b.v.z.v.9.b.N.m.m.m.m.m.m.m.m.M.N.u.s.x.d.h.h.h.h.h.j.j.j.k.k.g.f.f.g.h.g.s.i.i.t.s.k.r.V.x.n.n.m.m.m.",
"v.v.c.c.c.c.c.x.v.c.x.j.c.9.m.C.b.b.b.b.b.b.b.b.N.B.i.d.c.f.j.j.j.j.j.j.k.k.l.l.h.g.h.j.k.k.g.d.h.a.g.l.e.N.l.v.c.c.v.v.",
"p.p.p.p.p.p.p.p.i.u.u.t.d.4.v.B.c.c.c.c.c.c.c.c.x.c.q.t.g.y.p.p.p.p.p.p.a.a.a.s.p.i.p.a.d.d.a.u.d.y.p.a.4.k.p.d.a.a.s.s.",
"f.d.s.a.a.s.f.g.g.a.h.d.s.7.N.b.v.v.v.c.c.c.x.x.l.x.q.t.f.y.s.f.d.s.j.d.7.8.a.f.d.f.h.g.f.f.g.j.f.f.f.f.f.f.f.d.g.g.f.d.",
"z.l.j.g.g.j.l.z.M.b.B.b.x.0.n.l.z.z.z.z.l.l.l.k.v.M.p.j.N.c.N.C.b.v.B.m.d.f.m.V.M.B.C.C.B.B.V.C.V.B.B.N.N.M.M.M.M.m.n.b.",
"k.h.d.p.p.s.h.k.v.v.V.B.m.t.B.c.x.x.x.z.z.z.l.l.s.j.w.s.v.j.c.b.k.h.v.x.i.a.v.m.Z.S.F.F.D.S.D.G.D.D.S.A.Z.C.V.V.N.M.m.n.",
"g.s.y.e.e.t.p.d.g.g.b.b.v.e.N.x.z.l.l.l.k.k.k.k.j.v.u.h.m.j.l.l.x.l.n.b.s.f.n.m.m.B.Z.Z.Z.C.C.Z.C.C.V.N.M.m.n.b.c.x.z.l.",
"j.f.p.t.t.u.s.f.l.k.b.x.k.7.c.h.h.h.h.g.g.g.f.f.k.b.i.j.n.g.h.g.c.l.b.c.a.s.x.z.n.N.C.Z.Z.C.C.Z.C.V.B.N.m.n.b.v.c.x.z.z.",
"h.d.p.y.t.y.p.s.j.h.v.c.x.q.M.x.l.l.l.k.k.k.j.j.s.k.e.s.c.d.g.g.l.g.l.k.u.i.h.f.c.n.B.C.C.V.V.V.B.N.M.m.n.b.b.v.c.c.x.z.",
"a.p.y.e.e.e.t.y.i.a.x.v.v.e.N.z.z.z.l.l.l.k.k.k.j.v.u.j.M.l.v.b.b.l.b.b.g.j.v.z.j.z.n.M.M.m.n.m.b.b.v.v.c.c.x.x.z.l.k.j.",
"a.p.u.t.r.r.r.t.a.s.v.v.l.4.f.w.d.s.s.s.a.a.a.p.u.s.6.e.f.t.p.a.p.t.a.d.r.y.f.a.g.l.b.M.m.n.n.n.v.v.v.v.c.c.c.c.z.l.k.j.",
"h.u.e.r.e.0.0.t.a.s.h.h.x.4.d.s.h.h.g.g.g.f.f.f.h.h.g.g.f.d.s.s.f.u.s.g.a.f.k.a.f.j.z.v.n.m.n.n.b.b.b.v.v.c.c.c.l.h.g.h.",
"j.p.y.u.y.e.e.i.0.e.p.f.b.e.N.C.Z.Z.Z.Z.C.C.C.V.B.B.N.M.m.n.v.v.B.b.m.b.d.p.a.r.i.a.f.j.k.l.k.j.j.j.j.h.h.g.g.g.h.f.d.s.",
"t.q.9.9.8.6.7.0.a.s.g.h.n.t.A.H.G.G.F.F.F.D.D.D.A.A.Z.V.N.m.b.v.n.b.V.N.g.a.g.a.k.z.c.b.b.b.v.v.v.v.v.c.c.c.c.x.l.l.l.k.",
"b.v.v.v.c.z.x.v.h.h.h.f.l.9.N.D.V.V.V.B.B.B.N.N.B.B.N.m.b.x.k.h.f.h.m.m.s.i.h.h.l.z.x.c.c.c.x.z.x.x.x.z.z.z.z.z.f.j.k.j.",
"7.q.e.w.0.0.q.w.t.y.i.u.f.6.M.G.V.V.V.B.B.B.N.N.V.V.B.N.n.x.k.h.j.k.N.n.u.w.p.p.y.y.u.u.u.u.u.y.y.y.u.u.u.u.u.u.t.p.i.r.",
"p.j.x.l.j.k.z.l.f.h.l.h.z.8.N.G.Z.Z.C.C.V.V.V.V.B.B.B.B.m.c.k.g.h.j.m.v.i.y.h.j.j.j.j.j.j.k.k.k.k.k.k.k.l.l.l.l.k.c.k.u.",
"v.Z.H.F.A.D.G.F.Z.D.G.V.N.q.m.Z.B.N.N.N.M.M.M.M.b.n.m.n.v.l.g.d.a.a.l.x.s.h.N.V.A.Z.Z.A.A.S.D.F.D.D.D.F.F.G.G.G.D.H.C.k.",
"j.N.D.Z.V.Z.S.Z.A.F.J.A.V.q.b.B.m.m.m.m.n.n.b.b.c.b.n.n.v.l.g.s.d.a.k.l.s.k.V.C.N.N.N.N.B.V.Z.Z.C.C.Z.Z.A.A.S.S.D.H.V.h.",
"g.B.Z.B.S.A.B.Z.Z.C.F.V.v.q.V.m.b.b.b.b.b.b.b.b.v.c.x.z.l.j.d.p.y.y.g.k.a.f.b.b.b.b.n.m.M.M.N.N.V.V.V.C.C.Z.Z.Z.A.S.B.l.",
"g.B.C.B.A.Z.N.Z.C.V.D.B.v.q.B.n.b.b.b.b.b.b.b.b.v.x.z.z.l.j.d.i.y.t.f.j.a.f.b.b.b.b.b.n.m.M.M.N.B.B.B.V.V.C.C.C.Z.A.N.l.",
"g.B.C.M.Z.C.M.C.V.B.S.N.v.q.B.b.c.c.c.c.c.c.c.c.x.z.l.l.k.h.s.i.y.r.d.h.p.g.b.v.v.v.b.b.n.m.M.M.N.N.N.B.B.V.V.V.C.Z.N.l.",
"g.N.B.m.V.B.m.V.B.M.C.M.v.w.N.c.x.x.x.x.x.x.x.x.z.k.j.j.j.g.a.u.y.e.a.g.p.g.v.x.c.c.c.v.b.n.n.m.N.N.N.B.B.V.V.V.V.C.M.k.",
"g.N.N.b.N.M.b.B.M.b.B.m.v.w.M.z.l.l.l.l.l.l.l.l.k.j.h.h.h.f.a.u.y.w.p.f.p.g.c.l.z.x.x.c.v.b.b.b.N.N.B.B.B.V.V.V.N.B.m.j.",
"g.M.M.c.m.m.v.N.m.c.M.n.v.w.m.k.k.k.k.k.k.k.k.k.h.g.f.g.g.d.p.y.y.w.u.d.i.g.c.k.l.l.z.x.c.c.v.v.M.M.M.N.N.N.B.B.M.N.n.j.",
"g.M.m.x.n.b.c.M.b.x.n.b.v.w.m.h.h.h.h.h.h.h.h.h.g.f.d.f.f.d.i.y.y.q.y.s.i.g.x.j.k.l.l.z.x.c.c.c.b.b.n.n.n.m.m.m.m.M.b.h.",
"g.M.m.x.b.b.x.M.b.z.n.v.v.e.n.h.h.h.h.h.h.h.h.h.f.d.d.d.f.s.i.t.y.0.t.a.i.g.x.h.k.k.l.l.z.x.c.c.c.c.c.v.v.v.b.b.n.M.b.h.",
"j.x.v.x.x.b.v.l.h.x.n.c.M.r.b.c.z.l.l.k.k.j.j.j.p.z.i.h.z.y.p.s.u.p.a.a.p.s.j.c.z.z.z.z.z.z.z.x.v.k.b.N.x.c.N.m.v.m.b.j.",
"h.l.x.l.l.c.x.k.l.c.b.l.c.7.h.d.v.c.c.c.x.x.z.z.k.m.d.z.M.h.l.z.k.k.k.h.f.f.k.x.l.l.l.l.l.l.z.z.v.k.c.v.h.k.n.c.h.l.j.p.",
"f.k.l.j.j.z.z.h.l.x.c.j.z.6.f.a.e.e.w.w.w.w.q.q.9.e.:.5.u.9.w.q.e.r.e.0.8.8.0.w.0.0.0.0.9.9.9.9.e.7.9.8.<.4.w.0.r.u.r.7.",
"f.j.k.h.h.l.l.h.j.l.z.j.b.w.c.l.N.N.N.N.N.N.N.N.M.M.u.k.A.N.C.B.Z.Z.C.C.V.C.A.S.C.C.C.C.V.V.V.V.V.n.m.v.h.v.S.Z.m.M.b.h.",
"g.k.k.g.g.l.z.j.h.j.k.h.n.y.M.v.z.z.z.z.z.z.x.x.b.b.e.f.C.M.C.B.V.B.N.N.B.B.B.B.B.B.B.N.N.M.M.M.v.l.z.g.p.x.S.C.J.K.D.n.",
"g.j.j.f.f.k.l.j.j.h.h.d.v.r.v.l.c.v.v.v.v.b.b.b.n.m.u.k.S.V.S.A.J.G.D.S.S.S.C.V.A.A.A.Z.C.V.V.V.b.c.v.j.d.M.K.F.A.A.M.h.",
"d.h.g.s.s.h.k.g.k.h.f.a.x.w.c.j.k.k.l.l.z.z.z.x.k.x.e.f.B.b.N.N.A.C.B.V.C.C.N.n.B.B.N.N.M.m.n.n.z.z.x.f.i.v.F.V.F.F.V.z.",
"s.f.d.p.p.f.h.f.j.g.d.a.c.r.b.l.j.j.k.k.l.l.z.z.z.b.i.l.Z.m.C.C.M.n.b.M.V.Z.V.M.B.B.N.M.m.m.n.b.x.c.v.g.i.v.D.N.B.B.b.g.",
"i.z.j.p.d.s.a.j.k.l.l.j.f.d.h.l.k.l.l.l.l.z.z.z.b.v.a.z.b.l.N.v.N.N.N.N.N.N.N.N.n.n.n.b.b.b.v.v.x.j.l.k.e.A.N.C.V.C.M.k.",
"d.n.b.k.x.x.l.b.k.l.l.j.g.f.j.l.l.l.l.l.l.z.z.z.f.f.w.g.x.j.N.n.n.n.n.n.n.n.n.n.m.m.m.m.n.n.b.b.x.j.l.k.w.Z.n.N.B.V.m.k.",
"<.e.e.9.e.e.0.r.0.q.q.9.7.7.8.0.0.0.0.0.0.0.0.0.p.p.9.s.l.h.M.v.v.v.v.v.v.v.v.v.v.v.v.c.c.x.x.x.z.j.k.j.q.V.v.n.M.B.m.k.",
"f.B.C.B.S.A.B.A.A.A.A.Z.C.C.C.Z.C.C.C.V.B.B.N.N.k.j.r.g.l.f.v.l.c.c.c.c.c.c.c.c.c.x.x.x.z.z.z.l.j.f.j.h.q.V.v.n.n.N.n.k.",
"d.N.C.V.D.S.V.S.Z.C.C.C.C.C.V.B.M.M.m.n.b.v.v.c.v.x.u.j.z.d.x.j.z.z.z.z.z.z.z.z.c.c.c.c.x.x.x.z.f.s.h.h.q.C.b.m.v.m.b.k.",
"j.Z.D.A.J.H.D.J.F.D.S.D.F.F.S.Z.C.V.B.N.m.n.b.v.l.k.t.g.l.d.x.j.j.j.j.j.j.j.j.j.k.k.j.j.j.h.h.h.g.s.j.j.w.C.b.n.x.b.b.k.",
"s.m.B.m.C.C.N.A.Z.V.B.C.A.Z.B.m.N.M.m.b.c.x.l.l.k.j.r.g.l.d.c.k.l.l.l.l.l.l.l.l.h.h.h.h.g.g.f.f.k.h.l.l.w.V.x.c.z.v.v.k.",
"g.B.V.M.Z.Z.V.D.C.V.B.V.A.Z.B.n.B.N.M.n.v.x.z.l.c.z.u.h.z.d.c.j.v.v.v.v.v.v.v.v.v.v.v.v.c.c.x.x.c.l.c.z.w.B.l.l.l.v.v.k.",
"g.v.c.b.Z.V.n.V.B.B.B.N.N.N.M.M.b.v.c.c.v.v.z.k.j.c.q.w.i.q.t.e.u.y.y.y.t.t.t.t.r.r.r.r.r.r.r.r.w.6.i.0.9.z.c.x.j.x.x.j.",
"g.c.c.c.C.B.n.V.N.N.N.M.M.M.m.m.b.v.c.c.v.c.z.k.g.c.r.p.z.g.z.l.l.l.l.l.l.l.l.l.l.l.l.l.l.l.l.l.v.g.b.a.r.x.z.h.j.x.x.j.",
"f.c.z.x.B.M.v.N.M.M.m.m.m.n.n.n.b.v.c.c.v.c.z.k.d.c.i.h.N.n.V.B.B.B.V.C.C.Z.A.A.Z.Z.Z.Z.Z.Z.Z.Z.H.N.D.l.i.c.k.d.h.z.x.j.",
"f.x.l.l.M.m.c.M.n.n.n.b.b.b.v.v.b.c.x.c.c.c.l.j.d.v.p.k.V.n.B.m.V.C.Z.A.D.F.G.G.F.F.F.F.F.F.F.F.G.N.S.l.i.c.l.f.h.z.x.j."
};
