/* XPM */
static char *_c242d3ab5eb40fe8b0254c8a57df9b703ZMsSI8aGAXL90L[] = {
/* columns rows colors chars-per-pixel */
"60 60 177 2 ",
"   c None",
".  c #090A13",
"X  c #0D131B",
"o  c #171616",
"O  c #181617",
"+  c #181817",
"@  c #181618",
"#  c #191818",
"$  c #171618",
"%  c #211C1F",
"&  c #0B1425",
"*  c #0C192D",
"=  c #191A22",
"-  c #181C29",
";  c #0C1B33",
":  c #0D1E38",
">  c #0F213E",
",  c #17213B",
"<  c #20232A",
"1  c #2F2F33",
"2  c #3C3B3D",
"3  c #142545",
"4  c #132749",
"5  c #12294B",
"6  c #3F3F44",
"7  c #2B4A7D",
"8  c #5B4646",
"9  c #5D4846",
"0  c #534043",
"q  c #5B5B5D",
"w  c #604A46",
"e  c #6E544B",
"r  c #685451",
"t  c #795D53",
"y  c #506767",
"u  c #5B6E70",
"i  c #447475",
"p  c #4B7879",
"a  c #6A696A",
"s  c #736969",
"d  c #67697F",
"f  c #6E6D77",
"g  c #7B6B73",
"h  c #6C797B",
"j  c #777679",
"k  c #865A51",
"l  c #866356",
"z  c #976D5B",
"x  c #966D62",
"c  c #9E7563",
"v  c #997C75",
"b  c #A07B68",
"n  c #B47E66",
"m  c #BD896D",
"M  c #A48075",
"N  c #BE8B70",
"B  c #BE947A",
"V  c #CC8462",
"C  c #C8896B",
"Z  c #CF9C7E",
"A  c #C1957E",
"S  c #D29574",
"D  c #D49876",
"F  c #164B98",
"G  c #17509E",
"H  c #2D528B",
"J  c #33558A",
"K  c #28579B",
"L  c #3A5D94",
"P  c #2558A3",
"I  c #3864A3",
"U  c #5E6B8D",
"Y  c #486B9E",
"T  c #767587",
"R  c #61789C",
"E  c #747E93",
"W  c #4970A7",
"Q  c #4871AD",
"!  c #5E7FAF",
"~  c #5577A9",
"^  c #667EA6",
"/  c #887E80",
"(  c #75888B",
")  c #6F9290",
"_  c #739393",
"`  c #5F81B1",
"'  c #6E82A4",
"]  c #6A85AE",
"[  c #6986B2",
"{  c #7B95BA",
"}  c #858484",
"|  c #8A8586",
" . c #8A8397",
".. c #9A9598",
"X. c #B69689",
"o. c #AE9D9D",
"O. c #BA9E91",
"+. c #B9A49B",
"@. c #8E8EA2",
"#. c #918FA3",
"$. c #8D95A7",
"%. c #9593AA",
"&. c #9897AF",
"*. c #9C9BAF",
"=. c #9897A5",
"-. c #8294B1",
";. c #9B9CB3",
":. c #9EA3AF",
">. c #8CA0BC",
",. c #95A1B5",
"<. c #B9A8A7",
"1. c #A4A2B3",
"2. c #A9A9B6",
"3. c #A3A3BC",
"4. c #AFAEBB",
"5. c #A6AABD",
"6. c #B4B5BC",
"7. c #C69C82",
"8. c #C99D81",
"9. c #D09F81",
"0. c #CEA082",
"q. c #CCA28A",
"w. c #D3A385",
"e. c #D4A689",
"r. c #D5A88D",
"t. c #DDAC8C",
"y. c #DAA788",
"u. c #CEAB95",
"i. c #D6AE94",
"p. c #DEB497",
"a. c #D5B39C",
"s. c #DAB49C",
"d. c #E0AF8D",
"f. c #E3B18F",
"g. c #E8B38F",
"h. c #E5B391",
"j. c #EAB692",
"k. c #EDB994",
"l. c #CDB7A9",
"z. c #D8B7A1",
"x. c #C8BCB6",
"c. c #CDC0BB",
"v. c #D6C5B8",
"b. c #9BABC4",
"n. c #A6A9C1",
"m. c #ADADC2",
"M. c #A8B7CA",
"N. c #B2B2C3",
"B. c #BBBBC3",
"V. c #B2B8CB",
"C. c #BFC0D1",
"Z. c #C7C7CD",
"A. c #CBCBCB",
"S. c #CBC7C8",
"D. c #D3CCCB",
"F. c #D9CDC7",
"G. c #CBCBD3",
"H. c #CCCDD9",
"J. c #C5CDDA",
"K. c #CDD4DE",
"L. c #D4D3D4",
"P. c #D3D4DC",
"I. c #DCDCDC",
"U. c #E1DFDE",
"Y. c #E2D8D2",
"T. c #D5DAE1",
"R. c #DCDDE3",
"E. c #DFE2E6",
"W. c #E4E3E4",
"Q. c #E5E5E9",
"!. c #ECECED",
"~. c #F0EFEF",
"^. c #EEEFF1",
"/. c #F1EFF0",
"(. c #F4F4F4",
"). c #F8F7F6",
"_. c #F9F9F9",
/* pixels */
"                                                                                                                        ",
"                                                                                                                        ",
"                                                                                                                        ",
"                                                            (                                                           ",
"                                                        ) i i p y                                                       ",
"                                                        _ ( j h u                                                       ",
"                                                      s ..M k x v r                                                     ",
"                                                    w l z t k e l t 8                                                   ",
"                                                  9 e B y.N C m Z b 9                                                   ",
"                                                0 9 r N V V V V V z 9                                                   ",
"                                                  | / n C S D D D c f                                                   ",
"                                                !.G...O.g.h.f.f.j.O.E I./.                                              ",
"                                            L.(.(.:.:.x.g.h.y.d.h.x.E Z.(.(.W.                                          ",
"                                          W.W.(.W.6.,.-.a.k.k.k.l.-.$.A.(.(.(.L.                                        ",
"                                        +.W.U.(.(.(.K.K ' u.g.u.R Y E.(.(.(.(.I.D.                                      ",
"                                        a.U.I.(.(.(.^.[ F U v d J V.(.(.(.(.(.I.S.                                      ",
"                                      t.p.I.I.(.(.(.(.P.] H 7 J V.(.(.(.(.(.(.I.F.7.                                    ",
"                                      j.t.D.P.^.(.!.S.U.!.^ 7 L J.~.!.!.(.(.(.L.c.r.                                    ",
"                                    t.k.w.<.2.Q.R.B.6.A.>.K ' L Y P.W.L.S.L.!.I.o.f.                                    ",
"                                    h.k.Z g @.m.4.4.I.W.W G b.! F b.).!.W.I.I.I.+.j.e.                                  ",
"                                  w.j.k.A  .3.H.W.I.(.!.Q P J.M.G { (.(.(.(.(.!.v.h.t.                                  ",
"                                  t.k.j.X.3.P.(.W.I.~.R.I { (.!.` ~ !.(.(.(.(.(.Y.h.t.                                  ",
"                                  d.k.t...C.(.(.I.I.!.M.] Q.(.(.T.^ T.(.(.(.(.(.W.p.f.                                  ",
"                                  h.k.q.*.R.(.(.I.(.(.5.T.(.(.(.(.P.Q.(.(.(.(.(.!.s.h.                                  ",
"                                  j.j.X.n.!.(.(.I.(.(.Q.(.(.(.(.(.(.(.(.(.(.(.(.!.z.j.                                  ",
"                                0.k.f.  N.^.(.(.L.I.(.(.(.(.(.(.(.(.(.(.(.(.(.(.!.z.j.                                  ",
"                                w.k.t.  m.!.(.(.I.!.(.(.(.(.(.(.(.(.(.(.(.(.(.(.!.a.k.                                  ",
"                                t.k.w.  3.Q.(.(.I.(.(.(.(.(.(.(.(.(.(.(.(.(.(.(.W.i.j.9.                                ",
"                                d.j.    ;.H.(.(.I.(.(.(.(.(.(.(.(.(.(.(.(.(.(.(.W.r.k.w.                                ",
"                                d.h.    &.V.!.(.I.I.!.(.(.(.(.(.(.(.(.(.(.(.(.(.I.  j.w.                                ",
"                                d.f.    #.3.G.(.I.I.!.(.(.(.(.(.(.(.(.(.(.(.(.Q.    h.w.                                ",
"                                t.t.      3.n.H.W.I.(.(.(.(.(.(.(.(.(.(.(.!.H.1.    h.0.                                ",
"                                d.d.      %.;.;.N.B.R.(.(.(.(.(.(.(.^.Q.H.m.3. .    j.w.                                ",
"                                f.k.h.      ;.%.*.1.=.N.H.P.P.P.H.Z.B.2.*.N.P.  7.h.k.t.                                ",
"                                d.k.h.e.    3.n.N.6.B.R.R.R.P.G.G.G.B.G.Q.(.(.<.w.t.k.t.                                ",
"                                y.j.e.B     f T 4.I.Z.!._._._.(.(.(.!.!.A...j   B 8.h.e.                                ",
"                                    0.      . X = 1 2 a } | | | j f q 6 < X       8.                                    ",
"                                              3 > : * & & & & & * ; ; > 3 4                                             ",
"                                              5 5 5 5 5 4 3   3 4 4 5 5 5 4                                             ",
"                                              4 5 5 5 5 4     3 5 5 5 5 5 4                                             ",
"                                              4 5 5 5 5 4       4 5 5 5 5 4                                             ",
"                                              4 5 5 5 5 4       4 5 5 5 5                                               ",
"                                                4 5 5 5 4       5 5 5 5 4                                               ",
"                                                3 5 5 5 4       5 5 5 5 4                                               ",
"                                                4 5 5 5 4       4 5 5 5                                                 ",
"                                                , 5 5 5 3       3 5 5 3                                                 ",
"                                                3 5 5 5 4       5 5 5 4                                                 ",
"                                                4 5 5 5 5     3 5 5 5 5                                                 ",
"                                                  4 5 4 3       3 5 5 3                                                 ",
"                                                    - =         = - ,                                                   ",
"                                                    o @         O O                                                     ",
"                                                      @         O O                                                     ",
"                                                    O #         @ @                                                     ",
"                                                  O # # o       @ # @                                                   ",
"                                          @ @ + # # # # O       # # # O o $                                             ",
"                                          @ # # # O # % $       @ # # # # # O                                           ",
"                                                                          O                                             ",
"                                                                                                                        ",
"                                                                                                                        ",
"                                                                                                                        "
};
