/* XPM */
static char *b74c21a34e394a4ecd5d8626cc3980ebCilxVcfM3kCdpld4[] = {
/* columns rows colors chars-per-pixel */
"60 60 194 2 ",
"   c None",
".  c #030102",
"X  c #0C0001",
"o  c #020902",
"O  c #01010B",
"+  c #070607",
"@  c #140000",
"#  c #1C0000",
"$  c #010214",
"%  c #00021A",
"&  c #000818",
"*  c #240000",
"=  c #2B0000",
"-  c #330000",
";  c #3B0000",
":  c #33321E",
">  c #000324",
",  c #372E29",
"<  c #3E3125",
"1  c #34322D",
"2  c #3B352B",
"3  c #2F3833",
"4  c #343434",
"5  c #3B3535",
"6  c #353A36",
"7  c #3C3B35",
"8  c #33343B",
"9  c #3A373D",
"0  c #343A3A",
"q  c #3C3B3B",
"w  c #430000",
"e  c #4A0000",
"r  c #510000",
"t  c #462F1D",
"y  c #542F1F",
"u  c #463317",
"i  c #47321C",
"p  c #4A351A",
"a  c #4F3A1B",
"s  c #56381B",
"d  c #423323",
"f  c #493323",
"g  c #43342A",
"h  c #423A2C",
"j  c #4C352C",
"k  c #533429",
"l  c #402F39",
"z  c #433633",
"x  c #42363F",
"c  c #423E3C",
"v  c #463933",
"b  c #3C403C",
"n  c #4B4128",
"m  c #47423F",
"M  c #524233",
"N  c #7C5023",
"B  c #7D682F",
"V  c #75683C",
"C  c #383945",
"Z  c #2C3846",
"A  c #3B4656",
"S  c #32415D",
"D  c #3A4855",
"F  c #384848",
"G  c #3B4A62",
"H  c #324776",
"J  c #454046",
"K  c #40454B",
"L  c #414652",
"P  c #424C5E",
"I  c #444851",
"U  c #5F4E52",
"Y  c #735B4C",
"T  c #655F57",
"R  c #5D645D",
"E  c #64665E",
"W  c #696A5F",
"Q  c #69675B",
"!  c #746554",
"~  c #7D755A",
"^  c #454664",
"/  c #5E6A64",
"(  c #5F6A69",
")  c #5F6160",
"_  c #646663",
"`  c #6B6562",
"'  c #666B65",
"]  c #6C6A65",
"[  c #6A666B",
"{  c #626A6B",
"}  c #6B6D6C",
"|  c #66656C",
" . c #726A62",
".. c #766B6A",
"X. c #676772",
"o. c #636D71",
"O. c #6B6A72",
"+. c #766970",
"@. c #647070",
"#. c #717475",
"$. c #787A78",
"%. c #8B0900",
"&. c #8B4C0E",
"*. c #954B00",
"=. c #9B5109",
"-. c #854C1A",
";. c #855528",
":. c #846F5C",
">. c #857E74",
",. c #877A6A",
"<. c #C07E42",
"1. c #DD8933",
"2. c #B8874F",
"3. c #BC8655",
"4. c #AB8862",
"5. c #B68962",
"6. c #CC8942",
"7. c #CA8740",
"8. c #D28F49",
"9. c #C58E58",
"0. c #D08F55",
"q. c #C89158",
"w. c #C39362",
"e. c #5E6E96",
"r. c #6C6D86",
"t. c #6D718C",
"y. c #687787",
"u. c #686E97",
"i. c #657393",
"p. c #6C7291",
"a. c #62729C",
"s. c #6B7D9A",
"d. c #637A99",
"f. c #5771A4",
"g. c #6677A5",
"h. c #72849A",
"j. c #B8AB99",
"k. c #BCB19F",
"l. c #A4ACAD",
"z. c #A9ACAC",
"x. c #ADA7A7",
"c. c #B3ACAC",
"v. c #B6ACA0",
"b. c #ABB2AC",
"n. c #B9B6AD",
"m. c #BDB0A7",
"M. c #ADADB2",
"N. c #ABABBB",
"B. c #B5AEB4",
"V. c #B1AEBA",
"C. c #B8AFB2",
"Z. c #ACB4B1",
"A. c #ACB4BC",
"S. c #ACBBB6",
"D. c #B6B2BB",
"F. c #B4B5B9",
"G. c #C2AC98",
"H. c #EDBB88",
"J. c #FEBE80",
"K. c #C5B4AC",
"L. c #C4B0B2",
"P. c #FFC583",
"I. c #FFCB86",
"U. c #FCC489",
"Y. c #E8C998",
"T. c #F3C493",
"R. c #FDCB93",
"E. c #F7C898",
"W. c #DFC8A6",
"Q. c #ECCAA7",
"!. c #F5CAA3",
"~. c #E9D1AF",
"^. c #FFD0A2",
"/. c #E9C6B0",
"(. c #9FAFC6",
"). c #B0AAC4",
"_. c #F6EDE6",
"`. c #FFFBE5",
"'. c #F2F3EB",
"]. c #FDF5EC",
"[. c #FBFAEE",
"{. c #FAF5E2",
"}. c #E6EEFA",
"|. c #E3F6FF",
" X c #ECF6FC",
".X c #EBFAFF",
"XX c #EBF5F8",
"oX c #F4F3F3",
"OX c #FDFCF6",
"+X c #F3F5FD",
"@X c #FAF4FC",
"#X c #F4FBFE",
"$X c #FDFDFE",
"%X c #F0FBF7",
/* pixels */
"                                                                                                                        ",
"                                                                                                                        ",
"                                                                                                                        ",
"                                                                                                                        ",
"                                                                                                                        ",
"                                                          e ; = = - ;                                                   ",
"                                                          ;   #       = -                                               ",
"                                                            = * *   = T.  =                                             ",
"                                          * # @ # # # -         -   &.-.# * -                                           ",
"                                        * c.I N.L +X$Xj.=         = =.6.* Q.  ;                                         ",
"                                      = L.p.}.s.#X}.#XOXj.@   * # * *.1.0.= E.=                                         ",
"                      ; ;             # N.g..Xe.+X$X%X%XS.$.@ #         <.9.R.  -                                       ",
"                    - !.E.;         = K.t..Xa..X#XoX[.[.b.n.#   @ @ *     H.I.7.U.;                                     ",
"                  ; * # !.R.;       = x.p.|.a.#X+XOX].n.z.c.# *   B   * * = &.8.J.I.w                                   ",
"                -   w.2.- E.E.-     * D.i.|.u.+X$XoX'.b.Z.M.X X V         * * 2.6.P.T.-                                 ",
"                * # * q.3.5.~.#     # c.i.|.u.@X@XOXb.Z.z.$.X X X X # * = T.!.*       -                                 ",
"              r       N * # @ Y.-   * v.D (.^ ).V.. O A.z.,.#   . #.V.X ^.P.U.    = ;                                   ",
"                - * = ;.* /.W.# =     @ . & % % O L A . >.@     . #Xt.. 4.    - -                                       ",
"                  -     -.= Q.Y.=     # J G S G G A $ F.@     X @X@Xt.+X@ # *                                           ",
"                w     ;   -.* R.-     * X $ % % $ $ A.c.@   OX. x.$Xr.+X].`.#                                           ",
"                ;   - -           - * # m.$X X+X+XV.A.F.X ].@X. O #XO $XoX_.k.*                                         ",
"                  ;     ; w           X j.'.%X#X$XD.l.$.X B.O P i.% O XX$X$X'.#                                         ",
"                            e ; ;     X x.$X#X%XXXM.F.. U X A > f.g.$ A.@XoX#Xj.=                                       ",
"                                  - * @ j.].{.`.k.G.@ @ @ +.P > H e.y.O V.D. X[.*                                       ",
"                                      ; - = * * = -     # ..X V.O O o l.M.$X+X].*                                       ",
"                                                          @ X c.C.. b.OX$X@X$XX =                                       ",
"                                                        @ X . B.+ @X$XoXoX. . a =                                       ",
"                                                    - # d 1 c . O O . . . c T a *                                       ",
"                                                = @ Y  .] b q 8 C 8 c 1 ] E ] ! #                                       ",
"                                              - ! } O.[ R 6 4 0 0 3 5 .._ ' ] ` M *                                     ",
"                                            - Y Q ' _ ) $.6 4 q 1 7 . O./ / } _ , =                                     ",
"                                            # ] ' E } ' 4 4 c 2 h . 8 X.{ @.( { ' #                                     ",
"                                          - p W ' _ 7 4 q q < @ @ @ 9 X.X.o.o.( W #                                     ",
"                                          * i 2 4 b 5 c 9 . *     * z | [ | { { W p =                                   ",
"                                          * f 2 6 6 1 4 . X       - u 7 ` T } R W h g *                                 ",
"                                          - k z 0 0 q q . @ ;       @ :  . .] ] 7 7 9 f -                               ",
"                                          - y l C C 8 . + X -       # n < 5 , 7 c , x k =                               ",
"                                            = @ + $ O . . @ -         # t v m 4 4 q x j *                               ",
"                                              = X . . . @ *             * d 7 6 b 4 C , *                               ",
"                                                @ o o . X                 * u h , 7 Z K @                               ",
"                                                  . F D J *                 ; * @ . S s.#.#                             ",
"                                          - = * # ~ y.h.O @ -                     @ A d.N.:.-                           ",
"                                        = @ @ X @ . . O O X -                       X O @X].G.=                         ",
"                                        * X . . . X X . X # -                     - i [ [ ` [ f =                       ",
"                                        = X . . . X @ # * -                       = f [ O.O.| 5 g *                     ",
"                                          * # @ # * =                             - s j < g h g f *                     ",
"                                                                                    - = = * * = -                       ",
"                                                                                                                        ",
"                                                                                                                        ",
"                                                                                                                        ",
"                                                                                                                        ",
"                                                                                                                        ",
"                                                                                                                        ",
"%.%.%.%.%.%.%.%.%.%.%.%.%.                                                                              %.%.%.%.%.%.%.%.",
"                                                                                                                        ",
"                                                                                                                        ",
"                                                                                                                        ",
"                                                                                                                        ",
"                                                                                                                        ",
"                                                                                                                        "
};
