/* XPM */
static char *c24f6d29040745f388f4d71a39243bfcFh0ioN4T6xRQDxCa[] = {
/* columns rows colors chars-per-pixel */
"60 60 195 2 ",
"   c None",
".  c #020202",
"X  c #0C0000",
"o  c #000B00",
"O  c #01020B",
"+  c #140000",
"@  c #1B0000",
"#  c #140900",
"$  c #000114",
"%  c #00031A",
"&  c #0B0012",
"*  c #230000",
"=  c #2B0000",
"-  c #250800",
";  c #330000",
":  c #3A0000",
">  c #3F331B",
",  c #000424",
"<  c #000029",
"1  c #362E2F",
"2  c #2F312E",
"3  c #3E3426",
"4  c #33342C",
"5  c #39342C",
"6  c #3C3B2D",
"7  c #343D2E",
"8  c #2D2E32",
"9  c #2C3333",
"0  c #2B3835",
"q  c #343535",
"w  c #3B3534",
"e  c #343B34",
"r  c #3C3A34",
"t  c #35363A",
"y  c #3E353A",
"u  c #343C3D",
"i  c #3C3B3B",
"p  c #410000",
"a  c #520000",
"s  c #402B18",
"d  c #49341D",
"f  c #51371E",
"g  c #713B1F",
"h  c #793703",
"j  c #4C3622",
"k  c #42362D",
"l  c #473729",
"z  c #413634",
"x  c #413B35",
"c  c #41373C",
"v  c #413D3D",
"b  c #442D27",
"n  c #36433B",
"m  c #3D403A",
"M  c #7E4A10",
"N  c #78501F",
"B  c #474338",
"V  c #7A4F2D",
"C  c #755024",
"Z  c #7A4D36",
"A  c #2E3D40",
"S  c #333542",
"D  c #323943",
"F  c #3C3D44",
"G  c #383F59",
"H  c #433D41",
"J  c #403F61",
"K  c #374043",
"L  c #3B4648",
"P  c #384A67",
"I  c #3F727A",
"U  c #48464A",
"Y  c #404354",
"T  c #425154",
"R  c #66655F",
"E  c #646A5E",
"W  c #74635E",
"Q  c #494A69",
"!  c #665E6B",
"~  c #536877",
"^  c #656664",
"/  c #6A6B64",
"(  c #656B6C",
")  c #6D6E6F",
"_  c #696666",
"`  c #726C6B",
"'  c #70676A",
"]  c #7E7864",
"[  c #7C756D",
"{  c #6C6C72",
"}  c #686775",
"|  c #7F6E74",
" . c #804D14",
".. c #85501D",
"X. c #885316",
"o. c #854F20",
"O. c #87583A",
"+. c #8A735D",
"@. c #9D7B5F",
"#. c #846761",
"$. c #84716D",
"%. c #887568",
"&. c #897576",
"*. c #CF8D3E",
"=. c #D28D3F",
"-. c #BA8747",
";. c #B68C5F",
":. c #BA8959",
">. c #BD9059",
",. c #A88869",
"<. c #BC8E66",
"1. c #B48965",
"2. c #B79765",
"3. c #AF8D72",
"4. c #AD987A",
"5. c #B79379",
"6. c #CB8C44",
"7. c #C4884E",
"8. c #D48B4C",
"9. c #CC9344",
"0. c #C68D53",
"q. c #C28D5B",
"w. c #C39258",
"e. c #FFBF7A",
"r. c #FFC47C",
"t. c #5C708B",
"y. c #5B7396",
"u. c #676980",
"i. c #64768F",
"p. c #6A758A",
"a. c #717487",
"s. c #656D99",
"d. c #637594",
"f. c #6B7390",
"g. c #637798",
"h. c #717791",
"j. c #5777A0",
"k. c #606FA6",
"l. c #6274A1",
"z. c #ACA49B",
"x. c #BBAB9C",
"c. c #BAAB96",
"v. c #BCB49B",
"b. c #B6B297",
"n. c #AEA9A5",
"m. c #BCACA7",
"M. c #B1ADAE",
"N. c #B8ACA6",
"B. c #BDB2A1",
"V. c #B5B3AE",
"C. c #B6ACB4",
"Z. c #B4AEBD",
"A. c #A9B4B6",
"S. c #B6B2B1",
"D. c #B5B5BC",
"F. c #B9B9BB",
"G. c #A3ABB8",
"H. c #C9A787",
"J. c #C0AB99",
"K. c #CAB59B",
"L. c #C0AAAD",
"P. c #C1B1A5",
"I. c #FEC482",
"U. c #FCC983",
"Y. c #F5CB8B",
"T. c #F8CA8F",
"R. c #FAC685",
"E. c #EAC697",
"W. c #F4C896",
"Q. c #FBCB93",
"!. c #F6CA9C",
"~. c #F5C594",
"^. c #EBC587",
"/. c #D9C8AA",
"(. c #EDC9A4",
"). c #F6CAA3",
"_. c #EBD3AD",
"`. c #F9D2AA",
"'. c #E4CFBE",
"]. c #AEB7C2",
"[. c #FFEFD8",
"{. c #FFF4DD",
"}. c #D7FFFF",
"|. c #FFF1E6",
" X c #FEF4EC",
".X c #FFFAEC",
"XX c #F3EAFD",
"oX c #EAFCFD",
"OX c #F4F5F4",
"+X c #F9F5F3",
"@X c #FCFAF4",
"#X c #F4F6FA",
"$X c #FEF5FC",
"%X c #FBFBFD",
"&X c #F5FAF7",
/* pixels */
"                                                                                                                        ",
"                                                                                                                        ",
"                                                                                                                        ",
"                                                                                                                        ",
"                                                                                                                        ",
"                                                      ; * * * = = ;                                                     ",
"                                                    @ @X+X%X$XXX+XB.+ =                                                 ",
"                                                  = U t.i.d.s.l.~ oX. +.;                                               ",
"                                                  * U g.t.g.l.y.I }.o v.*                                               ",
"                                                  @ O % % $ , P I }.o b.*                                               ",
"                                                *  X$X%X%X#X#XO oXA.. c.=                                               ",
"                                              = .X| &.$..X XV.S.X X [ K.=                                               ",
"                                            : H.X X @ @ @ %.M.M.$.+ X + *                                               ",
"                                              = @ + Z O.V @ @ + @ ,.+ _.*                                               ",
"                                                  =  . .X.M ....7.w.* E.;                                               ",
"                                                  : U.R.r.I.I.r.I.-.@ ;.:                                               ",
"                                                  p Y.Y.U.e.I.R.Q.C * =                                                 ",
"                                                    ; Q.0.0.X.Q.C @ @ <.                                                ",
"                                                      : E.(.E.@ @ + L.@                                                 ",
"                                                      8.@ + + 4.'.X $X#.;                                               ",
"                  a                                   8.@ X 4./.X +X#X# :.p                                             ",
"                  : :                                 h x.O X # V.%X} X ).8.p                                           ",
"                  :   *                               g & s.Q u.$ ].O X !.R.=                                           ",
"                  ;     =                             * J k.< f.f.$ O X E.Q.  ;                                         ",
"                  ;     B.*                           @ i.j.% Y p.$ A.X `.~.1.;                                         ",
"                    *     P.=                         @ p., G.O a.$ ].X ,.W.).;                                         ",
"                    ; {.@X  P.*                     * X O $ Z.Z.O O D. X@ `.~.;                                         ",
"                      = [.@X  P.* :                 * X F.O O C.M.n.OX@X+ ;.I.=.:                                       ",
"                        ; {. X XJ.@.*               = + n.. %X$X+X&X%X.X@ :.6.  :                                       ",
"                          = H..X Xz.x.*               - N.. OX&X%X+X%X.X+ >.r.*.;                                       ",
"                            ; @ .X&XS.m.+ *           = m.O . &X#X%XOX|.@ W.R.6.:                                       ",
"                                @ v. Xn.D.%.=         * m.O #X&X%X+X@X+ @ !.~.7.:                                       ",
"                                  = @ |.$XC.c.@ *     @ X O X X + + + 2.W.!.`.=                                         ",
"                                      = @ |. XN.B.X + # q t ' W + 5.E.^.T.~.(.;                                         ",
"                                          : @ |.x.] ] . 0 K u ` + 3.* Q.Q.Q.2.;                                         ",
"                                              * @ K.X 7 n 0 9 w W @ 1.q.X.R.  ;                                         ",
"                                                  ; X e 0 L q w ` X * o.6.9.  :                                         ",
"                                                    @ 9 u t w X ( r + <.-.  =                                           ",
"                                                    @ F t q x . E / k + * * =                                           ",
"                                                    @ F y y 5 . E / ^ x 3 f =                                           ",
"                                                    @ S y c t . ^ / / _ } z *                                           ",
"                                                    @ F y w i O { ^ ^ { } H *                                           ",
"                                                    @ q 4 x r . } { R / ( 1 @                                           ",
"                                                    + n m 6 4 X } ! R / ) z j =                                         ",
"                                                    @ 7 4 4 O . c ' ) ^ 8 i 6 @                                         ",
"                                                    @ 6 r r . O w w q u m 2 r +                                         ",
"                                                    = X X . O O u e F e e r 5 X *                                       ",
"                                                      @ X O O O . e q w 4 e r X b =                                     ",
"                                                      ; @ O O O . X l k u A O O z *                                     ",
"                                                        X $ $ . @   = @ . O T O t @                                     ",
"                                                = * =   X G P X         + O O O t -                                     ",
"                                                l z j X O h.p.+         @ y 9 u K +                                     ",
"                                                  i t t S S t j ;     : d i e ( D +                                     ",
"                                                r q D D v 5 r d =     : j 2 r 4 i @                                     ",
"                                                k 1 v k + @ k s ;     ; d w B 3 > =                                     ",
"                                                            * =         * * @ * *                                       ",
"                                                                                                                        ",
"                                                                                                                        ",
"                                                                                                                        ",
"                                                                                                                        "
};
