/* XPM */
static char *result[] = {
/* columns rows colors chars-per-pixel */
"60 60 240 2 ",
"   c #030303",
".  c #0A0405",
"X  c #04020A",
"o  c #0A030B",
"O  c #0A0C08",
"+  c #15090A",
"@  c #0C130A",
"#  c #0C1A0C",
"$  c #030213",
"%  c #060317",
"&  c #13051B",
"*  c #0E1417",
"=  c #181812",
"-  c #12110C",
";  c #270D11",
":  c #390B15",
">  c #36171A",
",  c #28100E",
"<  c #0C260C",
"1  c #142A13",
"2  c #172616",
"3  c #133414",
"4  c #193919",
"5  c #102B0F",
"6  c #29281B",
"7  c #34291B",
"8  c #283119",
"9  c #180628",
"0  c #130A27",
"q  c #2A1E20",
"w  c #22083E",
"e  c #1F292A",
"r  c #293B25",
"t  c #2C282C",
"y  c #440D1A",
"u  c #470D1A",
"i  c #4D131F",
"p  c #44151B",
"a  c #551918",
"s  c #601F1E",
"d  c #563714",
"f  c #4F2C14",
"g  c #6C3018",
"h  c #491623",
"j  c #5B1225",
"k  c #571626",
"l  c #520F20",
"z  c #69152C",
"x  c #67162C",
"c  c #6C1A33",
"v  c #463824",
"b  c #4D3029",
"n  c #673328",
"m  c #672435",
"M  c #77233C",
"N  c #632D25",
"B  c #1C441D",
"V  c #2E411C",
"C  c #1E4B21",
"Z  c #234523",
"A  c #2A4829",
"S  c #275428",
"D  c #37552D",
"F  c #2F5C31",
"G  c #325D34",
"H  c #3C5B36",
"J  c #344A2F",
"K  c #2E612E",
"L  c #336235",
"P  c #356438",
"I  c #3B643A",
"U  c #3C6B3D",
"Y  c #386538",
"T  c #357230",
"R  c #6B471B",
"E  c #79561B",
"W  c #714A15",
"Q  c #5B4723",
"!  c #465A36",
"~  c #545735",
"^  c #4B452D",
"/  c #694622",
"(  c #755627",
")  c #665C39",
"_  c #725030",
"`  c #48683C",
"'  c #526C3B",
"]  c #66653C",
"[  c #6C6E31",
"{  c #27095A",
"}  c #2A084E",
"|  c #340A65",
" . c #2A0A64",
".. c #3C3C47",
"X. c #7B2341",
"o. c #430D78",
"O. c #3F6D41",
"+. c #3F7141",
"@. c #615742",
"#. c #447445",
"$. c #527146",
"%. c #6E7154",
"&. c #757674",
"*. c #8C3315",
"=. c #891D3E",
"-. c #813225",
";. c #8C4A1D",
":. c #885827",
">. c #9B592A",
",. c #935837",
"<. c #8C4D2E",
"1. c #AC582C",
"2. c #9D7B2A",
"3. c #92743A",
"4. c #B96939",
"5. c #A77334",
"6. c #A54A1E",
"7. c #C46F3B",
"8. c #882747",
"9. c #9C244C",
"0. c #981E44",
"q. c #986B44",
"w. c #897C49",
"e. c #987943",
"r. c #977B57",
"t. c #976956",
"y. c #B87647",
"u. c #A67449",
"i. c #91665C",
"p. c #C57B48",
"a. c #2E852A",
"s. c #31892E",
"d. c #358D33",
"f. c #3C8C3B",
"g. c #378735",
"h. c #3C933A",
"j. c #389535",
"k. c #33912F",
"l. c #419B3E",
"z. c #5C8435",
"x. c #40A43D",
"c. c #7F8E3E",
"v. c #449541",
"b. c #459A43",
"n. c #4B9C49",
"m. c #57994E",
"M. c #599951",
"N. c #5B8C49",
"B. c #718D4E",
"V. c #46A444",
"C. c #4CAA4A",
"Z. c #4BA348",
"A. c #57AA55",
"S. c #5DB55B",
"D. c #59B455",
"F. c #52A84F",
"G. c #65A95A",
"H. c #6FAD5B",
"J. c #749D66",
"K. c #69AC64",
"L. c #64B462",
"P. c #6ABA67",
"I. c #72B96C",
"U. c #7AB876",
"Y. c #75A573",
"T. c #6CC269",
"R. c #78C575",
"E. c #9E8030",
"W. c #B29335",
"Q. c #8D8652",
"!. c #A88255",
"~. c #B28B4F",
"^. c #BDA44E",
"/. c #938B78",
"(. c #A9976C",
"). c #B4926C",
"_. c #95A468",
"`. c #94B76A",
"'. c #8BB272",
"]. c #AAB879",
"[. c #B7AE71",
"{. c #90A45C",
"}. c #D4854B",
"|. c #C58754",
" X c #D78D54",
".X c #D8935C",
"XX c #CC9055",
"oX c #E59557",
"OX c #E38E50",
"+X c #C1A545",
"@X c #DA9A64",
"#X c #C79A6D",
"$X c #E39C63",
"%X c #E59F65",
"&X c #C7A877",
"*X c #C5B476",
"=X c #DDAD75",
"-X c #EAA56C",
";X c #EBA469",
":X c #F2A668",
">X c #EAAC74",
",X c #F3AD71",
"<X c #EBB57B",
"1X c #FDB475",
"2X c #F2B47B",
"3X c #FCB779",
"4X c #FEBA7C",
"5X c #F8B375",
"6X c #91C77F",
"7X c #3B0D89",
"8X c #4C0E85",
"9X c #8D8D8C",
"0X c #A99982",
"qX c #85BB80",
"wX c #B3B1B2",
"eX c #B7B981",
"rX c #C9A987",
"tX c #D7B58B",
"yX c #C7A692",
"uX c #DCB896",
"iX c #D5A582",
"pX c #E7B789",
"aX c #F8BB82",
"sX c #E4BD97",
"dX c #87C783",
"fX c #8AD387",
"gX c #97D094",
"hX c #A6D5A5",
"jX c #FAC38B",
"kX c #E9C59A",
"lX c #F6C790",
"zX c #D8C8B8",
"xX c #E6CDAD",
"cX c #DBD9D7",
"vX c #D5D0CB",
"bX c #E7DDD3",
"nX c #E5D5C5",
"mX c #E6E1DD",
"MX c #E8E8E7",
"NX c None",
/* pixels */
"NXNXNXNXNXNXNXNXNXNXNXNXNXNXNXNXNXNXNXNXNXNXNXNXNXNXNXNXNXNXNXNXNXNXNXNXNXNXNXNXNXNXNXNXNXNXNXNXNXNXNXNXNXNXNXNXNXNXNXNX",
"NXNXNXNXNXNXNXNXNXNXNXNXNXNXNXNXNXNXNXNXNXNXNXNXNXNXNXNXNXNXNXNXNXNXNXNXNXNXNXNXNXNXNXNXNXNXNXNXNXNXNXNXNXNXNXNXNXNXNXNX",
"NXNXNXNXNXNXNXNXNXNXNXNXNXNXNXNXNXNXNXNXNXNXNXNXNXNXNXNXNXNXNXNXNXNXNXNXNXNXNXNXNXNXNXNXNXNXNXNXNXNXNXNXNXNXNXNXNXNXNXNX",
"NXNXNXNXNXNXNXNXNXNXNXNXNXNXNXNX7XNXNXNXNXNXNXNXNXNXNXNXNXNXNXNXNXNXNXNXNXNXNXNXNXNXNXNXNXNXNXNXNXNXNXNXNXNXNXNXNXNXNXNX",
"NXNXNXNXNXNXNXNXNXNXNXNXNXNXNXNX{ NXNXNXNXNXNXNXNXNXNXNXNXhXdXNXNXNXhXG.NXNXNXNXNXNXNXNXNXNXNXNXNXNXNXNXNXNXNXNXNXNXNXNX",
"NXNXNXNXNXNXNXNXNXNXNXNXNXNXNX8X9 NXNXNXNXNXNXNXNXNXNXR.R.fXU.'.R.R.fX6XdXdXNXNXNXhXNXNXNXNXNXNXNXNXNXNXNXNXNXNXNXNXNXNX",
"NXNXNXNXNXNXNXNXNXNXNXNXNXNXNXo.% NXNXNXNXNXNXNXgXU.P.C.C.T.T.D.V.D.T.T.S.D.S.R.fXdXY.NXNXNXNXNXNXNXNXNXNXNXNXNXNXNXNXNX",
"NXNXNXNXNXNXNXNXNXNXNXNXNXNXNX{ o % NXNXNXNXNXJ.dXR.L.j.d.Z.l.j.s.j.x.d.s.d.h.C.D.T.R.fXNXNXNXNXNXNXNXNXNXNXNXNXNXNXNXNX",
"NXNXNXNXNXNXNXNXNXNXNXNXNXNXNX| X % NXNXNXNXm.K.T.D.D.d.T T j.k.s.j.h.g.s.s.T a.k.V.S.R.fXdXNXNXNXNXNXNXNXNXNXNXNXNXNXNX",
"NXNXNXNXNXNXNXNXNXNXNXNXNXNXNX| o $ NXNXNXNXU.U.A.j.f.g.h.h.l.V.x.C.A.n.n.n.g.d.k.j.F.P.I.m.NXNXNXNXNXNXNXNXNXNXNXNXNXNX",
"NXNXNXNXNXNXNXNXNXNXNXNXNXNXNX .o X NXNXqXR.L.S.F.Z.M.I.`._.m.z.z.[ N.z.B.J._.'.G.Z.b.C.T.fXNXNXNXNXNXNXNXNXNXNXNXNXNXNX",
"NXNXNXNXNXNXNXNXNXNXNXNXNXNXNX{ X X NXNXNXL.l.f.G.].<XjXaX[.3..X:XOX>.Q.y.5.|.>X<X[.K.b.V.T.gXNXNXNXNXNXNXNXNXNXNXNXNXNX",
"NXNXNXNXNXNXNXNXNXNXNXNXNXNXNX{ %   NXNXK.L.C.F.[.jX4X4X1X@X:X4X1X1X:X}..X:X:X5X4XaX].S.h.F.I.U.NXNXNXNXNXNXNXNXNXNXNXNX",
"NXNXNXNXNXNXNXNXNXNXNXNXNXNXNX .&   % NXG.l.s.F.*X4X4X1X1X1X3X1X1X1X1X1X1X1X5X5X1X4XeXL.h.V.R.'.NXNXNXNXNXNXNXNXNXNXNXNX",
"NXNXNXNXNXNXNXNXNXNXNXNXNXNXNXNX9 . $ NXP.b.d.D.[.3X5X5X1X1X1X1X1X1X1X5X1X1X,X,X1X5XdXP.f.v.L.gXNXNXNXNXNXNXNXNXNXNXNXNX",
"NXNXNXNXNXNXNXNXNXNXNXNXNXNXNXNX} X * #.L.l.j.G.*X1X@X1X1X3X1X1X1X1X;X,X1X1X:X.X,X,X].I.f.v.P.U.NXNXNXNXNXNXNXNXNXNXNXNX",
"NXNXNXNXNXNXNXNXNXNXNXNXNXNXNXNX{ o % NXP.n.d._.4X-X-X3X3X1X1X1X1X1X.X-X1X1X-X-X-X1XaX_.Z.A.dXU.NXNXNXNXNXNXNXNXNXNXNXNX",
"NXNXNXNXNXNXNXNXNXNXNXNXNXNXNXNX| & X r G.F.d.{.2X>X-X-X3X1X1X1X1X1X@X,X1X1X.X$X>X,X3X`.v.G.fXNXNXNXNXNXNXNXNXNXNXNXNXNX",
"NXNXNXNXNXNXNXNXNXNXNXNXNXNXNXNXNX9 X * NXL.l.J.>XoXOX4.p.;X1XOXOXOX$X1X:Xp.1.p.%X1X2X`.L.P.P.NXNXNXNXNXNXNXNXNXNXNXNXNX",
"NXNXNXNXNXNXNXNXNXNXNXNXNXNXNXNXNX} o $ NXG.C.G.).t.t.<._ ,.y.1.4.p.4.p.<.*.6.1.>.$XaX'.L.M.NXNXNXNXNXNXNXNXNXNXNXNXNXNX",
"NXNXNXNXNXNXNXNXNXNXNXNXNXNXNXNXNX| + X NXB.M.M.rXsXvXzXzXyXp.7.y.aXOXp.u.,._ <.u.:X<XG.B.).NXNXNXNXNXNXNXNXNXNXNXNXNXNX",
"NXNXNXNXNXNXNXNXNXNXNXNXNXNXNXNXNXo.&   NXrX(.M.eXaXaX2X2X1X1X,X.X,XaX1X3X3X-X-X3XaX&XN.r.tXNXNXNXNXNXNXNXNXNXNXNXNXNXNX",
"NXNXNXNXNXNXNXNXNXNXNXNXNXNXNXNXNXNX9 . % uX&XQ.'.jXpXyXsXpXpX2X-X%X>XaXpXpXrXyXaXjX_.w.y.tXNXNXNXNXNXNXNXNXNXNXNXNXNXNX",
"NXNXNXNXNXNXNXNXNXNXNXNXNXNXNXNXNXNX} . % NX).!._.tXzXcXMXMXmXbXbXbXbXbXcXbXvXMXsXpX(.!.e.NXNXNXNXNXNXNXNXNXNXNXNXNXNXNX",
"NXNXNXNXNXNXNXNXNXNXNXNXNXNXNXNXNXNX{ o % NXNXNXrXrXxXxXbXMXMXMXMXMXMXMXmXcXnXzXkXtX!.( NXNXNXNXNXNXNXNXNXNXNXNXNXNXNXNX",
"NXNXNXNXNXNXNXNXNXNXNXNXNXNXNXNXNXNXo.9 X NXNXNXNXNXNXkXkXkXuXuXuXuXyXiXpXkXsXsXNXNXNXNXNXNXNXNXNXNXNXNXNXNXNXNXNXNXNXNX",
"NXNXNXNXNXNXNXNXNXNXNXNXNXNXNXNXNXNXNXt ^ @.NXNXNXNXNXNXNXNXpX<X.Xp. X@XNXNXNXNXNXNXNXNXNXNXNXNXNXNXNXNXNXNXNXNXNXNXNXNX",
"NXNXNXNXNXNXNXNXNXNXNXNXNXNXNXNXNXNXNX3.2.E R W / NXNXNXNXNXNXNXg *.a + NXNXNXNXNXNXNXNXNXNXNXNXNXNXNXNXNXNXNXNXNXNXNXNX",
"NXNXNXNXNXNXNXNXNXNXNXNXNXNXNXNXNX( W d g ;.*.g ,.NXNXNXNXD v g *.*.*.R J NXNXNXNXNXNXNXNX9XwXwXNXNXNXNXNXNXNXNXNXNXNXNX",
"NXNXNXNXNXNXNXNXNXNXNXNXNXNXNXNXNXNXNX>. X}.}.~.y.NXNXNXP G 5.oXOXoXOXe.F F +.NXNXNX4 4 NXNXNXNXNXNXNXNXNXNXNXNXNXNXNXNX",
"NXNXNXNXNXNXNXNXNXNXNXNXNXNXNXNXNXNXNX>X2X@X$X@Xq.) K K F ` XXoX}.oX|.$.S B F O.Z 1 2 # O 1 NXNXNXNXNXNXNXNXNXNXNXNXNXNX",
"NXNXNXNXNXNXNXNXNXNXNXNXNXNXNXNXNXNXNXNX2X%X@X}.3.B 3 S F ` }.1.6.7.e.P C # B Z O 2 A 2 # NXNXNXNXNXNXNXNXNXNXNXNXNXNXNX",
"NXNXNXNXNXNXNXNXNXNXNXNXNXNXNXNXNXNXNX#X.X Xy.q./ # 1 L F ` >.;.*.;.~ G S @ # @   Z U +.NXNXNXNXNXNXNXNXNXNXNXNXNXNXNXNX",
"NXNXNXNXNXNXNXNXNXNXNXNXNXNXNXNXNXNX%.lX@Xv q q * NXG P K ` !.XX@X$.G Y K 3 @ #   1 A S P NXNXNXNXNXNXNXNXNXNXNXNXNXNXNX",
"NXNXNXNXNXNXNXNXNXNXNXNXNX^.+X^.r.r [.jXQ.r e t 0 NXO.I L U B.E.' P G P P S # NXNXNX< 3 Z U NXNXNXNXNXNXNXNXNXNXNXNXNXNX",
"NXNXNXNXNXNXNXNXNXNXNXNXNX:.e.(././.aXoXn 4 e ..t A P ` ] [ z.! I G P P P K 5 NXNX5 C P U P O.NXNXNXNXNXNXNXNXNXNXNXNXNX",
"NXNXNXNXNXNXNXNXNXNXNXNXNXf d r.9X0Xr.b v @.v v ) [ D L L V S L L Y P $.U S 5   NXv ( Y K P #.NXNXNXNXNXNXNXNXNXNXNXNXNX",
"NXNXNXNXNXNXNXNXNXNXNXNX^.NXNXNXNX&.9X&.wX/.E 2.W.2.V V ~ ~ Z B B C ~ r.w.D 2 - ).>X|.7 4 NXNXNXNXNXNXNXNXNXNXNXNXNXNXNX",
"NXNXNXNXNXNXNXNXNXNXNX^.W.W.q.m NXNXNXNX%.r./ E W d , + , > > , + v y.7.p.;X~.r.5XNXNXNXNXNXNXNXNXNXNXNXNXNXNXNXNXNXNXNX",
"NXNXNXNXNXNXNXNXNXNXNXW W E / h k k e.q._ 3.2.[ > + , a i i x x j n ,.<.p.;X3X$Xt.NXNXNXNXNXNXNXNXNXNXNXNXNXNXNXNXNXNXNX",
"NXNXNXNXNXNXNXNXNXNXNXNXNXNXNX+ : > E n i / E.W.Q , y y i h x z j u a a y.oXy.g M NXNXNXNXNXNXNXNXNXNXNXNXNXNXNXNXNXNXNX",
"NXNXNXNXNXNXNXNXNXNXNXNXNXNXNXNXNXNXNXQ f d :.d , y l j k k 7 6 7 7 7 : s -.s y m NXNXNXNXNXNXNXNXNXNXNXNXNXNXNXNXNXNXNX",
"NXNXNXNXNXNXNXNXNXNXNXNXNXNXNXNXNXNXNXNXNX/ / p y a b > 2 3 3 3 B B B 8 j y u : b NXNXNXNXNXNXNXNXNXNXNXNXNXNXNXNXNXNXNX",
"NXNXNXNXNXNXNXNXNXNXNXNXNXNXNXNXNXNXNXNXNXNXNXr r B S ~ ) v r Z F L F 2 j u : : ; NXNXNXNXNXNXNXNXNXNXNXNXNXNXNXNXNXNXNX",
"NXNXNXNXNXNXNXNXNXNXNXNXNXNXNXNXNXNXNXNXNXNXNX` P L K D ! ! ! P P P S 5 > x u i : NXNXNXNXNXNXNXNXNXNXNXNXNXNXNXNXNXNXNX",
"NXNXNXNXNXNXNXNXNXNXNXNXNXNXNXNXNXNXNXNXNXNXNXJ U P P H #.H G P P F S S < i l x j l NXNXNXNXNXNXNXNXNXNXNXNXNXNXNXNXNXNX",
"NXNXNXNXNXNXNXNXNXNXNXNXNXNXNXNXNXNXNXNXNXNXNXJ U P P H ~ ~ H P P F P G B @ i z =.x j NXNXNXNXNXNXNXNXNXNXNXNXNXNXNXNXNX",
"NXNXNXNXNXNXNXNXNXNXNXNXNXNXNXNXNXNXm N NXn NXI P P P G G G G P P P P P S # + z 0.9.c j 8.NXNXNXNXNXNXNXNXNXNXNXNXNXNXNX",
"NXNXNXNXNXNXNXNXNXNXNXNXNXNXNXNXNX8.h NXNXM NXP G P G I @.$.~ P P P P P F 5   h 9.X.h ; l ; . NXNXNXNXNXNXNXNXNXNXNXNXNX",
"NXNXNXNXNXNXNXNXNXNXNXNXNXNXNXNXNXX.p NXM 8.NXU P P P P H ~ H G P P L P L 3   > > O     NXNXo NXNXNXNXNXNXNXNXNXNXNXNXNX",
"NXNXNXNXNXNXNXNXNXNXNXNXNXNXNXNXNXNXNXNXm 8.NXU P P P P ! #.H G P P P P L B 3 C C 4 3 NXNXNXNXNXNXNXNXNXNXNXNXNXNXNXNXNX",
"NXNXNXNXNXNXNXNXNXNXNXNXNXNXNXNXNXNXNXNXNXNXNXU P P P P ! ~ ~ H P P P P P L L P P P P U NXNXNXNXNXNXNXNXNXNXNXNXNXNXNXNX",
"NXNXNXNXNXNXNXNXNXNXNXNXNXNXNXNXNXNXNXNXNXNXNX#.U P P G G P G G P P P P P P P L H G O.+.NXNXNXNXNXNXNXNXNXNXNXNXNXNXNXNX",
"NXNXNXNXNXNXNXNXNXNXNXNXNXNXNXNXNXNXNXNXNXNXNXNXNXI 2 @ NXNX#.O.#.U O.+.NXr # @ 2 A NXNXNXNXNXNXNXNXNXNXNXNXNXNXNXNXNXNX",
"NXNXNXNXNXNXNXNXNXNXNXNXNXNXNXNXNXNXNXNXNXNXNXNXNXNX2   NXNXNXNXNXNXNXNXNXNX    r NXNXNXNXNXNXNXNXNXNXNXNXNXNXNXNXNXNXNX",
"NXNXNXNXNXNXNXNXNXNXNXNXNXNXNXNXNXNXNXNXNXNXNXNXNXJ =   NXNXNXNXNXNXNXNXNXNX  . 6 NXNXNXNXNXNXNXNXNXNXNXNXNXNXNXNXNXNXNX",
"NXNXNXNXNXNXNXNXNXNXNXNXNXNXNXNXNXNXNXNXNXNXJ r 8 - .   NXNXNXNXNXNXNXNXNXNX  . = r NXNXNXNXNXNXNXNXNXNXNXNXNXNXNXNXNXNX",
"NXNXNXNXNXNXNXNXNXNXNXNXNXNXNXNXNXNXNXNXNXNXO O   NXNXNXNXNXNXNXNXNXNXNXNXNX  - + = $.NXNXNXNXNXNXNXNXNXNXNXNXNXNXNXNXNX",
"NXNXNXNXNXNXNXNXNXNXNXNXNXNXNXNXNXNXNXNXNXNXNXNXNXNXNXNXNXNXNXNXNXNXNXNXNXNXNXNXNXNXNXNXNXNXNXNXNXNXNXNXNXNXNXNXNXNXNXNX",
"NXNXNXNXNXNXNXNXNXNXNXNXNXNXNXNXNXNXNXNXNXNXNXNXNXNXNXNXNXNXNXNXNXNXNXNXNXNXNXNXNXNXNXNXNXNXNXNXNXNXNXNXNXNXNXNXNXNXNXNX"
};
