/* XPM */
static char *efc9ec6fabb04d1ce5c96b1104d21103HfmKi82z0bDd5ZUJ[] = {
/* columns rows colors chars-per-pixel */
"60 60 227 2 ",
"   c None",
".  c #030302",
"X  c #0C0402",
"o  c #040B02",
"O  c #0A0A03",
"+  c #03040C",
"@  c #0A050B",
"#  c #030A0C",
"$  c #0B0A0B",
"%  c #130202",
"&  c #1C0200",
"*  c #120B01",
"=  c #180809",
"-  c #011401",
";  c #001B00",
":  c #00110D",
">  c #001C0C",
",  c #151305",
"<  c #040314",
"1  c #0A0513",
"2  c #020A13",
"3  c #0B0915",
"4  c #02041A",
"5  c #0A021C",
"6  c #030B1B",
"7  c #0B0E1C",
"8  c #120A12",
"9  c #130518",
"0  c #011214",
"q  c #061419",
"w  c #101211",
"e  c #230500",
"r  c #250900",
"t  c #2D0200",
"y  c #330004",
"u  c #010223",
"i  c #020B23",
"p  c #02032C",
"a  c #030A2A",
"s  c #0A0826",
"d  c #03122A",
"f  c #000134",
"g  c #02033C",
"h  c #080737",
"j  c #001438",
"k  c #1F3823",
"l  c #253729",
"z  c #460402",
"x  c #551703",
"c  c #560D0E",
"v  c #650800",
"b  c #741911",
"n  c #563511",
"m  c #682B00",
"M  c #792906",
"N  c #6C2F0F",
"B  c #721D22",
"V  c #563337",
"C  c #4A382D",
"Z  c #6E2426",
"A  c #015300",
"S  c #005D03",
"D  c #085705",
"F  c #145600",
"G  c #114918",
"H  c #0D4F11",
"J  c #284F0D",
"K  c #006400",
"L  c #006C00",
"P  c #007300",
"I  c #176100",
"U  c #154730",
"Y  c #214521",
"T  c #795802",
"R  c #755111",
"E  c #497B18",
"W  c #64721D",
"Q  c #7A4E3E",
"!  c #755838",
"~  c #6D582B",
"^  c #010243",
"/  c #030A42",
"(  c #04044B",
")  c #2E3A4D",
"_  c #353C4E",
"`  c #2D3858",
"'  c #323C5C",
"]  c #373E52",
"[  c #1B3D62",
"{  c #263B65",
"}  c #443E4C",
"|  c #2B434A",
" . c #374249",
".. c #364157",
"X. c #29405F",
"o. c #284666",
"O. c #324569",
"+. c #3A4070",
"@. c #414046",
"#. c #6C5249",
"$. c #467650",
"%. c #444A76",
"&. c #4F5571",
"*. c #842C00",
"=. c #864E04",
"-. c #944E08",
";. c #8C5701",
":. c #985300",
">. c #815317",
",. c #895323",
"<. c #875832",
"1. c #9D7925",
"2. c #A27D24",
"3. c #887A71",
"4. c #199A17",
"5. c #0B9D0F",
"6. c #2B9618",
"7. c #30931B",
"8. c #0BA804",
"9. c #0DA419",
"0. c #15A118",
"q. c #14A40E",
"w. c #1A9E21",
"e. c #298B2D",
"r. c #298E3C",
"t. c #30952D",
"y. c #38884B",
"u. c #298343",
"i. c #498152",
"p. c #7B8457",
"a. c #7E8176",
"s. c #77A564",
"d. c #AC8100",
"f. c #BD9230",
"g. c #A4A73C",
"h. c #CC9215",
"j. c #CDA005",
"k. c #C8942A",
"l. c #C88C38",
"z. c #DC9733",
"x. c #D18F32",
"c. c #848247",
"v. c #BA9A4B",
"b. c #B78D5B",
"n. c #B89753",
"m. c #B1924F",
"M. c #BA9362",
"N. c #AB916B",
"B. c #99A263",
"V. c #A7A37E",
"C. c #B8A270",
"Z. c #C78A4A",
"A. c #C5985A",
"S. c #CE8D46",
"D. c #C4956E",
"F. c #FBDA56",
"G. c #FBD969",
"H. c #FFD878",
"J. c #FAE275",
"K. c #F2E062",
"L. c #B69996",
"P. c #B1978F",
"I. c #8CB99A",
"U. c #98A899",
"Y. c #A5A789",
"T. c #A6A299",
"R. c #9B9EAC",
"E. c #979BA8",
"W. c #9A9DBA",
"Q. c #8F95B0",
"!. c #AA9AA9",
"~. c #A39CB5",
"^. c #B49BAE",
"/. c #9BA1A5",
"(. c #9AA7A9",
"). c #93B4A6",
"_. c #9DA3B3",
"`. c #99A7B5",
"'. c #8FA9A6",
"]. c #A6A6A4",
"[. c #A4A5B2",
"{. c #A5A7B8",
"}. c #C29D8A",
"|. c #FFDB84",
" X c #FBD889",
".X c #FCDB97",
"XX c #E4DC95",
"oX c #D4F898",
"OX c #FFE188",
"+X c #FEE291",
"@X c #E5F085",
"#X c #D8DDB4",
"$X c #FBD9A3",
"%X c #ECD8B4",
"&X c #CAECA0",
"*X c #F4EAAB",
"=X c #9B9CCB",
"-X c #979CC8",
";X c #8F93D3",
":X c #9A9CD3",
">X c #9A9BDE",
",X c #969AD6",
"<X c #A29ED0",
"1X c #9BA3C9",
"2X c #9AA1D5",
"3X c #A3A8C8",
"4X c #A2A3D3",
"5X c #A4A5DC",
"6X c #989BE7",
"7X c #9A9FF1",
"8X c #99A2E5",
"9X c #A2A2E7",
"0X c #D2FFDA",
"qX c #FFFCCD",
"wX c #FFFED4",
"eX c #FFFBDC",
"rX c #F0E8C4",
"tX c #DCFFE7",
"yX c #FDFAE7",
"uX c #EDFEFD",
"iX c #ECF3F7",
"pX c #F6FCF5",
"aX c #FDFFF5",
"sX c #F4F6FF",
"dX c #FBF6FF",
"fX c #F5FCFF",
"gX c #FCFDFE",
/* pixels */
"                                                                                                                        ",
"                                                                                                                        ",
"                                                                                                                        ",
"                                                            g p f f f f p /                                             ",
"                                                    u s u s gXfXgXgXfXgXgXgXW.-X2X                                      ",
"                                                f u gXgXgXfXgXgXgXaXgXgXfXgXfXgXfX-X>X                                  ",
"                                            h i gXgXgXfXfXfXgXgXgXaXgXgXgXgXgXgXgXgXgX3X,X                              ",
"                                          u aXeXwXwXV.Y.Y.Y.{.~.gXfXgXgXgXgXgXgXgXgXgXgXgX1X>X                          ",
"                                        O * , G.F.F.F.F.K.XX_.>X,X4XgXfXgXfXgXfXgXgXgXgXgXfXgX:X                        ",
"                                      7 XXJ.F.d.j.j.h.f.T ~         :XW.gXgXsXgXgXgXgXgXgXsXgXsXsX                      ",
"                                    @ %X1.k.h.h.k.>.#.                  6X<XgXgXgXgXgXgXgXgXsXgXfXfX                    ",
"                                  5 * r k.G.z.-.<.                          4XsXgXgXgXgXgXgXgXgXgXgXfX                  ",
"                                = ~ n.|.G.z.=.Q                               5XgXgXgXgXgXT.gXaXgXgXgXfX                ",
"                                % n.|.H.k.T Q         j 0 0 d p j               4XfXgXgXgXgX].gXgXfXgXgXfX              ",
"                                & A.H.k.k.<.      d ; u.S r.S y.G > 6             :XgXgXgXgXfX[.gXgXgXgXgXsX            ",
"                              u e R l.J.T &     6 H e.L w.L 4.K t.A y.0             :XfXgXgXgXgX~.gXgXpXgXgXfX          ",
"                            # p.V.e ;.H.T &     ; e.w.9.0.q.8.8.L 4.K y.i             >XfXfXfXgXR.[.gXgXgXgXgX          ",
"                            o #Xa.X R A.b.*   a y.K 0.P 9.5.8.8.q.5.4.S q               1XfXgXgXgX[.sXgXgXgXgXdX        ",
"                              p ^   % #.% * 5 : S 4.L L P 9.L 0.L 4.L r.U /               =XgXgXgXR._.gXgXgXgXgX        ",
"                                      5 1 1 < - r.L 6.K 6.K 4.K 6.S 6.S -                 6XgXgXgXfX_.gXgXgXgXgXdX      ",
"                                        p 4 6 - S 4.S F @Xg.F 7.A I D D U a                 -XgXgXgX{.E.gXgXgXgXgX      ",
"                                          p 3X- D A D J |.f.@XJ oXoXE s.0                   5XfXgXgXgX_.gXgXgXgXgXsX    ",
"                                          h %.`.; J &XW v.t v.+X.X*XB.-                     ;XfXgXgXgX[./.gXgXgXgXsX    ",
"                                          f 1X_./.* *XT m.*Xt Z..X.X& @                       -XgXgXgX/.[.gXgXgXgXgX    ",
"                  7X                    ^ &._./.T.e l.l..XqX& r |.Z.& 8                       :XgXgXgXgXR.gXgXgXgXgXsX  ",
"                  sX6X                  f `.gXgXaXN.:.z.$X%XrX%X.Xm.! 5                       ,XgXgXgXgX_.W.gXgXgXgXdX  ",
"                    fX2X              ^ 3XgXgXgXpXqX:.x.$XyXaXyXwX}.9                         9XgXgXpXiX3X-XgXgXgXgXfX  ",
"                    fX1X              s C yXgXgX(.yXn.=.$Xe & r n #.f                         -XgXgXgXgX  4XgXgXgXgXfX  ",
"                      sX7X            C n.n.gX&.pXaXeX<.Z.M *.x b.,                         5XgXgXdXgXsX  4XfXgXgXgXfX  ",
"                        sX6X        C C.v.n.* /.fXpXgXP.,.S.x.S.R *                         Q.gXgXgXfX    :XfXgXaXgXfX  ",
"                          sX;X    V M..XwXY.k ).I.uX/.[.X #.~ r %                           3XfXgXgXdX    :XgXaXaXgXfX  ",
"                            dX~.^.P..Xm.- tXI.G $.).`.4 } % & %X%X1                       8XsXgXgXfX        fXgXaXgXfX  ",
"                              gX~.!.N., F e.0XtX'.`.6 9 y c B z 3.4                       1XsXgXfXfX        gXgXgXsXfX  ",
"                            V P.gX].Y.o D t.D i.uXfXR.!.Z B c y 9                       =XgXgXfXfX        gXgXgXfXgXsX  ",
"                          V D.$X$XeXY.U.; G G $.Y l gXgXgX!.!.                      >X-XfXfXsXfX        =XfXgXpXgXgX    ",
"                        V b..X Xn.& O fX(.> ; ; - - + _ | uXfX1X:X9X          6X>X:XfXsXgXgXgX            gXpXgXgXsX    ",
"                      9 M.|.OX.Xm n % 7 uXuX'.- - o q 2 : | | fXfXsXfX:X1XW.1XfXfXfXsXfXfX              fXpXgXgXgXfX    ",
"                ^ h s C n.OXH.OX.XD.% 4 ..) fX(./.0 + 2 . 0 6 6 ....' fXfXuXfXfXfXfXsX                  gXgXgXgXfX      ",
"            + O gXdXdXC ,.l.H.;.=.$XX ..# :  .gXgXR.R.7 6 4 4 6 # 6 ' ' 4 d                           fXiXgXgXfXfX      ",
"          p #XqXT.^.}.t m -.x.l.A.& 3 _ 0 o + + 1 gXgXE.[.{.5 1 # # i ....u (                       gXgXgXfXgXfX        ",
"          h #Xc.L.e z v v z ,.! % 1 O.o...6 + @ + # # gXgXgX~.~.[.+ i i ..p g                 ,X-XgXfXgXgXfXdX          ",
"            X * e x b b B c & . 6 O.o.o.` + 1 8 < 7 4 6 # fXgXgXgX(._.W.W.4 h           6X2X-XfXfXfXgXgXfXfX            ",
"              X H.m M c = 1 ) +.O.{ [ o.6 0 @ + u g     h i + X gXgXgXgXgX].[.R.=X=X-X4XfXfXfXfXsXsXfXfX                ",
"              8  X2.t & _ o.O.{ { O.X.i 2 + s h             3 O X X 3 gXiXgXfXgXfXgXgXfXgXgXgXfXfX                      ",
"            f 1 O o @.] ' i d 4 4 < 4 4 < 4 ^               a 1 $ $ @ @ , . gXdXfXsXsXfXsX                              ",
"            u ] ] 6 6 6 6 6 < + @ 8 + 3 5 h               / u 1 @ . @ $ $ 4                                             ",
"        p i i ..3 + + # . $ @ 8 $ + $ 4 f                 p 5 $ . w $ + s g                                             ",
"      f 2 : 6 _ + $ $ . $ O X @ + 6 s f                   h 1 O O . 2 4 f                                               ",
"    f i  .2 # # + w . . $ . O # u /                         + O O + 4 p g                                               ",
"    p _ 2 2 2 3 4 4 4 7 4 s 4 p                           f 7 o $ . 4                                                   ",
"  ^ +.' 6 2 4 p   ^ g f (                               g s . O O $ w 4 p                                               ",
"  f %.u 2 2 4                                           f 4 3 # . o . # 6 f                                             ",
"  g ` i 2 2 6                                           g p p 4 7 o o o + a                                             ",
"  ^ h a 6 4 a f                                           g (   p a 4 4 i f                                             ",
"    g h f f f (                                                                                                         ",
"                                                                                                                        ",
"                                                                                                                        ",
"                                                                                                                        ",
"                                                                                                                        ",
"                                                                                                                        "
};
