/* XPM */
static char *result[] = {
/* columns rows colors chars-per-pixel */
"60 60 235 2 ",
"   c #090A08",
".  c #120E0D",
"X  c #1E1C1B",
"o  c #181715",
"O  c #211E1C",
"+  c #1F201D",
"@  c #27211D",
"#  c #2A2926",
"$  c #332824",
"%  c #36332E",
"&  c #353433",
"*  c #3B3B3B",
"=  c #3A3733",
"-  c #2E302D",
";  c #44332D",
":  c #453E3A",
">  c #523D36",
",  c #3D422C",
"<  c #44423C",
"1  c #4A433C",
"2  c #5A4939",
"3  c #54523C",
"4  c #5C6939",
"5  c #3F3F40",
"6  c #444444",
"7  c #4B4642",
"8  c #4D4B46",
"9  c #4B4B4A",
"0  c #474648",
"q  c #544C42",
"w  c #594C43",
"e  c #5C5244",
"r  c #5A544B",
"t  c #5B5C5A",
"y  c #575655",
"u  c #4F4F50",
"i  c #625444",
"p  c #6B5D4C",
"a  c #685747",
"s  c #735D49",
"d  c #655A56",
"f  c #745E53",
"g  c #664D42",
"h  c #77634A",
"j  c #647A46",
"k  c #686057",
"l  c #7C6C53",
"z  c #756656",
"x  c #776D56",
"c  c #636363",
"v  c #6A6A69",
"b  c #776E67",
"n  c #7D746C",
"m  c #75716E",
"M  c #737473",
"N  c #7C7B75",
"B  c #7A7A78",
"V  c #6F716F",
"C  c #54695D",
"Z  c #833B2C",
"A  c #8D4939",
"S  c #AE4936",
"D  c #AC4C3A",
"F  c #AA4937",
"G  c #AE523D",
"H  c #915745",
"J  c #AA5845",
"K  c #B05D45",
"L  c #A84E41",
"P  c #816546",
"I  c #846C4C",
"U  c #88654C",
"Y  c #87704F",
"T  c #816B52",
"R  c #8A6652",
"E  c #857252",
"W  c #897553",
"Q  c #8A7956",
"!  c #8B7B59",
"~  c #88765B",
"^  c #9C7A54",
"/  c #947D5B",
"(  c #967757",
")  c #976C4D",
"_  c #B1654C",
"`  c #AA735C",
"'  c #B57759",
"]  c #AE6951",
"[  c #83736A",
"{  c #867967",
"}  c #967E64",
"|  c #887A73",
" . c #917D77",
".. c #826F69",
"X. c #B37662",
"o. c #548D37",
"O. c #589439",
"+. c #4D8036",
"@. c #638839",
"#. c #669A3F",
"$. c #75A03F",
"%. c #649646",
"&. c #6B854F",
"*. c #6BA245",
"=. c #76AB4E",
"-. c #7B8A71",
";. c #598842",
":. c #9C825D",
">. c #819053",
",. c #88B656",
"<. c #978467",
"1. c #8A857C",
"2. c #8B8579",
"3. c #95827B",
"4. c #98897A",
"5. c #9E947A",
"6. c #879169",
"7. c #A48B64",
"8. c #A3886A",
"9. c #B98A6A",
"0. c #A38C73",
"q. c #B98975",
"w. c #A79579",
"e. c #BA9676",
"r. c #AC9768",
"t. c #8AAA68",
"y. c #BDA774",
"u. c #CFA559",
"i. c #C19D7A",
"p. c #C28E67",
"a. c #CAB069",
"s. c #C9965F",
"d. c #93C265",
"f. c #A3CA6A",
"g. c #DFC37B",
"h. c #E8C66B",
"j. c #858583",
"k. c #8B8C8A",
"l. c #8A8883",
"z. c #8E918D",
"x. c #93918C",
"c. c #979586",
"v. c #8F9390",
"b. c #939493",
"n. c #9B9D9A",
"m. c #989B96",
"M. c #918F83",
"N. c #AB9B86",
"B. c #A99D92",
"V. c #BD9688",
"C. c #9EA29B",
"Z. c #ADA489",
"A. c #B6A787",
"S. c #ABA296",
"D. c #ADA59A",
"F. c #A7A59A",
"G. c #B0A79B",
"H. c #B3AA9D",
"J. c #B6AA99",
"K. c #BDB09F",
"L. c #A2A5A1",
"P. c #A5AAA5",
"I. c #ABAAA4",
"U. c #AAAEAA",
"Y. c #A7A9A8",
"T. c #B4ACA3",
"R. c #B7AEA4",
"E. c #AEB2AD",
"W. c #BCB2A5",
"Q. c #B3B2AC",
"!. c #BDB5AB",
"~. c #BCB6AB",
"^. c #B4B5B2",
"/. c #BAB6B2",
"(. c #B5BAB4",
"). c #BBBBB6",
"_. c #BBBCBA",
"`. c #C9B48C",
"'. c #C9BB98",
"]. c #C9AE98",
"[. c #C2B4A5",
"{. c #C4BAAC",
"}. c #CABDAE",
"|. c #C6BAA7",
" X c #C5BDB4",
".X c #CABEB1",
"XX c #C2BEBC",
"oX c #BEC2BE",
"OX c #D2C49B",
"+X c #D2C393",
"@X c #D5CBA6",
"#X c #D8D4A6",
"$X c #CEC2B3",
"%X c #C2C2BD",
"&X c #CCC5BA",
"*X c #CBC8BE",
"=X c #D1C4B4",
"-X c #D2C7B9",
";X c #D4CABC",
":X c #DCCCB4",
">X c #C1BFC0",
",X c #BFC5C0",
"<X c #C3C5C1",
"1X c #C4CAC4",
"2X c #CCCDCA",
"3X c #CBC9C4",
"4X c #D5CDC3",
"5X c #D8CFC2",
"6X c #D2CECA",
"7X c #CDD2CC",
"8X c #DBD2C5",
"9X c #D3D2CC",
"0X c #DCD5CB",
"qX c #D0DBCE",
"wX c #D3D5D2",
"eX c #D5DBD5",
"rX c #DBDAD6",
"tX c #DBDDDA",
"yX c #D8D7D6",
"uX c #E0D8CD",
"iX c #E1DEDA",
"pX c #DDE3DD",
"aX c #E3E2DE",
"sX c #EAE6DC",
"dX c #DFE4E0",
"fX c #E3E4E2",
"gX c #E4EBE4",
"hX c #EBEDEA",
"jX c #E9EAE6",
"kX c #EAF2EB",
"lX c #EFF0F1",
"zX c #F2F2F2",
"xX c #FEFEFE",
"cX c #F0F0EE",
"vX c None",
/* pixels */
"vXvXvXvXvXvXvXvXvXvXvXvXvXvXvXvXvXvXvXvXvXvXvXvXvXvXvXvXvXvXvXvXvXvXvXvXvXvXvXvXvXvXvXvXvXvXvXvXvXvXvXvXvXvXvXvXvXvXvXvX",
"vXvXvXvXvXvXvXvXvXvXvXvXvXvXvXvXvXvXvXvXvXvXvXvXvXvXvXvXvXvXvXvXvXvXvXvXvXvXvXvXvXvXvXvXvXvXvXvXvXvXvXvXvXvXvXvXvXvXvXvX",
"vXvXvXvXvXvXvXvXvXvXvXvXvXvXvXvXvXvXvXvXvXvXvXvXvXvXvXvXvXvXvXvXvXvXvXvXvXvXvXvXvXvXvXvXvXvXvXvXvXvXvXvXvXvXvXvXvXvXvXvX",
"vXvXvXvXvXvXvXvXvXvXvXvXvXvXvXvXvXvXvXvXvXvXvXvXvXvXvXvXvXvXvXvX1 o vXvXo @ # X vXvXvXvXvXvXvXvXvXvXvXvXvXvXvXvXvXvXvXvX",
"vXvXvXvXvXvXvXvXvXvXvXvXvXvXvXvXvXvXvXvXvXvXvXvXvXvXvXvXvXvXvXvXe o * 2 s q & vXvXvXvXvXvXvXvXvXvXvXvXvXvXvXvXvXvXvXvXvX",
"vXvXvXvXvXvXvXvXvXvXvXvXvXvXvXvXvXvXvXvXvXvXvXvXvXvXvXvXvXvXvXvXvX. O 1.F.& . vXvXvXvXvXvXvXvXvXvXvXvXvXvXvXvXvXvXvXvXvX",
"vXvXvXvXvXvXvXvXvXvXvXvXvXvXvXvXvXvXvXvXvXvXvXvXvXvXvXvXvXvXvXvXi . & V B 7 + vXvXvXvXvXvXvXvXvXvXvXvXvXvXvXvXvXvXvXvXvX",
"vXvXvXvXvXvXvXvXvXvXvXvXvXvXvXvXvXvXvXvXvXvXvXvXvXvXvXvXvXvXvXvX> o O X vXvXo vXvXvXvXvXvXvXvXvXvXvXvXvXvXvXvXvXvXvXvXvX",
"vXvXvXvXvXvXvXvXvXvXvXvXvXvXvXvXvXvXvXvXvXvXvXvXvXvXvXvXvXz f g 2 ; $ vXvXvXvXvXvXvXvXvXvXvXvXvXvXvXvXvXvXvXvXvXvXvXvXvX",
"vXvXvXvXvXvXvXvXvXvXvXvXvXvXvXvXvXvXvXvXvXvXvXvXvXvXvXvXvXf g > ; ; $ $ vXvXvXvXvXvXvXvXvXvXvXvXvXvXvXvXvXvXvXvXvXvXvXvX",
"vXvXvXvXvXvXvXvXvXvXvXvXvXvXvXvXvXvXvXvXvXvXvXvXvXvXvXvXvX1 ; $ @ 2 2 s ( ! ( E / ~ ! ~ / } { } <.<.} 0.7.7.~ vXvXvXvXvX",
"vXvXvXvXvXvXvXvXvXvXvXvXvXvXvXvXvXvXvXvXvXvXvXvXvXvXT / W ! ( s f  .<.N.S.R.vXvXvXT.{.!. X[.{.{.~.W.[.{.[.R.vXvXvXvXvXvX",
"vXvXvXvXvXvXvXvXvXvXvXvXvXvXvXvXvXvXvXvX7.:.:.7./ <.<.N.B.{.T.W..X8X8X0X4X8X5X4X;X3X&X;X=X}.=X=X$X[.$X=X}.vXvXvXvXvXvXvX",
"vXvXvXvXvXvXvXvXvXvXvXvXvXvXvX/ 7.7.:.<.0.4.Z.[.W..X-X-X;X$X X4X5XuXuXuX5X0X8X4X4XhX6X-X}..X=X=XW.$X$X$XH.vXvXvXvXvXvXvX",
"vXvXvXvXvXvXvXvXvXvXvXvXvXvX<.8.e.A.J.|..X[.%X$X}.$X:X;X&X].|.'.'.:X0XuX5X8X0XaXhXzXfX.X|.-X=X}.}.=X$X[.vXvXvXvXvXvXvXvX",
"vXvXvXvXvXvXvXvXvXvXvXvXvXvXvXW. X.X=X=X=XXXjX&X{..X;X=XA.a.h.h.h.+X'.5XyXhXcXiX6X4XyX.X=X-X=X}.-X$X{.vXvXvXvXvXvXvXvXvX",
"vXvXvXvXvXvXvXvXvXvXvXvXvXvXvX}.$X$X}.=X}.iXfXiX X.X=Xy.u.u.s.s.p.p.i.].sX0X;X.X5X;X-X=X-X-X=X=X=X.XvXvXvXvXvXvXvXvXvXvX",
"vXvXvXvXvXvXvXvXvXvXvXvXvXvXvX}.=X.X}.=X$X{..X4XaX9Xq.) ' 7.p.`.].}.:X:X+X].'..X8X5X;X;X-X-X=X=X=XvXvXvXvXvXvXvXvXvXvXvX",
"vXvXvXvXvXvXvXvXvXvXvXvXvXvXvXW.|.}.}.=X=X|.$X=X{.}.8.A.].0XsXrXn.b.yXjX:X8X8X5X5X5X-X;X-X=X=X=X}.vXvXvXvXvXvXvXvXvXvXvX",
"vXvXvXvXvXvXvXvXvXvXvXvXvXvX3. .4.B.|.$X$X$X}.`.a.r.-Xx.c b.lXB.t c U.aXuXuX8X5X5X;X=X;X=X.X=X=XvXvXvXvXvXvXvXvXvXvXvXvX",
"vXvXvXvXvXvXn 3.F.vXvXvXvX3. . . .M.J..X=X=X|.].K.G.3Xt 6 B tXXXj.b.yX0XuX8X4X5X5X-X-X;X}.$X-Xc.- vXvXvXvXvXvXvXvXvXvXvX",
"vXvXvXvXvXvXx.6XgXgXeX2XQ. . .|  . .S.=X=X.X}.=XH.{.4X^.L._.j.yXlXaX9X0XuX8X4X5X5X-X;X;X$X-X}.7 X vXvXvXvX{ w.vXvXvXvXvX",
"vXvXvXvXvXvX7XkXkXkX2XM <XT.| ..[  .V..X=X=X}.[.[..X.X6XfXrX<XyXaXiXyX5XuX8X4X8X4X;X;X-X-X-XB.O O vXvXvX5.A J vXvXvXvXvX",
"vXvXvXvXvXC.pXkXkXkXpXE.1X2X[ .. . .W..X=X.X[.[.-X.X6X2X>XXX_.>X>X>XaXiX0X8X.X5X;X;X;X;X-X=Xb vXvXvXvXZ.e.F vXvXvXvXvXvX",
"vXvXvXvXvXeXdXeXgXkXkXaXgXqXn ..| B.|.}.=X}.G.$X=X.X>XD././._.>X_././.yXrX4X4X5X;X;X;X;X-X$XvXvX} H ` @X' D vXvXvXvXvXvX",
"vXvXvXvXvXkXfX7XkXgXkXgXkX1XvX| S.}..X}.=XR.W..X{.>XI.I._._./.>X>X>XT./.6XyX3X4X;X4X;X-X-XK.0.Z.J S i.`.D L vXvXvXvXvXvX",
"vXvXvXvXvXpXkX7XpXeXpXpXqX(.vXvX}.}..X}.[.[.{.R.XXT.D.Q.6X2X6X6XwX>XQ.W./.2XfXhX6X;X-X-X&X0.OXOXJ K OX' S vXvXvXvXvXvXvX",
"vXvXvXvXvX(.7XpXgXpXpX7X(.L.vXvX[.=X=X|.J.{.6X/./.B.G.T.2X2X7X7X2X/.W./.!.Q.rXiX&X4X&X&X].] #X9.S i.+XG D vXvXvXvXvXvXvX",
"vXvXvXvXvXvX,XdXgXpXeXE.P.E.C.vXvX.X=XJ.|..XXX3X/.G.D.T.I./.>X/.T.R.!.!./.Q.>X X;X;X&X;Xq.9.#X_ G @X9.S vXvXvXvXvXvXvXvX",
"vXvXvXvXvXvXvXvXvXvXvXP.E.E.L.vXvX|.[.[.=X.XG.T./.G.B.H.T.D.T.T.T.!./.{.{.T.T.!.;X;X-X-XX.'.`.S ' #X_ D vXvXvXvXvXvXvXvX",
"vXvXvXvXvXvXvXvXvXvXvXE.1XeX2XvXvXvXD.=X}.W.G.S.B.G.D.D.T.G.T.T.T./.!.{.!.T.W.T.$X;X-X}.` #X9.S i.'.D D vXvXvXvXvXvXvXvX",
"vXvXvXvXvXvXvXvXvXvXvXvXkXkXpXvXvXvXR.}..XJ.G.G.B.D.D.S.vX<.R a [ T.R./.!.T.W.I.{.&X*X].X.#X_ S +Xi.D vXvXvXvXvXvXvXvXvX",
"vXvXvXvXvXvXvXvXvXvXvX1XfXkXpXvXE.<X<X*X*X).R.H.F.vXvXvXvX/ Y a g vXvXB.W.T.!.I.W..X-XV.9.@XK G #X' S vXvXvXvXvXvXvXvXvX",
"vXvXvXvXvXvXvXvXvXvXE.L.pXkXgX7Xm.vXvXm.P.F.E.oX1X7XvXvXvXp i w r vXvXt.t.F.!.D.W.!.3Xq.9.@XG _ #X] D vXvXvXvXvXvXvXvXvX",
"vXvXvXvXvXvXvXvX(.n.vXeXgXkXkXkXpXvXvXvXW.S.vXvXm.L.^.oX(.J.<.T &.vXvXf.d.t.F.D.T.W.-XX.i.+XD ' #XK D vXvXvXvXvXvXvXvXvX",
"vXvXvXvXvXvXvXE.b.vX2XgXgXeX7XgXkXeXvXvXT.vXvXvXvXvXvXvX).1X5.( >.f.d.,.=.%.=.B.R.T.$XJ 7.A.F ' @XK D vXvXvXvXvXvXvXvXvX",
"vXvXvXvXvXvXvXz.vXvXpXgXE.m.C.oXkXgX7XvX2X7XvXvXvXvXvXvXoXI.z e j =.,.#.O.=.=.t.D.T.[.A ) w.Z ^ OXG G vXvXvXvXvXvXvXvXvX",
"vXvXvXvXvXvXx.k.vXU.pX1XP.7XdXqXeXkXpXvXeXkXgXpXeXwXC.V E.5.^ T j =.%.O.$.*.*.#.6.D.J.A R w.Z U A.K vXvXvXvXvXvXvXvXvXvX",
"vXvXvXvXvXvXvXL.,XU.1.-.z.(.U.P.m.eXkXeXeXoX7XeXpXaXgXeX7Xz.h ( j %.%.o.O.o.o.o.%.c.G.s R <.Z R w.A vXvXvXvXvXvXvXvXvXvX",
"vXvXvXvXvXvXvX7X7XN X < r 8 * - + j.kXpXdX4.{ { | m C.oXeXeXB v -.%.+.@.@.4 o.#.;.;.c.vXvXvXvXvX5.A vXvXvXvXvXvXvXvXvXvX",
"vXvXvXvXvXvXvX(.{ k   # r % % - X - 7XgXdX%X7.E a e l b (.oXV 0 z.qXC.x g g g d e 8 j vXvXvXvXvXvXvXvXvXvXvXvXvXvXvXvXvX",
"vXvXvXvXvXvXvXz W 1.8 u < % @ + .   -.hXpXgXZ.e * p p | <XN e a M ).qX4X .f d d a < = j vXvXvXvXvXvXvXvXvXvXvXvXvXvXvXvX",
"vXvXvXvXvXvXvXP 0.9XN @ @ = % # o . - 1XjXpXaX| q ! e d t l <.Q N 5...U.Q.d C t f w : : vXvXvXvXvXvXvXvXvXvXvXvXvXvXvXvX",
"vXvXvXvXvXvXvXh N.gXc - t -.k.m.n.C.L.(.pXeXwXtXx.n : z 2.r.r.! 1.N.{ _.T.b d f n m d 7 vXvXM vXvXvXvXvXvXvXvXvXvXvXvXvX",
"vXvXvXvXvXvXvXz H.pXj.U.7XqXeXqXE.E.Y.C.k.Y.(.).Y.(.c i l <.<.l j.w.<.oXY.l.f ..U.P.m.x.vXvXM M vXvXvXvXvXvXvXvXvXvXvXvX",
"vXvXvXvXvXvXvXvX1XoXV M E.dXpX7X6 6 9 6 6 t v M c V u 6 r 9 q = l.2.M.Q.L.B f | P.1.| b.Y.n.v.k.b.vXvXvXvXvXvXvXvXvXvXvX",
"vXvXvXvXvXvXvXvXpX-.& 6 v.kXkXpXu 6 0 0 6 0 6 * & * 5 6 q 8 0 - k.t u k -.v.1.1.L.1.{ ~ E x.^.v.j.vXvXvXvXvXvXvXvXvXvXvX",
"vXvXvXvXvXvXvXvXB 5 * 0 M gXkXkXv 5 0 6 0 6 5 5 * 5 5 6 : 8 0 = b.u 9 0 0 9 t v z.1.3.~ h h x.U.k.vXvXvXvXvXvXvXvXvXvXvX",
"vXvXvXvXvXvXvXvXvX6 6 6 t eXkXkXz.e h x p i e e q 7 < < * * 6 0 m.u 9 0 0 9 5 * 6 t -.z P P { | B vXvXvXvXvXvXvXvXvXvXvX",
"vXvXvXvXvXvXvXvXvX6 8 i z %XkXkXU.l 7.7.>.W Q Q ~ ~ ~ l x p e r j.5 < 6 6 0 6 5 = * M u > w [ a 9 vXvXvXvXvXvXvXvXvXvXvX",
"vXvXvXvXvXvXvXvXvXvXI ^ ^ J.kXkX2Xh 7.:.W Q Q Q Q >.<.! ! Q Q ! { h p i 3 1 * = * * M 6 * 5 v : vXvXvXvXvXvXvXvXvXvXvXvX",
"vXvXvXvXvXvXvXvXvXvXW ^ ^ 0.aXkXaXb :.:.W W Q Q Q Q Q ! Q Q Q Q Q Q W W Y l h p e q N * & 0 c - vXvXvXvXvXvXvXvXvXvXvXvX",
"vXvXvXvXvXvXvXvXvXvXvX^ ` / 3XkXkXx.I :.W E Q Q ! >.( ! ! ! Q Q W W Y W Y Y Y I P I T s 2 i t vXvXvXvXvXvXvXvXvXvXvXvXvX",
"vXvXvXvXvXvXvXvXvXvXvXW :.:.Z.jXkX%Xp :.! <.Q Q W ! ! ! ! Q Q W Q W W E Y Y I I Y P P P P P s vXvXvXvXvXvXvXvXvXvXvXvXvX",
"vXvXvXvXvXvXvXvXvXvXvXvX%X|.0.7XkXgXn l vXH.T Q 4.J.Q.! ! Q Q Q W E E Y Y Y Y I I I P P P P vXvXvXvXvXvXvXvXvXvXvXvXvXvX",
"vXvXvXvXvXvXvXvXvXvXvXvXzXxXiX2XqXpXvXvXvXpX X3XkXxXqXQ Q Q E E E W Y I I I I I I I P P P h vXvXvXvXvXvXvXvXvXvXvXvXvXvX",
"vXvXvXvXvXvXvXvXvXvXvXjXxXxXxXxXxXxXxXxXxXxXxXxXxXxXxX&XvX{ vXvXl l h vXvXvXh p h l l h z vXvXvXvXvXvXvXvXvXvXvXvXvXvXvX",
"vXvXvXvXvXvXvXvXvXvXvXtXdXfXjXhXhXlXzXlXzXzXzXzXzXzXlXgXvXvXvXvXvXvXvXvXvXvXvXvXvXvXvXvXvXvXvXvXvXvXvXvXvXvXvXvXvXvXvXvX",
"vXvXvXvXvXvXvXvXvXvXvXvXvXvXvXvXvXvXvXvXvXvXvXvXvXvXvXvXvXvXvXvXvXvXvXvXvXvXvXvXvXvXvXvXvXvXvXvXvXvXvXvXvXvXvXvXvXvXvXvX",
"vXvXvXvXvXvXvXvXvXvXvXvXvXvXvXvXvXvXvXvXvXvXvXvXvXvXvXvXvXvXvXvXvXvXvXvXvXvXvXvXvXvXvXvXvXvXvXvXvXvXvXvXvXvXvXvXvXvXvXvX"
};
